<svg width="34" height="35" viewBox="0 0 34 35" fill="none" xmlns="http://www.w3.org/2000/svg">
<g clip-path="url(#clip0_2715_19884)">
<path d="M6.67732 10.5982L6.32799 11.3995C6.07236 11.9862 5.26089 11.9862 5.00525 11.3995L4.65596 10.5982C4.03333 9.16925 2.91189 8.03158 1.51253 7.4092L0.4364 6.93056C-0.145466 6.67175 -0.145466 5.82498 0.4364 5.56617L1.45237 5.11428C2.8877 4.47589 4.02924 3.29612 4.64117 1.81867L4.99987 0.952673C5.24985 0.349109 6.08341 0.349109 6.33339 0.952673L6.69208 1.81867C7.30401 3.29612 8.44557 4.47589 9.88097 5.11428L10.8968 5.56617C11.4788 5.82498 11.4788 6.67175 10.8968 6.93056L9.82073 7.4092C8.42139 8.03158 7.29991 9.16925 6.67732 10.5982ZM4.34011 31.1187C5.7921 22.3478 8.94065 3.32849 29.75 3.32849C27.6309 7.57849 26.2083 9.70349 24.7917 11.1202L23.375 12.5368L25.5 13.9535C24.0833 18.2035 19.8333 23.1618 14.1667 23.8702C10.3862 24.3426 8.0243 26.94 7.08084 31.6618H4.25C4.27938 31.4856 4.30936 31.3044 4.34011 31.1187Z" fill="url(#paint0_linear_2715_19884)"/>
</g>
<defs>
<linearGradient id="paint0_linear_2715_19884" x1="14.875" y1="0.5" x2="14.875" y2="31.6618" gradientUnits="userSpaceOnUse">
<stop stop-color="#2552F4"/>
<stop offset="1" stop-color="#66A6FF"/>
</linearGradient>
<clipPath id="clip0_2715_19884">
<rect width="34" height="34" fill="white" transform="translate(0 0.5)"/>
</clipPath>
</defs>
</svg>
