<svg width="34" height="28" viewBox="0 0 34 28" fill="none" xmlns="http://www.w3.org/2000/svg">
<path d="M0.818924 2.32575C7.1015 0.537956 11.9394 3.32177 16.4182 7.2502C21.0261 11.292 23.6123 16.4038 24.4482 22.7404C21.7445 20.4813 19.8115 17.4816 15.9369 16.2908C16.3612 17.0682 16.4658 17.5298 16.7524 17.7431C19.7295 19.9599 22.1269 22.7211 24.2909 25.7122C24.5648 26.0908 24.8561 26.473 25.2047 26.7779C26.1532 27.6071 27.0277 27.5181 27.801 26.5426C27.992 26.3016 28.1438 26.022 28.276 25.7419C29.5299 23.0847 30.8145 20.4496 33.1446 18.472C30.2507 18.2534 28.7257 20.0975 27.4237 22.3266C26.5074 19.7189 25.8563 17.2258 24.7827 14.9311C21.6276 8.18776 16.678 3.27242 9.50171 1.04276C7.63323 0.462222 5.52731 0.506285 3.53712 0.54382C2.11193 0.570653 1.81605 0.97896 0.818924 2.32575Z" fill="#2F2F2F"/>
</svg>
