<svg width="24" height="24" viewBox="0 0 24 24" fill="none" xmlns="http://www.w3.org/2000/svg">
<path d="M9.85975 21.3765L10.5995 23.0735C11.1407 24.3159 12.8591 24.3159 13.4006 23.0735L14.1401 21.3765C15.4586 18.3506 17.8334 15.9414 20.7968 14.6234L23.0759 13.6098C24.308 13.0618 24.308 11.2686 23.0759 10.7205L20.9243 9.7636C17.8847 8.41171 15.4673 5.91337 14.1716 2.78468L13.412 0.950779C12.8825 -0.327343 11.1173 -0.327343 10.5881 0.950779L9.82855 2.78468C8.53255 5.91337 6.11515 8.41171 3.07555 9.7636L0.924257 10.7205C-0.308142 11.2686 -0.308142 13.0618 0.924257 13.6098L3.20305 14.6234C6.16645 15.9414 8.54125 18.3506 9.85975 21.3765Z" fill="url(#paint0_linear_1410_37459)"/>
<defs>
<linearGradient id="paint0_linear_1410_37459" x1="66.8571" y1="0.420759" x2="8.57144" y2="63.8492" gradientUnits="userSpaceOnUse">
<stop stop-color="#2552F4"/>
<stop offset="1" stop-color="#66A6FF"/>
</linearGradient>
</defs>
</svg>
