<svg width="163" height="119" viewBox="0 0 163 119" fill="none" xmlns="http://www.w3.org/2000/svg">
<mask id="mask0_2782_20571" style="mask-type:alpha" maskUnits="userSpaceOnUse" x="0" y="0" width="163" height="119">
<path d="M78.2764 9.90289C78.5937 9.32658 79.0598 8.84599 79.6262 8.51128C80.1926 8.17657 80.8384 8 81.4963 8C82.1542 8 82.8 8.17657 83.3664 8.51128C83.9328 8.84599 84.399 9.32658 84.7163 9.90289L106.418 51.1006C106.935 52.0545 107.658 52.882 108.533 53.5237C109.408 54.1654 110.415 54.6054 111.48 54.812C112.545 55.0186 113.643 54.9868 114.695 54.7188C115.747 54.4508 116.726 53.9532 117.563 53.2619L149.005 26.3261C149.608 25.8352 150.352 25.5484 151.129 25.5071C151.906 25.4658 152.676 25.6721 153.328 26.0963C153.981 26.5205 154.481 27.1407 154.759 27.8676C155.036 28.5945 155.075 29.3907 154.871 30.1415L134.037 105.465C133.612 107.006 132.696 108.367 131.428 109.34C130.159 110.314 128.608 110.848 127.009 110.861H35.9907C34.3905 110.85 32.8377 110.317 31.568 109.343C30.2983 108.369 29.381 107.007 28.9553 105.465L8.12861 30.1488C7.92461 29.3981 7.9641 28.6019 8.24139 27.875C8.51868 27.148 9.01948 26.5279 9.67169 26.1037C10.3239 25.6795 11.0939 25.4732 11.8708 25.5145C12.6477 25.5558 13.3915 25.8425 13.9951 26.3334L45.43 53.2692C46.2666 53.9606 47.2459 54.4581 48.2975 54.7261C49.3492 54.9941 50.4472 55.026 51.5126 54.8194C52.578 54.6127 53.5845 54.1728 54.4597 53.5311C55.335 52.8894 56.0573 52.0619 56.5748 51.1079L78.2764 9.90289Z" fill="black" stroke="black" stroke-width="14.7029" stroke-linecap="round" stroke-linejoin="round"/>
</mask>
<g mask="url(#mask0_2782_20571)">
<rect x="-3.37891" y="-14.7659" width="170.744" height="136.595" fill="url(#paint0_linear_2782_20571)"/>
</g>
<defs>
<linearGradient id="paint0_linear_2782_20571" x1="81.9931" y1="-14.7659" x2="81.9931" y2="121.829" gradientUnits="userSpaceOnUse">
<stop stop-color="white"/>
<stop offset="1" stop-color="#DADADA"/>
</linearGradient>
</defs>
</svg>
