<svg width="20" height="21" viewBox="0 0 20 21" fill="none" xmlns="http://www.w3.org/2000/svg">
<path d="M4.16797 17.9999H15.8346M9.63421 3.22156C9.67018 3.15623 9.72303 3.10176 9.78723 3.06382C9.85143 3.02587 9.92464 3.00586 9.99922 3.00586C10.0738 3.00586 10.147 3.02587 10.2112 3.06382C10.2754 3.10176 10.3282 3.15623 10.3642 3.22156L12.8242 7.89156C12.8829 7.9997 12.9648 8.0935 13.064 8.16625C13.1632 8.23899 13.2773 8.28886 13.398 8.31228C13.5188 8.3357 13.6433 8.33209 13.7625 8.30171C13.8817 8.27133 13.9927 8.21493 14.0875 8.13656L17.6517 5.08323C17.7201 5.02758 17.8044 4.99508 17.8925 4.9904C17.9806 4.98572 18.0679 5.0091 18.1418 5.05718C18.2157 5.10527 18.2725 5.17557 18.3039 5.25797C18.3354 5.34037 18.3398 5.43062 18.3167 5.51573L15.955 14.0541C15.9068 14.2288 15.803 14.383 15.6592 14.4934C15.5155 14.6038 15.3396 14.6643 15.1584 14.6657H4.84088C4.65949 14.6645 4.48347 14.604 4.33954 14.4937C4.19561 14.3833 4.09163 14.2289 4.04338 14.0541L1.68255 5.51656C1.65942 5.43146 1.6639 5.34121 1.69533 5.25881C1.72676 5.1764 1.78353 5.1061 1.85746 5.05802C1.9314 5.00993 2.01868 4.98655 2.10675 4.99123C2.19482 4.99591 2.27913 5.02841 2.34755 5.08406L5.91088 8.1374C6.00571 8.21576 6.11672 8.27216 6.23593 8.30254C6.35515 8.33293 6.47961 8.33653 6.60038 8.31311C6.72115 8.28969 6.83524 8.23982 6.93446 8.16708C7.03367 8.09434 7.11555 8.00053 7.17421 7.8924L9.63421 3.22156Z" stroke="url(#paint0_linear_2235_14595)" stroke-width="1.66667" stroke-linecap="round" stroke-linejoin="round"/>
<defs>
<linearGradient id="paint0_linear_2235_14595" x1="1.5" y1="3" x2="16.5" y2="18.5" gradientUnits="userSpaceOnUse">
<stop stop-color="#2552F4"/>
<stop offset="1" stop-color="#66A6FF"/>
</linearGradient>
</defs>
</svg>
