<svg width="18" height="17" viewBox="0 0 18 17" fill="none" xmlns="http://www.w3.org/2000/svg">
<path d="M6.42871 9C8.10783 9.00019 9.53589 10.0735 10.0654 11.5713H16.7139C17.4239 11.5713 18 12.1473 18 12.8574C17.9998 13.5673 17.4238 14.1426 16.7139 14.1426H10.0654C9.536 15.6406 8.10797 16.7137 6.42871 16.7139C4.74924 16.7139 3.32049 15.6407 2.79102 14.1426H1.28613C0.576171 14.1426 0.000192722 13.5673 0 12.8574C0 12.1473 0.576052 11.5713 1.28613 11.5713H2.79102C3.32059 10.0733 4.74938 9 6.42871 9ZM6.42773 10.668C5.21853 10.668 4.23828 11.6482 4.23828 12.8574C4.23828 14.0666 5.21853 15.0469 6.42773 15.0469C7.63694 15.0469 8.61719 14.0666 8.61719 12.8574C8.61719 11.6482 7.63694 10.668 6.42773 10.668ZM11.5713 0C13.2506 0 14.6794 1.07332 15.209 2.57129H16.7139C17.4239 2.57129 18 3.14734 18 3.85742C17.9998 4.56734 17.4238 5.14258 16.7139 5.14258H15.209C14.6795 6.64074 13.2508 7.71387 11.5713 7.71387C9.89203 7.71367 8.464 6.6406 7.93457 5.14258H1.28613C0.576172 5.14258 0.000193238 4.56734 0 3.85742C0 3.14734 0.576052 2.57129 1.28613 2.57129H7.93457C8.46411 1.07347 9.89217 0.000193382 11.5713 0ZM11.5723 1.66797C10.3631 1.66797 9.38281 2.64822 9.38281 3.85742C9.38281 5.06662 10.3631 6.04688 11.5723 6.04688C12.7815 6.04688 13.7617 5.06662 13.7617 3.85742C13.7617 2.64822 12.7815 1.66797 11.5723 1.66797Z" fill="black"/>
</svg>
