<svg width="780" height="659" viewBox="0 0 780 659" fill="none" xmlns="http://www.w3.org/2000/svg">
<rect width="780" height="658.349" rx="38.1651" fill="white"/>
<path d="M65.1459 575.063C65.0314 574.662 64.8788 574.357 64.688 574.147C64.5162 573.918 64.3063 573.765 64.0582 573.689C63.8102 573.594 63.4953 573.546 63.1136 573.546H62.7415V572.344H70.6131V573.546H69.9547C69.3823 573.546 68.9529 573.661 68.6667 573.89C68.3804 574.099 68.2373 574.443 68.2373 574.92C68.2373 575.015 68.2468 575.12 68.2659 575.235C68.285 575.349 68.3136 575.464 68.3518 575.578C68.39 575.693 68.4281 575.826 68.4663 575.979L71.0997 585.139C71.2714 585.711 71.4241 586.284 71.5577 586.856C71.7103 587.41 71.8535 587.953 71.987 588.488C72.1206 589.022 72.2351 589.518 72.3305 589.976C72.4832 589.232 72.6549 588.421 72.8457 587.543C73.0366 586.646 73.256 585.74 73.5041 584.824L76.9103 572.544H78.9713L82.5492 584.938C82.7401 585.568 82.9118 586.188 83.0645 586.799C83.2171 587.39 83.3507 587.963 83.4652 588.516C83.5988 589.051 83.7037 589.537 83.7801 589.976C83.8755 589.518 83.9804 589.051 84.0949 588.574C84.2094 588.077 84.3335 587.562 84.467 587.028C84.6006 586.474 84.7533 585.892 84.925 585.282L87.4439 576.437C87.5012 576.208 87.568 575.941 87.6443 575.636C87.7206 575.33 87.7588 575.101 87.7588 574.949C87.7588 574.452 87.5966 574.099 87.2722 573.89C86.9669 573.661 86.4993 573.546 85.8696 573.546H85.2113V572.344H92.1955V573.546H91.6516C91.2891 573.546 90.9742 573.603 90.707 573.718C90.459 573.813 90.2395 574.023 90.0487 574.347C89.8579 574.672 89.667 575.149 89.4762 575.779L84.6388 592.781H82.0626L77.3969 576.752L73.0175 592.781H70.3841L65.1459 575.063ZM98.9594 593.067C96.8794 593.067 95.2479 592.381 94.0647 591.007C92.9007 589.633 92.3187 587.705 92.3187 585.225C92.3187 582.553 92.8721 580.54 93.9789 579.185C95.0857 577.83 96.6504 577.153 98.6732 577.153C100.524 577.153 101.974 577.725 103.024 578.87C104.093 580.015 104.627 581.723 104.627 583.994V585.31H95.0952C95.1334 586.703 95.3147 587.839 95.6391 588.717C95.9635 589.594 96.431 590.243 97.0416 590.663C97.6714 591.064 98.4442 591.264 99.3602 591.264C100.028 591.264 100.62 591.169 101.135 590.978C101.669 590.787 102.127 590.539 102.509 590.234C102.91 589.928 103.224 589.604 103.453 589.261C103.587 589.318 103.711 589.432 103.825 589.604C103.94 589.776 103.997 589.986 103.997 590.234C103.997 590.615 103.816 591.026 103.453 591.465C103.091 591.903 102.537 592.285 101.793 592.61C101.049 592.915 100.104 593.067 98.9594 593.067ZM101.736 583.765C101.736 582.753 101.631 581.866 101.421 581.103C101.23 580.339 100.906 579.748 100.448 579.328C99.9899 578.908 99.3792 578.698 98.6159 578.698C97.9099 578.698 97.3088 578.899 96.8126 579.299C96.3356 579.681 95.9539 580.244 95.6677 580.988C95.4005 581.732 95.2288 582.658 95.1525 583.765H101.736ZM114.278 593.067C112.198 593.067 110.566 592.381 109.383 591.007C108.219 589.633 107.637 587.705 107.637 585.225C107.637 582.553 108.19 580.54 109.297 579.185C110.404 577.83 111.969 577.153 113.991 577.153C115.842 577.153 117.293 577.725 118.342 578.87C119.411 580.015 119.945 581.723 119.945 583.994V585.31H110.413C110.452 586.703 110.633 587.839 110.957 588.717C111.282 589.594 111.749 590.243 112.36 590.663C112.99 591.064 113.762 591.264 114.678 591.264C115.346 591.264 115.938 591.169 116.453 590.978C116.987 590.787 117.445 590.539 117.827 590.234C118.228 589.928 118.543 589.604 118.772 589.261C118.905 589.318 119.029 589.432 119.144 589.604C119.258 589.776 119.315 589.986 119.315 590.234C119.315 590.615 119.134 591.026 118.772 591.465C118.409 591.903 117.856 592.285 117.111 592.61C116.367 592.915 115.423 593.067 114.278 593.067ZM117.054 583.765C117.054 582.753 116.949 581.866 116.739 581.103C116.548 580.339 116.224 579.748 115.766 579.328C115.308 578.908 114.697 578.698 113.934 578.698C113.228 578.698 112.627 578.899 112.131 579.299C111.654 579.681 111.272 580.244 110.986 580.988C110.719 581.732 110.547 582.658 110.471 583.765H117.054ZM121.896 592.781V591.579H122.125C122.564 591.579 122.955 591.531 123.299 591.436C123.661 591.341 123.947 591.15 124.157 590.863C124.367 590.558 124.472 590.11 124.472 589.518V574.176C124.472 573.603 124.358 573.183 124.129 572.916C123.919 572.63 123.633 572.449 123.27 572.372C122.927 572.277 122.545 572.229 122.125 572.229H121.896V571.027H127.163V582.076C127.163 582.324 127.153 582.648 127.134 583.049C127.134 583.45 127.125 583.851 127.106 584.251C127.087 584.652 127.067 584.996 127.048 585.282C127.048 585.549 127.048 585.683 127.048 585.683L130.626 581.761C131.046 581.303 131.361 580.921 131.571 580.616C131.8 580.292 131.962 580.025 132.058 579.815C132.153 579.586 132.201 579.385 132.201 579.214C132.201 578.965 132.086 578.813 131.857 578.756C131.628 578.679 131.275 578.641 130.798 578.641V577.439H137.124V578.641C136.8 578.641 136.475 578.698 136.151 578.813C135.826 578.927 135.502 579.099 135.178 579.328C134.853 579.557 134.519 579.843 134.176 580.187C133.832 580.511 133.47 580.883 133.088 581.303L131.084 583.564L134.891 589.232C135.235 589.728 135.559 590.157 135.865 590.52C136.189 590.863 136.532 591.131 136.895 591.321C137.258 591.493 137.649 591.579 138.069 591.579H138.154V592.781H137.754C136.933 592.781 136.246 592.753 135.693 592.695C135.139 592.638 134.672 592.524 134.29 592.352C133.928 592.161 133.575 591.884 133.231 591.522C132.907 591.14 132.544 590.634 132.143 590.005L129.281 585.511L127.163 587.085V589.661C127.163 590.215 127.268 590.634 127.478 590.921C127.707 591.188 127.993 591.369 128.336 591.465C128.699 591.541 129.09 591.579 129.51 591.579H129.596V592.781H121.896ZM153.575 593.067C152.01 593.067 150.732 592.629 149.739 591.751C148.747 590.873 148.012 589.642 147.535 588.058C147.077 586.474 146.848 584.623 146.848 582.505C146.848 580.387 147.077 578.546 147.535 576.981C148.012 575.416 148.747 574.204 149.739 573.346C150.732 572.487 152.02 572.058 153.603 572.058C155.092 572.058 156.332 572.487 157.325 573.346C158.317 574.204 159.052 575.426 159.529 577.01C160.025 578.574 160.273 580.416 160.273 582.534C160.273 584.652 160.025 586.503 159.529 588.087C159.032 589.652 158.288 590.873 157.296 591.751C156.323 592.629 155.082 593.067 153.575 593.067ZM153.575 591.522C154.262 591.522 154.844 591.321 155.321 590.921C155.798 590.52 156.18 589.938 156.466 589.175C156.752 588.392 156.962 587.448 157.096 586.341C157.229 585.215 157.296 583.946 157.296 582.534C157.296 581.122 157.229 579.862 157.096 578.756C156.981 577.649 156.771 576.714 156.466 575.95C156.18 575.187 155.798 574.605 155.321 574.204C154.863 573.804 154.29 573.603 153.603 573.603C152.897 573.603 152.306 573.804 151.829 574.204C151.352 574.605 150.961 575.187 150.655 575.95C150.369 576.714 150.159 577.649 150.026 578.756C149.892 579.862 149.825 581.122 149.825 582.534C149.825 583.946 149.892 585.215 150.026 586.341C150.159 587.448 150.369 588.392 150.655 589.175C150.941 589.938 151.323 590.52 151.8 590.921C152.296 591.321 152.888 591.522 153.575 591.522Z" fill="#767676" fill-opacity="0.5"/>
<path d="M351.387 575.063C351.273 574.662 351.12 574.357 350.929 574.147C350.757 573.918 350.548 573.765 350.299 573.689C350.051 573.594 349.737 573.546 349.355 573.546H348.983V572.344H356.854V573.546H356.196C355.623 573.546 355.194 573.661 354.908 573.89C354.622 574.099 354.479 574.443 354.479 574.92C354.479 575.015 354.488 575.12 354.507 575.235C354.526 575.349 354.555 575.464 354.593 575.578C354.631 575.693 354.669 575.826 354.708 575.979L357.341 585.139C357.513 585.711 357.665 586.284 357.799 586.856C357.952 587.41 358.095 587.953 358.228 588.488C358.362 589.022 358.476 589.518 358.572 589.976C358.724 589.232 358.896 588.421 359.087 587.543C359.278 586.646 359.497 585.74 359.745 584.824L363.152 572.544H365.212L368.79 584.938C368.981 585.568 369.153 586.188 369.306 586.799C369.458 587.39 369.592 587.963 369.706 588.516C369.84 589.051 369.945 589.537 370.021 589.976C370.117 589.518 370.222 589.051 370.336 588.574C370.451 588.077 370.575 587.562 370.708 587.028C370.842 586.474 370.994 585.892 371.166 585.282L373.685 576.437C373.742 576.208 373.809 575.941 373.885 575.636C373.962 575.33 374 575.101 374 574.949C374 574.452 373.838 574.099 373.513 573.89C373.208 573.661 372.741 573.546 372.111 573.546H371.452V572.344H378.437V573.546H377.893C377.53 573.546 377.215 573.603 376.948 573.718C376.7 573.813 376.481 574.023 376.29 574.347C376.099 574.672 375.908 575.149 375.717 575.779L370.88 592.781H368.304L363.638 576.752L359.259 592.781H356.625L351.387 575.063ZM385.201 593.067C383.121 593.067 381.489 592.381 380.306 591.007C379.142 589.633 378.56 587.705 378.56 585.225C378.56 582.553 379.113 580.54 380.22 579.185C381.327 577.83 382.892 577.153 384.914 577.153C386.765 577.153 388.216 577.725 389.265 578.87C390.334 580.015 390.868 581.723 390.868 583.994V585.31H381.336C381.375 586.703 381.556 587.839 381.88 588.717C382.205 589.594 382.672 590.243 383.283 590.663C383.913 591.064 384.685 591.264 385.601 591.264C386.269 591.264 386.861 591.169 387.376 590.978C387.91 590.787 388.368 590.539 388.75 590.234C389.151 589.928 389.466 589.604 389.695 589.261C389.828 589.318 389.952 589.432 390.067 589.604C390.181 589.776 390.238 589.986 390.238 590.234C390.238 590.615 390.057 591.026 389.695 591.465C389.332 591.903 388.779 592.285 388.034 592.61C387.29 592.915 386.346 593.067 385.201 593.067ZM387.977 583.765C387.977 582.753 387.872 581.866 387.662 581.103C387.471 580.339 387.147 579.748 386.689 579.328C386.231 578.908 385.62 578.698 384.857 578.698C384.151 578.698 383.55 578.899 383.054 579.299C382.577 579.681 382.195 580.244 381.909 580.988C381.642 581.732 381.47 582.658 381.394 583.765H387.977ZM400.519 593.067C398.439 593.067 396.807 592.381 395.624 591.007C394.46 589.633 393.878 587.705 393.878 585.225C393.878 582.553 394.432 580.54 395.538 579.185C396.645 577.83 398.21 577.153 400.233 577.153C402.084 577.153 403.534 577.725 404.583 578.87C405.652 580.015 406.186 581.723 406.186 583.994V585.31H396.655C396.693 586.703 396.874 587.839 397.199 588.717C397.523 589.594 397.99 590.243 398.601 590.663C399.231 591.064 400.004 591.264 400.92 591.264C401.588 591.264 402.179 591.169 402.694 590.978C403.229 590.787 403.687 590.539 404.068 590.234C404.469 589.928 404.784 589.604 405.013 589.261C405.146 589.318 405.27 589.432 405.385 589.604C405.499 589.776 405.557 589.986 405.557 590.234C405.557 590.615 405.375 591.026 405.013 591.465C404.65 591.903 404.097 592.285 403.353 592.61C402.608 592.915 401.664 593.067 400.519 593.067ZM403.295 583.765C403.295 582.753 403.19 581.866 402.981 581.103C402.79 580.339 402.465 579.748 402.007 579.328C401.549 578.908 400.939 578.698 400.175 578.698C399.469 578.698 398.868 578.899 398.372 579.299C397.895 579.681 397.513 580.244 397.227 580.988C396.96 581.732 396.788 582.658 396.712 583.765H403.295ZM408.137 592.781V591.579H408.366C408.805 591.579 409.196 591.531 409.54 591.436C409.902 591.341 410.189 591.15 410.399 590.863C410.608 590.558 410.713 590.11 410.713 589.518V574.176C410.713 573.603 410.599 573.183 410.37 572.916C410.16 572.63 409.874 572.449 409.511 572.372C409.168 572.277 408.786 572.229 408.366 572.229H408.137V571.027H413.404V582.076C413.404 582.324 413.395 582.648 413.375 583.049C413.375 583.45 413.366 583.851 413.347 584.251C413.328 584.652 413.309 584.996 413.29 585.282C413.29 585.549 413.29 585.683 413.29 585.683L416.868 581.761C417.287 581.303 417.602 580.921 417.812 580.616C418.041 580.292 418.203 580.025 418.299 579.815C418.394 579.586 418.442 579.385 418.442 579.214C418.442 578.965 418.327 578.813 418.098 578.756C417.869 578.679 417.516 578.641 417.039 578.641V577.439H423.365V578.641C423.041 578.641 422.716 578.698 422.392 578.813C422.068 578.927 421.743 579.099 421.419 579.328C421.094 579.557 420.76 579.843 420.417 580.187C420.073 580.511 419.711 580.883 419.329 581.303L417.326 583.564L421.133 589.232C421.476 589.728 421.8 590.157 422.106 590.52C422.43 590.863 422.774 591.131 423.136 591.321C423.499 591.493 423.89 591.579 424.31 591.579H424.396V592.781H423.995C423.174 592.781 422.487 592.753 421.934 592.695C421.381 592.638 420.913 592.524 420.531 592.352C420.169 592.161 419.816 591.884 419.472 591.522C419.148 591.14 418.785 590.634 418.385 590.005L415.522 585.511L413.404 587.085V589.661C413.404 590.215 413.509 590.634 413.719 590.921C413.948 591.188 414.234 591.369 414.578 591.465C414.94 591.541 415.331 591.579 415.751 591.579H415.837V592.781H408.137ZM434.549 592.781V591.579H436.467C436.906 591.579 437.297 591.531 437.641 591.436C438.003 591.341 438.289 591.15 438.499 590.863C438.709 590.558 438.814 590.11 438.814 589.518V574.491C438.337 575.082 437.889 575.607 437.469 576.065C437.049 576.504 436.648 576.847 436.267 577.095C435.885 577.343 435.503 577.467 435.122 577.467C434.702 577.467 434.358 577.324 434.091 577.038C433.824 576.752 433.691 576.38 433.691 575.922C434.072 575.826 434.463 575.702 434.864 575.55C435.265 575.378 435.704 575.149 436.181 574.863C436.677 574.557 437.24 574.176 437.87 573.718L439.873 572.229H441.705V589.518C441.705 590.11 441.81 590.558 442.02 590.863C442.23 591.15 442.516 591.341 442.879 591.436C443.241 591.531 443.633 591.579 444.052 591.579H445.455V592.781H434.549Z" fill="#767676" fill-opacity="0.5"/>
<path d="M637.622 575.063C637.507 574.662 637.354 574.357 637.164 574.147C636.992 573.918 636.782 573.765 636.534 573.689C636.286 573.594 635.971 573.546 635.589 573.546H635.217V572.344H643.089V573.546H642.43C641.858 573.546 641.428 573.661 641.142 573.89C640.856 574.099 640.713 574.443 640.713 574.92C640.713 575.015 640.722 575.12 640.742 575.235C640.761 575.349 640.789 575.464 640.827 575.578C640.866 575.693 640.904 575.826 640.942 575.979L643.575 585.139C643.747 585.711 643.9 586.284 644.033 586.856C644.186 587.41 644.329 587.953 644.463 588.488C644.596 589.022 644.711 589.518 644.806 589.976C644.959 589.232 645.131 588.421 645.321 587.543C645.512 586.646 645.732 585.74 645.98 584.824L649.386 572.544H651.447L655.025 584.938C655.216 585.568 655.387 586.188 655.54 586.799C655.693 587.39 655.826 587.963 655.941 588.516C656.074 589.051 656.179 589.537 656.256 589.976C656.351 589.518 656.456 589.051 656.571 588.574C656.685 588.077 656.809 587.562 656.943 587.028C657.076 586.474 657.229 585.892 657.401 585.282L659.92 576.437C659.977 576.208 660.044 575.941 660.12 575.636C660.196 575.33 660.234 575.101 660.234 574.949C660.234 574.452 660.072 574.099 659.748 573.89C659.442 573.661 658.975 573.546 658.345 573.546H657.687V572.344H664.671V573.546H664.127C663.765 573.546 663.45 573.603 663.183 573.718C662.935 573.813 662.715 574.023 662.524 574.347C662.333 574.672 662.143 575.149 661.952 575.779L657.114 592.781H654.538L649.873 576.752L645.493 592.781H642.86L637.622 575.063ZM671.435 593.067C669.355 593.067 667.723 592.381 666.54 591.007C665.376 589.633 664.794 587.705 664.794 585.225C664.794 582.553 665.348 580.54 666.454 579.185C667.561 577.83 669.126 577.153 671.149 577.153C673 577.153 674.45 577.725 675.5 578.87C676.568 580.015 677.103 581.723 677.103 583.994V585.31H667.571C667.609 586.703 667.79 587.839 668.115 588.717C668.439 589.594 668.907 590.243 669.517 590.663C670.147 591.064 670.92 591.264 671.836 591.264C672.504 591.264 673.095 591.169 673.61 590.978C674.145 590.787 674.603 590.539 674.984 590.234C675.385 589.928 675.7 589.604 675.929 589.261C676.063 589.318 676.187 589.432 676.301 589.604C676.416 589.776 676.473 589.986 676.473 590.234C676.473 590.615 676.292 591.026 675.929 591.465C675.566 591.903 675.013 592.285 674.269 592.61C673.525 592.915 672.58 593.067 671.435 593.067ZM674.212 583.765C674.212 582.753 674.107 581.866 673.897 581.103C673.706 580.339 673.381 579.748 672.923 579.328C672.465 578.908 671.855 578.698 671.092 578.698C670.385 578.698 669.784 578.899 669.288 579.299C668.811 579.681 668.43 580.244 668.143 580.988C667.876 581.732 667.704 582.658 667.628 583.765H674.212ZM686.753 593.067C684.673 593.067 683.042 592.381 681.859 591.007C680.695 589.633 680.113 587.705 680.113 585.225C680.113 582.553 680.666 580.54 681.773 579.185C682.879 577.83 684.444 577.153 686.467 577.153C688.318 577.153 689.768 577.725 690.818 578.87C691.886 580.015 692.421 581.723 692.421 583.994V585.31H682.889C682.927 586.703 683.108 587.839 683.433 588.717C683.757 589.594 684.225 590.243 684.835 590.663C685.465 591.064 686.238 591.264 687.154 591.264C687.822 591.264 688.413 591.169 688.929 590.978C689.463 590.787 689.921 590.539 690.303 590.234C690.703 589.928 691.018 589.604 691.247 589.261C691.381 589.318 691.505 589.432 691.619 589.604C691.734 589.776 691.791 589.986 691.791 590.234C691.791 590.615 691.61 591.026 691.247 591.465C690.885 591.903 690.331 592.285 689.587 592.61C688.843 592.915 687.898 593.067 686.753 593.067ZM689.53 583.765C689.53 582.753 689.425 581.866 689.215 581.103C689.024 580.339 688.7 579.748 688.242 579.328C687.784 578.908 687.173 578.698 686.41 578.698C685.704 578.698 685.103 578.899 684.606 579.299C684.129 579.681 683.748 580.244 683.462 580.988C683.194 581.732 683.023 582.658 682.946 583.765H689.53ZM694.372 592.781V591.579H694.601C695.04 591.579 695.431 591.531 695.774 591.436C696.137 591.341 696.423 591.15 696.633 590.863C696.843 590.558 696.948 590.11 696.948 589.518V574.176C696.948 573.603 696.833 573.183 696.604 572.916C696.394 572.63 696.108 572.449 695.746 572.372C695.402 572.277 695.02 572.229 694.601 572.229H694.372V571.027H699.638V582.076C699.638 582.324 699.629 582.648 699.61 583.049C699.61 583.45 699.6 583.851 699.581 584.251C699.562 584.652 699.543 584.996 699.524 585.282C699.524 585.549 699.524 585.683 699.524 585.683L703.102 581.761C703.522 581.303 703.837 580.921 704.047 580.616C704.276 580.292 704.438 580.025 704.533 579.815C704.629 579.586 704.676 579.385 704.676 579.214C704.676 578.965 704.562 578.813 704.333 578.756C704.104 578.679 703.751 578.641 703.274 578.641V577.439H709.6V578.641C709.275 578.641 708.951 578.698 708.626 578.813C708.302 578.927 707.978 579.099 707.653 579.328C707.329 579.557 706.995 579.843 706.651 580.187C706.308 580.511 705.945 580.883 705.564 581.303L703.56 583.564L707.367 589.232C707.71 589.728 708.035 590.157 708.34 590.52C708.665 590.863 709.008 591.131 709.371 591.321C709.733 591.493 710.124 591.579 710.544 591.579H710.63V592.781H710.229C709.409 592.781 708.722 592.753 708.168 592.695C707.615 592.638 707.147 592.524 706.766 592.352C706.403 592.161 706.05 591.884 705.707 591.522C705.382 591.14 705.02 590.634 704.619 590.005L701.757 585.511L699.638 587.085V589.661C699.638 590.215 699.743 590.634 699.953 590.921C700.182 591.188 700.469 591.369 700.812 591.465C701.175 591.541 701.566 591.579 701.986 591.579H702.071V592.781H694.372ZM719.782 592.781V590.692L724.562 585.167C725.325 584.29 725.965 583.498 726.48 582.792C726.995 582.085 727.405 581.427 727.711 580.816C728.035 580.206 728.264 579.605 728.398 579.013C728.55 578.403 728.627 577.773 728.627 577.124C728.627 576.399 728.522 575.769 728.312 575.235C728.102 574.681 727.777 574.252 727.339 573.947C726.919 573.641 726.375 573.489 725.707 573.489C724.848 573.489 724.19 573.689 723.732 574.09C723.274 574.491 722.959 575.015 722.787 575.664C722.635 576.294 722.558 576.99 722.558 577.754C722.1 577.754 721.681 577.706 721.299 577.611C720.936 577.496 720.641 577.305 720.412 577.038C720.202 576.752 720.097 576.37 720.097 575.893C720.097 575.149 720.307 574.491 720.726 573.918C721.146 573.346 721.776 572.897 722.616 572.573C723.455 572.229 724.486 572.058 725.707 572.058C726.909 572.058 727.94 572.258 728.798 572.659C729.676 573.04 730.344 573.594 730.802 574.319C731.279 575.025 731.518 575.865 731.518 576.838C731.518 577.372 731.441 577.897 731.289 578.412C731.155 578.927 730.955 579.443 730.688 579.958C730.42 580.473 730.096 581.007 729.714 581.561C729.333 582.095 728.894 582.658 728.398 583.25C727.901 583.841 727.348 584.471 726.737 585.139L721.9 590.491H728.512C729.371 590.491 729.953 590.272 730.258 589.833C730.563 589.394 730.783 588.898 730.917 588.345L731.031 587.829H732.233L732.09 592.781H719.782Z" fill="#767676" fill-opacity="0.5"/>
<path d="M112.109 71.5596L98.3377 95.4128H125.881L112.109 71.5596ZM112.109 520H114.495L114.495 93.0275H112.109H109.724L109.724 520H112.109Z" fill="#1C3343"/>
<path d="M65.9112 351.881C65.9112 353.77 65.4723 355.364 64.5945 356.661C63.7167 357.959 62.4955 358.942 60.9307 359.609C59.3468 360.258 57.4958 360.583 55.3777 360.583C53.3167 360.583 51.5039 360.239 49.9391 359.552C48.3553 358.846 47.1244 357.816 46.2466 356.461C45.3498 355.087 44.9013 353.398 44.9013 351.394C44.9013 350.097 45.0444 349.019 45.3307 348.16C45.5978 347.301 45.9795 346.662 46.4756 346.242C46.9527 345.822 47.4966 345.612 48.1072 345.612C48.7178 345.612 49.2044 345.851 49.567 346.328C49.9296 346.805 50.1109 347.397 50.1109 348.103C49.5193 348.103 48.9468 348.208 48.3934 348.418C47.821 348.627 47.3534 348.98 46.9909 349.477C46.6092 349.954 46.4184 350.612 46.4184 351.452C46.4184 352.883 46.7714 354.037 47.4775 354.915C48.1644 355.793 49.1758 356.432 50.5116 356.833C51.8474 357.215 53.4694 357.405 55.3777 357.405C57.076 357.405 58.5835 357.205 59.9002 356.804C61.1978 356.385 62.2092 355.736 62.9344 354.858C63.6595 353.98 64.0221 352.845 64.0221 351.452C64.0221 350.517 63.9076 349.725 63.6786 349.076C63.4496 348.427 63.1538 347.883 62.7912 347.444C62.4096 346.986 62.0089 346.595 61.589 346.271C61.6844 346.118 61.8276 345.994 62.0184 345.899C62.1901 345.784 62.4191 345.727 62.7054 345.727C63.0679 345.727 63.44 345.851 63.8217 346.099C64.1843 346.347 64.5278 346.719 64.8522 347.215C65.1575 347.711 65.4151 348.351 65.625 349.133C65.8158 349.896 65.9112 350.812 65.9112 351.881ZM65.9112 336.417C65.9112 338.478 65.2529 340.1 63.9362 341.283C62.6195 342.466 60.6158 343.058 57.9252 343.058C55.2536 343.058 53.269 342.495 51.9714 341.369C50.6547 340.224 49.9964 338.544 49.9964 336.331C49.9964 334.27 50.6547 332.648 51.9714 331.465C53.269 330.282 55.2536 329.69 57.9252 329.69C60.6158 329.69 62.6195 330.263 63.9362 331.408C65.2529 332.533 65.9112 334.203 65.9112 336.417ZM64.4228 336.36C64.4228 335.405 64.1843 334.642 63.7072 334.07C63.2111 333.497 62.4764 333.087 61.5032 332.839C60.53 332.591 59.3373 332.467 57.9252 332.467C56.494 332.467 55.3109 332.6 54.3758 332.867C53.4217 333.115 52.7061 333.526 52.229 334.098C51.752 334.671 51.5134 335.434 51.5134 336.388C51.5134 337.342 51.752 338.106 52.229 338.678C52.7061 339.251 53.4217 339.661 54.3758 339.909C55.3109 340.157 56.494 340.281 57.9252 340.281C59.3373 340.281 60.53 340.157 61.5032 339.909C62.4764 339.642 63.2111 339.222 63.7072 338.649C64.1843 338.077 64.4228 337.314 64.4228 336.36ZM65.625 327.31H64.4228V327.081C64.4228 326.642 64.3751 326.251 64.2797 325.908C64.1843 325.545 63.9934 325.259 63.7072 325.049C63.4019 324.839 62.9534 324.734 62.3619 324.734H53.4312C52.8588 324.734 52.4389 324.839 52.1718 325.049C51.8855 325.259 51.7043 325.535 51.6279 325.879C51.5325 326.222 51.4848 326.604 51.4848 327.024V327.167H50.2826V322.53L52.6011 322.158V322.015C51.876 321.614 51.3322 321.194 50.9696 320.755C50.5879 320.297 50.3303 319.801 50.1967 319.267C50.0632 318.733 49.9964 318.16 49.9964 317.549C49.9964 316.042 50.4448 314.868 51.3417 314.029C52.2195 313.17 53.6411 312.741 55.6066 312.741H62.3619C62.9534 312.741 63.4019 312.655 63.7072 312.483C63.9934 312.292 64.1843 312.035 64.2797 311.71C64.3751 311.386 64.4228 311.014 64.4228 310.594V310.451H65.625V315.431H55.7498C54.5094 315.431 53.5457 315.67 52.8588 316.147C52.1718 316.605 51.8283 317.416 51.8283 318.58C51.8283 319.439 52.0478 320.126 52.4866 320.641C52.9065 321.137 53.4694 321.499 54.1755 321.728C54.8815 321.938 55.6448 322.043 56.4654 322.043H62.505C63.0584 322.043 63.4782 321.938 63.7644 321.728C64.0316 321.519 64.2129 321.242 64.3083 320.898C64.3846 320.555 64.4228 320.173 64.4228 319.753V319.61H65.625V327.31ZM65.625 308.89H64.4228V308.518C64.4228 308.079 64.3751 307.688 64.2797 307.344C64.1843 306.982 63.9934 306.695 63.7072 306.485C63.4019 306.275 62.9534 306.171 62.3619 306.171H51.6279V308.775H50.2826V306.171H49.4239C48.2408 306.171 47.2008 305.932 46.3039 305.455C45.407 304.959 44.7105 304.205 44.2144 303.194C43.6991 302.182 43.4415 300.894 43.4415 299.329C43.4415 298.433 43.4988 297.65 43.6133 296.982C43.7277 296.314 43.89 295.761 44.0999 295.322C44.3098 294.883 44.5578 294.549 44.8441 294.32C45.1303 294.091 45.4547 293.977 45.8173 293.977C46.3707 293.977 46.8287 294.215 47.1912 294.692C47.5347 295.169 47.7065 295.799 47.7065 296.582C47.3248 296.582 46.905 296.677 46.447 296.868C45.989 297.059 45.5978 297.393 45.2734 297.87C44.93 298.328 44.7582 298.976 44.7582 299.816C44.7582 300.789 44.9872 301.543 45.4452 302.077C45.8841 302.612 46.4661 302.984 47.1912 303.194C47.8973 303.384 48.6511 303.48 49.4525 303.48H50.2826V293.776H62.3619C62.9534 293.776 63.4019 293.671 63.7072 293.462C63.9934 293.252 64.1843 292.965 64.2797 292.603C64.3751 292.24 64.4228 291.849 64.4228 291.429V291.057H65.625V298.9H64.4228V298.814C64.4228 298.394 64.3846 298.013 64.3083 297.669C64.2129 297.307 64.0316 297.02 63.7644 296.811C63.4782 296.582 63.0584 296.467 62.505 296.467H51.6279V303.48H62.3619C62.9534 303.48 63.4019 303.375 63.7072 303.165C63.9934 302.955 64.1843 302.669 64.2797 302.306C64.3751 301.944 64.4228 301.553 64.4228 301.133V300.617H65.625V308.89ZM65.9112 283.269C65.9112 284.528 65.6345 285.597 65.0811 286.475C64.5278 287.334 63.669 287.992 62.505 288.45C61.3219 288.889 59.8144 289.108 57.9824 289.108C56.1314 289.108 54.6239 288.889 53.4599 288.45C52.2767 287.992 51.4085 287.334 50.8551 286.475C50.2826 285.597 49.9964 284.528 49.9964 283.269C49.9964 282.162 50.2349 281.265 50.712 280.578C51.17 279.872 51.7711 279.309 52.5153 278.89V278.718C52.1909 278.756 51.8474 278.794 51.4848 278.832C51.1222 278.851 50.7597 278.87 50.3971 278.89C50.0155 278.89 49.672 278.89 49.3666 278.89H47.0195C46.447 278.89 46.0272 279.004 45.76 279.233C45.4738 279.443 45.2925 279.729 45.2162 280.092C45.1208 280.435 45.0731 280.817 45.0731 281.237V281.466H43.8709V276.199H62.4764C63.0298 276.199 63.4496 276.094 63.7358 275.884C64.0221 275.655 64.2129 275.369 64.3083 275.025C64.3846 274.663 64.4228 274.272 64.4228 273.852V273.623H65.625V278.46L63.0489 278.775V278.89C63.9267 279.309 64.6232 279.863 65.1384 280.55C65.6536 281.237 65.9112 282.143 65.9112 283.269ZM64.0793 282.782C64.0793 281.294 63.5832 280.273 62.5909 279.72C61.5795 279.166 60.0433 278.89 57.9824 278.89C56.6467 278.89 55.5303 279.014 54.6334 279.262C53.7175 279.491 53.021 279.891 52.5439 280.464C52.0668 281.017 51.8283 281.8 51.8283 282.811C51.8283 283.651 52.0668 284.328 52.5439 284.843C53.021 285.359 53.7175 285.74 54.6334 285.988C55.5494 286.217 56.6753 286.332 58.0111 286.332C59.3659 286.332 60.4918 286.217 61.3887 285.988C62.2856 285.74 62.963 285.359 63.421 284.843C63.8599 284.309 64.0793 283.622 64.0793 282.782ZM65.9112 264.885C65.9112 266.965 65.2243 268.597 63.8503 269.78C62.4764 270.944 60.549 271.526 58.0683 271.526C55.3967 271.526 53.3835 270.972 52.0287 269.866C50.6738 268.759 49.9964 267.194 49.9964 265.171C49.9964 263.32 50.5689 261.87 51.7138 260.82C52.8588 259.752 54.5666 259.218 56.8375 259.218H58.1542V268.749C59.5472 268.711 60.6826 268.53 61.5604 268.205C62.4382 267.881 63.087 267.414 63.5068 266.803C63.9076 266.173 64.1079 265.4 64.1079 264.484C64.1079 263.816 64.0125 263.225 63.8217 262.71C63.6309 262.175 63.3828 261.717 63.0775 261.336C62.7722 260.935 62.4478 260.62 62.1043 260.391C62.1615 260.258 62.276 260.134 62.4478 260.019C62.6195 259.905 62.8294 259.847 63.0775 259.847C63.4591 259.847 63.8694 260.029 64.3083 260.391C64.7472 260.754 65.1289 261.307 65.4533 262.051C65.7586 262.796 65.9112 263.74 65.9112 264.885ZM56.6085 262.109C55.5971 262.109 54.7098 262.214 53.9465 262.423C53.1832 262.614 52.5916 262.939 52.1718 263.397C51.752 263.855 51.5421 264.465 51.5421 265.229C51.5421 265.935 51.7424 266.536 52.1432 267.032C52.5248 267.509 53.0878 267.891 53.832 268.177C54.5762 268.444 55.5017 268.616 56.6085 268.692V262.109ZM65.625 256.98H64.4228V256.751C64.4228 256.313 64.3751 255.921 64.2797 255.578C64.1843 255.215 63.9934 254.929 63.7072 254.719C63.4019 254.509 62.9534 254.404 62.3619 254.404H53.4312C52.8588 254.404 52.4389 254.509 52.1718 254.719C51.8855 254.929 51.7043 255.206 51.6279 255.549C51.5325 255.893 51.4848 256.274 51.4848 256.694V256.837H50.2826V252.2L52.6011 251.828V251.685C51.876 251.284 51.3322 250.864 50.9696 250.426C50.5879 249.968 50.3303 249.471 50.1967 248.937C50.0632 248.403 49.9964 247.83 49.9964 247.22C49.9964 245.712 50.4448 244.539 51.3417 243.699C52.2195 242.84 53.6411 242.411 55.6066 242.411H62.3619C62.9534 242.411 63.4019 242.325 63.7072 242.153C63.9934 241.962 64.1843 241.705 64.2797 241.38C64.3751 241.056 64.4228 240.684 64.4228 240.264V240.121H65.625V245.102H55.7498C54.5094 245.102 53.5457 245.34 52.8588 245.817C52.1718 246.275 51.8283 247.086 51.8283 248.25C51.8283 249.109 52.0478 249.796 52.4866 250.311C52.9065 250.807 53.4694 251.17 54.1755 251.399C54.8815 251.609 55.6448 251.714 56.4654 251.714H62.505C63.0584 251.714 63.4782 251.609 63.7644 251.399C64.0316 251.189 64.2129 250.912 64.3083 250.569C64.3846 250.225 64.4228 249.844 64.4228 249.424V249.281H65.625V256.98ZM65.9112 231.232C65.9112 232.492 65.6441 233.618 65.1098 234.61C64.5755 235.583 63.7358 236.356 62.5909 236.929C61.4268 237.482 59.9098 237.759 58.0397 237.759C55.9978 237.759 54.3949 237.482 53.2309 236.929C52.0478 236.356 51.2177 235.593 50.7406 234.639C50.2444 233.665 49.9964 232.578 49.9964 231.375C49.9964 230.574 50.1013 229.792 50.3112 229.028C50.5211 228.265 50.8455 227.635 51.2844 227.139C51.7043 226.643 52.2481 226.395 52.916 226.395C53.3549 226.395 53.7079 226.49 53.9751 226.681C54.2422 226.872 54.4331 227.158 54.5476 227.54C54.6621 227.902 54.7193 228.37 54.7193 228.942C54.1087 228.942 53.5553 229.019 53.0591 229.171C52.563 229.305 52.1718 229.544 51.8855 229.887C51.5802 230.231 51.4276 230.727 51.4276 231.375C51.4276 232.101 51.6184 232.74 52 233.293C52.3817 233.828 53.0496 234.247 54.0037 234.553C54.9578 234.839 56.2936 234.982 58.0111 234.982C59.3659 234.982 60.4918 234.839 61.3887 234.553C62.2856 234.247 62.9534 233.78 63.3923 233.15C63.8312 232.52 64.0507 231.69 64.0507 230.66C64.0507 230.068 63.9648 229.524 63.7931 229.028C63.6213 228.532 63.3828 228.103 63.0775 227.74C62.7722 227.359 62.4287 227.063 62.047 226.853C62.1615 226.7 62.3142 226.586 62.505 226.509C62.6767 226.414 62.8962 226.366 63.1633 226.366C63.6022 226.366 64.0316 226.548 64.4514 226.91C64.8712 227.273 65.2243 227.817 65.5105 228.542C65.7777 229.248 65.9112 230.145 65.9112 231.232ZM65.9112 217.03C65.9112 219.11 65.2243 220.741 63.8503 221.924C62.4764 223.088 60.549 223.67 58.0683 223.67C55.3967 223.67 53.3835 223.117 52.0287 222.01C50.6738 220.903 49.9964 219.339 49.9964 217.316C49.9964 215.465 50.5689 214.015 51.7138 212.965C52.8588 211.896 54.5666 211.362 56.8375 211.362H58.1542L58.1542 220.894C59.5472 220.856 60.6826 220.674 61.5604 220.35C62.4382 220.026 63.087 219.558 63.5068 218.947C63.9076 218.318 64.1079 217.545 64.1079 216.629C64.1079 215.961 64.0125 215.369 63.8217 214.854C63.6309 214.32 63.3828 213.862 63.0775 213.48C62.7722 213.079 62.4478 212.765 62.1043 212.536C62.1615 212.402 62.276 212.278 62.4478 212.164C62.6195 212.049 62.8294 211.992 63.0775 211.992C63.4591 211.992 63.8694 212.173 64.3083 212.536C64.7472 212.898 65.1289 213.452 65.4533 214.196C65.7586 214.94 65.9112 215.885 65.9112 217.03ZM56.6085 214.253C55.5971 214.253 54.7098 214.358 53.9465 214.568C53.1832 214.759 52.5916 215.083 52.1718 215.541C51.752 215.999 51.5421 216.61 51.5421 217.373C51.5421 218.079 51.7424 218.68 52.1432 219.176C52.5248 219.653 53.0878 220.035 53.832 220.321C54.5762 220.588 55.5017 220.76 56.6085 220.837L56.6085 214.253Z" fill="#1C3343"/>
<path d="M717.981 519.997L694.182 506.131L694.074 533.674L717.981 519.997ZM112.109 517.611L112.1 519.997L696.504 522.297L696.513 519.912L696.523 517.527L112.119 515.226L112.109 517.611Z" fill="#1C3343"/>
<path d="M111.472 492.75C111.472 492.75 285.046 446.055 426.972 361.376C568.899 276.697 686.334 130.181 686.334 130.181" stroke="#747FF4" stroke-width="4.77064" stroke-linecap="round"/>
<path d="M111.946 492.581C362.571 478.258 459.177 410.275 693.964 411.48" stroke="#767676" stroke-opacity="0.5" stroke-width="4.77064" stroke-linecap="round"/>
<path d="M507.722 391.172C506.138 391.172 504.812 390.847 503.743 390.199C502.674 389.531 501.873 388.615 501.339 387.451C500.823 386.287 500.566 384.96 500.566 383.472C500.566 381.964 500.833 380.638 501.367 379.493C501.902 378.329 502.703 377.413 503.772 376.745C504.84 376.077 506.176 375.743 507.779 375.743C509.363 375.743 510.68 376.077 511.729 376.745C512.798 377.413 513.59 378.329 514.105 379.493C514.639 380.638 514.906 381.964 514.906 383.472C514.906 384.96 514.639 386.287 514.105 387.451C513.571 388.615 512.769 389.531 511.7 390.199C510.651 390.847 509.325 391.172 507.722 391.172ZM507.722 389.025C508.829 389.025 509.725 388.777 510.412 388.281C511.118 387.785 511.634 387.117 511.958 386.277C512.302 385.437 512.473 384.502 512.473 383.472C512.473 382.441 512.302 381.506 511.958 380.667C511.634 379.827 511.118 379.159 510.412 378.663C509.725 378.167 508.829 377.919 507.722 377.919C506.634 377.919 505.737 378.167 505.031 378.663C504.344 379.159 503.829 379.827 503.485 380.667C503.161 381.506 502.999 382.441 502.999 383.472C502.999 384.502 503.161 385.437 503.485 386.277C503.829 387.117 504.344 387.785 505.031 388.281C505.737 388.777 506.634 389.025 507.722 389.025ZM524.287 391C523.142 391 522.217 390.828 521.511 390.485C520.824 390.141 520.318 389.607 519.994 388.882C519.688 388.157 519.536 387.241 519.536 386.134V378.062H517.074V375.915H519.536V371.421H521.969V375.915H526.005V378.062H521.969V385.876C521.969 386.907 522.15 387.67 522.512 388.166C522.894 388.643 523.657 388.882 524.802 388.882H525.919V391H524.287ZM528.756 391V370.763H531.189V378.234C531.551 377.699 531.99 377.251 532.506 376.888C533.04 376.507 533.622 376.221 534.252 376.03C534.881 375.839 535.53 375.743 536.198 375.743C537.667 375.743 538.812 376.049 539.633 376.659C540.473 377.27 541.064 378.1 541.408 379.15C541.751 380.18 541.923 381.363 541.923 382.699V391H539.49V383.443C539.49 382.775 539.442 382.117 539.347 381.468C539.27 380.8 539.108 380.199 538.86 379.665C538.612 379.131 538.23 378.701 537.715 378.377C537.219 378.052 536.541 377.89 535.683 377.89C534.862 377.89 534.156 378.072 533.565 378.434C532.992 378.797 532.534 379.283 532.191 379.894C531.847 380.486 531.59 381.144 531.418 381.869C531.265 382.575 531.189 383.272 531.189 383.959V391H528.756ZM552.194 391.172C550.591 391.172 549.264 390.847 548.215 390.199C547.165 389.531 546.383 388.615 545.868 387.451C545.353 386.287 545.095 384.96 545.095 383.472C545.095 381.964 545.362 380.638 545.896 379.493C546.45 378.329 547.251 377.413 548.301 376.745C549.35 376.077 550.638 375.743 552.165 375.743C553.348 375.743 554.359 375.972 555.199 376.43C556.058 376.869 556.764 377.461 557.317 378.205C557.871 378.949 558.271 379.77 558.519 380.667C558.768 381.545 558.873 382.432 558.834 383.329C558.815 383.501 558.796 383.672 558.777 383.844C558.777 384.016 558.768 384.188 558.748 384.359H547.557C547.633 385.237 547.852 386.029 548.215 386.735C548.577 387.441 549.093 388.004 549.761 388.424C550.428 388.825 551.259 389.025 552.251 389.025C552.747 389.025 553.243 388.968 553.739 388.853C554.255 388.72 554.713 388.5 555.113 388.195C555.533 387.89 555.829 387.479 556.001 386.964H558.491C558.262 387.937 557.833 388.739 557.203 389.368C556.573 389.979 555.819 390.437 554.941 390.742C554.064 391.029 553.148 391.172 552.194 391.172ZM547.614 382.241H556.344C556.325 381.382 556.134 380.629 555.772 379.98C555.409 379.331 554.913 378.825 554.283 378.463C553.673 378.1 552.938 377.919 552.079 377.919C551.144 377.919 550.352 378.119 549.703 378.52C549.074 378.921 548.587 379.446 548.244 380.094C547.9 380.743 547.69 381.459 547.614 382.241ZM562.076 391V375.915H564.423L564.537 378.262C564.919 377.671 565.358 377.194 565.854 376.831C566.369 376.469 566.932 376.201 567.543 376.03C568.173 375.839 568.85 375.743 569.575 375.743C569.709 375.743 569.833 375.743 569.947 375.743C570.081 375.743 570.214 375.743 570.348 375.743V378.033H569.461C568.278 378.033 567.314 378.291 566.57 378.806C565.845 379.302 565.32 379.98 564.995 380.839C564.671 381.678 564.509 382.613 564.509 383.644V391H562.076ZM580.469 391V375.915H582.816L582.93 377.719C583.255 377.261 583.617 376.888 584.018 376.602C584.438 376.316 584.896 376.106 585.392 375.972C585.907 375.82 586.451 375.743 587.024 375.743C588.073 375.743 588.922 375.972 589.571 376.43C590.22 376.869 590.707 377.451 591.031 378.177C591.375 377.661 591.766 377.222 592.205 376.86C592.663 376.497 593.168 376.221 593.722 376.03C594.294 375.839 594.924 375.743 595.611 375.743C596.718 375.743 597.605 375.982 598.273 376.459C598.96 376.936 599.456 377.585 599.761 378.406C600.067 379.207 600.219 380.113 600.219 381.125V391H597.786V382.356C597.786 381.859 597.758 381.354 597.7 380.839C597.662 380.323 597.548 379.846 597.357 379.407C597.166 378.949 596.88 378.587 596.498 378.32C596.136 378.033 595.62 377.89 594.952 377.89C594.323 377.89 593.788 378.043 593.35 378.348C592.93 378.634 592.586 379.026 592.319 379.522C592.052 380.018 591.861 380.552 591.747 381.125C591.632 381.678 591.575 382.232 591.575 382.785V391H589.142V382.327C589.142 381.85 589.113 381.354 589.056 380.839C589.018 380.323 588.913 379.846 588.741 379.407C588.588 378.949 588.321 378.587 587.94 378.32C587.577 378.033 587.071 377.89 586.423 377.89C585.507 377.89 584.791 378.157 584.276 378.692C583.761 379.207 583.398 379.846 583.188 380.61C582.997 381.354 582.902 382.088 582.902 382.814V391H580.469ZM610.448 391.172C608.845 391.172 607.518 390.847 606.469 390.199C605.419 389.531 604.637 388.615 604.122 387.451C603.607 386.287 603.349 384.96 603.349 383.472C603.349 381.964 603.616 380.638 604.15 379.493C604.704 378.329 605.505 377.413 606.555 376.745C607.604 376.077 608.892 375.743 610.419 375.743C611.602 375.743 612.613 375.972 613.453 376.43C614.312 376.869 615.018 377.461 615.571 378.205C616.125 378.949 616.525 379.77 616.773 380.667C617.022 381.545 617.127 382.432 617.088 383.329C617.069 383.501 617.05 383.672 617.031 383.844C617.031 384.016 617.022 384.188 617.002 384.359H605.811C605.887 385.237 606.106 386.029 606.469 386.735C606.831 387.441 607.347 388.004 608.015 388.424C608.682 388.825 609.513 389.025 610.505 389.025C611.001 389.025 611.497 388.968 611.993 388.853C612.509 388.72 612.967 388.5 613.367 388.195C613.787 387.89 614.083 387.479 614.255 386.964H616.745C616.516 387.937 616.087 388.739 615.457 389.368C614.827 389.979 614.073 390.437 613.196 390.742C612.318 391.029 611.402 391.172 610.448 391.172ZM605.868 382.241H614.598C614.579 381.382 614.388 380.629 614.026 379.98C613.663 379.331 613.167 378.825 612.537 378.463C611.927 378.1 611.192 377.919 610.333 377.919C609.398 377.919 608.606 378.119 607.957 378.52C607.328 378.921 606.841 379.446 606.498 380.094C606.154 380.743 605.944 381.459 605.868 382.241ZM626.455 391C625.31 391 624.385 390.828 623.679 390.485C622.992 390.141 622.486 389.607 622.162 388.882C621.856 388.157 621.704 387.241 621.704 386.134V378.062H619.242V375.915H621.704V371.421H624.137V375.915H628.173V378.062H624.137V385.876C624.137 386.907 624.318 387.67 624.681 388.166C625.062 388.643 625.826 388.882 626.971 388.882H628.087V391H626.455ZM630.924 391V370.763H633.357V378.234C633.72 377.699 634.158 377.251 634.674 376.888C635.208 376.507 635.79 376.221 636.42 376.03C637.049 375.839 637.698 375.743 638.366 375.743C639.836 375.743 640.98 376.049 641.801 376.659C642.641 377.27 643.232 378.1 643.576 379.15C643.919 380.18 644.091 381.363 644.091 382.699V391H641.658V383.443C641.658 382.775 641.61 382.117 641.515 381.468C641.438 380.8 641.276 380.199 641.028 379.665C640.78 379.131 640.398 378.701 639.883 378.377C639.387 378.052 638.71 377.89 637.851 377.89C637.03 377.89 636.324 378.072 635.733 378.434C635.16 378.797 634.702 379.283 634.359 379.894C634.015 380.486 633.758 381.144 633.586 381.869C633.433 382.575 633.357 383.272 633.357 383.959V391H630.924ZM654.419 391.172C652.835 391.172 651.509 390.847 650.44 390.199C649.372 389.531 648.57 388.615 648.036 387.451C647.521 386.287 647.263 384.96 647.263 383.472C647.263 381.964 647.53 380.638 648.065 379.493C648.599 378.329 649.4 377.413 650.469 376.745C651.538 376.077 652.873 375.743 654.476 375.743C656.06 375.743 657.377 376.077 658.426 376.745C659.495 377.413 660.287 378.329 660.802 379.493C661.336 380.638 661.604 381.964 661.604 383.472C661.604 384.96 661.336 386.287 660.802 387.451C660.268 388.615 659.466 389.531 658.398 390.199C657.348 390.847 656.022 391.172 654.419 391.172ZM654.419 389.025C655.526 389.025 656.423 388.777 657.11 388.281C657.816 387.785 658.331 387.117 658.655 386.277C658.999 385.437 659.171 384.502 659.171 383.472C659.171 382.441 658.999 381.506 658.655 380.667C658.331 379.827 657.816 379.159 657.11 378.663C656.423 378.167 655.526 377.919 654.419 377.919C653.331 377.919 652.434 378.167 651.728 378.663C651.041 379.159 650.526 379.827 650.183 380.667C649.858 381.506 649.696 382.441 649.696 383.472C649.696 384.502 649.858 385.437 650.183 386.277C650.526 387.117 651.041 387.785 651.728 388.281C652.434 388.777 653.331 389.025 654.419 389.025ZM670.899 391.172C669.391 391.172 668.151 390.838 667.177 390.17C666.204 389.483 665.479 388.567 665.002 387.422C664.525 386.258 664.286 384.951 664.286 383.501C664.286 382.05 664.525 380.743 665.002 379.579C665.479 378.396 666.214 377.461 667.206 376.774C668.198 376.087 669.467 375.743 671.013 375.743C671.605 375.743 672.196 375.82 672.788 375.972C673.398 376.106 673.971 376.326 674.505 376.631C675.039 376.917 675.497 377.308 675.879 377.804V370.763H678.312V391H675.994L675.879 388.739C675.536 389.311 675.097 389.779 674.562 390.141C674.047 390.485 673.475 390.742 672.845 390.914C672.215 391.086 671.566 391.172 670.899 391.172ZM671.242 389.025C672.253 389.025 673.103 388.767 673.79 388.252C674.477 387.737 675.001 387.05 675.364 386.191C675.726 385.332 675.908 384.397 675.908 383.386C675.908 382.337 675.726 381.401 675.364 380.581C675.02 379.76 674.505 379.112 673.818 378.634C673.131 378.157 672.263 377.919 671.213 377.919C670.126 377.919 669.248 378.167 668.58 378.663C667.931 379.159 667.454 379.837 667.149 380.695C666.863 381.535 666.719 382.48 666.719 383.529C666.719 384.292 666.796 385.008 666.948 385.676C667.12 386.325 667.378 386.907 667.721 387.422C668.084 387.918 668.551 388.309 669.124 388.596C669.696 388.882 670.402 389.025 671.242 389.025ZM687.63 391.172C686.943 391.172 686.246 391.105 685.54 390.971C684.853 390.838 684.204 390.609 683.594 390.284C683.002 389.96 682.506 389.521 682.105 388.968C681.704 388.414 681.447 387.727 681.332 386.907H683.794C683.985 387.422 684.29 387.842 684.71 388.166C685.149 388.472 685.635 388.691 686.17 388.825C686.723 388.958 687.248 389.025 687.744 389.025C688.049 389.025 688.402 389.006 688.803 388.968C689.204 388.93 689.586 388.844 689.948 388.71C690.33 388.557 690.635 388.338 690.864 388.052C691.112 387.766 691.236 387.365 691.236 386.85C691.236 386.468 691.15 386.153 690.979 385.905C690.807 385.657 690.568 385.457 690.263 385.304C689.958 385.132 689.586 385.008 689.147 384.932C688.25 384.741 687.286 384.56 686.256 384.388C685.244 384.216 684.347 383.892 683.565 383.415C683.298 383.243 683.05 383.052 682.821 382.842C682.611 382.613 682.43 382.365 682.277 382.098C682.124 381.812 682 381.506 681.905 381.182C681.829 380.839 681.79 380.466 681.79 380.066C681.79 379.321 681.933 378.682 682.22 378.148C682.525 377.594 682.945 377.146 683.479 376.803C684.013 376.44 684.624 376.173 685.311 376.001C686.017 375.829 686.771 375.743 687.572 375.743C688.565 375.743 689.452 375.906 690.234 376.23C691.036 376.535 691.694 376.993 692.209 377.604C692.725 378.196 693.03 378.93 693.125 379.808H690.864C690.731 379.255 690.368 378.806 689.776 378.463C689.185 378.1 688.431 377.919 687.515 377.919C687.21 377.919 686.866 377.948 686.485 378.005C686.103 378.043 685.74 378.138 685.397 378.291C685.053 378.425 684.767 378.634 684.538 378.921C684.309 379.188 684.195 379.55 684.195 380.008C684.195 380.428 684.3 380.781 684.51 381.068C684.739 381.354 685.053 381.583 685.454 381.754C685.855 381.926 686.313 382.069 686.828 382.184C687.496 382.317 688.231 382.461 689.032 382.613C689.834 382.747 690.463 382.89 690.921 383.043C691.532 383.233 692.038 383.501 692.438 383.844C692.858 384.188 693.164 384.598 693.354 385.075C693.564 385.552 693.669 386.105 693.669 386.735C693.669 387.632 693.488 388.367 693.125 388.939C692.782 389.512 692.314 389.96 691.723 390.284C691.131 390.609 690.473 390.838 689.748 390.971C689.042 391.105 688.336 391.172 687.63 391.172Z" fill="#767676" fill-opacity="0.5"/>
<path d="M596.039 82V86.8578H587.518V109.873H582.66V86.8578H574.139V82H596.039Z" fill="black"/>
<path d="M605.401 110.39C603.57 110.39 601.897 109.919 600.384 108.977C598.885 108.034 597.683 106.767 596.781 105.174C595.892 103.581 595.447 101.823 595.447 99.8983C595.447 98.4515 595.706 97.0977 596.223 95.8368C596.741 94.5626 597.451 93.4477 598.354 92.4921C599.269 91.5232 600.331 90.7666 601.539 90.2224C602.747 89.6783 604.034 89.4062 605.401 89.4062C606.954 89.4062 608.375 89.738 609.662 90.4016C610.963 91.052 612.064 91.9479 612.967 93.0894C613.869 94.2308 614.526 95.5315 614.938 96.9915C615.349 98.4515 615.442 99.9779 615.217 101.571H600.663C600.849 102.314 601.154 102.984 601.579 103.581C602.004 104.165 602.541 104.637 603.192 104.995C603.842 105.34 604.579 105.519 605.401 105.533C606.251 105.546 607.021 105.347 607.711 104.935C608.414 104.511 608.998 103.94 609.463 103.223L614.42 104.378C613.611 106.143 612.403 107.59 610.797 108.718C609.191 109.833 607.392 110.39 605.401 110.39ZM600.504 97.9273H610.299C610.153 97.1309 609.841 96.4142 609.363 95.7771C608.899 95.1267 608.321 94.6091 607.631 94.2242C606.941 93.8393 606.198 93.6468 605.401 93.6468C604.605 93.6468 603.868 93.8393 603.192 94.2242C602.515 94.5958 601.937 95.1068 601.459 95.7572C600.995 96.3943 600.676 97.1176 600.504 97.9273Z" fill="black"/>
<path d="M636.351 97.2902V109.873H631.494V98.5643C631.494 97.7813 631.301 97.0712 630.916 96.4341C630.531 95.7837 630.014 95.2727 629.363 94.9011C628.726 94.5162 628.016 94.3237 627.233 94.3237C626.45 94.3237 625.733 94.5162 625.083 94.9011C624.446 95.2727 623.935 95.7837 623.55 96.4341C623.178 97.0712 622.992 97.7813 622.992 98.5643V109.873H618.135L618.115 89.9636H622.972L622.992 91.7355C623.669 91.0188 624.479 90.4547 625.421 90.0433C626.364 89.6185 627.379 89.4062 628.467 89.4062C629.914 89.4062 631.235 89.7645 632.429 90.4813C633.624 91.1847 634.573 92.1337 635.276 93.3283C635.993 94.5095 636.351 95.8302 636.351 97.2902Z" fill="black"/>
<path d="M639.977 109.873V89.9636H644.834V91.7355C645.511 91.0188 646.321 90.4547 647.263 90.0433C648.206 89.6185 649.221 89.4062 650.309 89.4062C651.69 89.4062 652.957 89.7314 654.112 90.3817C655.28 91.0321 656.209 91.9014 656.899 92.9898C657.603 91.9014 658.532 91.0321 659.687 90.3817C660.841 89.7314 662.109 89.4062 663.489 89.4062C664.949 89.4062 666.27 89.7645 667.451 90.4813C668.646 91.1847 669.595 92.1337 670.298 93.3283C671.015 94.5095 671.373 95.8302 671.373 97.2902V109.873H666.515V98.5843C666.515 97.8144 666.323 97.111 665.938 96.4739C665.566 95.8235 665.062 95.3059 664.425 94.921C663.801 94.5228 663.098 94.3237 662.315 94.3237C661.531 94.3237 660.821 94.5162 660.184 94.9011C659.56 95.2727 659.056 95.7771 658.671 96.4142C658.286 97.0513 658.094 97.7746 658.094 98.5843V109.873H653.236V98.5843C653.236 97.7746 653.05 97.0513 652.679 96.4142C652.307 95.7771 651.803 95.2727 651.165 94.9011C650.528 94.5162 649.818 94.3237 649.035 94.3237C648.265 94.3237 647.562 94.5228 646.925 94.921C646.288 95.3059 645.777 95.8235 645.392 96.4739C645.02 97.111 644.834 97.8144 644.834 98.5843V109.873H639.977Z" fill="black"/>
<path d="M675.021 89.9636H679.878V109.873H675.021V89.9636ZM677.489 87.3954C676.773 87.3954 676.169 87.1631 675.678 86.6985C675.186 86.2207 674.941 85.6235 674.941 84.9067C674.941 84.2033 675.186 83.6126 675.678 83.1348C676.169 82.657 676.766 82.4181 677.469 82.4181C678.173 82.4181 678.763 82.657 679.241 83.1348C679.732 83.6126 679.978 84.2033 679.978 84.9067C679.978 85.6235 679.739 86.2207 679.261 86.6985C678.783 87.1631 678.193 87.3954 677.489 87.3954Z" fill="black"/>
<path d="M702.404 97.2902V109.873H697.546V98.5643C697.546 97.7813 697.354 97.0712 696.969 96.4341C696.584 95.7837 696.066 95.2727 695.416 94.9011C694.779 94.5162 694.069 94.3237 693.286 94.3237C692.502 94.3237 691.786 94.5162 691.135 94.9011C690.498 95.2727 689.987 95.7837 689.602 96.4341C689.231 97.0712 689.045 97.7813 689.045 98.5643V109.873H684.187L684.167 89.9636H689.025L689.045 91.7355C689.722 91.0188 690.531 90.4547 691.474 90.0433C692.416 89.6185 693.432 89.4062 694.52 89.4062C695.967 89.4062 697.287 89.7645 698.482 90.4813C699.676 91.1847 700.625 92.1337 701.329 93.3283C702.046 94.5095 702.404 95.8302 702.404 97.2902Z" fill="black"/>
<path d="M539 92.908V98.9473C539 98.9473 549.267 99.5513 552.891 95.9277C556.514 92.304 555.91 82.0371 555.91 82.0371H549.871C549.871 82.0371 549.267 87.4725 546.851 89.8883C544.435 92.304 539 92.908 539 92.908Z" fill="#747FF4"/>
<path d="M566.818 98.9846V92.9452C566.818 92.9452 556.551 92.3413 552.928 95.9649C549.304 99.5885 549.908 109.855 549.908 109.855H555.948C555.948 109.855 556.551 104.42 558.967 102.004C561.383 99.5885 566.818 98.9846 566.818 98.9846Z" fill="#747FF4"/>
<rect x="675" y="120" width="20" height="20" rx="10" fill="#747FF4"/>
<rect x="682" y="402" width="20" height="20" rx="10" fill="#BABABA"/>
</svg>
