<svg width="780" height="659" viewBox="0 0 780 659" fill="none" xmlns="http://www.w3.org/2000/svg">
<rect width="780" height="658.349" rx="38.1651" fill="white"/>
<path d="M65.1459 575.063C65.0314 574.662 64.8788 574.357 64.688 574.147C64.5162 573.918 64.3063 573.765 64.0582 573.689C63.8102 573.594 63.4953 573.546 63.1136 573.546H62.7415V572.344H70.6131V573.546H69.9547C69.3823 573.546 68.9529 573.661 68.6667 573.89C68.3804 574.099 68.2373 574.443 68.2373 574.92C68.2373 575.015 68.2468 575.12 68.2659 575.235C68.285 575.349 68.3136 575.464 68.3518 575.578C68.39 575.693 68.4281 575.826 68.4663 575.979L71.0997 585.139C71.2714 585.711 71.4241 586.284 71.5577 586.856C71.7103 587.41 71.8535 587.953 71.987 588.488C72.1206 589.022 72.2351 589.518 72.3305 589.976C72.4832 589.232 72.6549 588.421 72.8457 587.543C73.0366 586.646 73.256 585.74 73.5041 584.824L76.9103 572.544H78.9713L82.5492 584.938C82.7401 585.568 82.9118 586.188 83.0645 586.799C83.2171 587.39 83.3507 587.963 83.4652 588.516C83.5988 589.051 83.7037 589.537 83.7801 589.976C83.8755 589.518 83.9804 589.051 84.0949 588.574C84.2094 588.077 84.3335 587.562 84.467 587.028C84.6006 586.474 84.7533 585.892 84.925 585.282L87.4439 576.437C87.5012 576.208 87.568 575.941 87.6443 575.636C87.7206 575.33 87.7588 575.101 87.7588 574.949C87.7588 574.452 87.5966 574.099 87.2722 573.89C86.9669 573.661 86.4993 573.546 85.8696 573.546H85.2113V572.344H92.1955V573.546H91.6516C91.2891 573.546 90.9742 573.603 90.707 573.718C90.459 573.813 90.2395 574.023 90.0487 574.347C89.8579 574.672 89.667 575.149 89.4762 575.779L84.6388 592.781H82.0626L77.3969 576.752L73.0175 592.781H70.3841L65.1459 575.063ZM98.9594 593.067C96.8794 593.067 95.2479 592.381 94.0647 591.007C92.9007 589.633 92.3187 587.705 92.3187 585.225C92.3187 582.553 92.8721 580.54 93.9789 579.185C95.0857 577.83 96.6504 577.153 98.6732 577.153C100.524 577.153 101.974 577.725 103.024 578.87C104.093 580.015 104.627 581.723 104.627 583.994V585.31H95.0952C95.1334 586.703 95.3147 587.839 95.6391 588.717C95.9635 589.594 96.431 590.243 97.0416 590.663C97.6714 591.064 98.4442 591.264 99.3602 591.264C100.028 591.264 100.62 591.169 101.135 590.978C101.669 590.787 102.127 590.539 102.509 590.234C102.91 589.928 103.224 589.604 103.453 589.261C103.587 589.318 103.711 589.432 103.825 589.604C103.94 589.776 103.997 589.986 103.997 590.234C103.997 590.615 103.816 591.026 103.453 591.465C103.091 591.903 102.537 592.285 101.793 592.61C101.049 592.915 100.104 593.067 98.9594 593.067ZM101.736 583.765C101.736 582.753 101.631 581.866 101.421 581.103C101.23 580.339 100.906 579.748 100.448 579.328C99.9899 578.908 99.3792 578.698 98.6159 578.698C97.9099 578.698 97.3088 578.899 96.8126 579.299C96.3356 579.681 95.9539 580.244 95.6677 580.988C95.4005 581.732 95.2288 582.658 95.1525 583.765H101.736ZM114.278 593.067C112.198 593.067 110.566 592.381 109.383 591.007C108.219 589.633 107.637 587.705 107.637 585.225C107.637 582.553 108.19 580.54 109.297 579.185C110.404 577.83 111.969 577.153 113.991 577.153C115.842 577.153 117.293 577.725 118.342 578.87C119.411 580.015 119.945 581.723 119.945 583.994V585.31H110.413C110.452 586.703 110.633 587.839 110.957 588.717C111.282 589.594 111.749 590.243 112.36 590.663C112.99 591.064 113.762 591.264 114.678 591.264C115.346 591.264 115.938 591.169 116.453 590.978C116.987 590.787 117.445 590.539 117.827 590.234C118.228 589.928 118.543 589.604 118.772 589.261C118.905 589.318 119.029 589.432 119.144 589.604C119.258 589.776 119.315 589.986 119.315 590.234C119.315 590.615 119.134 591.026 118.772 591.465C118.409 591.903 117.856 592.285 117.111 592.61C116.367 592.915 115.423 593.067 114.278 593.067ZM117.054 583.765C117.054 582.753 116.949 581.866 116.739 581.103C116.548 580.339 116.224 579.748 115.766 579.328C115.308 578.908 114.697 578.698 113.934 578.698C113.228 578.698 112.627 578.899 112.131 579.299C111.654 579.681 111.272 580.244 110.986 580.988C110.719 581.732 110.547 582.658 110.471 583.765H117.054ZM121.896 592.781V591.579H122.125C122.564 591.579 122.955 591.531 123.299 591.436C123.661 591.341 123.947 591.15 124.157 590.863C124.367 590.558 124.472 590.11 124.472 589.518V574.176C124.472 573.603 124.358 573.183 124.129 572.916C123.919 572.63 123.633 572.449 123.27 572.372C122.927 572.277 122.545 572.229 122.125 572.229H121.896V571.027H127.163V582.076C127.163 582.324 127.153 582.648 127.134 583.049C127.134 583.45 127.125 583.851 127.106 584.251C127.087 584.652 127.067 584.996 127.048 585.282C127.048 585.549 127.048 585.683 127.048 585.683L130.626 581.761C131.046 581.303 131.361 580.921 131.571 580.616C131.8 580.292 131.962 580.025 132.058 579.815C132.153 579.586 132.201 579.385 132.201 579.214C132.201 578.965 132.086 578.813 131.857 578.756C131.628 578.679 131.275 578.641 130.798 578.641V577.439H137.124V578.641C136.8 578.641 136.475 578.698 136.151 578.813C135.826 578.927 135.502 579.099 135.178 579.328C134.853 579.557 134.519 579.843 134.176 580.187C133.832 580.511 133.47 580.883 133.088 581.303L131.084 583.564L134.891 589.232C135.235 589.728 135.559 590.157 135.865 590.52C136.189 590.863 136.532 591.131 136.895 591.321C137.258 591.493 137.649 591.579 138.069 591.579H138.154V592.781H137.754C136.933 592.781 136.246 592.753 135.693 592.695C135.139 592.638 134.672 592.524 134.29 592.352C133.928 592.161 133.575 591.884 133.231 591.522C132.907 591.14 132.544 590.634 132.143 590.005L129.281 585.511L127.163 587.085V589.661C127.163 590.215 127.268 590.634 127.478 590.921C127.707 591.188 127.993 591.369 128.336 591.465C128.699 591.541 129.09 591.579 129.51 591.579H129.596V592.781H121.896ZM153.575 593.067C152.01 593.067 150.732 592.629 149.739 591.751C148.747 590.873 148.012 589.642 147.535 588.058C147.077 586.474 146.848 584.623 146.848 582.505C146.848 580.387 147.077 578.546 147.535 576.981C148.012 575.416 148.747 574.204 149.739 573.346C150.732 572.487 152.02 572.058 153.603 572.058C155.092 572.058 156.332 572.487 157.325 573.346C158.317 574.204 159.052 575.426 159.529 577.01C160.025 578.574 160.273 580.416 160.273 582.534C160.273 584.652 160.025 586.503 159.529 588.087C159.032 589.652 158.288 590.873 157.296 591.751C156.323 592.629 155.082 593.067 153.575 593.067ZM153.575 591.522C154.262 591.522 154.844 591.321 155.321 590.921C155.798 590.52 156.18 589.938 156.466 589.175C156.752 588.392 156.962 587.448 157.096 586.341C157.229 585.215 157.296 583.946 157.296 582.534C157.296 581.122 157.229 579.862 157.096 578.756C156.981 577.649 156.771 576.714 156.466 575.95C156.18 575.187 155.798 574.605 155.321 574.204C154.863 573.804 154.29 573.603 153.603 573.603C152.897 573.603 152.306 573.804 151.829 574.204C151.352 574.605 150.961 575.187 150.655 575.95C150.369 576.714 150.159 577.649 150.026 578.756C149.892 579.862 149.825 581.122 149.825 582.534C149.825 583.946 149.892 585.215 150.026 586.341C150.159 587.448 150.369 588.392 150.655 589.175C150.941 589.938 151.323 590.52 151.8 590.921C152.296 591.321 152.888 591.522 153.575 591.522Z" fill="#767676" fill-opacity="0.5"/>
<path d="M351.387 575.063C351.273 574.662 351.12 574.357 350.929 574.147C350.757 573.918 350.548 573.765 350.299 573.689C350.051 573.594 349.737 573.546 349.355 573.546H348.983V572.344H356.854V573.546H356.196C355.623 573.546 355.194 573.661 354.908 573.89C354.622 574.099 354.479 574.443 354.479 574.92C354.479 575.015 354.488 575.12 354.507 575.235C354.526 575.349 354.555 575.464 354.593 575.578C354.631 575.693 354.669 575.826 354.708 575.979L357.341 585.139C357.513 585.711 357.665 586.284 357.799 586.856C357.952 587.41 358.095 587.953 358.228 588.488C358.362 589.022 358.476 589.518 358.572 589.976C358.724 589.232 358.896 588.421 359.087 587.543C359.278 586.646 359.497 585.74 359.745 584.824L363.152 572.544H365.212L368.79 584.938C368.981 585.568 369.153 586.188 369.306 586.799C369.458 587.39 369.592 587.963 369.706 588.516C369.84 589.051 369.945 589.537 370.021 589.976C370.117 589.518 370.222 589.051 370.336 588.574C370.451 588.077 370.575 587.562 370.708 587.028C370.842 586.474 370.994 585.892 371.166 585.282L373.685 576.437C373.742 576.208 373.809 575.941 373.885 575.636C373.962 575.33 374 575.101 374 574.949C374 574.452 373.838 574.099 373.513 573.89C373.208 573.661 372.741 573.546 372.111 573.546H371.452V572.344H378.437V573.546H377.893C377.53 573.546 377.215 573.603 376.948 573.718C376.7 573.813 376.481 574.023 376.29 574.347C376.099 574.672 375.908 575.149 375.717 575.779L370.88 592.781H368.304L363.638 576.752L359.259 592.781H356.625L351.387 575.063ZM385.201 593.067C383.121 593.067 381.489 592.381 380.306 591.007C379.142 589.633 378.56 587.705 378.56 585.225C378.56 582.553 379.113 580.54 380.22 579.185C381.327 577.83 382.892 577.153 384.914 577.153C386.765 577.153 388.216 577.725 389.265 578.87C390.334 580.015 390.868 581.723 390.868 583.994V585.31H381.336C381.375 586.703 381.556 587.839 381.88 588.717C382.205 589.594 382.672 590.243 383.283 590.663C383.913 591.064 384.685 591.264 385.601 591.264C386.269 591.264 386.861 591.169 387.376 590.978C387.91 590.787 388.368 590.539 388.75 590.234C389.151 589.928 389.466 589.604 389.695 589.261C389.828 589.318 389.952 589.432 390.067 589.604C390.181 589.776 390.238 589.986 390.238 590.234C390.238 590.615 390.057 591.026 389.695 591.465C389.332 591.903 388.779 592.285 388.034 592.61C387.29 592.915 386.346 593.067 385.201 593.067ZM387.977 583.765C387.977 582.753 387.872 581.866 387.662 581.103C387.471 580.339 387.147 579.748 386.689 579.328C386.231 578.908 385.62 578.698 384.857 578.698C384.151 578.698 383.55 578.899 383.054 579.299C382.577 579.681 382.195 580.244 381.909 580.988C381.642 581.732 381.47 582.658 381.394 583.765H387.977ZM400.519 593.067C398.439 593.067 396.807 592.381 395.624 591.007C394.46 589.633 393.878 587.705 393.878 585.225C393.878 582.553 394.432 580.54 395.538 579.185C396.645 577.83 398.21 577.153 400.233 577.153C402.084 577.153 403.534 577.725 404.583 578.87C405.652 580.015 406.186 581.723 406.186 583.994V585.31H396.655C396.693 586.703 396.874 587.839 397.199 588.717C397.523 589.594 397.99 590.243 398.601 590.663C399.231 591.064 400.004 591.264 400.92 591.264C401.588 591.264 402.179 591.169 402.694 590.978C403.229 590.787 403.687 590.539 404.068 590.234C404.469 589.928 404.784 589.604 405.013 589.261C405.146 589.318 405.27 589.432 405.385 589.604C405.499 589.776 405.557 589.986 405.557 590.234C405.557 590.615 405.375 591.026 405.013 591.465C404.65 591.903 404.097 592.285 403.353 592.61C402.608 592.915 401.664 593.067 400.519 593.067ZM403.295 583.765C403.295 582.753 403.19 581.866 402.981 581.103C402.79 580.339 402.465 579.748 402.007 579.328C401.549 578.908 400.939 578.698 400.175 578.698C399.469 578.698 398.868 578.899 398.372 579.299C397.895 579.681 397.513 580.244 397.227 580.988C396.96 581.732 396.788 582.658 396.712 583.765H403.295ZM408.137 592.781V591.579H408.366C408.805 591.579 409.196 591.531 409.54 591.436C409.902 591.341 410.189 591.15 410.399 590.863C410.608 590.558 410.713 590.11 410.713 589.518V574.176C410.713 573.603 410.599 573.183 410.37 572.916C410.16 572.63 409.874 572.449 409.511 572.372C409.168 572.277 408.786 572.229 408.366 572.229H408.137V571.027H413.404V582.076C413.404 582.324 413.395 582.648 413.375 583.049C413.375 583.45 413.366 583.851 413.347 584.251C413.328 584.652 413.309 584.996 413.29 585.282C413.29 585.549 413.29 585.683 413.29 585.683L416.868 581.761C417.287 581.303 417.602 580.921 417.812 580.616C418.041 580.292 418.203 580.025 418.299 579.815C418.394 579.586 418.442 579.385 418.442 579.214C418.442 578.965 418.327 578.813 418.098 578.756C417.869 578.679 417.516 578.641 417.039 578.641V577.439H423.365V578.641C423.041 578.641 422.716 578.698 422.392 578.813C422.068 578.927 421.743 579.099 421.419 579.328C421.094 579.557 420.76 579.843 420.417 580.187C420.073 580.511 419.711 580.883 419.329 581.303L417.326 583.564L421.133 589.232C421.476 589.728 421.8 590.157 422.106 590.52C422.43 590.863 422.774 591.131 423.136 591.321C423.499 591.493 423.89 591.579 424.31 591.579H424.396V592.781H423.995C423.174 592.781 422.487 592.753 421.934 592.695C421.381 592.638 420.913 592.524 420.531 592.352C420.169 592.161 419.816 591.884 419.472 591.522C419.148 591.14 418.785 590.634 418.385 590.005L415.522 585.511L413.404 587.085V589.661C413.404 590.215 413.509 590.634 413.719 590.921C413.948 591.188 414.234 591.369 414.578 591.465C414.94 591.541 415.331 591.579 415.751 591.579H415.837V592.781H408.137ZM434.549 592.781V591.579H436.467C436.906 591.579 437.297 591.531 437.641 591.436C438.003 591.341 438.289 591.15 438.499 590.863C438.709 590.558 438.814 590.11 438.814 589.518V574.491C438.337 575.082 437.889 575.607 437.469 576.065C437.049 576.504 436.648 576.847 436.267 577.095C435.885 577.343 435.503 577.467 435.122 577.467C434.702 577.467 434.358 577.324 434.091 577.038C433.824 576.752 433.691 576.38 433.691 575.922C434.072 575.826 434.463 575.702 434.864 575.55C435.265 575.378 435.704 575.149 436.181 574.863C436.677 574.557 437.24 574.176 437.87 573.718L439.873 572.229H441.705V589.518C441.705 590.11 441.81 590.558 442.02 590.863C442.23 591.15 442.516 591.341 442.879 591.436C443.241 591.531 443.633 591.579 444.052 591.579H445.455V592.781H434.549Z" fill="#767676" fill-opacity="0.5"/>
<path d="M637.622 575.063C637.507 574.662 637.354 574.357 637.164 574.147C636.992 573.918 636.782 573.765 636.534 573.689C636.286 573.594 635.971 573.546 635.589 573.546H635.217V572.344H643.089V573.546H642.43C641.858 573.546 641.428 573.661 641.142 573.89C640.856 574.099 640.713 574.443 640.713 574.92C640.713 575.015 640.722 575.12 640.742 575.235C640.761 575.349 640.789 575.464 640.827 575.578C640.866 575.693 640.904 575.826 640.942 575.979L643.575 585.139C643.747 585.711 643.9 586.284 644.033 586.856C644.186 587.41 644.329 587.953 644.463 588.488C644.596 589.022 644.711 589.518 644.806 589.976C644.959 589.232 645.131 588.421 645.321 587.543C645.512 586.646 645.732 585.74 645.98 584.824L649.386 572.544H651.447L655.025 584.938C655.216 585.568 655.387 586.188 655.54 586.799C655.693 587.39 655.826 587.963 655.941 588.516C656.074 589.051 656.179 589.537 656.256 589.976C656.351 589.518 656.456 589.051 656.571 588.574C656.685 588.077 656.809 587.562 656.943 587.028C657.076 586.474 657.229 585.892 657.401 585.282L659.92 576.437C659.977 576.208 660.044 575.941 660.12 575.636C660.196 575.33 660.234 575.101 660.234 574.949C660.234 574.452 660.072 574.099 659.748 573.89C659.442 573.661 658.975 573.546 658.345 573.546H657.687V572.344H664.671V573.546H664.127C663.765 573.546 663.45 573.603 663.183 573.718C662.935 573.813 662.715 574.023 662.524 574.347C662.333 574.672 662.143 575.149 661.952 575.779L657.114 592.781H654.538L649.873 576.752L645.493 592.781H642.86L637.622 575.063ZM671.435 593.067C669.355 593.067 667.723 592.381 666.54 591.007C665.376 589.633 664.794 587.705 664.794 585.225C664.794 582.553 665.348 580.54 666.454 579.185C667.561 577.83 669.126 577.153 671.149 577.153C673 577.153 674.45 577.725 675.5 578.87C676.568 580.015 677.103 581.723 677.103 583.994V585.31H667.571C667.609 586.703 667.79 587.839 668.115 588.717C668.439 589.594 668.907 590.243 669.517 590.663C670.147 591.064 670.92 591.264 671.836 591.264C672.504 591.264 673.095 591.169 673.61 590.978C674.145 590.787 674.603 590.539 674.984 590.234C675.385 589.928 675.7 589.604 675.929 589.261C676.063 589.318 676.187 589.432 676.301 589.604C676.416 589.776 676.473 589.986 676.473 590.234C676.473 590.615 676.292 591.026 675.929 591.465C675.566 591.903 675.013 592.285 674.269 592.61C673.525 592.915 672.58 593.067 671.435 593.067ZM674.212 583.765C674.212 582.753 674.107 581.866 673.897 581.103C673.706 580.339 673.381 579.748 672.923 579.328C672.465 578.908 671.855 578.698 671.092 578.698C670.385 578.698 669.784 578.899 669.288 579.299C668.811 579.681 668.43 580.244 668.143 580.988C667.876 581.732 667.704 582.658 667.628 583.765H674.212ZM686.753 593.067C684.673 593.067 683.042 592.381 681.859 591.007C680.695 589.633 680.113 587.705 680.113 585.225C680.113 582.553 680.666 580.54 681.773 579.185C682.879 577.83 684.444 577.153 686.467 577.153C688.318 577.153 689.768 577.725 690.818 578.87C691.886 580.015 692.421 581.723 692.421 583.994V585.31H682.889C682.927 586.703 683.108 587.839 683.433 588.717C683.757 589.594 684.225 590.243 684.835 590.663C685.465 591.064 686.238 591.264 687.154 591.264C687.822 591.264 688.413 591.169 688.929 590.978C689.463 590.787 689.921 590.539 690.303 590.234C690.703 589.928 691.018 589.604 691.247 589.261C691.381 589.318 691.505 589.432 691.619 589.604C691.734 589.776 691.791 589.986 691.791 590.234C691.791 590.615 691.61 591.026 691.247 591.465C690.885 591.903 690.331 592.285 689.587 592.61C688.843 592.915 687.898 593.067 686.753 593.067ZM689.53 583.765C689.53 582.753 689.425 581.866 689.215 581.103C689.024 580.339 688.7 579.748 688.242 579.328C687.784 578.908 687.173 578.698 686.41 578.698C685.704 578.698 685.103 578.899 684.606 579.299C684.129 579.681 683.748 580.244 683.462 580.988C683.194 581.732 683.023 582.658 682.946 583.765H689.53ZM694.372 592.781V591.579H694.601C695.04 591.579 695.431 591.531 695.774 591.436C696.137 591.341 696.423 591.15 696.633 590.863C696.843 590.558 696.948 590.11 696.948 589.518V574.176C696.948 573.603 696.833 573.183 696.604 572.916C696.394 572.63 696.108 572.449 695.746 572.372C695.402 572.277 695.02 572.229 694.601 572.229H694.372V571.027H699.638V582.076C699.638 582.324 699.629 582.648 699.61 583.049C699.61 583.45 699.6 583.851 699.581 584.251C699.562 584.652 699.543 584.996 699.524 585.282C699.524 585.549 699.524 585.683 699.524 585.683L703.102 581.761C703.522 581.303 703.837 580.921 704.047 580.616C704.276 580.292 704.438 580.025 704.533 579.815C704.629 579.586 704.676 579.385 704.676 579.214C704.676 578.965 704.562 578.813 704.333 578.756C704.104 578.679 703.751 578.641 703.274 578.641V577.439H709.6V578.641C709.275 578.641 708.951 578.698 708.626 578.813C708.302 578.927 707.978 579.099 707.653 579.328C707.329 579.557 706.995 579.843 706.651 580.187C706.308 580.511 705.945 580.883 705.564 581.303L703.56 583.564L707.367 589.232C707.71 589.728 708.035 590.157 708.34 590.52C708.665 590.863 709.008 591.131 709.371 591.321C709.733 591.493 710.124 591.579 710.544 591.579H710.63V592.781H710.229C709.409 592.781 708.722 592.753 708.168 592.695C707.615 592.638 707.147 592.524 706.766 592.352C706.403 592.161 706.05 591.884 705.707 591.522C705.382 591.14 705.02 590.634 704.619 590.005L701.757 585.511L699.638 587.085V589.661C699.638 590.215 699.743 590.634 699.953 590.921C700.182 591.188 700.469 591.369 700.812 591.465C701.175 591.541 701.566 591.579 701.986 591.579H702.071V592.781H694.372ZM719.782 592.781V590.692L724.562 585.167C725.325 584.29 725.965 583.498 726.48 582.792C726.995 582.085 727.405 581.427 727.711 580.816C728.035 580.206 728.264 579.605 728.398 579.013C728.55 578.403 728.627 577.773 728.627 577.124C728.627 576.399 728.522 575.769 728.312 575.235C728.102 574.681 727.777 574.252 727.339 573.947C726.919 573.641 726.375 573.489 725.707 573.489C724.848 573.489 724.19 573.689 723.732 574.09C723.274 574.491 722.959 575.015 722.787 575.664C722.635 576.294 722.558 576.99 722.558 577.754C722.1 577.754 721.681 577.706 721.299 577.611C720.936 577.496 720.641 577.305 720.412 577.038C720.202 576.752 720.097 576.37 720.097 575.893C720.097 575.149 720.307 574.491 720.726 573.918C721.146 573.346 721.776 572.897 722.616 572.573C723.455 572.229 724.486 572.058 725.707 572.058C726.909 572.058 727.94 572.258 728.798 572.659C729.676 573.04 730.344 573.594 730.802 574.319C731.279 575.025 731.518 575.865 731.518 576.838C731.518 577.372 731.441 577.897 731.289 578.412C731.155 578.927 730.955 579.443 730.688 579.958C730.42 580.473 730.096 581.007 729.714 581.561C729.333 582.095 728.894 582.658 728.398 583.25C727.901 583.841 727.348 584.471 726.737 585.139L721.9 590.491H728.512C729.371 590.491 729.953 590.272 730.258 589.833C730.563 589.394 730.783 588.898 730.917 588.345L731.031 587.829H732.233L732.09 592.781H719.782Z" fill="#767676" fill-opacity="0.5"/>
<path d="M112.109 71.5596L98.3377 95.4128H125.881L112.109 71.5596ZM112.109 520H114.495L114.495 93.0275H112.109H109.724L109.724 520H112.109Z" fill="#1C3343"/>
<path d="M65.9112 351.881C65.9112 353.77 65.4723 355.364 64.5945 356.661C63.7167 357.959 62.4955 358.942 60.9307 359.609C59.3468 360.258 57.4958 360.583 55.3777 360.583C53.3167 360.583 51.5039 360.239 49.9391 359.552C48.3553 358.846 47.1244 357.816 46.2466 356.461C45.3498 355.087 44.9013 353.398 44.9013 351.394C44.9013 350.097 45.0444 349.019 45.3307 348.16C45.5978 347.301 45.9795 346.662 46.4756 346.242C46.9527 345.822 47.4966 345.612 48.1072 345.612C48.7178 345.612 49.2044 345.851 49.567 346.328C49.9296 346.805 50.1109 347.397 50.1109 348.103C49.5193 348.103 48.9468 348.208 48.3934 348.418C47.821 348.627 47.3534 348.98 46.9909 349.477C46.6092 349.954 46.4184 350.612 46.4184 351.452C46.4184 352.883 46.7714 354.037 47.4775 354.915C48.1644 355.793 49.1758 356.432 50.5116 356.833C51.8474 357.215 53.4694 357.405 55.3777 357.405C57.076 357.405 58.5835 357.205 59.9002 356.804C61.1978 356.385 62.2092 355.736 62.9344 354.858C63.6595 353.98 64.0221 352.845 64.0221 351.452C64.0221 350.517 63.9076 349.725 63.6786 349.076C63.4496 348.427 63.1538 347.883 62.7912 347.444C62.4096 346.986 62.0089 346.595 61.589 346.271C61.6844 346.118 61.8276 345.994 62.0184 345.899C62.1901 345.784 62.4191 345.727 62.7054 345.727C63.0679 345.727 63.44 345.851 63.8217 346.099C64.1843 346.347 64.5278 346.719 64.8522 347.215C65.1575 347.711 65.4151 348.351 65.625 349.133C65.8158 349.896 65.9112 350.812 65.9112 351.881ZM65.9112 336.417C65.9112 338.478 65.2529 340.1 63.9362 341.283C62.6195 342.466 60.6158 343.058 57.9252 343.058C55.2536 343.058 53.269 342.495 51.9714 341.369C50.6547 340.224 49.9964 338.544 49.9964 336.331C49.9964 334.27 50.6547 332.648 51.9714 331.465C53.269 330.282 55.2536 329.69 57.9252 329.69C60.6158 329.69 62.6195 330.263 63.9362 331.408C65.2529 332.533 65.9112 334.203 65.9112 336.417ZM64.4228 336.36C64.4228 335.405 64.1843 334.642 63.7072 334.07C63.2111 333.497 62.4764 333.087 61.5032 332.839C60.53 332.591 59.3373 332.467 57.9252 332.467C56.494 332.467 55.3109 332.6 54.3758 332.867C53.4217 333.115 52.7061 333.526 52.229 334.098C51.752 334.671 51.5134 335.434 51.5134 336.388C51.5134 337.342 51.752 338.106 52.229 338.678C52.7061 339.251 53.4217 339.661 54.3758 339.909C55.3109 340.157 56.494 340.281 57.9252 340.281C59.3373 340.281 60.53 340.157 61.5032 339.909C62.4764 339.642 63.2111 339.222 63.7072 338.649C64.1843 338.077 64.4228 337.314 64.4228 336.36ZM65.625 327.31H64.4228V327.081C64.4228 326.642 64.3751 326.251 64.2797 325.908C64.1843 325.545 63.9934 325.259 63.7072 325.049C63.4019 324.839 62.9534 324.734 62.3619 324.734H53.4312C52.8588 324.734 52.4389 324.839 52.1718 325.049C51.8855 325.259 51.7043 325.535 51.6279 325.879C51.5325 326.222 51.4848 326.604 51.4848 327.024V327.167H50.2826V322.53L52.6011 322.158V322.015C51.876 321.614 51.3322 321.194 50.9696 320.755C50.5879 320.297 50.3303 319.801 50.1967 319.267C50.0632 318.733 49.9964 318.16 49.9964 317.549C49.9964 316.042 50.4448 314.868 51.3417 314.029C52.2195 313.17 53.6411 312.741 55.6066 312.741H62.3619C62.9534 312.741 63.4019 312.655 63.7072 312.483C63.9934 312.292 64.1843 312.035 64.2797 311.71C64.3751 311.386 64.4228 311.014 64.4228 310.594V310.451H65.625V315.431H55.7498C54.5094 315.431 53.5457 315.67 52.8588 316.147C52.1718 316.605 51.8283 317.416 51.8283 318.58C51.8283 319.439 52.0478 320.126 52.4866 320.641C52.9065 321.137 53.4694 321.499 54.1755 321.728C54.8815 321.938 55.6448 322.043 56.4654 322.043H62.505C63.0584 322.043 63.4782 321.938 63.7644 321.728C64.0316 321.519 64.2129 321.242 64.3083 320.898C64.3846 320.555 64.4228 320.173 64.4228 319.753V319.61H65.625V327.31ZM65.625 308.89H64.4228V308.518C64.4228 308.079 64.3751 307.688 64.2797 307.344C64.1843 306.982 63.9934 306.695 63.7072 306.485C63.4019 306.275 62.9534 306.171 62.3619 306.171H51.6279V308.775H50.2826V306.171H49.4239C48.2408 306.171 47.2008 305.932 46.3039 305.455C45.407 304.959 44.7105 304.205 44.2144 303.194C43.6991 302.182 43.4415 300.894 43.4415 299.329C43.4415 298.433 43.4988 297.65 43.6133 296.982C43.7277 296.314 43.89 295.761 44.0999 295.322C44.3098 294.883 44.5578 294.549 44.8441 294.32C45.1303 294.091 45.4547 293.977 45.8173 293.977C46.3707 293.977 46.8287 294.215 47.1912 294.692C47.5347 295.169 47.7065 295.799 47.7065 296.582C47.3248 296.582 46.905 296.677 46.447 296.868C45.989 297.059 45.5978 297.393 45.2734 297.87C44.93 298.328 44.7582 298.976 44.7582 299.816C44.7582 300.789 44.9872 301.543 45.4452 302.077C45.8841 302.612 46.4661 302.984 47.1912 303.194C47.8973 303.384 48.6511 303.48 49.4525 303.48H50.2826V293.776H62.3619C62.9534 293.776 63.4019 293.671 63.7072 293.462C63.9934 293.252 64.1843 292.965 64.2797 292.603C64.3751 292.24 64.4228 291.849 64.4228 291.429V291.057H65.625V298.9H64.4228V298.814C64.4228 298.394 64.3846 298.013 64.3083 297.669C64.2129 297.307 64.0316 297.02 63.7644 296.811C63.4782 296.582 63.0584 296.467 62.505 296.467H51.6279V303.48H62.3619C62.9534 303.48 63.4019 303.375 63.7072 303.165C63.9934 302.955 64.1843 302.669 64.2797 302.306C64.3751 301.944 64.4228 301.553 64.4228 301.133V300.617H65.625V308.89ZM65.9112 283.269C65.9112 284.528 65.6345 285.597 65.0811 286.475C64.5278 287.334 63.669 287.992 62.505 288.45C61.3219 288.889 59.8144 289.108 57.9824 289.108C56.1314 289.108 54.6239 288.889 53.4599 288.45C52.2767 287.992 51.4085 287.334 50.8551 286.475C50.2826 285.597 49.9964 284.528 49.9964 283.269C49.9964 282.162 50.2349 281.265 50.712 280.578C51.17 279.872 51.7711 279.309 52.5153 278.89V278.718C52.1909 278.756 51.8474 278.794 51.4848 278.832C51.1222 278.851 50.7597 278.87 50.3971 278.89C50.0155 278.89 49.672 278.89 49.3666 278.89H47.0195C46.447 278.89 46.0272 279.004 45.76 279.233C45.4738 279.443 45.2925 279.729 45.2162 280.092C45.1208 280.435 45.0731 280.817 45.0731 281.237V281.466H43.8709V276.199H62.4764C63.0298 276.199 63.4496 276.094 63.7358 275.884C64.0221 275.655 64.2129 275.369 64.3083 275.025C64.3846 274.663 64.4228 274.272 64.4228 273.852V273.623H65.625V278.46L63.0489 278.775V278.89C63.9267 279.309 64.6232 279.863 65.1384 280.55C65.6536 281.237 65.9112 282.143 65.9112 283.269ZM64.0793 282.782C64.0793 281.294 63.5832 280.273 62.5909 279.72C61.5795 279.166 60.0433 278.89 57.9824 278.89C56.6467 278.89 55.5303 279.014 54.6334 279.262C53.7175 279.491 53.021 279.891 52.5439 280.464C52.0668 281.017 51.8283 281.8 51.8283 282.811C51.8283 283.651 52.0668 284.328 52.5439 284.843C53.021 285.359 53.7175 285.74 54.6334 285.988C55.5494 286.217 56.6753 286.332 58.0111 286.332C59.3659 286.332 60.4918 286.217 61.3887 285.988C62.2856 285.74 62.963 285.359 63.421 284.843C63.8599 284.309 64.0793 283.622 64.0793 282.782ZM65.9112 264.885C65.9112 266.965 65.2243 268.597 63.8503 269.78C62.4764 270.944 60.549 271.526 58.0683 271.526C55.3967 271.526 53.3835 270.972 52.0287 269.866C50.6738 268.759 49.9964 267.194 49.9964 265.171C49.9964 263.32 50.5689 261.87 51.7138 260.82C52.8588 259.752 54.5666 259.218 56.8375 259.218H58.1542V268.749C59.5472 268.711 60.6826 268.53 61.5604 268.205C62.4382 267.881 63.087 267.414 63.5068 266.803C63.9076 266.173 64.1079 265.4 64.1079 264.484C64.1079 263.816 64.0125 263.225 63.8217 262.71C63.6309 262.175 63.3828 261.717 63.0775 261.336C62.7722 260.935 62.4478 260.62 62.1043 260.391C62.1615 260.258 62.276 260.134 62.4478 260.019C62.6195 259.905 62.8294 259.847 63.0775 259.847C63.4591 259.847 63.8694 260.029 64.3083 260.391C64.7472 260.754 65.1289 261.307 65.4533 262.051C65.7586 262.796 65.9112 263.74 65.9112 264.885ZM56.6085 262.109C55.5971 262.109 54.7098 262.214 53.9465 262.423C53.1832 262.614 52.5916 262.939 52.1718 263.397C51.752 263.855 51.5421 264.465 51.5421 265.229C51.5421 265.935 51.7424 266.536 52.1432 267.032C52.5248 267.509 53.0878 267.891 53.832 268.177C54.5762 268.444 55.5017 268.616 56.6085 268.692V262.109ZM65.625 256.98H64.4228V256.751C64.4228 256.313 64.3751 255.921 64.2797 255.578C64.1843 255.215 63.9934 254.929 63.7072 254.719C63.4019 254.509 62.9534 254.404 62.3619 254.404H53.4312C52.8588 254.404 52.4389 254.509 52.1718 254.719C51.8855 254.929 51.7043 255.206 51.6279 255.549C51.5325 255.893 51.4848 256.274 51.4848 256.694V256.837H50.2826V252.2L52.6011 251.828V251.685C51.876 251.284 51.3322 250.864 50.9696 250.426C50.5879 249.968 50.3303 249.471 50.1967 248.937C50.0632 248.403 49.9964 247.83 49.9964 247.22C49.9964 245.712 50.4448 244.539 51.3417 243.699C52.2195 242.84 53.6411 242.411 55.6066 242.411H62.3619C62.9534 242.411 63.4019 242.325 63.7072 242.153C63.9934 241.962 64.1843 241.705 64.2797 241.38C64.3751 241.056 64.4228 240.684 64.4228 240.264V240.121H65.625V245.102H55.7498C54.5094 245.102 53.5457 245.34 52.8588 245.817C52.1718 246.275 51.8283 247.086 51.8283 248.25C51.8283 249.109 52.0478 249.796 52.4866 250.311C52.9065 250.807 53.4694 251.17 54.1755 251.399C54.8815 251.609 55.6448 251.714 56.4654 251.714H62.505C63.0584 251.714 63.4782 251.609 63.7644 251.399C64.0316 251.189 64.2129 250.912 64.3083 250.569C64.3846 250.225 64.4228 249.844 64.4228 249.424V249.281H65.625V256.98ZM65.9112 231.232C65.9112 232.492 65.6441 233.618 65.1098 234.61C64.5755 235.583 63.7358 236.356 62.5909 236.929C61.4268 237.482 59.9098 237.759 58.0397 237.759C55.9978 237.759 54.3949 237.482 53.2309 236.929C52.0478 236.356 51.2177 235.593 50.7406 234.639C50.2444 233.665 49.9964 232.578 49.9964 231.375C49.9964 230.574 50.1013 229.792 50.3112 229.028C50.5211 228.265 50.8455 227.635 51.2844 227.139C51.7043 226.643 52.2481 226.395 52.916 226.395C53.3549 226.395 53.7079 226.49 53.9751 226.681C54.2422 226.872 54.4331 227.158 54.5476 227.54C54.6621 227.902 54.7193 228.37 54.7193 228.942C54.1087 228.942 53.5553 229.019 53.0591 229.171C52.563 229.305 52.1718 229.544 51.8855 229.887C51.5802 230.231 51.4276 230.727 51.4276 231.375C51.4276 232.101 51.6184 232.74 52 233.293C52.3817 233.828 53.0496 234.247 54.0037 234.553C54.9578 234.839 56.2936 234.982 58.0111 234.982C59.3659 234.982 60.4918 234.839 61.3887 234.553C62.2856 234.247 62.9534 233.78 63.3923 233.15C63.8312 232.52 64.0507 231.69 64.0507 230.66C64.0507 230.068 63.9648 229.524 63.7931 229.028C63.6213 228.532 63.3828 228.103 63.0775 227.74C62.7722 227.359 62.4287 227.063 62.047 226.853C62.1615 226.7 62.3142 226.586 62.505 226.509C62.6767 226.414 62.8962 226.366 63.1633 226.366C63.6022 226.366 64.0316 226.548 64.4514 226.91C64.8712 227.273 65.2243 227.817 65.5105 228.542C65.7777 229.248 65.9112 230.145 65.9112 231.232ZM65.9112 217.03C65.9112 219.11 65.2243 220.741 63.8503 221.924C62.4764 223.088 60.549 223.67 58.0683 223.67C55.3967 223.67 53.3835 223.117 52.0287 222.01C50.6738 220.903 49.9964 219.339 49.9964 217.316C49.9964 215.465 50.5689 214.015 51.7138 212.965C52.8588 211.896 54.5666 211.362 56.8375 211.362H58.1542L58.1542 220.894C59.5472 220.856 60.6826 220.674 61.5604 220.35C62.4382 220.026 63.087 219.558 63.5068 218.947C63.9076 218.318 64.1079 217.545 64.1079 216.629C64.1079 215.961 64.0125 215.369 63.8217 214.854C63.6309 214.32 63.3828 213.862 63.0775 213.48C62.7722 213.079 62.4478 212.765 62.1043 212.536C62.1615 212.402 62.276 212.278 62.4478 212.164C62.6195 212.049 62.8294 211.992 63.0775 211.992C63.4591 211.992 63.8694 212.173 64.3083 212.536C64.7472 212.898 65.1289 213.452 65.4533 214.196C65.7586 214.94 65.9112 215.885 65.9112 217.03ZM56.6085 214.253C55.5971 214.253 54.7098 214.358 53.9465 214.568C53.1832 214.759 52.5916 215.083 52.1718 215.541C51.752 215.999 51.5421 216.61 51.5421 217.373C51.5421 218.079 51.7424 218.68 52.1432 219.176C52.5248 219.653 53.0878 220.035 53.832 220.321C54.5762 220.588 55.5017 220.76 56.6085 220.837L56.6085 214.253Z" fill="#1C3343"/>
<path d="M717.981 519.997L694.182 506.131L694.074 533.674L717.981 519.997ZM112.109 517.611L112.1 519.997L696.504 522.297L696.513 519.912L696.523 517.527L112.119 515.226L112.109 517.611Z" fill="#1C3343"/>
<path d="M111.472 492.75C111.472 492.75 285.046 446.055 426.972 361.376C568.899 276.697 686.334 130.181 686.334 130.181" stroke="#747FF4" stroke-width="4.77064" stroke-linecap="round"/>
<path d="M111.946 492.581C362.571 478.258 459.177 410.275 693.964 411.48" stroke="#767676" stroke-opacity="0.5" stroke-width="4.77064" stroke-linecap="round"/>
<path d="M502.174 385.544C500.113 385.544 498.491 384.886 497.308 383.569C496.125 382.252 495.533 380.249 495.533 377.558C495.533 374.886 496.096 372.902 497.222 371.604C498.367 370.288 500.046 369.629 502.26 369.629C504.321 369.629 505.943 370.288 507.126 371.604C508.309 372.902 508.9 374.886 508.9 377.558C508.9 380.249 508.328 382.252 507.183 383.569C506.057 384.886 504.387 385.544 502.174 385.544ZM502.231 384.056C503.185 384.056 503.948 383.817 504.521 383.34C505.093 382.844 505.504 382.109 505.752 381.136C506 380.163 506.124 378.97 506.124 377.558C506.124 376.127 505.99 374.944 505.723 374.009C505.475 373.055 505.065 372.339 504.492 371.862C503.92 371.385 503.157 371.146 502.202 371.146C501.248 371.146 500.485 371.385 499.913 371.862C499.34 372.339 498.93 373.055 498.682 374.009C498.434 374.944 498.31 376.127 498.31 377.558C498.31 378.97 498.434 380.163 498.682 381.136C498.949 382.109 499.369 382.844 499.941 383.34C500.514 383.817 501.277 384.056 502.231 384.056ZM517.349 385.544C515.898 385.544 514.839 385.22 514.171 384.571C513.523 383.903 513.198 382.748 513.198 381.107V371.547H511.023V370.402C511.366 370.402 511.748 370.335 512.168 370.202C512.588 370.049 512.95 369.81 513.255 369.486C513.58 369.143 513.847 368.723 514.057 368.227C514.267 367.73 514.439 367.12 514.572 366.395H515.889V369.915H519.639V371.547H515.889V381.193C515.889 382.166 516.089 382.882 516.49 383.34C516.891 383.798 517.415 384.027 518.064 384.027C518.408 384.027 518.723 384.008 519.009 383.97C519.295 383.932 519.591 383.884 519.896 383.827V385.086C519.648 385.201 519.276 385.306 518.78 385.401C518.284 385.496 517.807 385.544 517.349 385.544ZM521.057 385.258V384.056H521.286C521.725 384.056 522.116 384.008 522.46 383.912C522.822 383.817 523.109 383.626 523.319 383.34C523.528 383.035 523.633 382.586 523.633 381.995V366.652C523.633 366.08 523.519 365.66 523.29 365.393C523.08 365.107 522.794 364.925 522.431 364.849C522.088 364.754 521.706 364.706 521.286 364.706H521.057V363.504H526.324V369.801C526.324 370.144 526.315 370.507 526.295 370.889C526.276 371.251 526.257 371.566 526.238 371.833C526.219 372.1 526.21 372.234 526.21 372.234H526.353C526.639 371.661 526.982 371.184 527.383 370.803C527.803 370.402 528.27 370.106 528.786 369.915C529.32 369.725 529.912 369.629 530.56 369.629C532.201 369.629 533.451 370.078 534.31 370.975C535.188 371.852 535.627 373.274 535.627 375.239V381.995C535.627 382.586 535.722 383.035 535.913 383.34C536.104 383.626 536.361 383.817 536.686 383.912C537.029 384.008 537.411 384.056 537.831 384.056H537.917V385.258H532.936V375.383C532.936 374.142 532.698 373.179 532.221 372.492C531.763 371.805 530.952 371.461 529.788 371.461C529.005 371.461 528.356 371.652 527.841 372.034C527.326 372.415 526.944 372.959 526.696 373.665C526.448 374.352 526.324 375.163 526.324 376.098V382.138C526.324 382.691 526.429 383.111 526.639 383.397C526.868 383.664 527.154 383.846 527.498 383.941C527.86 384.017 528.251 384.056 528.671 384.056H528.757V385.258H521.057ZM546.927 385.544C544.847 385.544 543.215 384.857 542.032 383.483C540.868 382.109 540.286 380.182 540.286 377.701C540.286 375.03 540.839 373.016 541.946 371.661C543.053 370.307 544.618 369.629 546.64 369.629C548.491 369.629 549.942 370.202 550.991 371.347C552.06 372.492 552.594 374.199 552.594 376.47V377.787H543.062C543.1 379.18 543.282 380.315 543.606 381.193C543.931 382.071 544.398 382.72 545.009 383.14C545.638 383.54 546.411 383.741 547.327 383.741C547.995 383.741 548.587 383.645 549.102 383.455C549.636 383.264 550.094 383.016 550.476 382.71C550.877 382.405 551.191 382.081 551.42 381.737C551.554 381.794 551.678 381.909 551.793 382.081C551.907 382.252 551.964 382.462 551.964 382.71C551.964 383.092 551.783 383.502 551.42 383.941C551.058 384.38 550.504 384.762 549.76 385.086C549.016 385.391 548.071 385.544 546.927 385.544ZM549.703 376.241C549.703 375.23 549.598 374.343 549.388 373.579C549.197 372.816 548.873 372.224 548.415 371.805C547.957 371.385 547.346 371.175 546.583 371.175C545.877 371.175 545.276 371.375 544.78 371.776C544.303 372.158 543.921 372.721 543.635 373.465C543.368 374.209 543.196 375.135 543.12 376.241H549.703ZM554.974 385.258V384.056H555.06C555.499 384.056 555.89 384.008 556.234 383.912C556.596 383.817 556.883 383.626 557.092 383.34C557.302 383.035 557.407 382.586 557.407 381.995V373.064C557.407 372.492 557.293 372.072 557.064 371.805C556.854 371.518 556.568 371.337 556.205 371.261C555.862 371.165 555.48 371.118 555.06 371.118H554.974V369.915H559.382L559.926 372.749H560.069C560.317 372.177 560.585 371.652 560.871 371.175C561.157 370.698 561.539 370.326 562.016 370.059C562.493 369.772 563.151 369.629 563.991 369.629C565.04 369.629 565.813 369.81 566.309 370.173C566.825 370.536 567.082 371.051 567.082 371.719C567.082 372.31 566.872 372.797 566.452 373.179C566.052 373.56 565.374 373.751 564.42 373.751C564.42 373.217 564.372 372.787 564.277 372.463C564.182 372.139 564.019 371.9 563.79 371.747C563.581 371.595 563.285 371.518 562.903 371.518C562.369 371.518 561.92 371.728 561.558 372.148C561.195 372.568 560.909 373.102 560.699 373.751C560.489 374.4 560.336 375.077 560.241 375.783C560.146 376.47 560.098 377.09 560.098 377.644V382.138C560.098 382.691 560.203 383.111 560.413 383.397C560.642 383.664 560.928 383.846 561.272 383.941C561.634 384.017 562.025 384.056 562.445 384.056H563.247V385.258H554.974ZM575.74 385.258V384.056H576.112C576.551 384.056 576.933 384.008 577.257 383.912C577.581 383.817 577.839 383.626 578.03 383.34C578.221 383.035 578.316 382.586 578.316 381.995V373.064C578.316 372.492 578.221 372.072 578.03 371.805C577.839 371.518 577.572 371.337 577.228 371.261C576.904 371.165 576.532 371.118 576.112 371.118H576.026V369.915H580.52L580.892 372.234H581.035C581.417 371.509 581.827 370.965 582.266 370.602C582.705 370.221 583.182 369.963 583.697 369.83C584.213 369.696 584.766 369.629 585.358 369.629C585.968 369.629 586.541 369.715 587.075 369.887C587.628 370.059 588.115 370.335 588.535 370.717C588.955 371.079 589.279 371.585 589.508 372.234H589.737C590.119 371.509 590.539 370.965 590.997 370.602C591.474 370.221 591.979 369.963 592.514 369.83C593.067 369.696 593.639 369.629 594.231 369.629C595.7 369.629 596.845 370.078 597.666 370.975C598.486 371.852 598.897 373.274 598.897 375.239V381.995C598.897 382.586 598.992 383.035 599.183 383.34C599.374 383.626 599.631 383.817 599.956 383.912C600.299 384.008 600.681 384.056 601.101 384.056H601.187V385.258H596.206V375.383C596.206 374.142 595.977 373.179 595.519 372.492C595.08 371.805 594.307 371.461 593.201 371.461C592.418 371.461 591.788 371.661 591.311 372.062C590.853 372.444 590.519 372.959 590.31 373.608C590.119 374.257 590.023 374.963 590.023 375.726V381.995C590.023 382.586 590.119 383.035 590.31 383.34C590.5 383.626 590.758 383.817 591.082 383.912C591.426 384.008 591.808 384.056 592.227 384.056H592.313V385.258H587.333V375.383C587.333 374.142 587.104 373.179 586.646 372.492C586.207 371.805 585.434 371.461 584.327 371.461C583.507 371.461 582.848 371.681 582.352 372.119C581.875 372.539 581.532 373.102 581.322 373.808C581.112 374.514 581.007 375.278 581.007 376.098V382.138C581.007 382.691 581.112 383.111 581.322 383.397C581.551 383.664 581.837 383.846 582.18 383.941C582.543 384.017 582.934 384.056 583.354 384.056H583.44V385.258H575.74ZM610.212 385.544C608.132 385.544 606.501 384.857 605.317 383.483C604.153 382.109 603.571 380.182 603.571 377.701C603.571 375.03 604.125 373.016 605.232 371.661C606.338 370.307 607.903 369.629 609.926 369.629C611.777 369.629 613.227 370.202 614.277 371.347C615.345 372.492 615.88 374.199 615.88 376.47V377.787H606.348C606.386 379.18 606.567 380.315 606.892 381.193C607.216 382.071 607.684 382.72 608.294 383.14C608.924 383.54 609.697 383.741 610.613 383.741C611.281 383.741 611.872 383.645 612.387 383.455C612.922 383.264 613.38 383.016 613.761 382.71C614.162 382.405 614.477 382.081 614.706 381.737C614.84 381.794 614.964 381.909 615.078 382.081C615.193 382.252 615.25 382.462 615.25 382.71C615.25 383.092 615.069 383.502 614.706 383.941C614.343 384.38 613.79 384.762 613.046 385.086C612.302 385.391 611.357 385.544 610.212 385.544ZM612.989 376.241C612.989 375.23 612.884 374.343 612.674 373.579C612.483 372.816 612.158 372.224 611.701 371.805C611.243 371.385 610.632 371.175 609.869 371.175C609.163 371.175 608.561 371.375 608.065 371.776C607.588 372.158 607.207 372.721 606.92 373.465C606.653 374.209 606.481 375.135 606.405 376.241H612.989ZM624.185 385.544C622.735 385.544 621.676 385.22 621.008 384.571C620.359 383.903 620.035 382.748 620.035 381.107V371.547H617.859V370.402C618.203 370.402 618.584 370.335 619.004 370.202C619.424 370.049 619.786 369.81 620.092 369.486C620.416 369.143 620.683 368.723 620.893 368.227C621.103 367.73 621.275 367.12 621.408 366.395H622.725V369.915H626.475V371.547H622.725V381.193C622.725 382.166 622.926 382.882 623.326 383.34C623.727 383.798 624.252 384.027 624.901 384.027C625.244 384.027 625.559 384.008 625.845 383.97C626.131 383.932 626.427 383.884 626.733 383.827V385.086C626.484 385.201 626.112 385.306 625.616 385.401C625.12 385.496 624.643 385.544 624.185 385.544ZM627.894 385.258V384.056H628.123C628.561 384.056 628.953 384.008 629.296 383.912C629.659 383.817 629.945 383.626 630.155 383.34C630.365 383.035 630.47 382.586 630.47 381.995V366.652C630.47 366.08 630.355 365.66 630.126 365.393C629.916 365.107 629.63 364.925 629.268 364.849C628.924 364.754 628.542 364.706 628.123 364.706H627.894V363.504H633.16V369.801C633.16 370.144 633.151 370.507 633.132 370.889C633.113 371.251 633.094 371.566 633.074 371.833C633.055 372.1 633.046 372.234 633.046 372.234H633.189C633.475 371.661 633.819 371.184 634.219 370.803C634.639 370.402 635.107 370.106 635.622 369.915C636.156 369.725 636.748 369.629 637.397 369.629C639.038 369.629 640.288 370.078 641.146 370.975C642.024 371.852 642.463 373.274 642.463 375.239V381.995C642.463 382.586 642.559 383.035 642.749 383.34C642.94 383.626 643.198 383.817 643.522 383.912C643.866 384.008 644.247 384.056 644.667 384.056H644.753V385.258H639.772V375.383C639.772 374.142 639.534 373.179 639.057 372.492C638.599 371.805 637.788 371.461 636.624 371.461C635.841 371.461 635.193 371.652 634.677 372.034C634.162 372.415 633.781 372.959 633.532 373.665C633.284 374.352 633.16 375.163 633.16 376.098V382.138C633.16 382.691 633.265 383.111 633.475 383.397C633.704 383.664 633.99 383.846 634.334 383.941C634.696 384.017 635.088 384.056 635.508 384.056H635.593V385.258H627.894ZM653.763 385.544C651.702 385.544 650.08 384.886 648.897 383.569C647.714 382.252 647.122 380.249 647.122 377.558C647.122 374.886 647.685 372.902 648.811 371.604C649.956 370.288 651.635 369.629 653.849 369.629C655.91 369.629 657.532 370.288 658.715 371.604C659.898 372.902 660.489 374.886 660.489 377.558C660.489 380.249 659.917 382.252 658.772 383.569C657.646 384.886 655.976 385.544 653.763 385.544ZM653.82 384.056C654.774 384.056 655.538 383.817 656.11 383.34C656.682 382.844 657.093 382.109 657.341 381.136C657.589 380.163 657.713 378.97 657.713 377.558C657.713 376.127 657.579 374.944 657.312 374.009C657.064 373.055 656.654 372.339 656.081 371.862C655.509 371.385 654.746 371.146 653.791 371.146C652.837 371.146 652.074 371.385 651.502 371.862C650.929 372.339 650.519 373.055 650.271 374.009C650.023 374.944 649.899 376.127 649.899 377.558C649.899 378.97 650.023 380.163 650.271 381.136C650.538 382.109 650.958 382.844 651.53 383.34C652.103 383.817 652.866 384.056 653.82 384.056ZM669.482 385.544C668.222 385.544 667.153 385.267 666.276 384.714C665.417 384.161 664.759 383.302 664.301 382.138C663.862 380.955 663.642 379.447 663.642 377.615C663.642 375.764 663.862 374.257 664.301 373.093C664.759 371.91 665.417 371.041 666.276 370.488C667.153 369.915 668.222 369.629 669.482 369.629C670.588 369.629 671.485 369.868 672.172 370.345C672.878 370.803 673.441 371.404 673.861 372.148H674.033C673.995 371.824 673.956 371.48 673.918 371.118C673.899 370.755 673.88 370.392 673.861 370.03C673.861 369.648 673.861 369.305 673.861 368.999V366.652C673.861 366.08 673.747 365.66 673.518 365.393C673.308 365.107 673.021 364.925 672.659 364.849C672.315 364.754 671.934 364.706 671.514 364.706H671.285V363.504H676.552V382.109C676.552 382.663 676.657 383.082 676.867 383.369C677.096 383.655 677.382 383.846 677.725 383.941C678.088 384.017 678.479 384.056 678.899 384.056H679.128V385.258H674.29L673.976 382.682H673.861C673.441 383.559 672.888 384.256 672.201 384.771C671.514 385.286 670.607 385.544 669.482 385.544ZM669.968 383.712C671.457 383.712 672.478 383.216 673.031 382.224C673.584 381.212 673.861 379.676 673.861 377.615C673.861 376.279 673.737 375.163 673.489 374.266C673.26 373.35 672.859 372.654 672.287 372.177C671.733 371.7 670.951 371.461 669.94 371.461C669.1 371.461 668.422 371.7 667.907 372.177C667.392 372.654 667.01 373.35 666.762 374.266C666.533 375.182 666.419 376.308 666.419 377.644C666.419 378.999 666.533 380.125 666.762 381.021C667.01 381.918 667.392 382.596 667.907 383.054C668.442 383.493 669.129 383.712 669.968 383.712ZM685.661 385.544C684.707 385.544 683.877 385.43 683.171 385.201C682.465 384.972 681.912 384.638 681.511 384.199C681.129 383.741 680.938 383.178 680.938 382.51C680.938 381.995 681.043 381.594 681.253 381.308C681.463 381.021 681.702 380.821 681.969 380.707C682.255 380.592 682.513 380.535 682.742 380.535C682.742 381.203 682.837 381.813 683.028 382.367C683.219 382.92 683.543 383.359 684.001 383.684C684.459 384.008 685.07 384.17 685.833 384.17C686.845 384.17 687.617 383.932 688.152 383.455C688.705 382.958 688.982 382.329 688.982 381.565C688.982 381.088 688.877 380.697 688.667 380.392C688.476 380.086 688.123 379.791 687.608 379.504C687.112 379.199 686.396 378.846 685.461 378.445C684.488 378.006 683.677 377.587 683.028 377.186C682.398 376.766 681.921 376.289 681.597 375.755C681.292 375.201 681.139 374.514 681.139 373.694C681.139 372.396 681.625 371.404 682.599 370.717C683.591 370.011 684.898 369.658 686.52 369.658C687.436 369.658 688.199 369.782 688.81 370.03C689.44 370.259 689.907 370.574 690.213 370.975C690.537 371.375 690.699 371.814 690.699 372.291C690.699 372.806 690.518 373.226 690.155 373.551C689.812 373.856 689.306 374.009 688.638 374.009C688.638 373.055 688.438 372.31 688.037 371.776C687.636 371.242 687.016 370.975 686.177 370.975C685.528 370.975 685.003 371.07 684.602 371.261C684.202 371.452 683.906 371.719 683.715 372.062C683.543 372.406 683.457 372.806 683.457 373.264C683.457 373.741 683.572 374.142 683.801 374.467C684.049 374.791 684.431 375.096 684.946 375.383C685.48 375.65 686.167 375.955 687.007 376.299C688.018 376.718 688.839 377.138 689.468 377.558C690.098 377.978 690.556 378.464 690.842 379.018C691.148 379.571 691.3 380.249 691.3 381.05C691.3 382.539 690.785 383.664 689.755 384.428C688.724 385.172 687.36 385.544 685.661 385.544Z" fill="#767676" fill-opacity="0.5"/>
<path d="M513.357 96.25V94.6137H514.526C514.927 94.6137 515.283 94.5691 515.595 94.4801C515.906 94.3688 516.151 94.1573 516.329 93.8456C516.53 93.5339 516.63 93.0553 516.63 92.4096V74.3098H513.758C513.09 74.3098 512.567 74.4211 512.189 74.6438C511.81 74.8441 511.532 75.1335 511.354 75.512C511.176 75.8905 511.053 76.3246 510.986 76.8144L510.786 78.6511H508.749L508.916 72.4063H528.953L529.12 78.6511H527.083L526.849 76.8144C526.804 76.3246 526.682 75.8905 526.481 75.512C526.303 75.1335 526.025 74.8441 525.647 74.6438C525.268 74.4211 524.745 74.3098 524.077 74.3098H521.205V92.3762C521.205 93.0219 521.294 93.5117 521.472 93.8456C521.65 94.1573 521.906 94.3688 522.24 94.4801C522.574 94.5691 522.93 94.6137 523.309 94.6137H524.478V96.25H513.357ZM538.323 96.5839C535.651 96.5839 533.592 95.7825 532.145 94.1795C530.72 92.5543 530.007 90.2946 530.007 87.4005C530.007 84.2836 530.698 81.9349 532.078 80.3542C533.48 78.7513 535.44 77.9498 537.955 77.9498C540.293 77.9498 542.118 78.6288 543.432 79.9869C544.768 81.3227 545.436 83.3152 545.436 85.9645V87.6008H534.415C534.46 89.1592 534.66 90.4282 535.017 91.4078C535.395 92.3651 535.918 93.0775 536.586 93.545C537.276 94.0126 538.111 94.2463 539.091 94.2463C539.87 94.2463 540.56 94.135 541.161 93.9124C541.785 93.6675 542.319 93.3558 542.764 92.9773C543.209 92.5766 543.566 92.1425 543.833 91.675C544.078 91.7863 544.267 91.9755 544.4 92.2427C544.556 92.4876 544.634 92.777 544.634 93.1109C544.634 93.6675 544.4 94.2129 543.933 94.7472C543.488 95.2816 542.797 95.7268 541.862 96.083C540.95 96.417 539.77 96.5839 538.323 96.5839ZM540.994 85.5972C540.994 84.4617 540.894 83.471 540.694 82.625C540.493 81.7791 540.17 81.1334 539.725 80.6882C539.302 80.2206 538.723 79.9869 537.989 79.9869C537.276 79.9869 536.664 80.1984 536.152 80.6214C535.662 81.0444 535.273 81.6789 534.983 82.5249C534.716 83.3486 534.549 84.3727 534.482 85.5972H540.994ZM547.694 96.25V94.6137H547.828C548.34 94.6137 548.796 94.558 549.197 94.4467C549.598 94.3354 549.91 94.1128 550.132 93.7788C550.377 93.4449 550.5 92.9439 550.5 92.2761V82.1909C550.5 81.5453 550.388 81.0666 550.166 80.755C549.943 80.4433 549.642 80.2429 549.264 80.1539C548.908 80.0425 548.485 79.9869 547.995 79.9869H547.861V78.3505H554.273L554.707 80.8551H554.874C555.32 80.0091 555.798 79.3858 556.31 78.985C556.845 78.562 557.412 78.2838 558.013 78.1502C558.637 78.0166 559.305 77.9498 560.017 77.9498C561.754 77.9498 563.112 78.4619 564.091 79.486C565.071 80.5101 565.561 82.1575 565.561 84.4283V92.2427C565.561 92.9328 565.65 93.4449 565.828 93.7788C566.028 94.1128 566.295 94.3354 566.629 94.4467C566.985 94.558 567.408 94.6137 567.898 94.6137H568.032V96.25H561.219V85.0628C561.219 83.6157 560.985 82.5026 560.518 81.7234C560.073 80.9219 559.294 80.5212 558.18 80.5212C557.334 80.5212 556.666 80.7661 556.177 81.2559C555.709 81.7457 555.364 82.3913 555.141 83.1928C554.941 83.9942 554.841 84.8625 554.841 85.7975V92.4096C554.841 93.0553 554.941 93.5339 555.141 93.8456C555.364 94.1573 555.665 94.3688 556.043 94.4801C556.422 94.5691 556.856 94.6137 557.345 94.6137H557.479V96.25H547.694ZM569.707 96.25V94.6137H569.908C570.42 94.6137 570.865 94.558 571.244 94.4467C571.644 94.3354 571.956 94.1128 572.179 93.7788C572.401 93.4449 572.513 92.9439 572.513 92.2761V82.1241C572.513 81.4785 572.401 80.9998 572.179 80.6882C571.978 80.3765 571.689 80.1761 571.31 80.0871C570.954 79.9757 570.531 79.9201 570.041 79.9201H569.941V78.3505H576.286L576.72 80.8551H576.887C577.333 80.0091 577.811 79.3858 578.323 78.985C578.835 78.562 579.392 78.2838 579.993 78.1502C580.616 78.0166 581.273 77.9498 581.963 77.9498C582.742 77.9498 583.455 78.05 584.1 78.2504C584.746 78.4507 585.314 78.7624 585.804 79.1854C586.293 79.5861 586.672 80.1427 586.939 80.8551H587.206C587.651 80.0091 588.152 79.3858 588.709 78.985C589.266 78.562 589.855 78.2838 590.479 78.1502C591.124 78.0166 591.803 77.9498 592.516 77.9498C594.23 77.9498 595.566 78.4619 596.523 79.486C597.503 80.5101 597.993 82.1575 597.993 84.4283V92.2427C597.993 92.9328 598.082 93.4449 598.26 93.7788C598.46 94.1128 598.738 94.3354 599.095 94.4467C599.451 94.558 599.874 94.6137 600.364 94.6137H600.464V96.25H593.651V85.0628C593.651 83.6157 593.429 82.5026 592.983 81.7234C592.538 80.9219 591.77 80.5212 590.679 80.5212C589.9 80.5212 589.266 80.7438 588.776 81.1891C588.308 81.6343 587.963 82.2243 587.74 82.959C587.54 83.6937 587.44 84.4951 587.44 85.3634V92.2427C587.44 92.9106 587.529 93.4226 587.707 93.7788C587.907 94.1128 588.186 94.3354 588.542 94.4467C588.898 94.558 589.321 94.6137 589.811 94.6137H589.911V96.25H583.099V85.0628C583.099 83.6157 582.876 82.5026 582.431 81.7234C581.986 80.9219 581.217 80.5212 580.127 80.5212C579.303 80.5212 578.646 80.7661 578.156 81.2559C577.689 81.7457 577.355 82.3913 577.154 83.1928C576.954 83.9942 576.854 84.8625 576.854 85.7975V92.4096C576.854 93.0553 576.965 93.5339 577.188 93.8456C577.41 94.1573 577.711 94.3688 578.089 94.4801C578.468 94.5691 578.902 94.6137 579.392 94.6137H579.492V96.25H569.707ZM601.957 96.25V94.6137H602.392C602.77 94.6137 603.148 94.5691 603.527 94.4801C603.928 94.3688 604.25 94.1573 604.495 93.8456C604.763 93.5339 604.896 93.0664 604.896 92.443V82.0907C604.896 81.4674 604.763 81.011 604.495 80.7216C604.228 80.4099 603.905 80.2095 603.527 80.1205C603.148 80.0314 602.77 79.9869 602.392 79.9869H602.091V78.3505H609.237V92.3762C609.237 93.0219 609.36 93.5117 609.605 93.8456C609.85 94.1573 610.172 94.3688 610.573 94.4801C610.974 94.5691 611.364 94.6137 611.742 94.6137H612.143V96.25H601.957ZM606.9 75.2115C606.21 75.2115 605.62 75.0334 605.13 74.6772C604.662 74.3209 604.429 73.7421 604.429 72.9406C604.429 72.1169 604.662 71.5381 605.13 71.2041C605.62 70.8479 606.221 70.6698 606.933 70.6698C607.601 70.6698 608.18 70.8479 608.67 71.2041C609.159 71.5381 609.404 72.1169 609.404 72.9406C609.404 73.7421 609.159 74.3209 608.67 74.6772C608.18 75.0334 607.59 75.2115 606.9 75.2115ZM613.44 96.25V94.6137H613.573C614.086 94.6137 614.542 94.558 614.943 94.4467C615.343 94.3354 615.655 94.1128 615.878 93.7788C616.123 93.4449 616.245 92.9439 616.245 92.2761V82.1909C616.245 81.5453 616.134 81.0666 615.911 80.755C615.688 80.4433 615.388 80.2429 615.009 80.1539C614.653 80.0425 614.23 79.9869 613.74 79.9869H613.607V78.3505H620.019L620.453 80.8551H620.62C621.065 80.0091 621.544 79.3858 622.056 78.985C622.59 78.562 623.158 78.2838 623.759 78.1502C624.382 78.0166 625.05 77.9498 625.762 77.9498C627.499 77.9498 628.857 78.4619 629.837 79.486C630.816 80.5101 631.306 82.1575 631.306 84.4283V92.2427C631.306 92.9328 631.395 93.4449 631.573 93.7788C631.773 94.1128 632.041 94.3354 632.375 94.4467C632.731 94.558 633.154 94.6137 633.644 94.6137H633.777V96.25H626.965V85.0628C626.965 83.6157 626.731 82.5026 626.263 81.7234C625.818 80.9219 625.039 80.5212 623.926 80.5212C623.08 80.5212 622.412 80.7661 621.922 81.2559C621.455 81.7457 621.109 82.3913 620.887 83.1928C620.687 83.9942 620.586 84.8625 620.586 85.7975V92.4096C620.586 93.0553 620.687 93.5339 620.887 93.8456C621.109 94.1573 621.41 94.3688 621.789 94.4801C622.167 94.5691 622.601 94.6137 623.091 94.6137H623.224V96.25H613.44ZM643.426 96.25V94.6137H643.927C644.35 94.6137 644.706 94.5469 644.996 94.4133C645.285 94.2797 645.552 94.0348 645.797 93.6786C646.042 93.3224 646.298 92.7992 646.565 92.1091L653.879 72.4063H657.686L664.899 92.443C665.099 93.0219 665.311 93.4671 665.533 93.7788C665.778 94.0905 666.046 94.3131 666.335 94.4467C666.647 94.558 666.992 94.6137 667.37 94.6137H667.904V96.25H657.586V94.6137H658.688C659.133 94.6137 659.511 94.5024 659.823 94.2797C660.157 94.0571 660.324 93.7009 660.324 93.2111C660.324 93.0553 660.302 92.8994 660.257 92.7436C660.235 92.5655 660.201 92.4096 660.157 92.2761C660.135 92.1202 660.09 91.9755 660.023 91.8419L658.821 88.3355H650.439L649.371 91.4746C649.304 91.6527 649.237 91.8419 649.17 92.0423C649.126 92.2427 649.081 92.443 649.037 92.6434C649.014 92.8438 649.003 93.0219 649.003 93.1777C649.003 93.6675 649.17 94.0348 649.504 94.2797C649.838 94.5024 650.261 94.6137 650.773 94.6137H651.909V96.25H643.426ZM651.107 86.4654H658.153L656.283 80.8217C656.105 80.2652 655.916 79.6863 655.715 79.0852C655.537 78.4841 655.359 77.8942 655.181 77.3153C655.025 76.7365 654.881 76.191 654.747 75.679C654.658 76.0352 654.547 76.4137 654.413 76.8144C654.302 77.2151 654.179 77.627 654.046 78.05C653.934 78.473 653.801 78.9071 653.645 79.3524C653.511 79.7754 653.367 80.1984 653.211 80.6214L651.107 86.4654ZM668.985 96.25V94.6137H670.02C670.421 94.6137 670.777 94.5691 671.089 94.4801C671.4 94.3688 671.645 94.1573 671.823 93.8456C672.024 93.5117 672.124 93.0219 672.124 92.3762V76.2801C672.124 75.6122 672.024 75.1224 671.823 74.8107C671.645 74.4991 671.4 74.2987 671.089 74.2096C670.777 74.0983 670.421 74.0427 670.02 74.0427H668.985V72.4063H679.805V74.0427H678.769C678.391 74.0427 678.035 74.0983 677.701 74.2096C677.389 74.2987 677.144 74.4991 676.966 74.8107C676.788 75.1224 676.699 75.6122 676.699 76.2801V92.3762C676.699 93.0219 676.788 93.5117 676.966 93.8456C677.144 94.1573 677.389 94.3688 677.701 94.4801C678.035 94.5691 678.391 94.6137 678.769 94.6137H679.805V96.25H668.985Z" fill="#747FF4"/>
</svg>
