<svg width="178" height="45" viewBox="0 0 178 45" fill="none" xmlns="http://www.w3.org/2000/svg">
<path d="M8.20963 0C10.2136 1.727 10.3296 4.885 8.50963 7.086C5.68963 5.982 5.50763 2.343 8.20963 0ZM3.19063 6.617C5.63863 7.697 6.66763 10.667 5.52863 13.431C4.27063 13.217 3.31163 12.573 2.75763 11.411C1.95763 9.735 2.25763 8.149 3.19063 6.617ZM4.64163 20.247C1.58163 20.654 -0.653373 17.54 0.469627 14.52C2.95963 14.667 4.95563 17.373 4.64163 20.247ZM0.000627003 23.113C0.342627 25.554 1.76063 27.371 4.22763 27.444L4.22563 27.445L4.32963 27.442C4.42263 27.439 4.53563 27.436 4.64663 27.425C5.79263 27.305 6.02663 27.019 5.46163 26.046C4.94463 25.155 4.32563 24.214 3.50663 23.638C2.87163 23.192 2.05263 22.996 1.24863 22.804C1.02963 22.752 0.812627 22.701 0.600627 22.644C0.444627 22.602 -0.019373 22.978 0.000627003 23.113ZM12.6606 43.501C13.9706 44.475 15.4066 44.981 17.0226 44.434C18.3196 43.993 19.2186 43.103 19.5536 41.735C17.0276 40.319 13.8136 41.141 12.6606 43.501ZM2.05963 30.852C4.06963 29.684 7.12863 30.584 8.54363 32.687C8.89563 33.212 8.68063 33.464 8.22363 33.733C6.26763 34.891 3.55663 33.95 2.40163 31.688C2.31863 31.516 2.24463 31.34 2.17963 31.16C2.14163 31.061 2.10263 30.96 2.05963 30.853V30.852ZM13.5266 38.31C11.8246 36.21 8.42363 36.014 6.42663 37.898C8.60663 40.632 11.7806 40.816 13.5266 38.31ZM14.7856 30.977C16.3056 32.557 16.1496 35.217 14.4356 37.161C13.3076 36.518 12.8416 35.507 12.8236 34.264C12.8026 32.805 13.4086 31.69 14.7856 30.977ZM6.69663 20.337C8.74363 20.301 10.6576 18.74 11.0726 16.662C8.69963 15.724 6.15763 17.188 5.96763 19.542C5.92263 20.108 6.08263 20.348 6.69663 20.337ZM12.8086 11.799C11.9506 13.852 9.29163 14.759 6.93763 13.796C7.09563 12.655 7.69863 11.816 8.73763 11.318C10.1876 10.626 11.5256 11.008 12.8096 11.799H12.8086ZM9.97963 32.469C8.18863 30.339 9.35563 27.273 12.1096 26.703C13.1906 28.488 12.2496 31.078 9.97963 32.469ZM18.6656 34.367C20.5936 35.544 21.2046 38.141 20.0626 40.384C18.9146 40.157 18.1656 39.464 17.7406 38.391C17.2306 37.099 17.5766 35.567 18.6656 34.367ZM11.4256 4.297C11.7296 1.284 14.3996 -0.31 16.6926 1.091C16.1526 3.326 13.8926 4.722 11.4286 4.295L11.4256 4.297ZM9.63663 7.884C11.0166 5.468 13.7006 5.383 15.7416 7.634C14.8546 9.383 11.5566 9.539 9.63663 7.884ZM7.45963 23.221C6.65963 24.23 6.60263 25.371 7.07063 26.609C9.54063 26.149 11.2406 23.894 10.7856 21.709C9.41763 21.645 8.29763 22.163 7.45963 23.221Z" fill="#767676" fill-opacity="0.8"/>
<path d="M40.6358 17.2742L36.4858 19.7742C36.3024 19.8909 36.1108 19.9409 35.9108 19.9242C35.7108 19.9076 35.5358 19.8409 35.3858 19.7242C35.2358 19.6076 35.1191 19.4617 35.0358 19.2867C34.9524 19.1117 34.9358 18.9159 34.9858 18.6992L36.0858 13.9742L32.4108 10.7992C32.2441 10.6492 32.1399 10.4784 32.0983 10.2867C32.0566 10.0951 32.0691 9.90755 32.1358 9.72422C32.2024 9.54089 32.3024 9.39089 32.4358 9.27422C32.5691 9.15755 32.7524 9.08255 32.9858 9.04922L37.8358 8.62422L39.7108 4.17422C39.7941 3.97422 39.9233 3.82422 40.0983 3.72422C40.2733 3.62422 40.4524 3.57422 40.6358 3.57422C40.8191 3.57422 40.9983 3.62422 41.1733 3.72422C41.3483 3.82422 41.4774 3.97422 41.5608 4.17422L43.4358 8.62422L48.2858 9.04922C48.5191 9.08255 48.7024 9.15755 48.8358 9.27422C48.9691 9.39089 49.0691 9.54089 49.1358 9.72422C49.2024 9.90755 49.2149 10.0951 49.1733 10.2867C49.1316 10.4784 49.0274 10.6492 48.8608 10.7992L45.1858 13.9742L46.2858 18.6992C46.3358 18.9159 46.3191 19.1117 46.2358 19.2867C46.1524 19.4617 46.0358 19.6076 45.8858 19.7242C45.7358 19.8409 45.5608 19.9076 45.3608 19.9242C45.1608 19.9409 44.9691 19.8909 44.7858 19.7742L40.6358 17.2742Z" fill="#FFCC01"/>
<path d="M64.6358 17.2742L60.4858 19.7742C60.3024 19.8909 60.1108 19.9409 59.9108 19.9242C59.7108 19.9076 59.5358 19.8409 59.3858 19.7242C59.2358 19.6076 59.1191 19.4617 59.0358 19.2867C58.9524 19.1117 58.9358 18.9159 58.9858 18.6992L60.0858 13.9742L56.4108 10.7992C56.2441 10.6492 56.1399 10.4784 56.0983 10.2867C56.0566 10.0951 56.0691 9.90755 56.1358 9.72422C56.2024 9.54089 56.3024 9.39089 56.4358 9.27422C56.5691 9.15755 56.7524 9.08255 56.9858 9.04922L61.8358 8.62422L63.7108 4.17422C63.7941 3.97422 63.9233 3.82422 64.0983 3.72422C64.2733 3.62422 64.4524 3.57422 64.6358 3.57422C64.8191 3.57422 64.9983 3.62422 65.1733 3.72422C65.3483 3.82422 65.4774 3.97422 65.5608 4.17422L67.4358 8.62422L72.2858 9.04922C72.5191 9.08255 72.7024 9.15755 72.8358 9.27422C72.9691 9.39089 73.0691 9.54089 73.1358 9.72422C73.2024 9.90755 73.2149 10.0951 73.1733 10.2867C73.1316 10.4784 73.0274 10.6492 72.8608 10.7992L69.1858 13.9742L70.2858 18.6992C70.3358 18.9159 70.3191 19.1117 70.2358 19.2867C70.1524 19.4617 70.0358 19.6076 69.8858 19.7242C69.7358 19.8409 69.5608 19.9076 69.3608 19.9242C69.1608 19.9409 68.9691 19.8909 68.7858 19.7742L64.6358 17.2742Z" fill="#FFCC01"/>
<path d="M88.6358 17.2742L84.4858 19.7742C84.3024 19.8909 84.1108 19.9409 83.9108 19.9242C83.7108 19.9076 83.5358 19.8409 83.3858 19.7242C83.2358 19.6076 83.1191 19.4617 83.0358 19.2867C82.9524 19.1117 82.9358 18.9159 82.9858 18.6992L84.0858 13.9742L80.4108 10.7992C80.2441 10.6492 80.1399 10.4784 80.0983 10.2867C80.0566 10.0951 80.0691 9.90755 80.1358 9.72422C80.2024 9.54089 80.3024 9.39089 80.4358 9.27422C80.5691 9.15755 80.7524 9.08255 80.9858 9.04922L85.8358 8.62422L87.7108 4.17422C87.7941 3.97422 87.9233 3.82422 88.0983 3.72422C88.2733 3.62422 88.4524 3.57422 88.6358 3.57422C88.8191 3.57422 88.9983 3.62422 89.1733 3.72422C89.3483 3.82422 89.4774 3.97422 89.5608 4.17422L91.4358 8.62422L96.2858 9.04922C96.5191 9.08255 96.7024 9.15755 96.8358 9.27422C96.9691 9.39089 97.0691 9.54089 97.1358 9.72422C97.2024 9.90755 97.2149 10.0951 97.1733 10.2867C97.1316 10.4784 97.0274 10.6492 96.8608 10.7992L93.1858 13.9742L94.2858 18.6992C94.3358 18.9159 94.3191 19.1117 94.2358 19.2867C94.1524 19.4617 94.0358 19.6076 93.8858 19.7242C93.7358 19.8409 93.5608 19.9076 93.3608 19.9242C93.1608 19.9409 92.9691 19.8909 92.7858 19.7742L88.6358 17.2742Z" fill="#FFCC01"/>
<path d="M112.636 17.2742L108.486 19.7742C108.302 19.8909 108.111 19.9409 107.911 19.9242C107.711 19.9076 107.536 19.8409 107.386 19.7242C107.236 19.6076 107.119 19.4617 107.036 19.2867C106.952 19.1117 106.936 18.9159 106.986 18.6992L108.086 13.9742L104.411 10.7992C104.244 10.6492 104.14 10.4784 104.098 10.2867C104.057 10.0951 104.069 9.90755 104.136 9.72422C104.202 9.54089 104.302 9.39089 104.436 9.27422C104.569 9.15755 104.752 9.08255 104.986 9.04922L109.836 8.62422L111.711 4.17422C111.794 3.97422 111.923 3.82422 112.098 3.72422C112.273 3.62422 112.452 3.57422 112.636 3.57422C112.819 3.57422 112.998 3.62422 113.173 3.72422C113.348 3.82422 113.477 3.97422 113.561 4.17422L115.436 8.62422L120.286 9.04922C120.519 9.08255 120.702 9.15755 120.836 9.27422C120.969 9.39089 121.069 9.54089 121.136 9.72422C121.202 9.90755 121.215 10.0951 121.173 10.2867C121.132 10.4784 121.027 10.6492 120.861 10.7992L117.186 13.9742L118.286 18.6992C118.336 18.9159 118.319 19.1117 118.236 19.2867C118.152 19.4617 118.036 19.6076 117.886 19.7242C117.736 19.8409 117.561 19.9076 117.361 19.9242C117.161 19.9409 116.969 19.8909 116.786 19.7742L112.636 17.2742Z" fill="#FFCC01"/>
<path d="M136.636 17.2742L132.486 19.7742C132.302 19.8909 132.111 19.9409 131.911 19.9242C131.711 19.9076 131.536 19.8409 131.386 19.7242C131.236 19.6076 131.119 19.4617 131.036 19.2867C130.952 19.1117 130.936 18.9159 130.986 18.6992L132.086 13.9742L128.411 10.7992C128.244 10.6492 128.14 10.4784 128.098 10.2867C128.057 10.0951 128.069 9.90755 128.136 9.72422C128.202 9.54089 128.302 9.39089 128.436 9.27422C128.569 9.15755 128.752 9.08255 128.986 9.04922L133.836 8.62422L135.711 4.17422C135.794 3.97422 135.923 3.82422 136.098 3.72422C136.273 3.62422 136.452 3.57422 136.636 3.57422C136.819 3.57422 136.998 3.62422 137.173 3.72422C137.348 3.82422 137.477 3.97422 137.561 4.17422L139.436 8.62422L144.286 9.04922C144.519 9.08255 144.702 9.15755 144.836 9.27422C144.969 9.39089 145.069 9.54089 145.136 9.72422C145.202 9.90755 145.215 10.0951 145.173 10.2867C145.132 10.4784 145.027 10.6492 144.861 10.7992L141.186 13.9742L142.286 18.6992C142.336 18.9159 142.319 19.1117 142.236 19.2867C142.152 19.4617 142.036 19.6076 141.886 19.7242C141.736 19.8409 141.561 19.9076 141.361 19.9242C141.161 19.9409 140.969 19.8909 140.786 19.7742L136.636 17.2742Z" fill="#FFCC01"/>
<path d="M64.3337 39V36.744H58.1897V35.704L63.7257 27.688H65.7257V35.48H67.0537V36.744H65.7257V39H64.3337ZM59.8697 35.48H64.3337V28.952L59.8697 35.48ZM69.5072 39.128C69.2298 39.128 69.0005 39.0373 68.8192 38.856C68.6378 38.6747 68.5472 38.4453 68.5472 38.168C68.5472 37.8907 68.6378 37.6613 68.8192 37.48C69.0005 37.2987 69.2298 37.208 69.5072 37.208C69.7845 37.208 70.0138 37.2987 70.1952 37.48C70.3765 37.6613 70.4672 37.8907 70.4672 38.168C70.4672 38.4453 70.3765 38.6747 70.1952 38.856C70.0138 39.0373 69.7845 39.128 69.5072 39.128ZM76.0337 39.128C75.5217 39.128 75.0203 39.0747 74.5297 38.968C74.0497 38.8507 73.6177 38.664 73.2337 38.408C72.8497 38.152 72.5403 37.816 72.3057 37.4C72.0817 36.9733 71.9697 36.456 71.9697 35.848C71.9697 35.4213 72.0443 35.032 72.1937 34.68C72.343 34.328 72.5563 34.024 72.8337 33.768C73.1217 33.512 73.4577 33.3093 73.8417 33.16C73.415 32.9573 73.0897 32.7067 72.8657 32.408C72.6417 32.0987 72.4923 31.7787 72.4177 31.448C72.343 31.1173 72.3057 30.8187 72.3057 30.552C72.3057 30.0187 72.407 29.5653 72.6097 29.192C72.823 28.8187 73.1057 28.5093 73.4577 28.264C73.8203 28.0187 74.2203 27.8427 74.6577 27.736C75.1057 27.6187 75.5643 27.56 76.0337 27.56C76.503 27.56 76.9563 27.6187 77.3937 27.736C77.8417 27.8427 78.2417 28.0187 78.5937 28.264C78.9563 28.5093 79.239 28.8187 79.4417 29.192C79.655 29.5653 79.7617 30.0187 79.7617 30.552C79.7617 30.8293 79.719 31.128 79.6337 31.448C79.559 31.768 79.4097 32.0773 79.1857 32.376C78.9617 32.664 78.6363 32.9093 78.2097 33.112C78.615 33.2613 78.9563 33.4693 79.2337 33.736C79.5217 34.0027 79.735 34.3173 79.8737 34.68C80.023 35.032 80.0977 35.4213 80.0977 35.848C80.0977 36.456 79.9803 36.9733 79.7457 37.4C79.5217 37.816 79.2123 38.152 78.8177 38.408C78.4337 38.664 78.0017 38.8507 77.5217 38.968C77.0417 39.0747 76.5457 39.128 76.0337 39.128ZM76.0337 37.864C76.2897 37.864 76.567 37.8373 76.8657 37.784C77.1643 37.7307 77.447 37.6347 77.7137 37.496C77.991 37.3467 78.215 37.144 78.3857 36.888C78.567 36.6213 78.6577 36.28 78.6577 35.864C78.6577 35.3733 78.5297 34.984 78.2737 34.696C78.0283 34.408 77.703 34.2 77.2977 34.072C76.903 33.944 76.4817 33.88 76.0337 33.88C75.5963 33.88 75.175 33.944 74.7697 34.072C74.3643 34.2 74.0337 34.408 73.7777 34.696C73.5217 34.984 73.3937 35.3733 73.3937 35.864C73.3937 36.28 73.479 36.6213 73.6497 36.888C73.831 37.144 74.0603 37.3467 74.3377 37.496C74.615 37.6347 74.903 37.7307 75.2017 37.784C75.5003 37.8373 75.7777 37.864 76.0337 37.864ZM76.0337 32.648C76.439 32.648 76.8123 32.584 77.1537 32.456C77.495 32.3173 77.7723 32.1147 77.9857 31.848C78.2097 31.5707 78.3217 31.224 78.3217 30.808C78.3323 30.3173 78.231 29.928 78.0177 29.64C77.8043 29.352 77.5217 29.144 77.1697 29.016C76.8283 28.888 76.4497 28.824 76.0337 28.824C75.607 28.824 75.2177 28.8933 74.8657 29.032C74.5243 29.16 74.2523 29.368 74.0497 29.656C73.847 29.9333 73.7457 30.296 73.7457 30.744C73.7457 31.192 73.8523 31.56 74.0657 31.848C74.2897 32.1253 74.5723 32.328 74.9137 32.456C75.2657 32.584 75.639 32.648 76.0337 32.648ZM88.5073 39.096C88.1233 39.096 87.7339 39.0587 87.3393 38.984C86.9553 38.9093 86.5926 38.7813 86.2513 38.6C85.9206 38.4187 85.6433 38.1733 85.4193 37.864C85.1953 37.5547 85.0513 37.1707 84.9873 36.712H86.3633C86.4699 37 86.6406 37.2347 86.8753 37.416C87.1206 37.5867 87.3926 37.7093 87.6913 37.784C88.0006 37.8587 88.2939 37.896 88.5713 37.896C88.7419 37.896 88.9393 37.8853 89.1633 37.864C89.3873 37.8427 89.6006 37.7947 89.8033 37.72C90.0166 37.6347 90.1873 37.512 90.3153 37.352C90.4539 37.192 90.5233 36.968 90.5233 36.68C90.5233 36.4667 90.4753 36.2907 90.3793 36.152C90.2833 36.0133 90.1499 35.9013 89.9793 35.816C89.8086 35.72 89.6006 35.6507 89.3553 35.608C88.8539 35.5013 88.3153 35.4 87.7393 35.304C87.1739 35.208 86.6726 35.0267 86.2353 34.76C86.0859 34.664 85.9473 34.5573 85.8193 34.44C85.7019 34.312 85.6006 34.1733 85.5153 34.024C85.4299 33.864 85.3606 33.6933 85.3073 33.512C85.2646 33.32 85.2433 33.112 85.2433 32.888C85.2433 32.472 85.3233 32.1147 85.4833 31.816C85.6539 31.5067 85.8886 31.256 86.1873 31.064C86.4859 30.8613 86.8273 30.712 87.2113 30.616C87.6059 30.52 88.0273 30.472 88.4753 30.472C89.0299 30.472 89.5259 30.5627 89.9633 30.744C90.4113 30.9147 90.7793 31.1707 91.0673 31.512C91.3553 31.8427 91.5259 32.2533 91.5793 32.744H90.3153C90.2406 32.4347 90.0379 32.184 89.7073 31.992C89.3766 31.7893 88.9553 31.688 88.4433 31.688C88.2726 31.688 88.0806 31.704 87.8673 31.736C87.6539 31.7573 87.4513 31.8107 87.2593 31.896C87.0673 31.9707 86.9073 32.088 86.7793 32.248C86.6513 32.3973 86.5873 32.6 86.5873 32.856C86.5873 33.0907 86.6459 33.288 86.7633 33.448C86.8913 33.608 87.0673 33.736 87.2913 33.832C87.5153 33.928 87.7713 34.008 88.0593 34.072C88.4326 34.1467 88.8433 34.2267 89.2913 34.312C89.7393 34.3867 90.0913 34.4667 90.3473 34.552C90.6886 34.6587 90.9713 34.808 91.1953 35C91.4299 35.192 91.6006 35.4213 91.7073 35.688C91.8246 35.9547 91.8833 36.264 91.8833 36.616C91.8833 37.1173 91.7819 37.528 91.5793 37.848C91.3873 38.168 91.1259 38.4187 90.7953 38.6C90.4646 38.7813 90.0966 38.9093 89.6913 38.984C89.2966 39.0587 88.9019 39.096 88.5073 39.096ZM96.2639 39.096C95.3786 39.096 94.7546 38.856 94.3919 38.376C94.0399 37.896 93.8639 37.2133 93.8639 36.328V31.768H92.4879V30.568H93.8639V28.04H95.2239V30.568H97.8159V31.768H95.2239V36.152C95.2239 36.472 95.2506 36.7653 95.3039 37.032C95.3572 37.288 95.4692 37.496 95.6399 37.656C95.8106 37.8053 96.0666 37.8853 96.4079 37.896C96.6532 37.896 96.8666 37.8533 97.0479 37.768C97.2399 37.6827 97.3999 37.5813 97.5279 37.464L98.1199 38.456C97.9386 38.6053 97.7466 38.728 97.5439 38.824C97.3519 38.92 97.1492 38.9893 96.9359 39.032C96.7332 39.0747 96.5092 39.096 96.2639 39.096ZM101.664 39.096C101.28 39.096 100.906 39.048 100.544 38.952C100.192 38.8453 99.8717 38.6907 99.5837 38.488C99.3063 38.2747 99.0823 38.0133 98.9117 37.704C98.7517 37.384 98.6717 37.016 98.6717 36.6C98.6717 36.12 98.757 35.7147 98.9277 35.384C99.109 35.0533 99.349 34.792 99.6477 34.6C99.9463 34.408 100.293 34.2693 100.688 34.184C101.082 34.0987 101.493 34.056 101.92 34.056H104.4C104.4 33.576 104.33 33.16 104.192 32.808C104.064 32.456 103.85 32.184 103.552 31.992C103.253 31.7893 102.858 31.688 102.368 31.688C102.069 31.688 101.792 31.72 101.536 31.784C101.28 31.848 101.061 31.9493 100.88 32.088C100.698 32.2267 100.565 32.4133 100.48 32.648H99.0237C99.0983 32.264 99.2423 31.9387 99.4557 31.672C99.6797 31.3947 99.9463 31.1707 100.256 31C100.576 30.8187 100.917 30.6853 101.28 30.6C101.642 30.5147 102.005 30.472 102.368 30.472C103.584 30.472 104.448 30.8293 104.96 31.544C105.472 32.2587 105.728 33.224 105.728 34.44V39H104.592L104.512 37.928C104.277 38.248 103.994 38.4933 103.664 38.664C103.333 38.8347 102.992 38.9467 102.64 39C102.298 39.064 101.973 39.096 101.664 39.096ZM101.792 37.896C102.325 37.896 102.784 37.8107 103.168 37.64C103.562 37.4587 103.866 37.1973 104.08 36.856C104.293 36.5147 104.4 36.0987 104.4 35.608V35.192H102.912C102.56 35.192 102.213 35.1973 101.872 35.208C101.53 35.2187 101.221 35.2613 100.944 35.336C100.666 35.4107 100.442 35.5387 100.272 35.72C100.112 35.9013 100.032 36.1627 100.032 36.504C100.032 36.824 100.112 37.0853 100.272 37.288C100.442 37.4907 100.661 37.6453 100.928 37.752C101.205 37.848 101.493 37.896 101.792 37.896ZM107.355 39V30.568H108.667L108.731 31.88C108.944 31.5493 109.189 31.2827 109.467 31.08C109.755 30.8773 110.069 30.728 110.411 30.632C110.763 30.5253 111.141 30.472 111.547 30.472C111.621 30.472 111.691 30.472 111.755 30.472C111.829 30.472 111.904 30.472 111.979 30.472V31.752H111.483C110.821 31.752 110.283 31.896 109.867 32.184C109.461 32.4613 109.168 32.84 108.987 33.32C108.805 33.7893 108.715 34.312 108.715 34.888V39H107.355ZM115.759 39.096C115.375 39.096 114.986 39.0587 114.591 38.984C114.207 38.9093 113.844 38.7813 113.503 38.6C113.172 38.4187 112.895 38.1733 112.671 37.864C112.447 37.5547 112.303 37.1707 112.239 36.712H113.615C113.722 37 113.892 37.2347 114.127 37.416C114.372 37.5867 114.644 37.7093 114.943 37.784C115.252 37.8587 115.546 37.896 115.823 37.896C115.994 37.896 116.191 37.8853 116.415 37.864C116.639 37.8427 116.852 37.7947 117.055 37.72C117.268 37.6347 117.439 37.512 117.567 37.352C117.706 37.192 117.775 36.968 117.775 36.68C117.775 36.4667 117.727 36.2907 117.631 36.152C117.535 36.0133 117.402 35.9013 117.231 35.816C117.06 35.72 116.852 35.6507 116.607 35.608C116.106 35.5013 115.567 35.4 114.991 35.304C114.426 35.208 113.924 35.0267 113.487 34.76C113.338 34.664 113.199 34.5573 113.071 34.44C112.954 34.312 112.852 34.1733 112.767 34.024C112.682 33.864 112.612 33.6933 112.559 33.512C112.516 33.32 112.495 33.112 112.495 32.888C112.495 32.472 112.575 32.1147 112.735 31.816C112.906 31.5067 113.14 31.256 113.439 31.064C113.738 30.8613 114.079 30.712 114.463 30.616C114.858 30.52 115.279 30.472 115.727 30.472C116.282 30.472 116.778 30.5627 117.215 30.744C117.663 30.9147 118.031 31.1707 118.319 31.512C118.607 31.8427 118.778 32.2533 118.831 32.744H117.567C117.492 32.4347 117.29 32.184 116.959 31.992C116.628 31.7893 116.207 31.688 115.695 31.688C115.524 31.688 115.332 31.704 115.119 31.736C114.906 31.7573 114.703 31.8107 114.511 31.896C114.319 31.9707 114.159 32.088 114.031 32.248C113.903 32.3973 113.839 32.6 113.839 32.856C113.839 33.0907 113.898 33.288 114.015 33.448C114.143 33.608 114.319 33.736 114.543 33.832C114.767 33.928 115.023 34.008 115.311 34.072C115.684 34.1467 116.095 34.2267 116.543 34.312C116.991 34.3867 117.343 34.4667 117.599 34.552C117.94 34.6587 118.223 34.808 118.447 35C118.682 35.192 118.852 35.4213 118.959 35.688C119.076 35.9547 119.135 36.264 119.135 36.616C119.135 37.1173 119.034 37.528 118.831 37.848C118.639 38.168 118.378 38.4187 118.047 38.6C117.716 38.7813 117.348 38.9093 116.943 38.984C116.548 39.0587 116.154 39.096 115.759 39.096Z" fill="black"/>
<path d="M157.753 41.737C160.221 40.315 163.503 41.156 164.614 43.442C162.164 45.622 158.595 44.759 157.753 41.737ZM158.634 34.387C160.6 36.621 159.928 39.604 157.285 40.373C156.004 38.523 156.709 35.397 158.634 34.387ZM163.799 38.335C165.308 36.26 168.597 36.035 170.949 37.896C168.375 40.649 165.42 40.816 163.799 38.335ZM162.484 30.925C163.654 31.54 164.375 32.45 164.471 33.813C164.571 35.213 164.18 36.373 162.916 37.133C161.17 35.513 160.964 32.693 162.484 30.925ZM169.273 32.075C170.901 30.346 173.261 29.837 175.246 30.821L175.157 31.059C174.188 33.499 171.941 34.739 169.788 34.028C168.37 33.561 168.261 33.148 169.273 32.075ZM165.538 26.748C166.754 27.201 167.683 28.011 168.088 29.279C168.464 30.459 168.18 31.514 167.404 32.455C165.469 31.462 164.295 29.125 164.843 27.347C164.923 27.087 165.393 26.693 165.538 26.747V26.748ZM171.851 25.988C172.877 23.656 175.128 22.277 177.274 22.724L177.262 22.994C177.1 25.746 175.162 27.636 172.712 27.411C171.496 27.301 171.368 27.086 171.851 25.988ZM166.305 22.62C166.209 21.837 166.469 21.579 167.259 21.694C169.722 22.054 171.171 24.42 170.172 26.594C168.152 26.188 166.535 24.481 166.305 22.62ZM166.286 16.613C168.605 15.699 171.195 17.183 171.325 19.531C171.338 19.78 171.07 20.256 170.905 20.269C168.627 20.432 166.294 18.485 166.286 16.613ZM176.969 14.763C177.725 17.88 175.594 20.655 172.736 20.216C172.153 17.641 174.197 14.773 176.886 14.461L176.969 14.763ZM164.534 11.833C166.79 10.019 169.852 11.022 170.346 13.788C167.927 14.691 165.398 13.821 164.534 11.833ZM174.111 6.543C174.983 7.94 175.268 9.415 174.722 10.991C174.256 12.343 173.247 13.096 171.8 13.392L171.693 13.155C170.65 10.675 171.701 7.733 174.111 6.543ZM161.482 7.746C163.353 5.33 166.26 5.387 167.662 7.825C166.003 9.434 163.34 9.42 161.482 7.746ZM169.052 0C171.766 1.69 171.687 5.538 168.853 7.083C166.995 4.96 167.105 1.662 169.052 0Z" fill="#767676" fill-opacity="0.8"/>
</svg>
