<svg width="34" height="34" viewBox="0 0 34 34" fill="none" xmlns="http://www.w3.org/2000/svg">
<path d="M18.4167 29.75V33.2917L14.1667 30.4584L9.91667 33.2917V29.75H9.20833C6.46992 29.75 4.25 27.5301 4.25 24.7917V7.08337C4.25 4.73617 6.1528 2.83337 8.5 2.83337H28.3333C29.1158 2.83337 29.75 3.46764 29.75 4.25004V28.3334C29.75 29.1158 29.1158 29.75 28.3333 29.75H18.4167ZM9.91667 26.9167V24.0834H18.4167V26.9167H26.9167V22.6667H9.20833C8.03472 22.6667 7.08333 23.6181 7.08333 24.7917C7.08333 25.9653 8.03472 26.9167 9.20833 26.9167H9.91667Z" fill="url(#paint0_linear_2715_19862)"/>
<defs>
<linearGradient id="paint0_linear_2715_19862" x1="17" y1="2.83337" x2="17" y2="33.2917" gradientUnits="userSpaceOnUse">
<stop stop-color="#2552F4"/>
<stop offset="1" stop-color="#66A6FF"/>
</linearGradient>
</defs>
</svg>
