<svg width="105" height="30" viewBox="0 0 105 30" fill="none" xmlns="http://www.w3.org/2000/svg">
<path d="M3.42387 10.9666L3.68074 11.5559C3.86866 11.9873 4.46533 11.9873 4.65335 11.5559L4.91012 10.9666C5.36793 9.91595 6.19251 9.07943 7.22147 8.6218L8.01283 8.26986C8.44064 8.07956 8.44064 7.45693 8.01283 7.26663L7.26574 6.93436C6.21033 6.46495 5.37095 5.59747 4.92106 4.51112L4.65731 3.87435C4.47345 3.43056 3.86054 3.43056 3.67679 3.87435L3.41304 4.51112C2.96304 5.59747 2.12366 6.46495 1.06824 6.93436L0.321264 7.26663C-0.106652 7.45693 -0.106652 8.07956 0.321264 8.26986L1.11251 8.6218C2.14147 9.07943 2.96606 9.91595 3.42387 10.9666ZM4.16699 13.9582C3.43929 13.9582 2.74053 13.8338 2.09105 13.6052C2.08616 13.7222 2.08366 13.8399 2.08366 13.9582C2.08366 18.5606 5.8146 22.2915 10.417 22.2915V25.9373C15.6253 23.854 22.917 20.729 22.917 13.9582C22.917 9.3558 19.186 5.62484 14.5837 5.62484H10.417C10.2988 5.62484 10.1811 5.62731 10.064 5.63218C10.2926 6.28172 10.417 6.98042 10.417 7.70817C10.417 11.16 7.61876 13.9582 4.16699 13.9582Z" fill="url(#paint0_linear_152_196)"/>
<path d="M35.8573 23V10.587H31.1943V7.71579H43.6505V10.587H38.9659V23H35.8573ZM48.9378 23.1511C47.7433 23.1511 46.7287 22.9136 45.8939 22.4387C45.0592 21.9638 44.4188 21.2946 43.9726 20.431C43.5265 19.5531 43.3034 18.5313 43.3034 17.3656C43.3034 16.1854 43.5337 15.1564 43.9942 14.2785C44.4548 13.3862 45.1024 12.6882 45.9371 12.1845C46.7862 11.6808 47.7865 11.4289 48.9378 11.4289C49.8013 11.4289 50.5569 11.5728 51.2046 11.8607C51.8666 12.1485 52.4207 12.5515 52.8668 13.0696C53.3274 13.5877 53.6656 14.1922 53.8815 14.883C54.1117 15.5594 54.2197 16.2934 54.2053 17.0849C54.2053 17.2864 54.1981 17.4807 54.1837 17.6678C54.1693 17.8549 54.1405 18.042 54.0973 18.2291H46.3041C46.3473 18.6608 46.4696 19.0566 46.6711 19.4164C46.8726 19.7762 47.1532 20.0641 47.513 20.2799C47.8872 20.4814 48.3478 20.5822 48.8947 20.5822C49.2545 20.5822 49.5855 20.5462 49.8877 20.4742C50.1899 20.3879 50.449 20.2583 50.6649 20.0856C50.8807 19.9129 51.0319 19.7114 51.1182 19.4812H54.0973C53.9102 20.3303 53.5576 21.0283 53.0395 21.5752C52.5358 22.1221 51.9242 22.5251 51.2046 22.7841C50.485 23.0288 49.7294 23.1511 48.9378 23.1511ZM46.3689 16.1135H51.3125C51.2981 15.7249 51.1974 15.3651 51.0103 15.0341C50.8376 14.6887 50.5713 14.4152 50.2115 14.2137C49.8661 13.9979 49.42 13.8899 48.8731 13.8899C48.3262 13.8899 47.8656 13.9979 47.4914 14.2137C47.1316 14.4296 46.8582 14.7103 46.6711 15.0557C46.4984 15.3867 46.3977 15.7393 46.3689 16.1135ZM55.9365 23V11.6232H58.7645L58.9156 12.9401C59.2323 12.5515 59.5921 12.2492 59.995 12.0334C60.4124 11.8031 60.8298 11.6448 61.2471 11.5584C61.6789 11.4721 62.0675 11.4289 62.4129 11.4289C63.5067 11.4289 64.3558 11.6664 64.9602 12.1413C65.5791 12.6162 66.018 13.2567 66.2771 14.0626C66.5505 14.8542 66.6873 15.7393 66.6873 16.7179V23H63.665V17.1065C63.665 16.7611 63.6362 16.4157 63.5786 16.0703C63.5211 15.7249 63.4131 15.4083 63.2548 15.1204C63.1109 14.8326 62.9022 14.6023 62.6288 14.4296C62.3553 14.2569 61.9955 14.1706 61.5494 14.1706C60.9737 14.1706 60.4916 14.3145 60.103 14.6023C59.7144 14.8902 59.4266 15.2787 59.2395 15.7681C59.0524 16.2574 58.9588 16.7971 58.9588 17.3872V23H55.9365ZM68.7914 23V11.6232H71.5115L71.7705 12.8969C72.0584 12.4939 72.375 12.1917 72.7204 11.9902C73.0802 11.7743 73.44 11.6304 73.7998 11.5584C74.1596 11.4865 74.4906 11.4505 74.7928 11.4505C75.4693 11.4505 76.0665 11.58 76.5846 11.8391C77.1027 12.0981 77.5201 12.5155 77.8367 13.0912C78.139 12.6738 78.47 12.35 78.8298 12.1197C79.1896 11.8751 79.571 11.7023 79.9739 11.6016C80.3769 11.5009 80.7871 11.4505 81.2044 11.4505C82.0823 11.4505 82.7875 11.6376 83.32 12.0118C83.8669 12.3716 84.2627 12.8753 84.5074 13.5229C84.7664 14.1706 84.896 14.9261 84.896 15.7897V23H81.8737V16.5884C81.8737 16.3293 81.8593 16.0631 81.8305 15.7897C81.8017 15.5162 81.7297 15.2572 81.6146 15.0125C81.5139 14.7678 81.3556 14.5663 81.1397 14.408C80.9382 14.2497 80.6503 14.1706 80.2762 14.1706C79.9164 14.1706 79.6141 14.2497 79.3695 14.408C79.1248 14.5663 78.9305 14.7822 78.7866 15.0557C78.6427 15.3147 78.5347 15.6026 78.4628 15.9192C78.4052 16.2214 78.3764 16.5308 78.3764 16.8475V23H75.3541V16.5668C75.3541 16.3222 75.3397 16.0631 75.3109 15.7897C75.2822 15.5162 75.2174 15.2572 75.1167 15.0125C75.0159 14.7678 74.8504 14.5663 74.6201 14.408C74.4043 14.2497 74.102 14.1706 73.7134 14.1706C73.1809 14.1706 72.7708 14.3289 72.4829 14.6455C72.2095 14.9477 72.0296 15.3147 71.9432 15.7465C71.8569 16.1638 71.8137 16.5524 71.8137 16.9122V23H68.7914ZM86.959 23V11.6232H89.9813V23H86.959ZM88.4701 10.479C87.9088 10.479 87.4555 10.3135 87.1101 9.98252C86.7647 9.63711 86.592 9.19816 86.592 8.66566C86.592 8.10437 86.7719 7.65103 87.1317 7.30562C87.4915 6.96021 87.9448 6.78751 88.4917 6.78751C88.9954 6.78751 89.4272 6.96021 89.787 7.30562C90.1612 7.63663 90.3482 8.08278 90.3482 8.64407C90.3482 9.19096 90.1684 9.63711 89.8086 9.98252C89.4631 10.3135 89.017 10.479 88.4701 10.479ZM92.1611 23V11.6232H94.9891L95.1402 12.9401C95.4569 12.5515 95.8167 12.2492 96.2196 12.0334C96.637 11.8031 97.0544 11.6448 97.4717 11.5584C97.9035 11.4721 98.2921 11.4289 98.6375 11.4289C99.7313 11.4289 100.58 11.6664 101.185 12.1413C101.804 12.6162 102.243 13.2567 102.502 14.0626C102.775 14.8542 102.912 15.7393 102.912 16.7179V23H99.8896V17.1065C99.8896 16.7611 99.8608 16.4157 99.8032 16.0703C99.7457 15.7249 99.6377 15.4083 99.4794 15.1204C99.3355 14.8326 99.1268 14.6023 98.8534 14.4296C98.5799 14.2569 98.2201 14.1706 97.774 14.1706C97.1983 14.1706 96.7162 14.3145 96.3276 14.6023C95.939 14.8902 95.6512 15.2787 95.4641 15.7681C95.277 16.2574 95.1834 16.7971 95.1834 17.3872V23H92.1611Z" fill="black"/>
<defs>
<linearGradient id="paint0_linear_152_196" x1="23.2146" y1="3.69031" x2="2.97652" y2="25.7141" gradientUnits="userSpaceOnUse">
<stop stop-color="#2552F4"/>
<stop offset="1" stop-color="#66A6FF"/>
</linearGradient>
</defs>
</svg>
