<svg width="48" height="9" viewBox="0 0 48 9" fill="none" xmlns="http://www.w3.org/2000/svg">
<path d="M13.1132 9.00102C12.4316 9.00102 11.9262 8.80957 11.5969 8.42668C11.2753 8.04378 11.1145 7.51922 11.1145 6.85298V4.3029H10.207V2.86705L12.7226 1.23486V1.23592V2.86705H14.5605V4.3029H12.7226V6.51986C12.7226 6.71897 12.7456 6.89127 12.7916 7.03677C12.8452 7.18227 12.9294 7.29714 13.0443 7.38137C13.1668 7.45795 13.3315 7.49624 13.5382 7.49624C13.722 7.49624 13.8752 7.46944 13.9977 7.41584C14.1279 7.35457 14.2351 7.28948 14.3193 7.22056L14.8247 8.46114C14.6639 8.59132 14.484 8.69853 14.2849 8.78277C14.0934 8.85935 13.8981 8.91295 13.699 8.94358C13.4999 8.98187 13.3046 9.00102 13.1132 9.00102Z" fill="black"/>
<path d="M18.2119 9.00102C17.5763 9.00102 17.0364 8.87466 16.5923 8.62195C16.1481 8.36924 15.8073 8.01315 15.5699 7.55368C15.3326 7.08655 15.2139 6.54284 15.2139 5.92255C15.2139 5.2946 15.3364 4.74706 15.5814 4.27993C15.8265 3.80514 16.1711 3.43373 16.6153 3.1657C17.0671 2.89768 17.5993 2.76367 18.2119 2.76367C18.6714 2.76367 19.0734 2.84024 19.418 2.9934C19.7703 3.14656 20.0651 3.36098 20.3025 3.63667C20.5476 3.91235 20.7275 4.23398 20.8424 4.60156C20.9649 4.96148 21.0224 5.35203 21.0147 5.77322C21.0147 5.88043 21.0109 5.98381 21.0032 6.08336C20.9956 6.18291 20.9802 6.28247 20.9573 6.38202H16.8105C16.8335 6.61176 16.8986 6.82235 17.0058 7.0138C17.113 7.20524 17.2623 7.3584 17.4538 7.47327C17.6529 7.58048 17.8979 7.63409 18.1889 7.63409C18.3804 7.63409 18.5565 7.61494 18.7173 7.57665C18.8782 7.5307 19.016 7.46178 19.1309 7.36989C19.2457 7.27799 19.3261 7.17078 19.3721 7.04826H20.9573C20.8577 7.50007 20.6701 7.87148 20.3944 8.16248C20.1264 8.45348 19.8009 8.6679 19.418 8.80574C19.0351 8.93593 18.6331 9.00102 18.2119 9.00102ZM16.845 5.25631H19.4755C19.4678 5.04955 19.4142 4.8581 19.3147 4.68197C19.2228 4.49818 19.0811 4.35268 18.8896 4.24547C18.7059 4.1306 18.4685 4.07316 18.1775 4.07316C17.8865 4.07316 17.6414 4.1306 17.4423 4.24547C17.2509 4.36034 17.1054 4.50966 17.0058 4.69345C16.9139 4.86959 16.8603 5.05721 16.845 5.25631Z" fill="black"/>
<path d="M22.0048 8.92061V2.86705H23.5096L23.59 3.56774C23.7585 3.36098 23.9499 3.20017 24.1643 3.0853C24.3864 2.96277 24.6085 2.87853 24.8306 2.83259C25.0603 2.78664 25.2671 2.76367 25.4509 2.76367C26.0329 2.76367 26.4847 2.89002 26.8063 3.14273C27.1356 3.39544 27.3692 3.73622 27.507 4.16506C27.6525 4.58624 27.7253 5.0572 27.7253 5.57794V8.92061H26.1171V5.78471C26.1171 5.60092 26.1018 5.41713 26.0712 5.23334C26.0405 5.04955 25.9831 4.88107 25.8989 4.72792C25.8223 4.57476 25.7112 4.45223 25.5657 4.36034C25.4202 4.26844 25.2288 4.22249 24.9914 4.22249C24.6851 4.22249 24.4285 4.29907 24.2218 4.45223C24.015 4.60539 23.8619 4.81215 23.7623 5.07252C23.6628 5.33289 23.613 5.62006 23.613 5.93403V8.92061H22.0048Z" fill="black"/>
<path d="M28.9138 8.92061V2.86705H30.3611L30.499 3.54477C30.6521 3.33035 30.8206 3.16953 31.0044 3.06232C31.1958 2.94745 31.3873 2.87088 31.5787 2.83259C31.7702 2.7943 31.9463 2.77515 32.1071 2.77515C32.4671 2.77515 32.7849 2.84407 33.0605 2.98192C33.3362 3.11976 33.5583 3.34184 33.7268 3.64815C33.8876 3.42607 34.0637 3.25377 34.2552 3.13124C34.4466 3.00106 34.6496 2.90917 34.864 2.85556C35.0784 2.80195 35.2966 2.77515 35.5187 2.77515C35.9859 2.77515 36.3611 2.8747 36.6444 3.07381C36.9354 3.26526 37.146 3.53328 37.2762 3.87789C37.4141 4.22249 37.483 4.62453 37.483 5.08401V8.92061H35.8748V5.50902C35.8748 5.37118 35.8672 5.22951 35.8518 5.08401C35.8365 4.93851 35.7982 4.80066 35.737 4.67048C35.6834 4.5403 35.5991 4.43309 35.4843 4.34885C35.3771 4.26461 35.2239 4.22249 35.0248 4.22249C34.8333 4.22249 34.6725 4.26461 34.5423 4.34885C34.4122 4.43309 34.3088 4.54795 34.2322 4.69345C34.1556 4.8313 34.0982 4.98445 34.0599 5.15293C34.0293 5.31374 34.014 5.47839 34.014 5.64686V8.92061H32.4058V5.49753C32.4058 5.36735 32.3981 5.22951 32.3828 5.08401C32.3675 4.93851 32.333 4.80066 32.2794 4.67048C32.2258 4.5403 32.1378 4.43309 32.0152 4.34885C31.9004 4.26461 31.7396 4.22249 31.5328 4.22249C31.2495 4.22249 31.0312 4.30673 30.878 4.4752C30.7325 4.63602 30.6368 4.8313 30.5909 5.06103C30.5449 5.28311 30.522 5.48988 30.522 5.68132V8.92061H28.9138Z" fill="black"/>
<path d="M38.6496 8.92061V2.86705H40.2578V8.92061H38.6496Z" fill="black"/>
<path d="M41.4866 8.92061V2.86705H42.9914L43.0718 3.56774C43.2402 3.36098 43.4317 3.20017 43.6461 3.0853C43.8682 2.96277 44.0903 2.87853 44.3123 2.83259C44.5421 2.78664 44.7488 2.76367 44.9326 2.76367C45.5146 2.76367 45.9665 2.89002 46.2881 3.14273C46.6174 3.39544 46.8509 3.73622 46.9888 4.16506C47.1343 4.58624 47.207 5.0572 47.207 5.57794V8.92061H45.5989V5.78471C45.5989 5.60092 45.5836 5.41713 45.5529 5.23334C45.5223 5.04955 45.4649 4.88107 45.3806 4.72792C45.304 4.57476 45.193 4.45223 45.0475 4.36034C44.902 4.26844 44.7106 4.22249 44.4732 4.22249C44.1668 4.22249 43.9103 4.29907 43.7035 4.45223C43.4968 4.60539 43.3436 4.81215 43.2441 5.07252C43.1445 5.33289 43.0947 5.62006 43.0947 5.93403V8.92061H41.4866Z" fill="black"/>
<rect x="38.6475" y="0.520508" width="1.60786" height="1.43212" fill="black"/>
<path d="M0 1H6.5C7.32843 1 8 1.67157 8 2.5C8 3.32843 7.32843 4 6.5 4H2C0.895431 4 0 3.10457 0 2V1Z" fill="#2552F4"/>
<path d="M5.75488 4.5H4.25488C3.15031 4.5 2.25488 5.39543 2.25488 6.5V7.25C2.25488 8.2165 3.03838 9 4.00488 9C4.97138 9 5.75488 8.2165 5.75488 7.25V4.5Z" fill="#2552F4"/>
</svg>
