<svg width="112" height="20" viewBox="0 0 112 20" fill="none" xmlns="http://www.w3.org/2000/svg">
<path d="M38.9575 0V3.31784H33.1377V19.0368H29.8198V3.31784H24V0H38.9575Z" fill="black"/>
<path d="M45.3522 19.3903C44.1012 19.3903 42.959 19.0685 41.9256 18.4249C40.9012 17.7813 40.0808 16.9155 39.4644 15.8277C38.857 14.7399 38.5533 13.5388 38.5533 12.2243C38.5533 11.2362 38.7301 10.3116 39.0836 9.45041C39.4372 8.58015 39.9222 7.81868 40.5386 7.16599C41.1641 6.50424 41.8893 5.98752 42.7142 5.61585C43.5392 5.24418 44.4185 5.05835 45.3522 5.05835C46.4128 5.05835 47.3828 5.28498 48.2621 5.73823C49.1505 6.18243 49.9029 6.79432 50.5193 7.57392C51.1357 8.35353 51.5845 9.24191 51.8655 10.2391C52.1465 11.2362 52.21 12.2787 52.0559 13.3665H42.1159C42.2429 13.8742 42.4513 14.332 42.7414 14.7399C43.0315 15.1388 43.3987 15.4606 43.8428 15.7054C44.287 15.941 44.7902 16.0634 45.3522 16.0725C45.9324 16.0816 46.4581 15.9456 46.9295 15.6646C47.41 15.3745 47.8088 14.9847 48.1261 14.4952L51.512 15.2838C50.959 16.4895 50.1341 17.4776 49.0372 18.2481C47.9403 19.0096 46.712 19.3903 45.3522 19.3903ZM42.0072 10.8782H48.6972C48.5975 10.3343 48.3845 9.84474 48.0581 9.40961C47.7409 8.96542 47.3465 8.61188 46.8751 8.34899C46.4037 8.0861 45.8961 7.95466 45.3522 7.95466C44.8083 7.95466 44.3052 8.0861 43.8428 8.34899C43.3805 8.60282 42.9862 8.95182 42.6598 9.39602C42.3426 9.83114 42.125 10.3252 42.0072 10.8782Z" fill="black"/>
<path d="M66.4906 10.443V19.0368H63.1728V11.3133C63.1728 10.7784 63.0414 10.2935 62.7785 9.85834C62.5156 9.41415 62.162 9.06514 61.7179 8.81131C61.2827 8.54842 60.7977 8.41698 60.2629 8.41698C59.7281 8.41698 59.2385 8.54842 58.7943 8.81131C58.3592 9.06514 58.0102 9.41415 57.7473 9.85834C57.4935 10.2935 57.3666 10.7784 57.3666 11.3133V19.0368H54.0487L54.0351 5.43908H57.353L57.3666 6.64928C57.8289 6.15976 58.3819 5.77449 59.0255 5.49347C59.6691 5.20339 60.3626 5.05835 61.106 5.05835C62.0941 5.05835 62.996 5.30311 63.8119 5.79262C64.6278 6.27308 65.2759 6.92123 65.7564 7.7371C66.2459 8.54389 66.4906 9.44587 66.4906 10.443Z" fill="black"/>
<path d="M68.9667 19.0368V5.43908H72.2845V6.64928C72.7468 6.15976 73.2998 5.77449 73.9434 5.49347C74.5871 5.20339 75.2805 5.05835 76.0239 5.05835C76.9667 5.05835 77.8324 5.28044 78.621 5.72464C79.4188 6.16883 80.0533 6.76259 80.5247 7.50593C81.0052 6.76259 81.6397 6.16883 82.4284 5.72464C83.2171 5.28044 84.0828 5.05835 85.0256 5.05835C86.0227 5.05835 86.9247 5.30311 87.7315 5.79262C88.5474 6.27308 89.1955 6.92123 89.676 7.7371C90.1655 8.54389 90.4103 9.44587 90.4103 10.443V19.0368H87.0924V11.3269C87.0924 10.8011 86.961 10.3207 86.6981 9.88553C86.4443 9.44134 86.0998 9.0878 85.6647 8.82491C85.2386 8.55296 84.7581 8.41698 84.2233 8.41698C83.6885 8.41698 83.2035 8.54842 82.7683 8.81131C82.3423 9.06514 81.9978 9.40961 81.7349 9.84474C81.472 10.2799 81.3406 10.7739 81.3406 11.3269V19.0368H78.0227V11.3269C78.0227 10.7739 77.8958 10.2799 77.642 9.84474C77.3882 9.40961 77.0437 9.06514 76.6086 8.81131C76.1735 8.54842 75.6885 8.41698 75.1536 8.41698C74.6278 8.41698 74.1474 8.55296 73.7123 8.82491C73.2771 9.0878 72.9281 9.44134 72.6652 9.88553C72.4114 10.3207 72.2845 10.8011 72.2845 11.3269V19.0368H68.9667Z" fill="black"/>
<path d="M92.9014 5.43908H96.2192V19.0368H92.9014V5.43908ZM94.5875 3.68498C94.098 3.68498 93.6855 3.52634 93.3501 3.20906C93.0147 2.88271 92.847 2.47478 92.847 1.98527C92.847 1.50481 93.0147 1.10141 93.3501 0.77507C93.6855 0.448725 94.0934 0.285552 94.5739 0.285552C95.0543 0.285552 95.4577 0.448725 95.7841 0.77507C96.1195 1.10141 96.2872 1.50481 96.2872 1.98527C96.2872 2.47478 96.124 2.88271 95.7977 3.20906C95.4713 3.52634 95.0679 3.68498 94.5875 3.68498Z" fill="black"/>
<path d="M111.604 10.443V19.0368H108.286V11.3133C108.286 10.7784 108.155 10.2935 107.892 9.85834C107.629 9.41415 107.275 9.06514 106.831 8.81131C106.396 8.54842 105.911 8.41698 105.376 8.41698C104.841 8.41698 104.352 8.54842 103.908 8.81131C103.472 9.06514 103.123 9.41415 102.861 9.85834C102.607 10.2935 102.48 10.7784 102.48 11.3133V19.0368H99.162L99.1484 5.43908H102.466L102.48 6.64928C102.942 6.15976 103.495 5.77449 104.139 5.49347C104.782 5.20339 105.476 5.05835 106.219 5.05835C107.207 5.05835 108.109 5.30311 108.925 5.79262C109.741 6.27308 110.389 6.92123 110.87 7.7371C111.359 8.54389 111.604 9.44587 111.604 10.443Z" fill="black"/>
<path d="M0 7.45009V11.5749C0 11.5749 7.01221 11.9874 9.48711 9.5125C11.962 7.0376 11.5495 0.0253906 11.5495 0.0253906H7.4247C7.4247 0.0253906 7.01221 3.73774 5.36228 5.38767C3.71235 7.0376 0 7.45009 0 7.45009Z" fill="#747FF4"/>
<path d="M19 11.6007V7.47586C19 7.47586 11.9878 7.06338 9.51289 9.53828C7.03799 12.0132 7.45047 19.0254 7.45047 19.0254H11.5753C11.5753 19.0254 11.9878 15.313 13.6377 13.6631C15.2877 12.0132 19 11.6007 19 11.6007Z" fill="#747FF4"/>
</svg>
