<svg width="70" height="64" viewBox="0 0 70 64" fill="none" xmlns="http://www.w3.org/2000/svg">
<path d="M67.1841 34.2286C67.1841 48.7138 53.8226 60.9571 36.6841 60.9571C19.5456 60.9571 6.18408 48.7138 6.18408 34.2286C6.18408 19.7433 19.5456 7.5 36.6841 7.5C53.8226 7.5 67.1841 19.7433 67.1841 34.2286Z" fill="#3F69FD" stroke="#3258DE" stroke-width="5"/>
<path d="M21.899 10.3134C26.9798 4.61745 35.7161 4.11881 41.412 9.19962V9.19962L10.3134 44.0632V44.0632C4.61745 38.9824 4.1188 30.2461 9.19961 24.5502L21.899 10.3134Z" fill="#708DF2"/>
<rect x="54.48" y="12" width="14.478" height="54.7098" transform="rotate(41.7333 54.48 12)" fill="#708DF2"/>
<path d="M67.1841 34.2286C67.1841 48.7138 53.8226 60.9571 36.6841 60.9571C19.5456 60.9571 6.18408 48.7138 6.18408 34.2286C6.18408 19.7433 19.5456 7.5 36.6841 7.5C53.8226 7.5 67.1841 19.7433 67.1841 34.2286Z" stroke="#3258DE" stroke-width="5"/>
<path d="M37.7005 21.8837C37.426 21.3616 36.8461 21.0293 36.2092 21.0293C35.5723 21.0293 34.9976 21.3616 34.7179 21.8837L31.3885 28.1633L23.9528 29.1695C23.3315 29.255 22.8137 29.6537 22.6221 30.1995C22.4305 30.7454 22.5859 31.3482 23.0312 31.7516L28.4267 36.6453L27.1529 43.5609C27.0493 44.1305 27.3082 44.7095 27.8208 45.0465C28.3334 45.3836 29.0118 45.4263 29.571 45.1557L36.2144 41.9044L42.8578 45.1557C43.417 45.4263 44.0953 45.3883 44.608 45.0465C45.1206 44.7048 45.3795 44.1305 45.2759 43.5609L43.997 36.6453L49.3924 31.7516C49.8378 31.3482 49.9983 30.7454 49.8015 30.1995C49.6047 29.6537 49.0921 29.255 48.4708 29.1695L41.0299 28.1633L37.7005 21.8837Z" fill="white"/>
</svg>
