<svg width="36" height="36" viewBox="0 0 36 36" fill="none" xmlns="http://www.w3.org/2000/svg">
<g clip-path="url(#clip0_59_174)">
<path d="M0 0H12V36H0V0Z" fill="#1E3A8A"/>
<path d="M12 0H24V36H12V0Z" fill="#FBBF24"/>
<path d="M24 0H36V36H24V0Z" fill="#EF4444"/>
<path d="M23.4567 21.0263C23.586 21.2406 23.6046 21.4896 23.5966 21.6969C23.5949 22.5092 23.0855 23.2189 22.3272 23.4864C21.7203 23.7008 21.0904 23.7176 20.4606 23.7389C20.2772 23.7451 20.0956 23.7362 19.9157 23.8C19.6323 23.9028 19.4099 23.9984 19.5499 24.4387C19.681 24.8516 19.2876 24.9942 19.0998 25.2298C18.9634 25.3999 18.7756 25.3282 18.6321 25.2174C18.4744 25.097 18.3557 25.0925 18.2254 25.2582C18.0731 25.4522 17.9074 25.4371 17.7559 25.2511C17.6425 25.1111 17.5362 25.0828 17.3847 25.2006C17.2315 25.3202 17.0366 25.4106 16.8833 25.2245C16.6831 24.9827 16.2969 24.8232 16.4421 24.3847C16.5644 24.0144 16.3828 23.9028 16.1365 23.8266C15.5872 23.6583 15.0176 23.7371 14.4577 23.6636C13.6675 23.5582 12.9721 23.3057 12.5522 22.4836C12.3147 22.0185 12.2811 21.5356 12.5176 21.0679C12.6354 20.8367 12.6718 20.687 12.4636 20.4867C12.2775 20.306 12.2891 20.0385 12.4166 19.8028C12.5291 19.592 12.6709 19.4148 12.9242 19.5442C13.0403 19.6026 13.0917 19.5247 13.151 19.444C13.4434 19.0418 13.2848 18.3827 12.8525 18.2313C12.7001 18.179 12.6 18.0736 12.6576 17.9185C12.7559 17.6536 12.6266 17.5314 12.4813 17.3684C11.7522 16.5569 11.87 15.353 12.709 14.9587C12.8046 14.9136 12.9393 14.8321 13.0049 14.8719C13.3424 15.0775 13.4691 14.4875 13.7853 14.6327C13.8163 14.6469 13.8217 14.5105 13.8057 14.4423C13.7517 14.2111 13.6427 14.0162 13.4841 13.8531C13.3087 13.6742 13.1555 13.4749 13.0447 13.2401C12.9101 12.9531 12.9048 12.6457 13.1262 12.4339C13.6684 11.9166 14.3089 11.6978 15.0203 11.836C15.3463 11.8989 15.5297 12.1354 15.4783 12.5234C15.4544 12.7068 15.4712 12.8335 15.6546 12.8884C15.9088 12.9646 16.1755 13.0824 16.4111 12.9017C16.591 12.7653 16.4563 12.558 16.3978 12.3861C16.3651 12.2904 16.3101 12.2018 16.2915 12.1044C16.2233 11.7438 16.2455 11.3797 16.5121 11.1379C16.7823 10.8925 17.0915 11.0138 17.3546 11.1981C17.7896 11.5011 18.2068 11.5046 18.6383 11.1981C18.9085 11.005 19.2301 10.9332 19.487 11.1529C19.7554 11.3833 19.7793 11.7536 19.6907 12.1168C19.6765 12.1726 19.6509 12.2249 19.6367 12.2807C19.5809 12.4906 19.3869 12.6953 19.5906 12.9203C19.7093 13.0514 20.3038 12.969 20.4606 12.8291C20.5385 12.7608 20.5199 12.6838 20.5208 12.5969C20.5288 12.0202 20.7662 11.7447 21.296 11.7784C21.7956 11.8094 22.282 11.9449 22.7028 12.2736C23.066 12.5571 23.128 12.9088 22.9021 13.3331C22.7798 13.5617 22.6036 13.7389 22.4467 13.9338C22.2988 14.1189 22.0862 14.4184 22.2084 14.5663C22.3201 14.7018 22.5477 14.9047 22.7728 14.8905C23.3539 14.8542 23.7499 15.151 23.9271 15.7304C24.1175 16.3505 23.9191 16.9095 23.5151 17.3675C23.3743 17.5279 23.2361 17.6457 23.3326 17.9159C23.3973 18.0966 23.2786 18.2259 23.1041 18.233C22.8587 18.2428 22.755 18.4022 22.7231 18.6432C22.6833 18.9524 22.6833 19.2562 22.8888 19.5087C22.9358 19.5672 22.9925 19.5822 23.0651 19.5468C23.3185 19.4192 23.462 19.5911 23.5745 19.8019C23.7092 20.0553 23.7074 20.3308 23.5045 20.5195C23.3123 20.6976 23.3415 20.8349 23.4576 21.0263H23.4567Z" fill="#A16207"/>
<path d="M17.468 18.9453V22.5341H16.6087C16.4315 22.5341 16.2579 22.5164 16.0904 22.4809C15.8468 22.4313 15.6156 22.3472 15.4021 22.2329C15.1434 22.0947 14.9095 21.914 14.7129 21.7005C14.2859 21.2389 14.0245 20.6232 14.0245 19.9499V18.9453H17.468Z" fill="#FBBF24"/>
<path d="M21.9746 18.9453V19.9499C21.9746 21.3709 20.8123 22.5341 19.3913 22.5341H18.5311V18.9453H21.9746Z" fill="#FBBF24"/>
<path d="M15.0876 14.293H17.468V17.8817H14.0245V15.356C14.0245 14.7714 14.5029 14.293 15.0876 14.293Z" fill="#EF4444"/>
<path d="M21.9746 15.356V17.8817H18.5311V14.293H20.9115C21.0435 14.293 21.1702 14.3169 21.2862 14.3621C21.6875 14.5144 21.9746 14.9034 21.9746 15.356Z" fill="#FBBF24"/>
<path d="M19.9078 14.293H19.2194V17.8817H19.9078V14.293Z" fill="#EF4444"/>
<path d="M21.2862 14.3621V17.8817H20.597V14.293H20.9115C21.0435 14.293 21.1702 14.3169 21.2862 14.3621Z" fill="#EF4444"/>
<path d="M15.4021 18.9453V22.2329C15.1434 22.0947 14.9095 21.914 14.7129 21.7005V18.9453H15.4021Z" fill="#EF4444"/>
<path d="M16.7796 18.9453V22.5341H16.6087C16.4315 22.5341 16.2578 22.5164 16.0904 22.4809V18.9453H16.7796Z" fill="#EF4444"/>
<path d="M20.853 20.2327H19.4755C19.3284 20.2327 19.2097 20.114 19.2097 19.9669C19.2097 19.8199 19.3284 19.7012 19.4755 19.7012H20.853C21.0001 19.7012 21.1188 19.8199 21.1188 19.9669C21.1188 20.114 21.0001 20.2327 20.853 20.2327Z" fill="#EF4444"/>
<path d="M20.853 21.2991H19.4755C19.3284 21.2991 19.2097 21.1804 19.2097 21.0333C19.2097 20.8863 19.3284 20.7676 19.4755 20.7676H20.853C21.0001 20.7676 21.1188 20.8863 21.1188 21.0333C21.1188 21.1804 21.0001 21.2991 20.853 21.2991Z" fill="#EF4444"/>
<path d="M16.8132 15.8086L16.0224 15.0178C15.8697 14.865 15.622 14.865 15.4693 15.0178L14.6785 15.8086C14.5258 15.9613 14.5258 16.2089 14.6785 16.3617L15.4693 17.1525C15.622 17.3052 15.8697 17.3052 16.0224 17.1525L16.8132 16.3617C16.9659 16.2089 16.9659 15.9613 16.8132 15.8086Z" fill="#FBBF24"/>
</g>
<defs>
<clipPath id="clip0_59_174">
<rect width="36" height="36" rx="18" fill="white"/>
</clipPath>
</defs>
</svg>
