<svg width="36" height="36" viewBox="0 0 36 36" fill="none" xmlns="http://www.w3.org/2000/svg">
<g clip-path="url(#clip0_61_39)">
<path d="M0 0H12V36H0V0Z" fill="#262626"/>
<path d="M12 0H24V36H12V0Z" fill="#EF4444"/>
<path d="M24 0H36V36H24V0Z" fill="#22C55E"/>
<path d="M20.6553 13.0971C20.3582 12.9104 19.9658 13.0002 19.7791 13.2973C19.5924 13.5944 19.6822 13.9868 19.9793 14.1735C21.0748 14.8615 21.7289 16.0432 21.7289 17.3345C21.7289 19.3908 20.0563 21.0634 18 21.0634C15.9437 21.0634 14.2711 19.3908 14.2711 17.3345C14.2711 16.0432 14.9252 14.8615 16.0207 14.1735C16.3178 13.9868 16.4076 13.5944 16.2209 13.2973C16.0342 13.0002 15.6418 12.9104 15.3447 13.0971C13.8766 14.019 13 15.6031 13 17.3345C13 20.0915 15.243 22.3345 18 22.3345C20.757 22.3345 23 20.0915 23 17.3345C23 15.6031 22.1234 14.019 20.6553 13.0971Z" fill="#F5F5F5"/>
<path d="M18 19.9793C18.7459 19.9793 19.3505 19.3747 19.3505 18.6288V16.0406C19.3505 15.2946 18.7459 14.6901 18 14.6901C17.254 14.6901 16.6495 15.2946 16.6495 16.0406V18.6288C16.6495 19.3747 17.254 19.9793 18 19.9793Z" fill="#F5F5F5"/>
</g>
<defs>
<clipPath id="clip0_61_39">
<rect width="36" height="36" rx="18" fill="white"/>
</clipPath>
</defs>
</svg>
