<svg width="36" height="36" viewBox="0 0 36 36" fill="none" xmlns="http://www.w3.org/2000/svg">
<g clip-path="url(#clip0_61_143)">
<rect width="36" height="36" rx="18" fill="#262626"/>
<path fill-rule="evenodd" clip-rule="evenodd" d="M18.5601 4.47776L19.1093 7.87516C19.1898 8.35841 19.7976 8.5195 20.1051 8.13875L22.2797 5.46623C22.6824 4.96833 23.4732 5.4223 23.2462 6.0227L22.0234 9.24437C21.8477 9.69833 22.2943 10.145 22.7556 9.97657L25.9773 8.7538C26.5777 8.52682 27.0317 9.31759 26.5338 9.7203L23.8613 11.8949C23.4805 12.2025 23.6489 12.8175 24.1248 12.8907L27.5222 13.4399C28.1593 13.5424 28.1593 14.4576 27.5222 14.5601L24.1248 15.1093C23.6416 15.1898 23.4805 15.7975 23.8613 16.1051L26.5338 18.2797C27.0317 18.6824 26.5777 19.4732 25.9773 19.2462L22.7556 18.0234C22.3017 17.8477 21.855 18.2943 22.0234 18.7556L23.2462 21.9773C23.4732 22.5777 22.6824 23.0317 22.2797 22.5338L20.1051 19.8612C19.7976 19.4805 19.1825 19.6489 19.1093 20.1248L18.5601 23.5222C18.4576 24.1593 17.5424 24.1593 17.4399 23.5222L16.8907 20.1248C16.8102 19.6416 16.2025 19.4805 15.8949 19.8612L13.7203 22.5338C13.3176 23.0317 12.5268 22.5777 12.7538 21.9773L13.9766 18.7556C14.1523 18.3017 13.7057 17.855 13.2444 18.0234L10.0227 19.2462C9.4223 19.4732 8.96833 18.6824 9.46623 18.2797L12.1388 16.1051C12.5195 15.7975 12.3511 15.1825 11.8752 15.1093L8.47776 14.5601C7.84075 14.4576 7.84075 13.5424 8.47776 13.4399L11.8752 12.8907C12.3584 12.8102 12.5195 12.2025 12.1388 11.8949L9.46623 9.7203C8.96833 9.31759 9.4223 8.52682 10.0227 8.7538L13.2444 9.97657C13.6983 10.1523 14.145 9.70566 13.9766 9.24437L12.7538 6.0227C12.5268 5.4223 13.3176 4.96833 13.7203 5.46623L15.8949 8.13875C16.2025 8.5195 16.8175 8.35109 16.8907 7.87516L17.4399 4.47776C17.5424 3.84075 18.4576 3.84075 18.5601 4.47776Z" fill="#FBBF24"/>
<path d="M0 18H36V36H0V18Z" fill="#F5F5F5"/>
<path d="M0 14H36V22H0V14Z" fill="#3B82F6"/>
<path d="M18 36L0 0V36H18Z" fill="#EF4444"/>
<path d="M18 36L36 0V36H18Z" fill="#EF4444"/>
</g>
<defs>
<clipPath id="clip0_61_143">
<rect width="36" height="36" rx="18" fill="white"/>
</clipPath>
</defs>
</svg>
