<svg width="36" height="36" viewBox="0 0 36 36" fill="none" xmlns="http://www.w3.org/2000/svg">
<rect width="36" height="36" rx="18" fill="#EF4444"/>
<path d="M23.6912 18.1522L24.56 18.8468C24.8792 19.102 25.2754 19.241 25.6845 19.241H26.6767C26.9373 19.241 27.1445 19.0135 27.1121 18.7469C27.0851 18.5242 26.8839 18.3635 26.6598 18.3635H25.6845C25.4746 18.3635 25.2714 18.292 25.108 18.161L23.8343 17.1425C23.7952 17.1114 23.7729 17.0642 23.7729 17.0149C23.7729 16.9062 23.8917 16.8401 23.9842 16.8968L24.832 17.4179C25.1269 17.5994 25.4671 17.6959 25.8141 17.6959H26.6767C26.9373 17.6959 27.1445 17.4685 27.1121 17.2019C27.0844 16.9791 26.8839 16.8185 26.6598 16.8185H25.8141C25.6298 16.8185 25.4489 16.7672 25.2916 16.6706L23.8964 15.8121C23.862 15.7911 23.8451 15.7486 23.8586 15.7088C23.8755 15.6582 23.9363 15.6372 23.9849 15.6595L24.5627 15.9234C24.861 16.0598 25.1843 16.13 25.511 16.13C25.5934 16.13 25.6764 16.1252 25.7594 16.1165L26.7084 16.0118C26.9312 15.9876 27.1128 15.8053 27.1155 15.5812C27.1188 15.3126 26.888 15.1094 26.6288 15.1377L25.6636 15.2437C25.4118 15.2714 25.1573 15.2309 24.9272 15.1256L24.0011 14.7024C23.9423 14.6754 23.9113 14.6065 23.9356 14.5417C23.9592 14.4796 24.0314 14.4499 24.0956 14.4688L24.4817 14.5842C24.7105 14.6524 24.946 14.6862 25.1816 14.6862C25.5191 14.6862 25.8559 14.6166 26.1691 14.4789L26.838 14.184C27.0432 14.0935 27.162 13.8654 27.0972 13.6507C27.0189 13.3929 26.7381 13.2694 26.4999 13.374L25.8154 13.6757C25.4739 13.8262 25.0898 13.8499 24.7328 13.7432L24.1172 13.5596C24.0328 13.5346 23.9822 13.4455 24.0105 13.3564C24.0314 13.2889 24.0989 13.2464 24.1698 13.2464H24.9096C25.2363 13.2464 25.5576 13.1614 25.8418 13.0007L26.8785 12.4135C27.0736 12.3028 27.1688 12.0638 27.0824 11.8566C26.9791 11.6089 26.6868 11.513 26.4607 11.642L25.4098 12.2366C25.2572 12.323 25.0851 12.3689 24.9096 12.3689H24.2231C24.1334 12.3689 24.0632 12.2873 24.0807 12.1955C24.0902 12.1462 24.1266 12.1064 24.1725 12.0868L25.4671 11.5286C25.8674 11.3558 26.2258 11.0878 26.5039 10.753L26.8846 10.2947C27.0507 10.0942 27.0088 9.7898 26.7827 9.64467C26.5944 9.52317 26.3419 9.57447 26.1988 9.74727L25.8289 10.1921C25.6386 10.4216 25.3936 10.6045 25.1202 10.7226L23.3895 11.4692C23.3821 11.4725 23.3753 11.4759 23.3679 11.4793C23.3409 11.486 23.3139 11.4941 23.2876 11.5049L21.4712 12.2225C21.2478 12.3109 21.1013 12.5269 21.1013 12.7665V13.0743C21.1013 13.426 20.7915 13.7047 20.4297 13.6528C20.1394 13.6109 19.9309 13.349 19.9309 13.0561V12.2218C19.9309 12.0011 20.0551 11.7999 20.2515 11.7L21.4996 11.0669C21.5353 11.0487 21.5731 11.0338 21.6123 11.0237L22.62 10.7523C22.9366 10.6666 23.1216 10.3372 23.0291 10.022L23.0203 9.99094C22.9528 9.76347 22.755 9.59877 22.5188 9.57447L22.3109 9.55287C22.1874 9.54005 22.0713 9.48875 21.9795 9.40573L21.6953 9.1499C21.5387 9.00951 21.3187 8.96361 21.1189 9.02976L19.4145 9.59877C19.2559 9.65142 19.127 9.77022 19.0615 9.92412L18.292 11.7311C18.2718 11.7783 18.2387 11.8168 18.1982 11.8438C18.157 11.8701 18.1091 11.8856 18.0578 11.8856C18.0065 11.8856 17.9586 11.8701 17.9174 11.8438C17.8769 11.8168 17.8438 11.7783 17.8236 11.7311L17.0541 9.92412C16.9886 9.77022 16.8597 9.65142 16.7011 9.59877L14.9967 9.02976C14.7969 8.96361 14.5769 9.00951 14.4203 9.1499L14.1361 9.40573C14.0443 9.48875 13.9282 9.54005 13.8047 9.55287L13.5968 9.57447C13.3605 9.59877 13.1628 9.76347 13.0953 9.99094L13.0865 10.022C12.994 10.3372 13.179 10.6666 13.4955 10.7523L14.5033 11.0237C14.5424 11.0338 14.5802 11.0487 14.616 11.0669L15.8641 11.7C16.0605 11.7999 16.1847 12.0011 16.1847 12.2218V13.0561C16.1847 13.349 15.9761 13.6109 15.6859 13.6528C15.3241 13.7047 15.0143 13.426 15.0143 13.0743V12.7665C15.0143 12.5269 14.8678 12.3109 14.6444 12.2225L12.828 11.5049C12.8016 11.4941 12.7746 11.486 12.7476 11.4793C12.7402 11.4759 12.7335 11.4725 12.726 11.4692L10.9954 10.7226C10.722 10.6045 10.477 10.4216 10.2866 10.1921L9.91673 9.74727C9.77363 9.57447 9.52119 9.52317 9.33286 9.64467C9.10674 9.7898 9.06489 10.0942 9.23094 10.2947L9.61163 10.753C9.88973 11.0878 10.2481 11.3558 10.6484 11.5286L11.943 12.0868C11.9889 12.1064 12.0254 12.1462 12.0348 12.1955C12.0524 12.2873 11.9822 12.3689 11.8924 12.3689H11.206C11.0305 12.3689 10.8583 12.323 10.7058 12.2366L9.65483 11.642C9.42871 11.513 9.13644 11.6089 9.03317 11.8566C8.94677 12.0638 9.04194 12.3028 9.23701 12.4135L10.2738 13.0007C10.558 13.1614 10.8793 13.2464 11.206 13.2464H11.9457C12.0166 13.2464 12.0841 13.2889 12.105 13.3564C12.1334 13.4455 12.0828 13.5346 11.9984 13.5596L11.3828 13.7432C11.0257 13.8499 10.6417 13.8262 10.3001 13.6757L9.61568 13.374C9.37741 13.2694 9.09662 13.3929 9.01832 13.6507C8.95352 13.8654 9.07232 14.0935 9.27751 14.184L9.94643 14.4789C10.2596 14.6166 10.5964 14.6862 10.9339 14.6862C11.1695 14.6862 11.4051 14.6524 11.6339 14.5842L12.02 14.4688C12.0841 14.4499 12.1563 14.4796 12.18 14.5417C12.2043 14.6065 12.1732 14.6754 12.1145 14.7024L11.1884 15.1256C10.9582 15.2309 10.7038 15.2714 10.452 15.2437L9.48676 15.1377C9.22756 15.1094 8.99672 15.3126 9.00009 15.5812C9.00279 15.8053 9.18437 15.9876 9.40711 16.0118L10.3561 16.1165C10.4392 16.1252 10.5222 16.13 10.6045 16.13C10.9312 16.13 11.2546 16.0598 11.5529 15.9234L12.1307 15.6595C12.1793 15.6372 12.24 15.6582 12.2569 15.7088C12.2704 15.7486 12.2535 15.7911 12.2191 15.8121L10.8239 16.6706C10.6666 16.7672 10.4857 16.8185 10.3015 16.8185H9.45571C9.23161 16.8185 9.03114 16.9791 9.00347 17.2019C8.97039 17.4685 9.17829 17.6959 9.43884 17.6959H10.3015C10.6484 17.6959 10.9886 17.5994 11.2836 17.4179L12.1314 16.8968C12.2238 16.8401 12.3426 16.9062 12.3426 17.0149C12.3426 17.0642 12.3204 17.1114 12.2812 17.1425L11.0075 18.161C10.8442 18.292 10.641 18.3635 10.4311 18.3635H9.45571C9.23161 18.3635 9.03047 18.5242 9.00347 18.7469C8.97107 19.0135 9.17829 19.241 9.43884 19.241H10.4311C10.8401 19.241 11.2363 19.102 11.5556 18.8468L12.4243 18.1522C12.4385 18.211 12.4223 18.2717 12.3818 18.3156L11.2728 19.5144C10.9373 19.8775 10.4432 20.0618 9.95183 20.0085L9.48676 19.9578C9.21474 19.9288 8.97309 20.1536 9.00279 20.4432C9.02372 20.6504 9.19787 20.809 9.40441 20.8313L9.85666 20.8805C9.94373 20.89 10.0315 20.8947 10.1192 20.8947C10.7956 20.8947 11.453 20.6119 11.9174 20.1104L13.266 18.6517C13.266 18.6517 13.2708 18.6463 13.2728 18.6443C13.3443 18.6538 13.3923 18.7213 13.3794 18.7921L13.2876 19.2862C13.2546 19.4678 13.154 19.6298 13.0062 19.7405L12.2927 20.2764C12.1226 20.404 12.0544 20.6369 12.1496 20.8279C12.2292 20.9892 12.3858 21.0749 12.5451 21.0749C12.6363 21.0749 12.7287 21.0466 12.8077 20.9872L13.5326 20.4425C13.8566 20.1995 14.0767 19.8438 14.1509 19.4455L14.2643 18.8326C14.2691 18.8063 14.294 18.7881 14.321 18.7915L14.7004 18.8455C14.7281 18.8488 14.7483 18.8745 14.7436 18.9015C14.7267 19.0068 14.6842 19.106 14.6201 19.1911L14.3285 19.5765C14.1962 19.7526 14.2009 20.0044 14.3561 20.161C14.4439 20.2494 14.5573 20.292 14.6693 20.292C14.8016 20.292 14.9333 20.2319 15.0197 20.1178L15.3605 19.6662C15.4267 19.5798 15.4699 19.4799 15.5137 19.38C15.5576 19.2815 15.7081 19.297 15.7257 19.4043C15.7311 19.4354 15.7338 19.4671 15.7338 19.4995V19.5555C15.7338 19.7499 15.6373 19.9315 15.4759 20.0402L14.0173 21.0257C13.6994 21.241 13.6521 21.6905 13.9174 21.9673L13.1128 22.4202C13.0716 22.4438 13.0197 22.4276 12.9987 22.3858L12.8759 22.1414C12.8178 22.0253 12.6869 21.9572 12.5613 21.9916C12.3906 22.0382 12.3136 22.2245 12.3885 22.3743L12.4878 22.5707C12.5154 22.6261 12.4743 22.6915 12.4122 22.6902L12.2009 22.6855C12.0261 22.6801 11.8809 22.8522 11.9383 23.0392C11.9727 23.1512 12.0821 23.2234 12.1989 23.2255L12.481 23.2315C12.5364 23.2329 12.5748 23.2869 12.5573 23.3395L12.4837 23.5603C12.4425 23.6845 12.4878 23.8276 12.6032 23.891C12.6464 23.9146 12.6923 23.9261 12.7368 23.9261C12.8496 23.9261 12.9549 23.8546 12.9927 23.7412L13.0959 23.43C13.1115 23.3834 13.1641 23.3611 13.2087 23.3814L13.4078 23.4732C13.4442 23.4901 13.4827 23.4982 13.5205 23.4982C13.64 23.4982 13.754 23.4185 13.7844 23.2869C13.8141 23.1613 13.7426 23.0331 13.6251 22.9791L13.5495 22.944C13.4888 22.9156 13.4854 22.8306 13.5434 22.7975L14.3028 22.3696C14.5526 22.6301 14.9731 22.6159 15.2039 22.3392L16.0882 21.2835C16.3359 20.9879 16.7861 20.942 17.0682 21.2045C17.3524 21.4691 17.3139 21.8917 17.0372 22.1063L15.8769 23.0047C15.6231 23.2012 15.4395 23.455 15.3315 23.7351C15.1297 24.2555 15.7972 24.6767 16.1921 24.2818C16.4527 24.0213 16.8806 24.0321 17.1276 24.3129C17.3531 24.5694 17.3247 24.9629 17.0831 25.2045L16.7004 25.5873C16.3588 25.9288 16.3096 26.4661 16.5843 26.8637L18.0578 29L19.5313 26.8637C19.806 26.4661 19.7567 25.9288 19.4152 25.5873L19.0325 25.2045C18.7908 24.9629 18.7625 24.5694 18.9879 24.3129C19.235 24.0314 19.6629 24.0213 19.9235 24.2818C20.3183 24.6767 20.9859 24.2555 20.7841 23.7351C20.6754 23.4556 20.4925 23.2012 20.2387 23.0047L19.0784 22.1063C18.8016 21.8917 18.7631 21.4691 19.0473 21.2045C19.3295 20.942 19.7797 20.9879 20.0274 21.2835L20.9116 22.3392C21.1425 22.6159 21.563 22.6301 21.8127 22.3696L22.5721 22.7975C22.6302 22.8306 22.6268 22.9156 22.566 22.944L22.4904 22.9791C22.373 23.0331 22.3014 23.1613 22.3311 23.2869C22.3615 23.4185 22.4756 23.4982 22.5951 23.4982C22.6329 23.4982 22.6713 23.4901 22.7078 23.4732L22.9069 23.3814C22.9515 23.3611 23.0041 23.3834 23.0196 23.43L23.1229 23.7412C23.1607 23.8546 23.266 23.9261 23.3787 23.9261C23.4233 23.9261 23.4692 23.9146 23.5124 23.891C23.6278 23.8276 23.673 23.6845 23.6318 23.5603L23.5583 23.3395C23.5407 23.2869 23.5792 23.2329 23.6345 23.2315L23.9167 23.2255C24.0335 23.2234 24.1428 23.1512 24.1772 23.0392C24.2346 22.8522 24.0895 22.6801 23.9147 22.6855L23.7034 22.6902C23.6413 22.6915 23.6001 22.6261 23.6278 22.5707L23.727 22.3743C23.8019 22.2245 23.725 22.0382 23.5542 21.9916C23.4287 21.9572 23.2977 22.0253 23.2397 22.1414L23.1168 22.3858C23.0959 22.4276 23.0439 22.4438 23.0028 22.4202L22.1982 21.9673C22.4634 21.6905 22.4162 21.241 22.0983 21.0257L20.6396 20.0402C20.4783 19.9315 20.3818 19.7499 20.3818 19.5555V19.4995C20.3818 19.4671 20.3845 19.4354 20.3899 19.4043C20.4074 19.297 20.5579 19.2815 20.6018 19.38C20.6457 19.4799 20.6889 19.5798 20.755 19.6662L21.0959 20.1178C21.1823 20.2319 21.3139 20.292 21.4462 20.292C21.5583 20.292 21.6717 20.2494 21.7594 20.161C21.9147 20.0044 21.9194 19.7526 21.7871 19.5765L21.4955 19.1911C21.4314 19.106 21.3889 19.0068 21.372 18.9015C21.3673 18.8745 21.3875 18.8488 21.4152 18.8455L21.7945 18.7915C21.8215 18.7881 21.8465 18.8063 21.8512 18.8326L21.9646 19.4455C22.0389 19.8438 22.2589 20.1995 22.5829 20.4425L23.3078 20.9872C23.3868 21.0466 23.4793 21.0749 23.5704 21.0749C23.7297 21.0749 23.8863 20.9892 23.966 20.8279C24.0611 20.6369 23.993 20.404 23.8229 20.2764L23.1094 19.7405C22.9616 19.6298 22.861 19.4678 22.8279 19.2862L22.7361 18.7921C22.7233 18.7213 22.7712 18.6538 22.8428 18.6443C22.8448 18.6463 22.8468 18.6497 22.8495 18.6517L24.1982 20.1104C24.6626 20.6119 25.32 20.8947 25.9963 20.8947C26.0841 20.8947 26.1718 20.89 26.2589 20.8805L26.7111 20.8313C26.9177 20.809 27.0918 20.6504 27.1128 20.4432C27.1425 20.1536 26.9008 19.9288 26.6288 19.9578L26.1637 20.0085C25.6723 20.0618 25.1782 19.8775 24.8428 19.5144L23.7338 18.3156C23.6933 18.2717 23.6771 18.211 23.6912 18.1529V18.1522Z" fill="#262626"/>
</svg>
