<svg width="36" height="36" viewBox="0 0 36 36" fill="none" xmlns="http://www.w3.org/2000/svg">
<g clip-path="url(#clip0_62_293)">
<path d="M0 0H36V18H0V0Z" fill="#EF4444"/>
<path d="M0 18H36V36H0V18Z" fill="#262626"/>
<path d="M12.5829 12.0791L12.9025 13.0241C12.9373 13.1265 13.0284 13.1955 13.1328 13.1985L14.094 13.2235C14.4573 13.2328 14.6068 13.7133 14.3182 13.9431L13.5549 14.552C13.4721 14.6176 13.4374 14.7298 13.467 14.8341L13.7415 15.7943C13.8453 16.1573 13.4529 16.4541 13.1539 16.2391L12.3624 15.6703C12.2769 15.6086 12.1636 15.6086 12.0781 15.6703L11.2866 16.2391C10.9876 16.4541 10.5956 16.1573 10.699 15.7943L10.9735 14.8341C11.0031 14.7303 10.9683 14.6181 10.8856 14.552L10.1214 13.9431C9.83278 13.7128 9.98272 13.2328 10.3456 13.2235L11.3068 13.1985C11.4106 13.196 11.5023 13.1265 11.5371 13.0241L11.8567 12.0791C11.9775 11.722 12.4621 11.722 12.5829 12.0791Z" fill="#FBBF24"/>
<path fill-rule="evenodd" clip-rule="evenodd" d="M17.2342 24.853C17.3327 24.7724 17.3103 24.615 17.1969 24.556L16.5419 24.2151C16.3151 24.0965 16.0458 24.0875 15.8123 24.192C13.8824 25.0529 11.4593 25.0223 8.89001 23.4415C8.64904 23.2938 8.33348 23.3654 8.1798 23.6026L8.08356 23.7511C7.9269 23.9935 7.99702 24.3173 8.23948 24.474C8.3857 24.5695 8.53192 24.659 8.67814 24.7448C8.91015 24.8806 8.99967 25.1722 8.88479 25.4154L8.8639 25.461C8.7408 25.7221 8.85271 26.0324 9.11381 26.1555L9.78747 26.4718C10.0486 26.5942 10.3597 26.4823 10.482 26.2204L10.5544 26.0652C10.6603 25.8399 10.9102 25.7183 11.1512 25.7795C11.3362 25.8265 11.5205 25.8675 11.704 25.9011C11.9539 25.9474 12.1329 26.1674 12.1329 26.4211V26.4696C12.1329 26.762 12.3702 26.9992 12.6626 26.9992H13.3937C13.6862 26.9992 13.9234 26.762 13.9234 26.4696C13.9234 26.2085 14.1144 25.9869 14.3725 25.9474C14.5739 25.916 14.7739 25.8772 14.9693 25.8317C15.2155 25.7735 15.4669 25.9011 15.5669 26.1331L15.5825 26.1712C15.6967 26.4353 16.0025 26.5576 16.2674 26.445L16.9478 26.154C17.2133 26.0406 17.3364 25.7325 17.2223 25.4669L17.2141 25.449C17.0313 25.1349 17.1096 24.9544 17.2335 24.853H17.2342Z" fill="#FBBF24"/>
<path fill-rule="evenodd" clip-rule="evenodd" d="M14.1934 10.8069C20.2235 12.5914 21.0807 17.5278 19.1836 21.0207C19.0739 21.2221 19.1433 21.4735 19.3372 21.5958L19.8363 21.9099C19.9728 21.9957 20.1474 22.0009 20.2862 21.9189C20.4219 21.8383 20.5928 21.8211 20.7472 21.8831L20.8047 21.9062C21.0717 22.0129 21.3746 21.8838 21.4828 21.6175L21.7618 20.9296C21.87 20.6611 21.7402 20.356 21.4716 20.2485L21.4261 20.2306C21.1896 20.1374 21.0538 19.8867 21.109 19.639C21.1471 19.4675 21.1806 19.2944 21.2082 19.1198C21.2485 18.8677 21.4679 18.6834 21.723 18.6834H21.7872C22.0759 18.6834 22.3094 18.4499 22.3094 18.1612V17.4152C22.3094 17.1264 22.0759 16.8929 21.7872 16.8929H21.7334C21.4776 16.8929 21.256 16.7072 21.2187 16.4535C21.1866 16.2402 21.1478 16.0276 21.1001 15.8164C21.0441 15.5673 21.1829 15.3159 21.4209 15.2226L21.4723 15.2025C21.7409 15.098 21.8737 14.7951 21.7693 14.5266L21.4984 13.8335C21.394 13.5657 21.0926 13.4329 20.8248 13.5366L20.7577 13.562C20.5219 13.653 20.2533 13.5635 20.1243 13.3464C20.0258 13.1808 19.9206 13.0189 19.8102 12.86C19.6655 12.6533 19.6946 12.3728 19.8729 12.1953C19.9758 12.0938 20.0266 11.9595 20.0266 11.8252C20.0266 11.691 19.9766 11.5589 19.8751 11.4575L19.3492 10.9285C19.1463 10.7241 18.8165 10.7226 18.6121 10.9248L18.6099 10.927C18.4308 11.1046 18.1503 11.1285 17.9444 10.983C17.781 10.8688 17.6117 10.7592 17.4371 10.6555C17.2193 10.5264 17.126 10.2594 17.2163 10.0229L17.2372 9.96766C17.3394 9.69685 17.2029 9.39472 16.9321 9.29326L16.2383 9.03364C15.9697 8.93219 15.6691 9.06796 15.5676 9.33653L15.5534 9.37383C15.4617 9.61479 15.2088 9.75281 14.9566 9.69835C14.785 9.66179 14.6105 9.62897 14.4322 9.60062C14.1338 9.55362 13.8592 9.77295 13.8339 10.0736L13.8182 10.2638C13.7973 10.5115 13.9547 10.7375 14.1934 10.8084V10.8069Z" fill="#FBBF24"/>
<path fill-rule="evenodd" clip-rule="evenodd" d="M24.3438 25.4065L19.4961 22.3605L18.3622 21.6481L13.3102 18.4745C13.1632 18.382 12.9983 18.3387 12.8335 18.3387C12.4776 18.3387 12.118 18.5409 11.9136 18.8975L11.5801 19.4786C11.281 20.0008 11.4354 20.6439 11.9211 20.8976L16.6053 23.337L17.8974 24.0099L23.4784 26.9172C23.5858 26.9731 23.7022 27 23.8193 27C23.9655 27 24.1125 26.9582 24.2438 26.8799C24.3751 26.8015 24.49 26.6874 24.5735 26.5419C24.8063 26.1353 24.7056 25.6333 24.3438 25.4065Z" fill="#FBBF24"/>
</g>
<defs>
<clipPath id="clip0_62_293">
<rect width="36" height="36" rx="18" fill="white"/>
</clipPath>
</defs>
</svg>
