<svg width="36" height="36" viewBox="0 0 36 36" fill="none" xmlns="http://www.w3.org/2000/svg">
<rect width="36" height="36" rx="18" fill="#3B82F6"/>
<path d="M9.56325 18.2834L11.2756 21.3293C11.9795 22.5817 13.3682 23.4047 14.9241 23.4918L17.7816 23.6516C18.608 23.6979 19.2416 24.331 19.2067 25.0757C19.1727 25.8013 19.6952 26.4536 20.4709 26.6538L21.531 26.9273C22.23 27.1078 22.9831 26.947 23.5178 26.5033L26.4845 24.0407C27.184 23.4598 27.6764 22.7052 27.8988 21.8719L28.6553 19.0375C28.8698 18.2337 28.7414 17.3871 28.2953 16.6645L27.5805 15.5075C27.3119 15.0727 27.1245 14.6009 27.0256 14.1115L26.607 12.0361C26.4865 11.4384 26.0635 10.9254 25.4628 10.6479L23.2522 9.62821C22.8626 9.44817 22.4376 9.33798 22.0012 9.30354L18.2794 9.00889C17.2149 8.92477 16.2041 9.44374 15.7426 10.311L14.7834 12.1143C14.1818 13.2447 13.074 14.0913 11.737 14.4416C11.4409 14.5193 11.1211 14.4627 10.8791 14.2901L8.69699 12.7327C8.33248 12.4724 7.83418 12.8483 8.05406 13.2172L9.28532 15.2808C9.63851 15.873 9.70639 16.5696 9.47323 17.2086C9.34336 17.5632 9.37583 17.9504 9.56325 18.2834Z" fill="#F5F5F5"/>
</svg>
