<svg width="36" height="36" viewBox="0 0 36 36" fill="none" xmlns="http://www.w3.org/2000/svg">
<g clip-path="url(#clip0_62_359)">
<path d="M0 0H36V12H0V0Z" fill="#93C5FD"/>
<path d="M0 12H36V24H0V12Z" fill="#F5F5F5"/>
<path d="M0 24H36V36H0V24Z" fill="#93C5FD"/>
<path fill-rule="evenodd" clip-rule="evenodd" d="M18.3361 12.2867L18.6656 14.3251C18.7139 14.615 19.0785 14.7117 19.263 14.4833L20.5678 12.8797C20.8094 12.581 21.2839 12.8534 21.1477 13.2136L20.4141 15.1466C20.3086 15.419 20.5766 15.687 20.8534 15.5859L22.7864 14.8523C23.1466 14.7161 23.419 15.1906 23.1203 15.4322L21.5167 16.737C21.2883 16.9215 21.3893 17.2905 21.6749 17.3344L23.7133 17.6639C24.0956 17.7254 24.0956 18.2746 23.7133 18.3361L21.6749 18.6656C21.385 18.7139 21.2883 19.0785 21.5167 19.263L23.1203 20.5678C23.419 20.8094 23.1466 21.2839 22.7864 21.1477L20.8534 20.4141C20.581 20.3086 20.313 20.5766 20.4141 20.8534L21.1477 22.7864C21.2839 23.1466 20.8094 23.419 20.5678 23.1203L19.263 21.5167C19.0785 21.2883 18.7095 21.3893 18.6656 21.6749L18.3361 23.7133C18.2746 24.0956 17.7254 24.0956 17.6639 23.7133L17.3344 21.6749C17.2861 21.385 16.9215 21.2883 16.737 21.5167L15.4322 23.1203C15.1906 23.419 14.7161 23.1466 14.8523 22.7864L15.5859 20.8534C15.6914 20.581 15.4234 20.313 15.1466 20.4141L13.2136 21.1477C12.8534 21.2839 12.581 20.8094 12.8797 20.5678L14.4833 19.263C14.7117 19.0785 14.6107 18.7095 14.3251 18.6656L12.2867 18.3361C11.9044 18.2746 11.9044 17.7254 12.2867 17.6639L14.3251 17.3344C14.615 17.2861 14.7117 16.9215 14.4833 16.737L12.8797 15.4322C12.581 15.1906 12.8534 14.7161 13.2136 14.8523L15.1466 15.5859C15.419 15.6914 15.687 15.4234 15.5859 15.1466L14.8523 13.2136C14.7161 12.8534 15.1906 12.581 15.4322 12.8797L16.737 14.4833C16.9215 14.7117 17.2905 14.6107 17.3344 14.3251L17.6639 12.2867C17.7254 11.9044 18.2746 11.9044 18.3361 12.2867Z" fill="#FBBF24"/>
</g>
<defs>
<clipPath id="clip0_62_359">
<rect width="36" height="36" rx="18" fill="white"/>
</clipPath>
</defs>
</svg>
