<svg width="36" height="36" viewBox="0 0 36 36" fill="none" xmlns="http://www.w3.org/2000/svg">
<g clip-path="url(#clip0_62_403)">
<rect width="36" height="36" rx="18" fill="#1E3A8A"/>
<path d="M2.72917 18.8893C2.00563 18.5172 2.00563 17.4828 2.72917 17.1107L34.5426 0.749494C35.2082 0.407235 36 0.890424 36 1.63878V34.3612C36 35.1096 35.2082 35.5928 34.5427 35.2505L2.72917 18.8893Z" fill="#F5F5F5"/>
<path fill-rule="evenodd" clip-rule="evenodd" d="M33.628 -1.02911L1.81448 15.3321C-0.356133 16.4484 -0.356136 19.5515 1.81447 20.6678L33.628 37.0291C35.6245 38.0558 38 36.6062 38 34.3612V1.63875C38 -0.606325 35.6244 -2.05588 33.628 -1.02911ZM2.72917 17.1107C2.00563 17.4828 2.00563 18.5172 2.72917 18.8893L34.5427 35.2505C35.2082 35.5927 36 35.1095 36 34.3612V1.63875C36 0.890398 35.2082 0.407208 34.5426 0.749467L2.72917 17.1107Z" fill="#EF4444"/>
<path d="M33.2566 21.6345H19.6848V21.1139C19.6848 20.6221 19.1996 20.2769 18.735 20.4388L16.9653 21.0552L15.2481 21.6533C14.9173 21.7684 14.9173 22.2365 15.2481 22.3516L16.9653 22.9496L18.735 23.5661C19.1996 23.7279 19.6848 23.3828 19.6848 22.891V22.3704H33.2566C33.4596 22.3704 33.6245 22.2059 33.6245 22.0024C33.6245 21.799 33.46 21.6345 33.2566 21.6345Z" fill="#FBBF24"/>
<path d="M27.3048 10H34.1377C34.6141 10 35.0004 10.3863 35.0004 10.8628V11.0233C35.0004 11.8791 34.307 12.5725 33.4512 12.5725V12.636C33.4512 13.826 32.4865 14.7902 31.297 14.7902C31.297 15.9019 30.3957 16.8032 29.284 16.8032H27.3052V10H27.3048Z" fill="#713F12"/>
<path d="M27.3048 16.8032L31.4702 21.8222C31.9935 22.4526 31.545 23.4073 30.7256 23.4073H29.5492C28.3097 23.4073 27.3048 22.4023 27.3048 21.1629V16.8032Z" fill="#D4D4D4"/>
<path d="M17.2619 15.1022V16.8032H15.8374V16.5267C15.8374 15.7405 16.4757 15.1026 17.2615 15.1026L17.2619 15.1022Z" fill="#FBBF24"/>
<path d="M27.3048 10H26.1358C23.1069 10 20.6517 12.4553 20.6517 15.4841C20.6517 18.5129 23.1069 20.9682 26.1358 20.9682H27.3048V10Z" fill="#A16207"/>
<path d="M25.4191 20.921L22.3072 20.9214C21.5656 20.9214 21.0984 20.1238 21.4602 19.4768L21.8089 18.8538C21.948 19.0323 22.098 19.202 22.2577 19.3617C23.0912 20.1947 24.1915 20.7613 25.4191 20.921Z" fill="#713F12"/>
<path d="M20.6517 15.4841C20.6517 15.9387 20.7072 16.3806 20.8113 16.8032H17.2619V15.2579C17.2619 14.2329 18.0931 13.4016 19.1182 13.4016H21.0607C20.7969 14.0439 20.6517 14.7469 20.6517 15.4841Z" fill="#D4D4D4"/>
</g>
<defs>
<clipPath id="clip0_62_403">
<rect width="36" height="36" rx="18" fill="white"/>
</clipPath>
</defs>
</svg>
