<svg width="36" height="36" viewBox="0 0 36 36" fill="none" xmlns="http://www.w3.org/2000/svg">
<rect width="36" height="36" rx="18" fill="#1E3A8A"/>
<path d="M22 0H0V20H22V0Z" fill="#1E3A8A"/>
<path fill-rule="evenodd" clip-rule="evenodd" d="M22 0.25V4.67L19.26 6.55L17.67 7.64L14.71 9.67L14.23 10L13.74 10.33L11.49 11.88L11 12.21L10.52 12.54L8.43 13.97L7.33 14.73L0 19.75V15.33L2.2 13.82L3.79 12.73L7.29 10.33L7.77 10L8.26 9.67L10.51 8.12L11 7.79L11.48 7.46L13.57 6.03L14.67 5.27L22 0.25Z" fill="#EF4444"/>
<path fill-rule="evenodd" clip-rule="evenodd" d="M18.29 6.55L16.7 7.64L14.22 9.34L13.74 9.67L13.25 10L11 11.55L10.51 11.88L10.03 12.21L8.43 13.31L7.33 14.06L0 19.09V20H0.61L7.33 15.39L8.43 14.64L11 12.87L11.48 12.54L11.97 12.21L14.22 10.66L14.71 10.33L15.19 10L18.63 7.64L20.22 6.55L22 5.33V4L18.29 6.55ZM21.39 0L14.67 4.61L13.57 5.36L11 7.13L10.52 7.46L10.03 7.79L7.78 9.34L7.29 9.67L6.81 10L2.83 12.73L1.24 13.82L0 14.67V16L3.17 13.82L4.76 12.73L7.78 10.66L8.26 10.33L8.75 10L11 8.45L11.49 8.12L11.97 7.79L13.57 6.69L14.67 5.94L22 0.91V0H21.39ZM8.43 13.31V13.97L10.52 12.54L10.03 12.21L8.43 13.31Z" fill="#F5F5F5"/>
<path fill-rule="evenodd" clip-rule="evenodd" d="M22 15.33V19.75L14.67 14.73L13.57 13.97L11.48 12.54L11 12.21L10.51 11.88L8.26 10.33L7.77 10L7.29 9.67L4.33 7.64L2.74 6.55L0 4.67V0.25L7.33 5.27L8.43 6.03L10.52 7.46L11 7.79L11.49 8.12L13.74 9.67L14.23 10L14.71 10.33L18.21 12.73L19.8 13.82L22 15.33Z" fill="#EF4444"/>
<path fill-rule="evenodd" clip-rule="evenodd" d="M14.67 14.06L13.57 13.31L11.97 12.21L11.49 11.88L11 11.55L8.75 10L8.26 9.67L7.78 9.34L5.3 7.64L3.71 6.55L0 4V5.33L1.78 6.55L3.37 7.64L6.81 10L7.29 10.33L7.78 10.66L10.03 12.21L10.52 12.54L11 12.87L13.57 14.64L14.67 15.39L21.39 20H22V19.09L14.67 14.06ZM20.76 13.82L19.17 12.73L15.19 10L14.71 9.67L14.22 9.34L11.97 7.79L11.48 7.46L11 7.13L8.43 5.36L7.33 4.61L0.61 0H0V0.91L7.33 5.94L8.43 6.69L10.03 7.79L10.51 8.12L11 8.45L13.25 10L13.74 10.33L14.22 10.66L17.24 12.73L18.83 13.82L22 16V14.67L20.76 13.82Z" fill="#F5F5F5"/>
<path fill-rule="evenodd" clip-rule="evenodd" d="M22 7.64V12.73H13.57V20H8.43V12.73H0V7.64H8.43V0H13.57V7.64H22Z" fill="#EF4444"/>
<path fill-rule="evenodd" clip-rule="evenodd" d="M13.57 12.73V20H14.67V13.82H22V12.73H13.57ZM0 12.73V13.82H7.33V20H8.43V12.73H0ZM14.67 6.55V0H13.57V7.64H22V6.55H14.67ZM7.33 0V6.55H0V7.64H8.43V0H7.33Z" fill="#F5F5F5"/>
<path d="M11.8415 24.4761L12.4336 26.1559C12.4981 26.3379 12.667 26.4607 12.8603 26.4659L14.6411 26.5103C15.3142 26.5269 15.5912 27.3811 15.0565 27.7895L13.6423 28.8719C13.489 28.9886 13.4246 29.188 13.4795 29.3735L13.988 31.0803C14.1805 31.7255 13.4533 32.2532 12.8995 31.871L11.4331 30.86C11.2746 30.7502 11.0647 30.7502 10.9062 30.86L9.4398 31.871C8.88597 32.2532 8.15972 31.7255 8.3513 31.0803L8.85985 29.3735C8.91471 29.1889 8.85027 28.9895 8.69701 28.8719L7.28108 27.7895C6.74641 27.3802 7.02419 26.5269 7.69645 26.5103L9.47725 26.4659C9.66969 26.4615 9.8395 26.3379 9.90394 26.1559L10.4961 24.4761C10.7199 23.8413 11.6177 23.8413 11.8415 24.4761Z" fill="#F5F5F5"/>
<path d="M31.0259 25.2976L31.396 26.3474C31.4363 26.4612 31.5419 26.5379 31.6627 26.5412L32.7757 26.5689C33.1964 26.5793 33.3695 27.1132 33.0353 27.3684L32.1514 28.045C32.0556 28.1179 32.0154 28.2425 32.0497 28.3584L32.3675 29.4252C32.4878 29.8285 32.0333 30.1583 31.6872 29.9194L30.7707 29.2875C30.6716 29.2189 30.5404 29.2189 30.4414 29.2875L29.5249 29.9194C29.1787 30.1583 28.7248 29.8285 28.8446 29.4252L29.1624 28.3584C29.1967 28.2431 29.1564 28.1184 29.0606 28.045L28.1757 27.3684C27.8415 27.1126 28.0151 26.5793 28.4353 26.5689L29.5483 26.5412C29.6686 26.5385 29.7747 26.4612 29.815 26.3474L30.1851 25.2976C30.3249 24.9008 30.886 24.9008 31.0259 25.2976Z" fill="#F5F5F5"/>
<path d="M31.0259 4.29757L31.396 5.34743C31.4363 5.46118 31.5419 5.53792 31.6627 5.54118L32.7757 5.56894C33.1964 5.57928 33.3695 6.11319 33.0353 6.36845L32.1514 7.04495C32.0556 7.11788 32.0154 7.24251 32.0497 7.35844L32.3675 8.42517C32.4878 8.82846 32.0333 9.15828 31.6872 8.91935L30.7707 8.28748C30.6716 8.2189 30.5404 8.2189 30.4414 8.28748L29.5249 8.91935C29.1787 9.15828 28.7248 8.82846 28.8446 8.42517L29.1624 7.35844C29.1967 7.24306 29.1564 7.11843 29.0606 7.04495L28.1757 6.36845C27.8415 6.11265 28.0151 5.57928 28.4353 5.56894L29.5483 5.54118C29.6686 5.53846 29.7747 5.46118 29.815 5.34743L30.1851 4.29757C30.3249 3.90081 30.886 3.90081 31.0259 4.29757Z" fill="#F5F5F5"/>
<path d="M27.0259 12.2976L27.396 13.3474C27.4363 13.4612 27.5419 13.5379 27.6627 13.5412L28.7757 13.5689C29.1964 13.5793 29.3695 14.1132 29.0353 14.3684L28.1514 15.045C28.0556 15.1179 28.0154 15.2425 28.0497 15.3584L28.3675 16.4252C28.4878 16.8285 28.0333 17.1583 27.6872 16.9194L26.7707 16.2875C26.6716 16.2189 26.5404 16.2189 26.4414 16.2875L25.5249 16.9194C25.1787 17.1583 24.7248 16.8285 24.8446 16.4252L25.1624 15.3584C25.1967 15.2431 25.1564 15.1184 25.0606 15.045L24.1757 14.3684C23.8415 14.1126 24.0151 13.5793 24.4353 13.5689L25.5483 13.5412C25.6686 13.5385 25.7747 13.4612 25.815 13.3474L26.1851 12.2976C26.3249 11.9008 26.886 11.9008 27.0259 12.2976Z" fill="#F5F5F5"/>
</svg>
