<svg width="36" height="36" viewBox="0 0 36 36" fill="none" xmlns="http://www.w3.org/2000/svg">
<g clip-path="url(#clip0_62_605)">
<path d="M0 0H36V12H0V0Z" fill="#93C5FD"/>
<path d="M0 12H36V24H0V12Z" fill="#EF4444"/>
<path d="M0 24H36V36H0V24Z" fill="#22C55E"/>
<path d="M23.4236 15.4463L23.8385 16.601C23.8837 16.7261 24.0021 16.8105 24.1375 16.8141L25.3855 16.8446C25.8572 16.856 26.0512 17.4432 25.6765 17.7239L24.6855 18.4679C24.5781 18.5481 24.533 18.6852 24.5714 18.8127L24.9278 19.9859C25.0626 20.4295 24.5531 20.7922 24.165 20.5295L23.1374 19.8345C23.0263 19.7591 22.8792 19.7591 22.7682 19.8345L21.7406 20.5295C21.3525 20.7922 20.8435 20.4295 20.9778 19.9859L21.3341 18.8127C21.3726 18.6858 21.3274 18.5487 21.22 18.4679L20.2278 17.7239C19.8531 17.4426 20.0478 16.856 20.5189 16.8446L21.7668 16.8141C21.9017 16.8111 22.0207 16.7261 22.0658 16.601L22.4808 15.4463C22.6376 15.0099 23.2667 15.0099 23.4236 15.4463Z" fill="#F5F5F5"/>
<path d="M19.3342 23.0058C19.3342 23.0058 19.3414 23.0058 19.3442 23.0058C19.5829 23.0058 19.6586 23.3285 19.4428 23.4313C18.6783 23.7959 17.8252 24 16.9249 24C13.6552 24 10.9843 21.2822 11.0001 17.9696C11.0158 14.657 13.6624 12 16.9249 12C17.8266 12 18.6812 12.2041 19.4457 12.5687C19.6601 12.6715 19.5829 12.9942 19.3457 12.9942C19.3414 12.9942 19.3385 12.9942 19.3342 12.9942C16.6048 12.9942 14.3912 15.2344 14.3912 18C14.3912 20.7656 16.6048 23.0058 19.3342 23.0058Z" fill="#F5F5F5"/>
</g>
<defs>
<clipPath id="clip0_62_605">
<rect width="36" height="36" rx="18" fill="white"/>
</clipPath>
</defs>
</svg>
