<svg width="36" height="36" viewBox="0 0 36 36" fill="none" xmlns="http://www.w3.org/2000/svg">
<rect width="36" height="36" rx="18" fill="#1E3A8A"/>
<path fill-rule="evenodd" clip-rule="evenodd" d="M32.76 0V34.29C32.76 35.63 31.1 36.24 30.23 35.24L0.26 0.58C0.14 0.44 0.05 0.29 0 0.13V0L32.76 0Z" fill="#FBBF24"/>
<path d="M0.68 8.46005C0.58 8.54005 0.54 8.67005 0.58 8.79005L0.91 9.92005C1.04 10.35 0.56 10.7 0.19 10.45L0 10.32V6.80005C0 6.80005 0.1 6.86005 0.17 6.86005L1.35 6.89005C1.79 6.90005 1.98 7.47005 1.62 7.74005L0.68 8.46005Z" fill="#F5F5F5"/>
<path d="M5.13 11.57L5.52 12.68C5.56 12.8 5.67 12.88 5.8 12.89L6.98 12.92C7.43 12.93 7.61 13.5 7.26 13.77L6.32 14.49C6.22 14.57 6.18 14.7 6.21 14.82L6.55 15.95C6.68 16.38 6.2 16.73 5.83 16.47L4.86 15.8C4.75 15.73 4.62 15.73 4.51 15.8L3.54 16.47C3.17 16.72 2.69 16.37 2.82 15.95L3.16 14.82C3.2 14.7 3.16 14.57 3.05 14.49L2.11 13.77C1.76 13.5 1.94 12.93 2.39 12.92L3.57 12.89C3.7 12.89 3.81 12.81 3.85 12.68L4.24 11.57C4.39 11.15 4.98 11.15 5.13 11.57Z" fill="#F5F5F5"/>
<path d="M11.13 18.68L11.52 19.79C11.56 19.91 11.67 19.99 11.8 20L12.98 20.03C13.43 20.04 13.61 20.61 13.26 20.88L12.32 21.6C12.22 21.68 12.18 21.81 12.21 21.93L12.55 23.06C12.68 23.49 12.2 23.84 11.83 23.58L10.86 22.91C10.75 22.84 10.62 22.84 10.51 22.91L9.54 23.58C9.17 23.83 8.69 23.48 8.82 23.06L9.16 21.93C9.2 21.81 9.16 21.68 9.05 21.6L8.11 20.88C7.76 20.61 7.94 20.04 8.39 20.03L9.57 20C9.7 20 9.81 19.92 9.85 19.79L10.24 18.68C10.39 18.26 10.98 18.26 11.13 18.68Z" fill="#F5F5F5"/>
<path d="M17.49 25.42L17.88 26.53C17.92 26.65 18.03 26.73 18.16 26.74L19.34 26.77C19.79 26.78 19.97 27.35 19.62 27.62L18.68 28.34C18.58 28.42 18.54 28.55 18.57 28.67L18.91 29.8C19.04 30.23 18.56 30.58 18.19 30.32L17.22 29.65C17.11 29.58 16.98 29.58 16.87 29.65L15.9 30.32C15.53 30.57 15.05 30.22 15.18 29.8L15.52 28.67C15.56 28.55 15.52 28.42 15.41 28.34L14.47 27.62C14.12 27.35 14.3 26.78 14.75 26.77L15.93 26.74C16.06 26.74 16.17 26.66 16.21 26.53L16.6 25.42C16.75 25 17.34 25 17.49 25.42Z" fill="#F5F5F5"/>
<path d="M24.44 35.1799C24.34 35.2599 24.3 35.3899 24.33 35.5099L24.48 35.9999H21.12L21.27 35.5099C21.3 35.3899 21.26 35.2599 21.16 35.1799L20.22 34.4599C19.87 34.1899 20.05 33.6199 20.5 33.6099L21.68 33.5799C21.8 33.5799 21.92 33.4999 21.96 33.3799L22.35 32.2599C22.5 31.8399 23.1 31.8399 23.25 32.2599L23.64 33.3799C23.68 33.4999 23.79 33.5799 23.92 33.5799L25.1 33.6099C25.55 33.6199 25.73 34.1899 25.38 34.4599L24.44 35.1799Z" fill="#F5F5F5"/>
</svg>
