<svg width="36" height="36" viewBox="0 0 36 36" fill="none" xmlns="http://www.w3.org/2000/svg">
<g clip-path="url(#clip0_87_189)">
<path d="M0 0H12V36H0V0Z" fill="#1E3A8A"/>
<path d="M12 0H24V36H12V0Z" fill="#FBBF24"/>
<path d="M24 0H36V36H24V0Z" fill="#1E3A8A"/>
<path d="M22.7839 13.8455C22.5117 13.5896 22.0839 13.6032 21.828 13.8754C20.676 15.1018 20.14 17.1381 19.8937 18.6305C19.8204 19.0741 19.4006 19.3818 18.9576 19.3153L18.6741 19.273V15.3695H19.2698C19.719 15.3695 19.9997 14.8831 19.7754 14.4942L19.1396 13.3929L18.5039 12.2917C18.2795 11.9028 17.7176 11.9028 17.4933 12.2917L16.8576 13.3929L16.2218 14.4942C15.9975 14.8831 16.2782 15.3695 16.7274 15.3695H17.3231V19.273L17.0396 19.3153C16.5966 19.3812 16.1767 19.0741 16.1035 18.6305C15.8572 17.1381 15.3212 15.1018 14.1692 13.8754C13.9133 13.6032 13.4855 13.5896 13.2133 13.8455C12.9411 14.1014 12.9276 14.5292 13.1834 14.8014C13.9009 15.5651 14.4639 17.0028 14.7689 18.8509C14.9441 19.9122 15.8752 20.677 16.9213 20.677C17.0261 20.677 17.1326 20.6691 17.2391 20.6533L17.3237 20.6409V23.2865C17.3237 23.6601 17.6263 23.9628 18 23.9628C18.3737 23.9628 18.6763 23.6601 18.6763 23.2865V20.6409L18.7609 20.6533C18.8674 20.6691 18.9739 20.677 19.0787 20.677C20.1248 20.677 21.0559 19.9122 21.2311 18.8509C21.5366 17.0028 22.0997 15.5651 22.8166 14.8014C23.0724 14.5292 23.0589 14.1014 22.7867 13.8455H22.7839Z" fill="#262626"/>
</g>
<defs>
<clipPath id="clip0_87_189">
<rect width="36" height="36" rx="18" fill="white"/>
</clipPath>
</defs>
</svg>
