<svg width="36" height="36" viewBox="0 0 36 36" fill="none" xmlns="http://www.w3.org/2000/svg">
<g clip-path="url(#clip0_90_255)">
<rect width="36" height="36" rx="18" fill="#DC2626"/>
<path d="M9.47 6.59L15.17 4.22C15.71 3.99 15.71 3.22 15.17 2.99L8.12 0.05C8.04 0.02 7.95 0 7.86 0H0V36H7.87C7.96 36 8.04 35.98 8.13 35.95L15.18 33.01C15.72 32.78 15.72 32.01 15.18 31.78L9.48 29.41C8.94 29.18 8.94 28.41 9.48 28.18L15.18 25.81C15.72 25.58 15.72 24.81 15.18 24.58L9.48 22.21C8.94 21.98 8.94 21.21 9.48 20.98L15.18 18.61C15.72 18.38 15.72 17.61 15.18 17.38L9.48 15.01C8.94 14.78 8.94 14.01 9.48 13.78L15.18 11.41C15.72 11.18 15.72 10.41 15.18 10.18L9.48 7.81C8.94 7.58 8.94 6.81 9.48 6.58L9.47 6.59Z" fill="#F5F5F5"/>
</g>
<defs>
<clipPath id="clip0_90_255">
<rect width="36" height="36" rx="18" fill="white"/>
</clipPath>
</defs>
</svg>
