<svg width="36" height="36" viewBox="0 0 36 36" fill="none" xmlns="http://www.w3.org/2000/svg">
<g clip-path="url(#clip0_91_367)">
<path d="M18 17.91L15.39 20.53L14.99 20.93L14.27 21.66L11.1 24.84L0 36V0L11.16 11.1L15.49 15.42L16.69 16.61L17.42 17.34L18 17.91Z" fill="#22C55E"/>
<path d="M36 0V36L24.9 24.84L21.73 21.66L21.01 20.93L20.58 20.51L18.09 18L18 17.91L18.58 17.34L20.48 15.44L24.84 11.1L35.97 0.02L36 0Z" fill="#22C55E"/>
<path d="M36 0L35.98 0.03L24.9 11.16L20.56 15.52L19.35 16.74L18.68 17.41L18.09 18L18 17.91L17.42 17.34L16.69 16.61L15.49 15.42L11.16 11.1L0 0H36Z" fill="#EF4444"/>
<path d="M36 36H0L11.16 24.9L14.35 21.72L15.02 21.05L15.47 20.61L18.09 18L20.58 20.51L21.01 20.93L21.73 21.66L24.9 24.84L36 36Z" fill="#EF4444"/>
<path fill-rule="evenodd" clip-rule="evenodd" d="M36 30.96V36H30.86L15.47 20.61L15.39 20.53L15.05 20.19L13.18 18.32L12.89 18.03L9.05 14.19L0 5.14V0H5.04L14.12 9.08L17.98 12.94L19.72 14.68L20.15 15.11L20.48 15.44L20.56 15.52L23.07 18.03L24.04 19L26.92 21.88L36 30.96Z" fill="#F5F5F5"/>
<path fill-rule="evenodd" clip-rule="evenodd" d="M36 0.05V5.09L26.93 14.16L23.07 18.03L22.8 18.29L20.92 20.17L20.58 20.51L17.98 23.12L14.16 26.93L5.09 36H0V30.91L9.07 21.84L11.52 19.39L11.91 19L12.89 18.03L15.49 15.42L15.84 15.07L16.23 14.68L17.98 12.94L21.84 9.07L30.91 0H35.95L36 0.05Z" fill="#F5F5F5"/>
<path d="M18 27.72C23.3682 27.72 27.72 23.3682 27.72 18C27.72 12.6318 23.3682 8.28003 18 8.28003C12.6318 8.28003 8.28 12.6318 8.28 18C8.28 23.3682 12.6318 27.72 18 27.72Z" fill="#F5F5F5"/>
<path d="M18.35 13.58L18.66 14.49C18.69 14.59 18.78 14.65 18.88 14.66L19.8 14.68C20.15 14.68 20.29 15.15 20.02 15.37L19.29 15.95C19.21 16.01 19.18 16.12 19.21 16.22L19.47 17.14C19.57 17.49 19.19 17.77 18.91 17.57L18.15 17.02C18.07 16.96 17.96 16.96 17.88 17.02L17.12 17.57C16.83 17.78 16.46 17.49 16.56 17.14L16.82 16.22C16.85 16.12 16.82 16.01 16.74 15.95L16.01 15.37C15.73 15.15 15.88 14.69 16.22 14.68L17.14 14.66C17.24 14.66 17.33 14.59 17.36 14.49L17.67 13.58C17.79 13.24 18.25 13.24 18.37 13.58H18.35Z" fill="#EF4444"/>
<path d="M22.67 17.9L22.98 18.81C23.01 18.91 23.1 18.97 23.2 18.98L24.12 19C24.47 19 24.61 19.47 24.34 19.69L23.61 20.27C23.53 20.33 23.5 20.44 23.53 20.54L23.79 21.46C23.89 21.81 23.51 22.09 23.23 21.89L22.47 21.34C22.39 21.28 22.28 21.28 22.2 21.34L21.44 21.89C21.15 22.1 20.78 21.81 20.88 21.46L21.14 20.54C21.17 20.44 21.14 20.33 21.06 20.27L20.33 19.69C20.05 19.47 20.2 19.01 20.54 19L21.46 18.98C21.56 18.98 21.65 18.91 21.68 18.81L21.99 17.9C22.11 17.56 22.57 17.56 22.69 17.9H22.67Z" fill="#EF4444"/>
<path d="M14.03 17.9L14.34 18.81C14.37 18.91 14.46 18.97 14.56 18.98L15.48 19C15.83 19 15.97 19.47 15.7 19.69L14.97 20.27C14.89 20.33 14.86 20.44 14.89 20.54L15.15 21.46C15.25 21.81 14.87 22.09 14.59 21.89L13.83 21.34C13.75 21.28 13.64 21.28 13.56 21.34L12.8 21.89C12.51 22.1 12.14 21.81 12.24 21.46L12.5 20.54C12.53 20.44 12.5 20.33 12.42 20.27L11.69 19.69C11.41 19.47 11.56 19.01 11.9 19L12.82 18.98C12.92 18.98 13.01 18.91 13.04 18.81L13.35 17.9C13.47 17.56 13.93 17.56 14.05 17.9H14.03Z" fill="#EF4444"/>
</g>
<defs>
<clipPath id="clip0_91_367">
<rect width="36" height="36" rx="18" fill="white"/>
</clipPath>
</defs>
</svg>
