<svg width="36" height="36" viewBox="0 0 36 36" fill="none" xmlns="http://www.w3.org/2000/svg">
<rect width="36" height="36" rx="18" fill="#22C55E"/>
<path fill-rule="evenodd" clip-rule="evenodd" d="M20.3774 30.0923L32.2137 19.9333C33.263 19.0328 33.2619 17.0019 32.2116 16.1034L20.2932 5.90353C18.8827 4.69631 17.0677 4.69919 15.6594 5.90999L3.78506 16.12C2.7347 17.0234 2.73905 19.0586 3.79375 19.9535L15.7599 30.1081C17.1676 31.3031 18.974 31.2967 20.3774 30.0923Z" fill="#FBBF24"/>
<path fill-rule="evenodd" clip-rule="evenodd" d="M25 18.0055C25 21.8681 21.8626 25 17.989 25C14.1231 24.994 10.994 21.8549 11 17.989C11.0061 14.1231 14.1379 10.9956 18.0082 11C21.8736 11.0044 25.0033 14.1407 25 18.0055Z" fill="#3B82F6"/>
<path fill-rule="evenodd" clip-rule="evenodd" d="M24.5384 20.5221C24.6747 20.1688 24.7813 19.805 24.8571 19.4341C21.1318 16.1649 16.9835 14.4891 11.7417 14.8352C11.5516 15.2034 11.395 15.5874 11.2747 15.9836C17.4835 15.3902 22.0439 18.1374 24.5384 20.5221Z" fill="#F5F5F5"/>
</svg>
