<svg width="36" height="36" viewBox="0 0 36 36" fill="none" xmlns="http://www.w3.org/2000/svg">
<g clip-path="url(#clip0_92_65)">
<rect width="36" height="36" rx="18" fill="#EF4444"/>
<path d="M36 0L0 36V0H36Z" fill="#FBBF24"/>
<path d="M7.74749 20.5375C7.98821 19.5018 9.01927 18.608 10.2419 18.6744C10.4798 18.6874 10.7196 18.6734 10.9585 18.6767C11.1672 18.6795 11.2753 18.5918 11.2669 18.3724C11.2604 18.1952 11.2618 18.0181 11.2669 17.8409C11.2771 17.448 11.4826 17.2454 11.8736 17.244C12.5132 17.2421 13.1528 17.2393 13.7919 17.2463C14.4204 17.2528 14.9524 17.4861 15.3383 17.9879C15.6615 18.4086 15.9565 18.8511 16.264 19.2838C16.9208 19.7495 17.4268 20.3538 17.8739 21.0162C18.3178 21.6729 18.7255 22.3552 19.2139 22.9813C19.6313 23.5161 20.104 23.9869 20.7811 24.1817C21.1814 24.2972 21.5775 24.2615 21.9444 24.0653C22.815 23.6001 23.3196 22.3459 22.3516 21.3246C21.9843 20.9369 21.5209 20.6933 21.0594 20.4466C20.392 20.0899 19.8141 19.6312 19.3489 19.0287C19.085 18.6869 18.8563 18.3228 18.6221 17.9619C18.3684 17.9541 18.1137 17.9555 17.861 17.936C16.9496 17.8669 16.265 17.2792 16.0331 16.3947C15.8717 15.7792 15.9538 15.154 15.9384 14.533C15.9287 14.1406 16.123 13.962 16.5242 13.9588C16.7654 13.9569 17.0066 13.9588 17.2483 13.9588C17.0233 13.8688 16.8086 13.7783 16.6161 13.6373C15.9862 13.1749 15.873 12.5214 15.9496 11.8062C15.9732 11.5859 16.1323 11.4755 16.3531 11.4695C16.5994 11.463 16.8457 11.463 17.092 11.4602C16.9644 11.2751 16.8665 11.0789 16.8211 10.8545C16.7487 10.5001 16.7566 10.4839 17.1161 10.4834C17.8174 10.4829 18.5186 10.4853 19.2199 10.4797C19.2812 10.4792 19.4073 10.5525 19.3948 10.3865C19.3688 10.0377 19.148 9.82619 18.7914 9.82062C18.5293 9.81645 18.2668 9.80995 18.0052 9.82294C17.8178 9.83222 17.6889 9.78259 17.585 9.6133C17.4361 9.37119 17.2566 9.14809 17.0943 8.91387C17.0525 8.85357 16.9667 8.7942 17.008 8.71443C17.0465 8.63929 17.1416 8.65367 17.2186 8.65367C17.7659 8.65367 18.3132 8.65227 18.86 8.65459C19.3948 8.65691 19.8317 8.86285 20.1587 9.29048C20.3637 9.55857 20.5038 9.86283 20.5488 10.1926C20.5826 10.4407 20.6847 10.5066 20.9212 10.489C21.2046 10.4681 21.4917 10.4751 21.776 10.4932C22.2472 10.5224 22.6637 10.688 22.8646 11.1453C22.987 11.424 23.1517 11.5446 23.4471 11.5098C23.5459 11.4982 23.6484 11.4992 23.7472 11.5098C24.1211 11.5483 24.4402 11.443 24.7268 11.1949C24.9072 11.0386 25.1243 10.9324 25.3692 10.899C25.4517 10.8879 25.5742 10.9315 25.5705 10.7798C25.5672 10.6416 25.5742 10.4885 25.403 10.4375C25.3084 10.4092 25.2064 10.3981 25.1071 10.3962C24.8145 10.3911 24.519 10.3707 24.2291 10.3995C23.6818 10.4533 23.3344 10.1986 23.1025 9.73482C23.0543 9.63881 23.013 9.53909 22.968 9.44122C22.6229 8.69819 22.8265 8.72277 21.8562 8.71628C21.4648 8.7135 21.0701 8.76081 20.6814 8.68057C20.4699 8.63697 20.379 8.47602 20.4337 8.26731C20.494 8.03633 20.6847 8.01267 20.8711 8.00943C21.3256 8.00154 21.7811 7.99227 22.2352 8.01082C22.8071 8.03401 23.2681 8.23762 23.4555 8.8429C23.5144 9.03307 23.6118 9.21117 23.6841 9.39762C23.7709 9.62165 23.93 9.71394 24.1674 9.70977C24.5371 9.70281 24.9095 9.68287 25.2769 9.71673C25.9179 9.77563 26.1929 10.0725 26.2564 10.5952C26.3539 11.3999 26.3724 12.206 26.3511 13.0144C26.3409 13.3952 26.1034 13.6452 25.7277 13.6898C25.6136 13.7032 25.4976 13.712 25.3826 13.7125C24.6275 13.7143 23.872 13.7176 23.1169 13.7116C22.8386 13.7092 22.6011 13.7867 22.4147 13.9968C22.3507 14.0692 22.2463 14.1336 22.2894 14.25C22.3358 14.3748 22.4578 14.3345 22.552 14.3349C23.4689 14.3372 24.3864 14.3354 25.3033 14.3368C25.5876 14.3368 25.7129 14.4963 25.6609 14.7825C25.5681 15.2927 24.968 15.8034 24.4378 15.8085C23.7287 15.815 23.0195 15.8099 22.3108 15.8103C22.0687 15.8103 22.0501 15.8363 22.103 16.0752C22.1818 16.4314 22.4003 16.6865 22.6707 16.9198C23.1897 17.3678 23.8196 17.6345 24.3873 18.0028C25.9128 18.9921 26.7764 20.3627 26.8538 22.2012C26.9063 23.4466 26.6345 24.6019 25.9058 25.6283C25.826 25.741 25.8682 25.8037 25.9267 25.8895C26.25 26.3681 26.5705 26.8491 26.8933 27.3287C26.9888 27.4706 27.0431 27.6148 26.9568 27.7818C26.8696 27.9511 26.7193 27.9827 26.5477 27.9817C26.1006 27.9794 25.6502 27.9465 25.2078 27.9901C24.6744 28.0429 24.2913 27.8908 24.0765 27.3843C24.0139 27.2364 23.93 27.2415 23.7922 27.3148C22.7124 27.8871 21.5631 28.107 20.354 27.9089C18.6717 27.6329 17.3317 26.7874 16.3141 25.4205C15.6198 24.4878 14.9153 23.563 14.2121 22.6367C13.9635 22.3093 13.5948 22.1966 13.2284 22.3232C12.8847 22.4419 12.6987 22.7323 12.6992 23.1516C12.7001 23.7452 12.7015 24.3385 12.7052 24.9321C12.7061 25.0629 12.7071 25.1951 12.7275 25.3236C12.7975 25.7619 13.0688 26.0193 13.5076 26.0759C13.7669 26.1093 14.0271 26.1381 14.2854 26.177C15.0989 26.2999 15.5377 26.7239 15.573 27.4149C15.592 27.7925 15.4269 27.9785 15.0461 27.9799C14.2446 27.9827 13.4422 27.9966 12.6417 27.9664C12.0842 27.9451 11.5545 27.7855 11.0684 27.4892C10.4084 27.0866 9.94968 26.5119 9.59625 25.8394C9.27437 25.8398 8.95202 25.8468 8.63013 25.8394C8.22615 25.8301 7.93209 25.6399 7.75352 25.2749C7.73172 25.2299 7.73404 25.1645 7.66401 25.1548V20.7142C7.74888 20.6841 7.73358 20.5992 7.74749 20.5394V20.5375Z" fill="#F5F5F5"/>
</g>
<defs>
<clipPath id="clip0_92_65">
<rect width="36" height="36" rx="18" fill="white"/>
</clipPath>
</defs>
</svg>
