<svg width="36" height="36" viewBox="0 0 36 36" fill="none" xmlns="http://www.w3.org/2000/svg">
<g clip-path="url(#clip0_92_183)">
<path d="M0 0H36V24H0V0Z" fill="#EF4444"/>
<path d="M0 24H36V36H0V24Z" fill="#22C55E"/>
<path d="M7.55 0H0V36H7.55V0Z" fill="#F5F5F5"/>
<path fill-rule="evenodd" clip-rule="evenodd" d="M5.6 2.5L4.14 1.04L2.68 2.5L4.14 3.96L5.6 2.5ZM4.87 0.3C4.47 -0.1 3.81 -0.1 3.41 0.3L1.95 1.76C1.55 2.16 1.55 2.82 1.95 3.22L3.41 4.68C3.81 5.08 4.47 5.08 4.87 4.68L6.33 3.22C6.73 2.82 6.73 2.16 6.33 1.76L4.87 0.3Z" fill="#EF4444"/>
<path fill-rule="evenodd" clip-rule="evenodd" d="M5.6 7.66992L4.14 6.20992L2.68 7.66992L4.14 9.12992L5.6 7.66992ZM4.87 5.46992C4.47 5.06992 3.81 5.06992 3.41 5.46992L1.95 6.92992C1.55 7.32992 1.55 7.98992 1.95 8.38992L3.41 9.84992C3.81 10.2499 4.47 10.2499 4.87 9.84992L6.33 8.38992C6.73 7.98992 6.73 7.32992 6.33 6.92992L4.87 5.46992Z" fill="#EF4444"/>
<path fill-rule="evenodd" clip-rule="evenodd" d="M5.6 12.8301L4.14 11.3701L2.68 12.8301L4.14 14.2901L5.6 12.8301ZM4.87 10.6401C4.47 10.2401 3.81 10.2401 3.41 10.6401L1.95 12.1001C1.55 12.5001 1.55 13.1601 1.95 13.5601L3.41 15.0201C3.81 15.4201 4.47 15.4201 4.87 15.0201L6.33 13.5601C6.73 13.1601 6.73 12.5001 6.33 12.1001L4.87 10.6401Z" fill="#EF4444"/>
<path fill-rule="evenodd" clip-rule="evenodd" d="M5.6 18L4.14 16.54L2.68 18L4.14 19.46L5.6 18ZM4.87 15.8C4.47 15.4 3.81 15.4 3.41 15.8L1.95 17.26C1.55 17.66 1.55 18.32 1.95 18.72L3.41 20.18C3.81 20.58 4.47 20.58 4.87 20.18L6.33 18.72C6.73 18.32 6.73 17.66 6.33 17.26L4.87 15.8Z" fill="#EF4444"/>
<path fill-rule="evenodd" clip-rule="evenodd" d="M5.6 23.1699L4.14 21.7099L2.68 23.1699L4.14 24.6299L5.6 23.1699ZM4.87 20.9699C4.47 20.5699 3.81 20.5699 3.41 20.9699L1.95 22.4299C1.55 22.8299 1.55 23.4899 1.95 23.8899L3.41 25.3499C3.81 25.7499 4.47 25.7499 4.87 25.3499L6.33 23.8899C6.73 23.4899 6.73 22.8299 6.33 22.4299L4.87 20.9699Z" fill="#EF4444"/>
<path fill-rule="evenodd" clip-rule="evenodd" d="M5.6 28.3301L4.14 26.8701L2.68 28.3301L4.14 29.7901L5.6 28.3301ZM4.87 26.1401C4.47 25.7401 3.81 25.7401 3.41 26.1401L1.95 27.6001C1.55 28.0001 1.55 28.6601 1.95 29.0601L3.41 30.5201C3.81 30.9201 4.47 30.9201 4.87 30.5201L6.33 29.0601C6.73 28.6601 6.73 28.0001 6.33 27.6001L4.87 26.1401Z" fill="#EF4444"/>
<path fill-rule="evenodd" clip-rule="evenodd" d="M5.6 33.5L4.14 32.04L2.68 33.5L4.14 34.96L5.6 33.5ZM4.87 31.3C4.47 30.9 3.81 30.9 3.41 31.3L1.95 32.76C1.55 33.16 1.55 33.82 1.95 34.22L3.41 35.68C3.81 36.08 4.47 36.08 4.87 35.68L6.33 34.22C6.73 33.82 6.73 33.16 6.33 32.76L4.87 31.3Z" fill="#EF4444"/>
<path fill-rule="evenodd" clip-rule="evenodd" d="M0 36V0H0.72V36H0Z" fill="#EF4444"/>
</g>
<defs>
<clipPath id="clip0_92_183">
<rect width="36" height="36" rx="18" fill="white"/>
</clipPath>
</defs>
</svg>
