<svg width="36" height="36" viewBox="0 0 36 36" fill="none" xmlns="http://www.w3.org/2000/svg">
<g clip-path="url(#clip0_92_250)">
<path d="M0 0H9V36H0V0Z" fill="#EF4444"/>
<path d="M9 0H18V36H9V0Z" fill="#F5F5F5"/>
<path d="M18 0H27V36H18V0Z" fill="#F5F5F5"/>
<path d="M27 0H36V36H27V0Z" fill="#EF4444"/>
<path d="M25.3263 17.8458C24.9729 17.729 24.7463 17.3774 24.7995 17.0088C24.8725 16.5036 25.1376 15.8611 25.3275 15.3244C25.3888 15.1503 25.2305 14.9792 25.0518 15.0265C24.397 15.1994 23.6366 15.4482 23.3773 15.3378C23.1372 15.2309 22.9854 14.8483 22.8236 14.5037C22.7535 14.3542 22.5526 14.325 22.4433 14.4494L20.8751 16.2232C20.85 16.2519 20.8185 16.274 20.7834 16.2869C20.6865 16.3225 20.5994 16.312 20.5346 16.2583C20.4744 16.208 20.4523 16.1257 20.4663 16.0486L21.1625 12.2837C21.1975 12.0921 20.9949 11.9461 20.8243 12.0407L19.9137 12.5459C19.8442 12.6055 19.7578 12.6061 19.669 12.5442C19.6392 12.5232 19.6159 12.4934 19.5995 12.4607L18.4483 10.1285C18.4057 10.0432 18.3245 10 18.2421 10C18.1598 10 18.0786 10.0432 18.036 10.1285L16.8848 12.4607C16.8684 12.4934 16.8451 12.5232 16.8153 12.5442C16.7265 12.6061 16.64 12.6055 16.5705 12.5459L15.66 12.0407C15.4894 11.9461 15.2868 12.0921 15.3218 12.2837L16.018 16.0486C16.032 16.1257 16.0098 16.208 15.9497 16.2583C15.8848 16.312 15.7978 16.3225 15.7009 16.2869C15.6658 16.274 15.6343 16.2519 15.6092 16.2232L14.0409 14.4494C13.9317 14.325 13.7308 14.3542 13.6607 14.5037C13.4989 14.8483 13.3471 15.2309 13.107 15.3378C12.8477 15.4482 12.0872 15.1994 11.4325 15.0265C11.2538 14.9792 11.0955 15.1503 11.1568 15.3244C11.3466 15.8611 11.6118 16.5036 11.6848 17.0088C11.738 17.3774 11.5114 17.729 11.158 17.8458C10.9892 17.9018 10.9448 18.1197 11.078 18.2371L14.316 21.0844C14.347 21.1113 14.3704 21.1463 14.3826 21.1855C14.4632 21.4425 14.4749 21.6393 14.4463 21.8034C14.382 22.1737 14.6805 22.5049 15.0537 22.4576C15.4953 22.4021 16.0209 22.3355 16.501 22.2748C17.251 22.1801 17.9098 22.7753 17.8917 23.5317L17.8421 25.5987C17.8368 25.8218 18.0184 26.004 18.2421 25.9999C18.4658 26.004 18.6475 25.8218 18.6422 25.5987L18.5926 23.5317C18.5745 22.7753 19.2333 22.1801 19.9832 22.2748C20.4633 22.3355 20.989 22.4021 21.4306 22.4576C21.8038 22.5049 22.1022 22.1737 22.038 21.8034C22.0094 21.6393 22.0211 21.4425 22.1017 21.1855C22.1139 21.1463 22.1373 21.1113 22.1682 21.0844L25.4063 18.2371C25.5395 18.1197 25.4951 17.9018 25.3263 17.8458Z" fill="#EF4444"/>
</g>
<defs>
<clipPath id="clip0_92_250">
<rect width="36" height="36" rx="18" fill="white"/>
</clipPath>
</defs>
</svg>
