<svg width="36" height="36" viewBox="0 0 36 36" fill="none" xmlns="http://www.w3.org/2000/svg">
<g clip-path="url(#clip0_92_298)">
<path d="M36 0H0V36H36V0Z" fill="#3B82F6"/>
<path fill-rule="evenodd" clip-rule="evenodd" d="M36 0.05V5.09L5.09 36H0V30.91L30.91 0H35.95L36 0.05Z" fill="#EF4444"/>
<path fill-rule="evenodd" clip-rule="evenodd" d="M27.85 0L0 27.85V30.91L30.91 0H27.85ZM5.09 36H8.15L36 8.15V5.09L5.09 36ZM35.95 0L36 0.05V0H35.95Z" fill="#FBBF24"/>
<path d="M9.19 3.74992L9.83 5.55992C9.9 5.75992 10.08 5.88992 10.29 5.88992L12.21 5.93992C12.94 5.95992 13.24 6.87992 12.66 7.31992L11.13 8.48992C10.96 8.61992 10.89 8.82992 10.95 9.02992L11.5 10.8699C11.71 11.5699 10.92 12.1399 10.32 11.7199L8.74 10.6299C8.57 10.5099 8.34 10.5099 8.17 10.6299L6.59 11.7199C5.99 12.1299 5.21 11.5599 5.41 10.8699L5.96 9.02992C6.02 8.82992 5.95 8.61992 5.78 8.48992L4.25 7.31992C3.67 6.87992 3.97 5.95992 4.7 5.93992L6.62 5.88992C6.83 5.88992 7.01 5.74992 7.08 5.55992L7.72 3.74992C7.96 3.05992 8.93 3.05992 9.17 3.74992H9.19Z" fill="#FBBF24"/>
</g>
<defs>
<clipPath id="clip0_92_298">
<rect width="36" height="36" rx="18" fill="white"/>
</clipPath>
</defs>
</svg>
