<svg width="36" height="36" viewBox="0 0 36 36" fill="none" xmlns="http://www.w3.org/2000/svg">
<rect width="36" height="36" rx="18" fill="#EF4444"/>
<path d="M25.3538 14.998H22.6282C21.7256 14.998 20.991 14.2662 20.991 13.3605V10.6375C20.994 9.73176 20.2624 9 19.3568 9H16.6312C15.7286 9 14.994 9.73176 14.994 10.6375V13.3635C14.994 14.2662 14.2624 15.001 13.3568 15.001H10.6372C9.73163 14.998 9 15.7298 9 16.6355V19.3615C9 20.2642 9.73163 20.999 10.6372 20.999H13.3628C14.2654 20.999 15 21.7308 15 22.6365V25.3625C15 26.2652 15.7316 27 16.6372 27H19.3628C20.2654 27 21 26.2682 21 25.3625V22.6365C21 21.7338 21.7316 20.999 22.6372 20.999H25.3628C26.2654 20.999 27 20.2672 27 19.3615V16.6355C27 15.7328 26.2684 14.998 25.3628 14.998H25.3538Z" fill="#F5F5F5"/>
</svg>
