<svg width="36" height="36" viewBox="0 0 36 36" fill="none" xmlns="http://www.w3.org/2000/svg">
<g clip-path="url(#clip0_92_529)">
<path d="M0 0H36V18H0V0Z" fill="#F5F5F5"/>
<path d="M0 18H36V36H0V18Z" fill="#EF4444"/>
<rect width="18" height="18" fill="#1E3A8A"/>
<path d="M9.67258 5.47611L10.2647 7.15589C10.3292 7.33789 10.4981 7.46067 10.6914 7.4659L12.4722 7.51031C13.1453 7.52685 13.4223 8.38111 12.8876 8.78952L11.4734 9.87192C11.3201 9.98861 11.2557 10.188 11.3106 10.3735L11.8191 12.0803C12.0116 12.7255 11.2844 13.2532 10.7306 12.871L9.26418 11.86C9.10569 11.7502 8.89583 11.7502 8.73734 11.86L7.27091 12.871C6.71708 13.2532 5.99083 12.7255 6.18241 12.0803L6.69095 10.3735C6.74582 10.1889 6.68138 9.98948 6.52811 9.87192L5.11219 8.78952C4.57752 8.38024 4.8553 7.52685 5.52756 7.51031L7.30835 7.4659C7.5008 7.46154 7.67061 7.33789 7.73505 7.15589L8.32719 5.47611C8.55099 4.8413 9.44879 4.8413 9.67258 5.47611Z" fill="#F5F5F5"/>
</g>
<defs>
<clipPath id="clip0_92_529">
<rect width="36" height="36" rx="18" fill="white"/>
</clipPath>
</defs>
</svg>
