<svg width="36" height="36" viewBox="0 0 36 36" fill="none" xmlns="http://www.w3.org/2000/svg">
<g clip-path="url(#clip0_92_511)">
<path d="M0 0H12V36H0V0Z" fill="#22C55E"/>
<path d="M12 0H24V36H12V0Z" fill="#EF4444"/>
<path d="M24 0H36V36H24V0Z" fill="#FBBF24"/>
<path d="M18.8415 14.4761L19.4336 16.1559C19.4981 16.3379 19.667 16.4607 19.8603 16.4659L21.6411 16.5103C22.3142 16.5269 22.5912 17.3811 22.0565 17.7895L20.6423 18.8719C20.489 18.9886 20.4246 19.188 20.4795 19.3735L20.988 21.0803C21.1805 21.7255 20.4533 22.2532 19.8995 21.871L18.4331 20.86C18.2746 20.7502 18.0647 20.7502 17.9062 20.86L16.4398 21.871C15.886 22.2532 15.1597 21.7255 15.3513 21.0803L15.8598 19.3735C15.9147 19.1889 15.8503 18.9895 15.697 18.8719L14.2811 17.7895C13.7464 17.3802 14.0242 16.5269 14.6965 16.5103L16.4772 16.4659C16.6697 16.4615 16.8395 16.3379 16.9039 16.1559L17.4961 14.4761C17.7199 13.8413 18.6177 13.8413 18.8415 14.4761Z" fill="#FBBF24"/>
</g>
<defs>
<clipPath id="clip0_92_511">
<rect width="36" height="36" rx="18" fill="white"/>
</clipPath>
</defs>
</svg>
