<svg width="36" height="36" viewBox="0 0 36 36" fill="none" xmlns="http://www.w3.org/2000/svg">
<rect width="36" height="36" rx="18" fill="#EF4444"/>
<path d="M9.73112 6.35559L10.3737 8.16795C10.4396 8.36566 10.6291 8.49746 10.835 8.5057L12.7627 8.55513C13.4876 8.57161 13.7924 9.49426 13.2075 9.93911L11.6753 11.1089C11.5105 11.2325 11.4364 11.4467 11.5023 11.6526L12.0542 13.4979C12.2602 14.1982 11.4776 14.7666 10.8762 14.3547L9.29451 13.259C9.12151 13.1437 8.89908 13.1437 8.72609 13.259L7.14439 14.3547C6.54302 14.7666 5.76041 14.1982 5.96636 13.4979L6.5183 11.6526C6.57597 11.4549 6.51007 11.2407 6.34531 11.1089L4.81304 9.93911C4.23638 9.49426 4.53295 8.57161 5.25789 8.55513L7.18558 8.5057C7.39153 8.5057 7.581 8.36566 7.64691 8.16795L8.28947 6.35559C8.52837 5.67184 9.50046 5.67184 9.73936 6.35559H9.73112Z" fill="#FBBF24"/>
<path d="M15.3082 2.87907L16.0744 3.2333C16.1567 3.27449 16.2556 3.25801 16.3215 3.19211L16.9476 2.59897C17.1865 2.37655 17.5654 2.56602 17.516 2.8873L17.3924 3.73582C17.376 3.82643 17.4254 3.91705 17.5078 3.95824L18.2492 4.35367C18.5293 4.50195 18.4551 4.93032 18.1421 4.99623L17.3018 5.16099C17.2112 5.17746 17.1371 5.25161 17.1206 5.34222L16.9558 6.1825C16.8899 6.50378 16.4698 6.57792 16.3215 6.28959L15.9261 5.54817C15.8849 5.46579 15.7943 5.4246 15.7037 5.43284L14.8551 5.55641C14.5339 5.60584 14.3444 5.21865 14.5668 4.98799L15.16 4.3619C15.2259 4.296 15.2423 4.19714 15.2011 4.11476L14.8469 3.34863C14.7151 3.0603 15.0199 2.74726 15.3082 2.8873V2.87907Z" fill="#FBBF24"/>
<path d="M18.6364 8.28307L19.4272 7.99474C19.5096 7.96179 19.5673 7.87941 19.5755 7.78879L19.6002 6.9238C19.6002 6.59428 20.0121 6.46248 20.2016 6.71785L20.7124 7.40161C20.77 7.47575 20.8606 7.5087 20.9513 7.48399L21.7586 7.23685C22.0634 7.14623 22.3105 7.50046 22.1293 7.76408L21.6515 8.48078C21.6021 8.55492 21.6021 8.66202 21.6515 8.73616L22.1293 9.45286C22.3105 9.72472 22.0634 10.079 21.7586 9.9801L20.9513 9.73296C20.8606 9.70824 20.77 9.73296 20.7124 9.81534L20.2016 10.5073C20.0121 10.7709 19.6085 10.6309 19.6002 10.3014L19.5755 9.43639C19.5755 9.34577 19.5178 9.26339 19.4272 9.23044L18.6364 8.94211C18.3398 8.83502 18.3398 8.3984 18.6364 8.29131V8.28307Z" fill="#FBBF24"/>
<path d="M18.8918 15.2361L19.246 14.4699C19.2872 14.3876 19.2707 14.2887 19.2048 14.2228L18.6117 13.5967C18.3892 13.3578 18.5787 12.9789 18.9 13.0283L19.7485 13.1519C19.8391 13.1683 19.9297 13.1189 19.9709 13.0365L20.3664 12.2951C20.5146 12.015 20.943 12.0892 21.0089 12.4022L21.1737 13.2425C21.1902 13.3331 21.2643 13.4072 21.3549 13.4237L22.1952 13.5885C22.5165 13.6544 22.5906 14.0745 22.3023 14.231L21.5609 14.6265C21.4785 14.6677 21.4373 14.7583 21.4455 14.8489L21.5691 15.6974C21.6185 16.0187 21.2314 16.2082 21.0007 15.9857L20.3746 15.3926C20.3087 15.3267 20.2098 15.3102 20.1275 15.3514L19.3613 15.7056C19.073 15.8374 18.76 15.5326 18.9 15.2443L18.8918 15.2361Z" fill="#FBBF24"/>
<path d="M15.9261 20.2777L15.6378 19.4868C15.6048 19.4044 15.5224 19.3468 15.4318 19.3385L14.5668 19.3138C14.2373 19.3138 14.1055 18.9019 14.3609 18.7124L15.0446 18.2017C15.1188 18.144 15.1517 18.0534 15.127 17.9628L14.8799 17.1555C14.7892 16.8507 15.1435 16.6035 15.4071 16.7848L16.1238 17.2626C16.1979 17.312 16.305 17.312 16.3792 17.2626L17.0959 16.7848C17.3677 16.6035 17.722 16.8507 17.6231 17.1555L17.376 17.9628C17.3513 18.0534 17.376 18.144 17.4583 18.2017L18.1503 18.7124C18.414 18.9019 18.2739 19.3056 17.9444 19.3138L17.0794 19.3385C16.9888 19.3385 16.9064 19.3962 16.8735 19.4868L16.5851 20.2777C16.478 20.5742 16.0414 20.5742 15.9343 20.2777H15.9261Z" fill="#FBBF24"/>
</svg>
