<svg width="36" height="36" viewBox="0 0 36 36" fill="none" xmlns="http://www.w3.org/2000/svg">
<g clip-path="url(#clip0_92_760)">
<path d="M0 0H36V7.2H0V0Z" fill="#1E3A8A"/>
<path d="M0 7.19995H36V14.4H0V7.19995Z" fill="#F5F5F5"/>
<path d="M0 14.3999H36V21.5999H0V14.3999Z" fill="#1E3A8A"/>
<path d="M0 21.6001H36V28.8001H0V21.6001Z" fill="#F5F5F5"/>
<path d="M0 28.8H36V36H0V28.8Z" fill="#1E3A8A"/>
<path d="M20.3 20.39C21.87 19.18 21.87 16.82 20.3 15.62L0 0V36L20.3 20.39Z" fill="#EF4444"/>
<path d="M8.84147 13.4761L9.43362 15.1559C9.49806 15.3379 9.667 15.4607 9.86031 15.4659L11.6411 15.5103C12.3142 15.5269 12.5912 16.3811 12.0565 16.7895L10.6423 17.8719C10.489 17.9886 10.4246 18.188 10.4795 18.3735L10.988 20.0803C11.1805 20.7255 10.4533 21.2532 9.8995 20.871L8.43307 19.86C8.27458 19.7502 8.06472 19.7502 7.90623 19.86L6.4398 20.871C5.88597 21.2532 5.15972 20.7255 5.3513 20.0803L5.85985 18.3735C5.91471 18.1889 5.85027 17.9895 5.69701 17.8719L4.28108 16.7895C3.74641 16.3802 4.02419 15.5269 4.69645 15.5103L6.47725 15.4659C6.66969 15.4615 6.8395 15.3379 6.90394 15.1559L7.49608 13.4761C7.71988 12.8413 8.61768 12.8413 8.84147 13.4761Z" fill="#F5F5F5"/>
</g>
<defs>
<clipPath id="clip0_92_760">
<rect width="36" height="36" rx="18" fill="white"/>
</clipPath>
</defs>
</svg>
