<svg width="36" height="36" viewBox="0 0 36 36" fill="none" xmlns="http://www.w3.org/2000/svg">
<rect width="36" height="36" rx="18" fill="#F5F5F5"/>
<mask id="mask0_92_861" style="mask-type:luminance" maskUnits="userSpaceOnUse" x="7" y="6" width="27" height="21">
<path d="M33.84 6.84009H7.92V26.9701H33.84V6.84009Z" fill="white"/>
</mask>
<g mask="url(#mask0_92_861)">
<path d="M10.61 14.55L9.5 15.46C9.32 15.61 9.06 15.66 8.84 15.58C8.29 15.4 7.77 15.93 7.97 16.47L8.95 19.16C9.02 19.35 9.17 19.51 9.37 19.58L14.52 21.44C15.21 21.69 15.98 21.65 16.65 21.34L22.39 18.63C22.8 18.44 23.11 18.08 23.25 17.66C23.42 17.15 23.9 16.8 24.44 16.79L26.95 16.76C27.62 16.76 28.04 16.04 27.71 15.46L26.64 13.57C26.47 13.26 26.55 12.88 26.84 12.67L31.76 9.19C32.45 8.7 31.83 7.65 31.06 8L23.54 11.4C23.44 11.44 23.34 11.46 23.23 11.46L16.65 11.29C15.7 11.27 14.87 11.91 14.67 12.82L14.49 13.63C14.41 13.97 14.09 14.21 13.73 14.17L12.39 14.03C11.75 13.96 11.12 14.15 10.62 14.56L10.61 14.55Z" fill="#FB923C"/>
<path d="M16 26.9699C13.39 26.9699 10.95 25.6899 9.45 23.5499C9.22 23.2199 9.3 22.7699 9.63 22.5399C9.96 22.3099 10.41 22.3899 10.64 22.7199C11.86 24.4699 13.86 25.5099 15.99 25.5099C16.39 25.5099 16.72 25.8399 16.72 26.2399C16.72 26.6399 16.39 26.9699 15.99 26.9699H16Z" fill="#22C55E"/>
<path d="M18.48 26.9699C18.08 26.9699 17.75 26.6399 17.75 26.2399C17.75 25.8399 18.08 25.5099 18.48 25.5099C20.61 25.5099 22.61 24.4699 23.83 22.7199C24.06 22.3899 24.51 22.3099 24.84 22.5399C25.17 22.7699 25.25 23.2199 25.02 23.5499C23.53 25.6899 21.08 26.9699 18.47 26.9699H18.48Z" fill="#22C55E"/>
</g>
</svg>
