<svg width="36" height="36" viewBox="0 0 36 36" fill="none" xmlns="http://www.w3.org/2000/svg">
<g clip-path="url(#clip0_92_928)">
<path d="M0 0H36V18H0V0Z" fill="#3B82F6"/>
<path d="M0 18H36V36H0V18Z" fill="#22C55E"/>
<path d="M20.3 20.39C21.87 19.18 21.87 16.82 20.3 15.62L0 0V36L20.3 20.39Z" fill="#F5F5F5"/>
<path d="M8.63111 14.3571L9.07522 15.6169C9.12354 15.7534 9.25025 15.8455 9.39524 15.8494L10.7308 15.8827C11.2357 15.8951 11.4434 16.5358 11.0424 16.8421L9.98172 17.6539C9.86677 17.7415 9.81845 17.891 9.85959 18.0301L10.241 19.3102C10.3853 19.7942 9.84 20.1899 9.42462 19.9032L8.3248 19.145C8.20594 19.0627 8.04854 19.0627 7.92967 19.145L6.82985 19.9032C6.41448 20.1899 5.86979 19.7942 6.01347 19.3102L6.39488 18.0301C6.43603 17.8917 6.3877 17.7421 6.27275 17.6539L5.21081 16.8421C4.80981 16.5352 5.01815 15.8951 5.52234 15.8827L6.85793 15.8494C7.00227 15.8462 7.12962 15.7534 7.17795 15.6169L7.62206 14.3571C7.78991 13.881 8.46326 13.881 8.63111 14.3571Z" fill="#EF4444"/>
</g>
<defs>
<clipPath id="clip0_92_928">
<rect width="36" height="36" rx="18" fill="white"/>
</clipPath>
</defs>
</svg>
