<svg width="36" height="36" viewBox="0 0 36 36" fill="none" xmlns="http://www.w3.org/2000/svg">
<g clip-path="url(#clip0_92_1069)">
<path d="M0 0H18V36H0V0Z" fill="#22C55E"/>
<path d="M18 0H36V36H18V0Z" fill="#F5F5F5"/>
<path d="M23.822 15.0048L23.8154 16.6408C23.8149 16.8181 23.9247 16.9778 24.0928 17.0441L25.6425 17.6515C26.2283 17.8808 26.2036 18.705 25.6062 18.8859L24.0252 19.3662C23.8541 19.4177 23.735 19.5689 23.725 19.7462L23.6365 21.3786C23.6032 21.9959 22.7994 22.218 22.4329 21.7118L21.4623 20.3724C21.3575 20.2273 21.1733 20.1602 20.9997 20.2041L19.3953 20.6062C18.7892 20.7584 18.317 20.0718 18.6874 19.5773L19.669 18.2699C19.775 18.1284 19.7809 17.9361 19.6832 17.7859L18.7793 16.4011C18.4382 15.8778 18.9496 15.2316 19.545 15.4322L21.1225 15.963C21.2928 16.0208 21.4807 15.9685 21.5943 15.8324L22.6408 14.5749C23.0363 14.0997 23.8245 14.3866 23.822 15.0048Z" fill="#EF4444"/>
<path d="M21.1123 24.6744C21.1123 24.6744 21.1218 24.6744 21.1257 24.6744C21.4439 24.6744 21.5448 25.1047 21.2571 25.2417C20.2377 25.7279 19.1002 26 17.8998 26C13.5403 26 9.97913 22.3763 10.0001 17.9595C10.0211 13.5427 13.5498 10 17.8998 10C19.1021 10 20.2416 10.2721 21.2609 10.7583C21.5467 10.8953 21.4439 11.3256 21.1276 11.3256C21.1218 11.3256 21.118 11.3256 21.1123 11.3256C17.473 11.3256 14.5216 14.3126 14.5216 18C14.5216 21.6874 17.473 24.6744 21.1123 24.6744Z" fill="#EF4444"/>
</g>
<defs>
<clipPath id="clip0_92_1069">
<rect width="36" height="36" rx="18" fill="white"/>
</clipPath>
</defs>
</svg>
