<svg width="36" height="36" viewBox="0 0 36 36" fill="none" xmlns="http://www.w3.org/2000/svg">
<g clip-path="url(#clip0_92_1107)">
<path d="M0 0H36V18H0V0Z" fill="#FBBF24"/>
<path d="M0 18H36V27H0V18Z" fill="#3B82F6"/>
<path d="M0 27H36V36H0V27Z" fill="#EF4444"/>
<path d="M18.329 10.8774C15.497 10.8774 13.2018 14.0426 13.2018 17.9483H23.4563C23.4563 14.0426 21.1611 10.8774 18.329 10.8774Z" fill="#93C5FD"/>
<path d="M18.329 25.0188C21.1611 25.0188 23.4563 21.8536 23.4563 17.948H13.2018C13.2018 21.8536 15.497 25.0188 18.329 25.0188Z" fill="#22C55E"/>
<path d="M18.329 25.9999C14.9602 25.9999 12.2207 22.3905 12.2207 17.9481C12.2207 13.5057 14.9602 9.89624 18.329 9.89624C21.6979 9.89624 24.4373 13.5057 24.4373 17.9481C24.4373 22.3905 21.6979 25.9999 18.329 25.9999ZM18.329 11.8583C16.0801 11.8583 14.1828 14.6441 14.1828 17.9481C14.1828 21.2521 16.0801 24.0379 18.329 24.0379C20.578 24.0379 22.4753 21.2521 22.4753 17.9481C22.4753 14.6441 20.578 11.8583 18.329 11.8583Z" fill="#EF4444"/>
<path d="M18.329 11.8584C17.7922 11.8584 17.348 11.4234 17.348 10.8774C17.348 8.14718 20.5687 6.00928 24.6872 6.00928C25.224 6.00928 25.6682 6.44426 25.6682 6.99031C25.6682 7.53635 25.2333 7.97134 24.6872 7.97134C22.1421 7.97134 19.3008 9.16523 19.3008 10.8867C19.3008 11.4234 18.8658 11.8677 18.3198 11.8677L18.329 11.8584Z" fill="#A16207"/>
<path d="M18.329 11.8584C17.7922 11.8584 17.348 11.4234 17.348 10.8774C17.348 9.16521 14.5067 7.96206 11.9616 7.96206C11.4248 7.96206 10.9806 7.52707 10.9806 6.98103C10.9806 6.43498 11.4156 6 11.9616 6C16.0801 6 19.3008 8.1379 19.3008 10.8681C19.3008 11.4049 18.8658 11.8492 18.3198 11.8492L18.329 11.8584Z" fill="#A16207"/>
<path d="M10.5826 23.2604C10.1569 23.2604 9.76816 22.9827 9.64785 22.557C9.21286 21.0854 9 19.5398 9 17.948C9 16.3561 9.22212 14.8105 9.64785 13.339C9.79593 12.8207 10.342 12.5246 10.8603 12.6726C11.3785 12.8207 11.6747 13.3668 11.5266 13.885C11.1472 15.1715 10.9528 16.5412 10.9528 17.9387C10.9528 19.3362 11.1472 20.706 11.5266 21.9924C11.6747 22.5107 11.3785 23.0567 10.8603 23.2048C10.7677 23.2326 10.6752 23.2418 10.5826 23.2418V23.2604Z" fill="#FBBF24"/>
<path d="M26.0847 23.2606C25.9922 23.2606 25.8996 23.2514 25.8071 23.2236C25.2888 23.0663 24.9926 22.5295 25.15 22.0112C25.5294 20.734 25.7238 19.3735 25.7238 17.9575C25.7238 16.5415 25.5294 15.181 25.15 13.9038C24.9926 13.3855 25.2888 12.8395 25.8071 12.6914C26.3253 12.5341 26.8714 12.8302 27.0195 13.3485C27.4545 14.8108 27.6766 16.3564 27.6766 17.9575C27.6766 19.5586 27.4545 21.1134 27.0195 22.5665C26.8899 22.9922 26.5012 23.2699 26.0847 23.2699V23.2606Z" fill="#FBBF24"/>
</g>
<defs>
<clipPath id="clip0_92_1107">
<rect width="36" height="36" rx="18" fill="white"/>
</clipPath>
</defs>
</svg>
