<svg width="36" height="36" viewBox="0 0 36 36" fill="none" xmlns="http://www.w3.org/2000/svg">
<g clip-path="url(#clip0_92_1201)">
<path d="M0 0H36V12H0V0Z" fill="#EF4444"/>
<path d="M0 12H36V24H0V12Z" fill="#F5F5F5"/>
<path d="M0 24H36V36H0V24Z" fill="#262626"/>
<path d="M20.9606 14.5215C20.2055 14.7456 19.4339 14.8925 18.6575 14.9655V12H17.5305C16.9814 12 16.5242 12.3932 16.4241 12.9135C15.8815 13.0096 15.4695 13.4824 15.4695 14.052H16.4036V14.9655C15.6271 14.8925 14.8555 14.7456 14.1004 14.5215C13.0523 14.2104 12 14.9951 12 16.0884V21.412C12 22.0367 12.6952 22.4101 13.2164 22.0654L15.1445 20.2531L14.2449 21.8109C13.9814 22.2681 13.9814 22.8131 14.2449 23.2703C14.5083 23.7275 14.9811 24 15.5089 24H19.5521C20.0799 24 20.5518 23.7275 20.8161 23.2703C21.0796 22.8131 21.0796 22.2681 20.8161 21.8109L19.9166 20.2531L21.8446 22.0654C22.365 22.4109 23.061 22.0375 23.061 21.412V16.0884C23.061 14.9951 22.0088 14.2096 20.9606 14.5207V14.5215ZM19.8205 22.6949C19.7934 22.7417 19.7138 22.8501 19.5521 22.8501H15.5089C15.3472 22.8501 15.2668 22.7417 15.2405 22.6949C15.2134 22.6482 15.1601 22.525 15.2405 22.3847L16.9477 19.4274C17.1234 19.1237 17.414 19.0908 17.5305 19.0908C17.6471 19.0908 17.9376 19.1237 18.1133 19.4274L19.8205 22.3847C19.901 22.5242 19.8476 22.6482 19.8205 22.6949Z" fill="#FBBF24"/>
</g>
<defs>
<clipPath id="clip0_92_1201">
<rect width="36" height="36" rx="18" fill="white"/>
</clipPath>
</defs>
</svg>
