<svg width="36" height="36" viewBox="0 0 36 36" fill="none" xmlns="http://www.w3.org/2000/svg">
<g clip-path="url(#clip0_92_1221)">
<path d="M0 0H36V12H0V0Z" fill="#262626"/>
<path d="M0 12H36V24H0V12Z" fill="#F5F5F5"/>
<path d="M0 24H36V36H0V24Z" fill="#22C55E"/>
<path d="M20.3 20.39C21.87 19.18 21.87 16.82 20.3 15.62L0 0V36L20.3 20.39Z" fill="#EF4444"/>
<path d="M30.2125 15.9442L30.5646 16.9241C30.6029 17.0303 30.7034 17.1019 30.8184 17.1049L31.8774 17.1308C32.2777 17.1405 32.4423 17.6388 32.1244 17.8771L31.2834 18.5085C31.1923 18.5765 31.1539 18.6929 31.1866 18.801L31.489 19.7967C31.6034 20.1731 31.171 20.4809 30.8417 20.2579L29.9696 19.6681C29.8754 19.6041 29.7506 19.6041 29.6563 19.6681L28.7842 20.2579C28.4549 20.4809 28.023 20.1731 28.1369 19.7967L28.4394 18.801C28.472 18.6934 28.4337 18.577 28.3425 18.5085L27.5005 17.8771C27.1825 17.6383 27.3477 17.1405 27.7475 17.1308L28.8065 17.1049C28.921 17.1024 29.0219 17.0303 29.0603 16.9241L29.4124 15.9442C29.5455 15.5739 30.0794 15.5739 30.2125 15.9442Z" fill="#EF4444"/>
<path d="M29.5562 21.3372C29.5562 21.3372 29.5609 21.3372 29.5628 21.3372C29.7219 21.3372 29.7724 21.5523 29.6286 21.6208C29.1189 21.864 28.5501 22 27.9499 22C25.7702 22 23.9896 20.1881 24 17.9797C24.0105 15.7713 25.7749 14 27.9499 14C28.5511 14 29.1208 14.136 29.6305 14.3792C29.7734 14.4477 29.7219 14.6628 29.5638 14.6628C29.5609 14.6628 29.559 14.6628 29.5562 14.6628C27.7365 14.6628 26.2608 16.1563 26.2608 18C26.2608 19.8437 27.7365 21.3372 29.5562 21.3372Z" fill="#EF4444"/>
</g>
<defs>
<clipPath id="clip0_92_1221">
<rect width="36" height="36" rx="18" fill="white"/>
</clipPath>
</defs>
</svg>
