<svg width="37" height="36" viewBox="0 0 37 36" fill="none" xmlns="http://www.w3.org/2000/svg">
<g clip-path="url(#clip0_92_1257)">
<path d="M0 7.2C0 3.22 3.22 0 7.2 0H28.8C32.78 0 36 3.22 36 7.2V28.8C36 32.78 32.78 36 28.8 36H7.2C3.22 36 0 32.78 0 28.8V7.2Z" fill="#22C55E"/>
<path d="M36 0H0V18H36V0Z" fill="#22C55E"/>
<path d="M36 18H0V36H36V18Z" fill="#93C5FD"/>
<path d="M35.19 19.4C36.33 18.86 36.33 17.14 35.19 16.6L0 0V36L35.19 19.4Z" fill="#EF4444"/>
<path d="M11.97 9.72007C7.29 9.57007 3.45 13.4101 3.61 18.0801C3.75 22.3201 7.19 25.7701 11.44 25.9101C16.12 26.0601 19.96 22.2201 19.8 17.5501C19.66 13.3101 16.22 9.86007 11.97 9.72007ZM5.8 17.8201C5.8 15.1701 7.56 12.9301 9.96 12.1901C10.27 12.0901 10.59 12.3301 10.59 12.6601V22.9901C10.59 23.3201 10.27 23.5601 9.96 23.4601C7.55 22.7201 5.8 20.4701 5.8 17.8301V17.8201ZM12.8 22.9801V12.6501C12.8 12.3201 13.12 12.0801 13.43 12.1801C15.84 12.9201 17.59 15.1701 17.59 17.8101C17.59 20.4501 15.83 22.7001 13.43 23.4401C13.12 23.5401 12.8 23.3001 12.8 22.9701V22.9801Z" fill="#FBBF24"/>
</g>
<defs>
<clipPath id="clip0_92_1257">
<rect width="36.05" height="36" rx="18" fill="white"/>
</clipPath>
</defs>
</svg>
