<svg width="36" height="36" viewBox="0 0 36 36" fill="none" xmlns="http://www.w3.org/2000/svg">
<g clip-path="url(#clip0_92_1370)">
<rect width="36" height="36" rx="18" fill="#F5F5F5"/>
<path fill-rule="evenodd" clip-rule="evenodd" d="M0 0.05V5.09L30.91 36H36V30.91L5.09 0H0.0499992L0 0.05Z" fill="#93C5FD"/>
<path d="M21.7489 10.6757C21.711 10.6315 21.6695 10.5868 21.6252 10.5425C21.1461 10.0625 20.5071 9.7979 19.828 9.7979C19.5837 9.7979 19.343 9.83312 19.1105 9.90176C19.0098 9.87151 18.9064 9.84803 18.8016 9.83177V9.41182C18.8016 9.29848 18.7555 9.19552 18.6806 9.12057C18.6061 9.04606 18.5036 9 18.3893 9C18.1617 9 17.9771 9.18469 17.9771 9.41182V9.83222C17.8737 9.84938 17.7712 9.87286 17.6714 9.90221C17.4379 9.83312 17.1963 9.7979 16.9507 9.7979C16.2133 9.7979 15.5138 10.1176 15.0315 10.6739C14.6301 11.1354 14.4088 11.7274 14.4088 12.3397C14.4088 12.5678 14.5931 12.752 14.8211 12.752H15.6732C15.7116 12.7493 15.75 12.7475 15.7893 12.7475H20.9894C21.0287 12.7475 21.0671 12.7493 21.1055 12.752H21.9575C22.1856 12.752 22.3698 12.5678 22.3698 12.3402C22.3698 11.727 22.1486 11.1354 21.7489 10.6757ZM15.8818 11.9279H15.2835C15.3476 11.666 15.4745 11.4208 15.6538 11.2135C15.8674 10.967 16.1446 10.79 16.4508 10.697C16.1514 11.0496 15.9559 11.4759 15.8818 11.9279ZM17.9771 11.9279H16.7222C16.7863 11.666 16.9132 11.4208 17.0925 11.2135C17.3268 10.9435 17.6366 10.7566 17.9771 10.6721V11.9279ZM18.8016 11.9279V10.6717C19.1028 10.7453 19.3787 10.9002 19.6036 11.1255C19.6329 11.1548 19.6609 11.1842 19.6867 11.2144C19.8664 11.4208 19.9924 11.666 20.0565 11.9279H18.8016ZM20.8968 11.9279C20.8228 11.4741 20.6264 11.0469 20.3265 10.6951C20.5938 10.776 20.8395 10.9218 21.0422 11.1255C21.072 11.1548 21.0996 11.1842 21.1253 11.2144C21.305 11.4208 21.431 11.666 21.4952 11.9279H20.8968Z" fill="#FBBF24"/>
<path d="M21.4952 11.9281H20.8969C20.8228 11.4743 20.6264 11.0471 20.3265 10.6953C20.5939 10.7761 20.8395 10.922 21.0423 11.1256C21.0721 11.155 21.0996 11.1844 21.1253 11.2146C21.3051 11.421 21.431 11.6662 21.4952 11.9281Z" fill="#EF4444"/>
<path d="M20.0565 11.9281H18.8016V10.6719C19.1028 10.7455 19.3787 10.9004 19.6036 11.1257C19.633 11.155 19.6609 11.1844 19.6867 11.2146C19.8664 11.421 19.9924 11.6662 20.0565 11.9281Z" fill="#EF4444"/>
<path d="M17.9771 10.6724V11.9281H16.7222C16.7863 11.6662 16.9132 11.421 17.0925 11.2138C17.3268 10.9437 17.6366 10.7568 17.9771 10.6724Z" fill="#EF4444"/>
<path d="M16.4508 10.6973C16.1514 11.0499 15.9559 11.4762 15.8818 11.9282H15.2835C15.3476 11.6663 15.4745 11.4211 15.6538 11.2138C15.8674 10.9673 16.1446 10.7903 16.4508 10.6973Z" fill="#EF4444"/>
<path d="M23.7787 14.5891V21.6109C23.7787 24.3198 21.7787 26.5631 19.1751 26.9429C18.919 26.9808 18.6567 27.0002 18.3893 27.0002C18.122 27.0002 17.8601 26.9808 17.6036 26.9429C15 26.5627 13 24.3198 13 21.6109V14.5891C13 14.0274 13.4556 13.5718 14.0174 13.5718H22.7613C23.3231 13.5718 23.7787 14.0274 23.7787 14.5891Z" fill="#3B82F6"/>
<path d="M18.3894 20.5608C19.1198 20.5608 19.712 19.9686 19.712 19.2381C19.712 18.5077 19.1198 17.9155 18.3894 17.9155C17.6589 17.9155 17.0667 18.5077 17.0667 19.2381C17.0667 19.9686 17.6589 20.5608 18.3894 20.5608Z" fill="#D4D4D4"/>
<path d="M20.5889 21.5856C20.5889 22.2191 20.2362 22.7696 19.7165 23.0514C19.385 23.2311 19.1751 23.5734 19.1751 23.9504V26.9424C18.919 26.9804 18.6567 26.9998 18.3894 26.9998C18.122 26.9998 17.8601 26.9804 17.6036 26.9424V23.9504C17.6036 23.5738 17.3937 23.2315 17.0622 23.0518C16.8848 22.9556 16.7272 22.8283 16.5958 22.677C16.3424 22.3849 16.1894 22.0033 16.1894 21.5856C16.1894 21.3811 16.3555 21.2153 16.5596 21.2153H20.2182C20.3207 21.2153 20.4132 21.2569 20.4805 21.3237C20.5474 21.391 20.5889 21.4831 20.5889 21.5861V21.5856Z" fill="#FBBF24"/>
</g>
<defs>
<clipPath id="clip0_92_1370">
<rect width="36" height="36" rx="18" fill="white"/>
</clipPath>
</defs>
</svg>
