<svg width="36" height="36" viewBox="0 0 36 36" fill="none" xmlns="http://www.w3.org/2000/svg">
<g clip-path="url(#clip0_93_1576)">
<path d="M0 0H36V9H0V0Z" fill="#EF4444"/>
<path d="M0 9H36V18H0V9Z" fill="#FBBF24"/>
<path d="M0 18H36V27H0V18Z" fill="#FBBF24"/>
<path d="M0 27H36V36H0V27Z" fill="#EF4444"/>
<path d="M16.9678 11.3033C16.9383 11.2689 16.906 11.2342 16.8716 11.1997C16.499 10.8264 16.002 10.6206 15.4738 10.6206C15.2838 10.6206 15.0966 10.648 14.9157 10.7014C14.8374 10.6778 14.757 10.6596 14.6755 10.6469V10.3203C14.6755 10.2322 14.6397 10.1521 14.5814 10.0938C14.5231 10.0355 14.4437 10 14.3548 10C14.1778 10 14.0342 10.1436 14.0342 10.3203V10.6473C13.9537 10.6606 13.874 10.6789 13.7964 10.7017C13.6148 10.648 13.4269 10.6206 13.2359 10.6206C12.6623 10.6206 12.1183 10.8692 11.7432 11.3019C11.431 11.6609 11.2589 12.1213 11.2589 12.5976C11.2589 12.7749 11.4022 12.9182 11.5796 12.9182H12.2423C12.2721 12.9161 12.302 12.9147 12.3325 12.9147H16.3771C16.4077 12.9147 16.4375 12.9161 16.4674 12.9182H17.1301C17.3075 12.9182 17.4508 12.7749 17.4508 12.5979C17.4508 12.121 17.2787 11.6609 16.9678 11.3033ZM12.4045 12.2773H11.9392C11.9891 12.0736 12.0878 11.8828 12.2272 11.7216C12.3933 11.5299 12.609 11.3922 12.8471 11.3199C12.6142 11.5941 12.4621 11.9257 12.4045 12.2773ZM14.0342 12.2773H13.0582C13.108 12.0736 13.2067 11.8828 13.3461 11.7216C13.5284 11.5116 13.7694 11.3662 14.0342 11.3005V12.2773ZM14.6755 12.2773V11.3002C14.9097 11.3574 15.1243 11.4779 15.2992 11.6532C15.3221 11.676 15.3438 11.6988 15.3639 11.7223C15.5036 11.8828 15.6016 12.0736 15.6515 12.2773H14.6755ZM16.3051 12.2773C16.2475 11.9243 16.0947 11.592 15.8615 11.3184C16.0694 11.3813 16.2605 11.4948 16.4182 11.6532C16.4414 11.676 16.4628 11.6988 16.4828 11.7223C16.6226 11.8828 16.7206 12.0736 16.7705 12.2773H16.3051Z" fill="#EF4444"/>
<path d="M14.3548 13.5557V18.4266H10.1631V14.3469C10.1631 13.91 10.5175 13.5557 10.9544 13.5557H14.3548Z" fill="#EF4444"/>
<path d="M18.5465 14.3469V18.4266H14.3548V13.5557H17.7553C18.1922 13.5557 18.5465 13.91 18.5465 14.3469Z" fill="#F5F5F5"/>
<path d="M18.5465 18.4268V19.8084C18.5465 21.9153 16.991 23.6602 14.9659 23.9552C14.7664 23.9847 14.5627 24.0001 14.3548 24.0001V18.4268H18.5465Z" fill="#EF4444"/>
<path d="M10.1631 18.4268V19.8084C10.1631 21.9153 11.7186 23.6602 13.7437 23.9552C13.9432 23.9847 14.1469 24.0001 14.3548 24.0001V18.4268H10.1631Z" fill="#EF4444"/>
<path d="M16.3511 22.1703C16.297 22.1703 16.2422 22.1665 16.1889 22.1584C15.6466 22.0794 15.2374 21.6056 15.2374 21.0566V19.8801C15.2374 19.6701 15.4085 19.499 15.6185 19.499H17.0834C17.2934 19.499 17.4645 19.6701 17.4645 19.8801V21.0566C17.4645 21.6056 17.0553 22.0794 16.5127 22.1584C16.4593 22.1661 16.4048 22.1703 16.3508 22.1703H16.3511ZM15.6589 19.9205V21.0566C15.6589 21.398 15.9128 21.6923 16.25 21.7415C16.3174 21.7513 16.3855 21.7513 16.4519 21.7415C16.7891 21.6923 17.0433 21.398 17.0433 21.0566V19.9205H15.6589Z" fill="#FBBF24"/>
<path d="M12.7554 14.8311H11.9715C11.7056 14.8311 11.49 15.0466 11.49 15.3126V16.7912C11.49 17.0571 11.7056 17.2727 11.9715 17.2727H12.7554C13.0213 17.2727 13.2369 17.0571 13.2369 16.7912V15.3126C13.2369 15.0466 13.0213 14.8311 12.7554 14.8311Z" fill="#FBBF24"/>
<path d="M16.8428 14.8311H16.0589C15.793 14.8311 15.5774 15.0466 15.5774 15.3126V16.7912C15.5774 17.0571 15.793 17.2727 16.0589 17.2727H16.8428C17.1087 17.2727 17.3243 17.0571 17.3243 16.7912V15.3126C17.3243 15.0466 17.1087 14.8311 16.8428 14.8311Z" fill="#EF4444"/>
<path d="M20.4986 13.7667C20.3679 13.6364 20.1877 13.5557 19.9886 13.5557C19.5903 13.5557 19.2676 13.8784 19.2676 14.2767V23.2203C19.2676 23.6186 19.5903 23.9413 19.9886 23.9413C20.3869 23.9413 20.7096 23.6186 20.7096 23.2203V14.2767C20.7096 14.0776 20.6289 13.8974 20.4986 13.7667Z" fill="#F5F5F5"/>
<path d="M9.231 13.7667C9.10035 13.6364 8.92017 13.5557 8.72104 13.5557C8.32276 13.5557 8 13.8784 8 14.2767V23.2203C8 23.6186 8.32276 23.9413 8.72104 23.9413C9.11931 23.9413 9.44207 23.6186 9.44207 23.2203V14.2767C9.44207 14.0776 9.3613 13.8974 9.231 13.7667Z" fill="#F5F5F5"/>
<path d="M8.69048 17.0459H10.1631V18.4269H8.69048C8.30942 18.4269 8 18.1174 8 17.7364C8 17.3553 8.30942 17.0459 8.69048 17.0459Z" fill="#EF4444"/>
<path d="M18.5465 17.0459H20.0192C20.4002 17.0459 20.7096 17.3553 20.7096 17.7364C20.7096 18.1174 20.4002 18.4269 20.0192 18.4269H18.5465V17.0459Z" fill="#EF4444"/>
<path d="M11.2333 18.4268H11.2329C11.0401 18.4268 10.8838 18.5831 10.8838 18.7759V21.28C10.8838 21.4728 11.0401 21.6291 11.2329 21.6291H11.2333C11.4261 21.6291 11.5824 21.4728 11.5824 21.28V18.7759C11.5824 18.5831 11.4261 18.4268 11.2333 18.4268Z" fill="#FBBF24"/>
<path d="M12.6082 18.4268H12.6079C12.4151 18.4268 12.2588 18.5831 12.2588 18.7759V22.3979C12.2588 22.5907 12.4151 22.747 12.6079 22.747H12.6082C12.8011 22.747 12.9574 22.5907 12.9574 22.3979V18.7759C12.9574 18.5831 12.8011 18.4268 12.6082 18.4268Z" fill="#FBBF24"/>
<path d="M13.9836 18.4268H13.9832C13.7904 18.4268 13.6341 18.5831 13.6341 18.7759V23.218C13.6341 23.4108 13.7904 23.5671 13.9832 23.5671H13.9836C14.1764 23.5671 14.3327 23.4108 14.3327 23.218V18.7759C14.3327 18.5831 14.1764 18.4268 13.9836 18.4268Z" fill="#FBBF24"/>
<path d="M14.3548 19.2687C14.8198 19.2687 15.1967 18.8918 15.1967 18.4268C15.1967 17.9619 14.8198 17.585 14.3548 17.585C13.8899 17.585 13.513 17.9619 13.513 18.4268C13.513 18.8918 13.8899 19.2687 14.3548 19.2687Z" fill="#3B82F6"/>
</g>
<defs>
<clipPath id="clip0_93_1576">
<rect width="36" height="36" rx="18" fill="white"/>
</clipPath>
</defs>
</svg>
