<svg width="36" height="36" viewBox="0 0 36 36" fill="none" xmlns="http://www.w3.org/2000/svg">
<g clip-path="url(#clip0_93_1788)">
<path d="M0 0H36V12H0V0Z" fill="#22C55E"/>
<path d="M0 12H36V24H0V12Z" fill="#FBBF24"/>
<path d="M0 24H36V36H0V24Z" fill="#EF4444"/>
<path d="M26 18C26 22.4183 22.4183 26 18 26C13.5817 26 10 22.4183 10 18C10 13.5817 13.5817 10 18 10C22.4183 10 26 13.5817 26 18Z" fill="#3B82F6"/>
<path d="M18.8014 14.6439L19.3653 16.2437C19.4267 16.417 19.5876 16.5339 19.7717 16.5389L21.4677 16.5812C22.1088 16.597 22.3725 17.4105 21.8633 17.7995L20.5165 18.8304C20.3705 18.9415 20.3091 19.1314 20.3614 19.3081L20.8457 20.9336C21.029 21.5481 20.3365 22.0507 19.809 21.6866L18.4124 20.7237C18.2615 20.6192 18.0616 20.6192 17.9107 20.7237L16.5141 21.6866C15.9866 22.0507 15.295 21.5481 15.4774 20.9336L15.9618 19.3081C16.014 19.1322 15.9526 18.9423 15.8067 18.8304L14.4582 17.7995C13.949 17.4097 14.2135 16.597 14.8538 16.5812L16.5498 16.5389C16.733 16.5348 16.8948 16.417 16.9561 16.2437L17.5201 14.6439C17.7332 14.0393 18.5883 14.0393 18.8014 14.6439Z" fill="#FBBF24"/>
</g>
<defs>
<clipPath id="clip0_93_1788">
<rect width="36" height="36" rx="18" fill="white"/>
</clipPath>
</defs>
</svg>
