<svg width="36" height="36" viewBox="0 0 36 36" fill="none" xmlns="http://www.w3.org/2000/svg">
<rect width="36" height="36" rx="18" fill="#1E3A8A"/>
<path d="M19.605 25.5796L18.8202 25.56C18.7346 25.5576 18.6605 25.5038 18.6319 25.4231L18.3712 24.6823C18.2725 24.4028 17.8765 24.4028 17.7779 24.6823L17.5171 25.4231C17.4886 25.503 17.4136 25.5576 17.3288 25.56L16.544 25.5796C16.2474 25.5869 16.1251 25.9634 16.3606 26.1435L16.9849 26.6211C17.0525 26.6733 17.0811 26.7605 17.0566 26.842L16.8325 27.5942C16.7478 27.8786 17.068 28.1109 17.3125 27.943L17.9588 27.4972C18.0289 27.4491 18.121 27.4491 18.1911 27.4972L18.8373 27.943C19.0818 28.1117 19.4021 27.8786 19.3173 27.5942L19.0932 26.842C19.0688 26.7605 19.0973 26.6724 19.1649 26.6211L19.7884 26.1435C20.0239 25.9634 19.9017 25.5869 19.605 25.5796Z" fill="#FBBF24"/>
<path d="M13.7805 23.1675L12.9957 23.1479C12.9101 23.1455 12.836 23.0917 12.8074 23.011L12.5466 22.2702C12.448 21.9907 12.052 21.9907 11.9534 22.2702L11.6926 23.011C11.664 23.0909 11.5891 23.1455 11.5043 23.1479L10.7195 23.1675C10.4228 23.1748 10.3006 23.5513 10.5361 23.7314L11.1604 24.209C11.228 24.2612 11.2566 24.3484 11.2321 24.4299L11.008 25.1821C10.9232 25.4665 11.2435 25.6987 11.488 25.5309L12.1343 25.0851C12.2044 25.037 12.2965 25.037 12.3665 25.0851L13.0128 25.5309C13.2573 25.6996 13.5776 25.4665 13.4928 25.1821L13.2687 24.4299C13.2443 24.3484 13.2728 24.2603 13.3404 24.209L13.9639 23.7314C14.1994 23.5513 14.0771 23.1748 13.7805 23.1675Z" fill="#FBBF24"/>
<path d="M11.0805 19.3588L10.8564 18.6066C10.832 18.5251 10.8605 18.4371 10.9281 18.3858L11.5516 17.9082C11.7871 17.7281 11.6648 17.3516 11.3682 17.3442L10.5834 17.3247C10.4978 17.3222 10.4237 17.2684 10.3951 17.1878L10.1343 16.447C10.0357 16.1674 9.63966 16.1674 9.54105 16.447L9.28026 17.1878C9.25174 17.2676 9.17676 17.3222 9.09201 17.3247L8.3072 17.3442C8.01055 17.3516 7.8883 17.7281 8.12383 17.9082L8.74809 18.3858C8.81573 18.4379 8.84426 18.5251 8.81981 18.6066L8.59569 19.3588C8.51094 19.6432 8.83122 19.8755 9.07571 19.7076L9.72197 19.2618C9.79206 19.2138 9.88415 19.2138 9.95424 19.2618L10.6005 19.7076C10.845 19.8763 11.1653 19.6432 11.0805 19.3588Z" fill="#FBBF24"/>
<path d="M13.7805 11.52L12.9957 11.5005C12.9101 11.498 12.836 11.4442 12.8074 11.3635L12.5467 10.6227C12.448 10.3432 12.052 10.3432 11.9534 10.6227L11.6926 11.3635C11.6641 11.4434 11.5891 11.498 11.5043 11.5005L10.7195 11.52C10.4229 11.5273 10.3006 11.9039 10.5361 12.084L11.1604 12.5615C11.228 12.6137 11.2566 12.7009 11.2321 12.7824L11.008 13.5346C10.9233 13.819 11.2435 14.0513 11.488 13.8834L12.1343 13.4376C12.2044 13.3895 12.2965 13.3895 12.3666 13.4376L13.0128 13.8834C13.2573 14.0521 13.5776 13.819 13.4928 13.5346L13.2687 12.7824C13.2443 12.7009 13.2728 12.6129 13.3404 12.5615L13.9639 12.084C14.1994 11.9039 14.0772 11.5273 13.7805 11.52Z" fill="#FBBF24"/>
<path d="M19.605 9.10692L18.8202 9.08737C18.7346 9.08492 18.6605 9.03113 18.632 8.95045L18.3712 8.20965C18.2726 7.93012 17.8765 7.93012 17.7779 8.20965L17.5171 8.95045C17.4886 9.03032 17.4136 9.08492 17.3288 9.08737L16.544 9.10692C16.2474 9.11426 16.1251 9.49077 16.3607 9.67088L16.9849 10.1484C17.0526 10.2006 17.0811 10.2878 17.0566 10.3693L16.8325 11.1215C16.7478 11.4059 17.068 11.6382 17.3125 11.4703L17.9588 11.0245C18.0289 10.9765 18.121 10.9765 18.1911 11.0245L18.8373 11.4703C19.0818 11.639 19.4021 11.4059 19.3173 11.1215L19.0932 10.3693C19.0688 10.2878 19.0973 10.1998 19.165 10.1484L19.7884 9.67088C20.0239 9.49077 19.9017 9.11426 19.605 9.10692Z" fill="#FBBF24"/>
<path d="M22.1845 12.084L22.8087 12.5615C22.8764 12.6137 22.9049 12.7009 22.8804 12.7824L22.6563 13.5346C22.5716 13.819 22.8918 14.0513 23.1363 13.8834L23.7826 13.4376C23.8527 13.3895 23.9448 13.3895 24.0149 13.4376L24.6611 13.8834C24.9056 14.0521 25.2259 13.819 25.1411 13.5346L24.917 12.7824C24.8926 12.7009 24.9211 12.6129 24.9887 12.5615L25.6122 12.084C25.8477 11.9039 25.7255 11.5273 25.4288 11.52L24.644 11.5005C24.5584 11.498 24.4843 11.4442 24.4558 11.3635L24.195 10.6227C24.0964 10.3432 23.7003 10.3432 23.6017 10.6227L23.3409 11.3635C23.3124 11.4434 23.2374 11.498 23.1526 11.5005L22.3678 11.52C22.0712 11.5273 21.9489 11.9039 22.1845 12.084Z" fill="#FBBF24"/>
<path d="M27.8411 17.3437L27.0563 17.3242C26.9707 17.3217 26.8965 17.2679 26.868 17.1873L26.6072 16.4465C26.5086 16.1669 26.1125 16.1669 26.0139 16.4465L25.7531 17.1873C25.7246 17.2671 25.6496 17.3217 25.5649 17.3242L24.7801 17.3437C24.4834 17.3511 24.3612 17.7276 24.5967 17.9077L25.221 18.3853C25.2886 18.4374 25.3171 18.5246 25.2927 18.6061L25.0686 19.3583C24.9838 19.6428 25.3041 19.875 25.5486 19.7071L26.1948 19.2614C26.2649 19.2133 26.357 19.2133 26.4271 19.2614L27.0734 19.7071C27.3179 19.8758 27.6381 19.6428 27.5534 19.3583L27.3293 18.6061C27.3048 18.5246 27.3333 18.4366 27.401 18.3853L28.0244 17.9077C28.26 17.7276 28.1377 17.3511 27.8411 17.3437Z" fill="#FBBF24"/>
<path d="M25.4288 23.1675L24.644 23.1479C24.5592 23.1463 24.4842 23.0917 24.4557 23.011L24.1949 22.2702C24.0963 21.9907 23.7002 21.9907 23.6016 22.2702L23.3408 23.011C23.3123 23.0909 23.2382 23.1455 23.1526 23.1479L22.3678 23.1675C22.0711 23.1748 21.9489 23.5513 22.1844 23.7314L22.8079 24.209C22.8755 24.2603 22.904 24.3484 22.8796 24.4299L22.6555 25.1821C22.5707 25.4665 22.891 25.6987 23.1355 25.5309L23.7817 25.0851C23.8518 25.037 23.9439 25.037 24.014 25.0851L24.6603 25.5309C24.9048 25.6996 25.2242 25.4665 25.1403 25.1821L24.9162 24.4299C24.8917 24.3484 24.9202 24.2603 24.9879 24.209L25.6121 23.7314C25.8477 23.5513 25.7254 23.1748 25.4288 23.1675Z" fill="#FBBF24"/>
</svg>
