<svg width="36" height="36" viewBox="0 0 36 36" fill="none" xmlns="http://www.w3.org/2000/svg">
<rect width="36" height="36" rx="18" fill="#93C5FD"/>
<path d="M22 0H0V20H22V0Z" fill="#1E3A8A"/>
<path fill-rule="evenodd" clip-rule="evenodd" d="M22 0.25V4.67L19.26 6.55L17.67 7.64L14.71 9.67L14.23 10L13.74 10.33L11.49 11.88L11 12.21L10.52 12.54L8.43 13.97L7.33 14.73L0 19.75V15.33L2.2 13.82L3.79 12.73L7.29 10.33L7.77 10L8.26 9.67L10.51 8.12L11 7.79L11.48 7.46L13.57 6.03L14.67 5.27L22 0.25Z" fill="#EF4444"/>
<path fill-rule="evenodd" clip-rule="evenodd" d="M18.29 6.55L16.7 7.64L14.22 9.34L13.74 9.67L13.25 10L11 11.55L10.51 11.88L10.03 12.21L8.43 13.31L7.33 14.06L0 19.09V20H0.61L7.33 15.39L8.43 14.64L11 12.87L11.48 12.54L11.97 12.21L14.22 10.66L14.71 10.33L15.19 10L18.63 7.64L20.22 6.55L22 5.33V4L18.29 6.55ZM21.39 0L14.67 4.61L13.57 5.36L11 7.13L10.52 7.46L10.03 7.79L7.78 9.34L7.29 9.67L6.81 10L2.83 12.73L1.24 13.82L0 14.67V16L3.17 13.82L4.76 12.73L7.78 10.66L8.26 10.33L8.75 10L11 8.45L11.49 8.12L11.97 7.79L13.57 6.69L14.67 5.94L22 0.91V0H21.39ZM8.43 13.31V13.97L10.52 12.54L10.03 12.21L8.43 13.31Z" fill="#F5F5F5"/>
<path fill-rule="evenodd" clip-rule="evenodd" d="M22 15.33V19.75L14.67 14.73L13.57 13.97L11.48 12.54L11 12.21L10.51 11.88L8.26 10.33L7.77 10L7.29 9.67L4.33 7.64L2.74 6.55L0 4.67V0.25L7.33 5.27L8.43 6.03L10.52 7.46L11 7.79L11.49 8.12L13.74 9.67L14.23 10L14.71 10.33L18.21 12.73L19.8 13.82L22 15.33Z" fill="#EF4444"/>
<path fill-rule="evenodd" clip-rule="evenodd" d="M14.67 14.06L13.57 13.31L11.97 12.21L11.49 11.88L11 11.55L8.75 10L8.26 9.67L7.78 9.34L5.3 7.64L3.71 6.55L0 4V5.33L1.78 6.55L3.37 7.64L6.81 10L7.29 10.33L7.78 10.66L10.03 12.21L10.52 12.54L11 12.87L13.57 14.64L14.67 15.39L21.39 20H22V19.09L14.67 14.06ZM20.76 13.82L19.17 12.73L15.19 10L14.71 9.67L14.22 9.34L11.97 7.79L11.48 7.46L11 7.13L8.43 5.36L7.33 4.61L0.61 0H0V0.91L7.33 5.94L8.43 6.69L10.03 7.79L10.51 8.12L11 8.45L13.25 10L13.74 10.33L14.22 10.66L17.24 12.73L18.83 13.82L22 16V14.67L20.76 13.82Z" fill="#F5F5F5"/>
<path fill-rule="evenodd" clip-rule="evenodd" d="M22 7.64V12.73H13.57V20H8.43V12.73H0V7.64H8.43V0H13.57V7.64H22Z" fill="#EF4444"/>
<path fill-rule="evenodd" clip-rule="evenodd" d="M13.57 12.73V20H14.67V13.82H22V12.73H13.57ZM0 12.73V13.82H7.33V20H8.43V12.73H0ZM14.67 6.55V0H13.57V7.64H22V6.55H14.67ZM7.33 0V6.55H0V7.64H8.43V0H7.33Z" fill="#F5F5F5"/>
<path d="M33.5472 22.891V29.2343C33.5472 31.5998 29.2777 33 29.2777 33C29.2777 33 25.0029 31.5998 25.0029 29.2343V22.891C25.0029 22.3988 25.4017 22 25.8939 22H32.6562C33.1484 22 33.5472 22.3988 33.5472 22.891Z" fill="#F5F5F5"/>
<path d="M28.6808 24.5405V27.0614C28.6808 27.4677 28.3515 27.797 27.9452 27.797H25V28.9798H27.9452C28.3515 28.9798 28.6808 29.3091 28.6808 29.7154V32.772L29.2748 33L29.8636 32.772V29.7207C29.8636 29.3144 30.1929 28.9851 30.5992 28.9851H33.5444V27.797H30.5992C30.1929 27.797 29.8636 27.4677 29.8636 27.0614V24.5405H28.6808Z" fill="#EF4444"/>
<path d="M33.5472 22.891V24.5405H25.0029V22.891C25.0029 22.3988 25.4017 22 25.8939 22H32.6562C33.1484 22 33.5472 22.3988 33.5472 22.891Z" fill="#EF4444"/>
<path d="M31.9914 22.6504H26.5529C26.2105 22.6504 25.9329 22.928 25.9329 23.2704V23.2709C25.9329 23.6134 26.2105 23.8909 26.5529 23.8909H31.9914C32.3338 23.8909 32.6114 23.6134 32.6114 23.2709V23.2704C32.6114 22.928 32.3338 22.6504 31.9914 22.6504Z" fill="#FBBF24"/>
<path d="M27.5175 25.9224L27.09 25.4949C26.9663 25.3712 26.7659 25.3712 26.6422 25.4949L26.2147 25.9224C26.091 26.0461 26.091 26.2466 26.2147 26.3702L26.6422 26.7978C26.7659 26.9214 26.9663 26.9214 27.09 26.7978L27.5175 26.3702C27.6412 26.2466 27.6412 26.0461 27.5175 25.9224Z" fill="#22C55E"/>
<path d="M32.519 25.9224L32.0915 25.4949C31.9678 25.3712 31.7673 25.3712 31.6437 25.4949L31.2161 25.9224C31.0925 26.0461 31.0925 26.2466 31.2161 26.3702L31.6437 26.7978C31.7673 26.9214 31.9678 26.9214 32.0915 26.7978L32.519 26.3702C32.6427 26.2466 32.6427 26.0461 32.519 25.9224Z" fill="#22C55E"/>
</svg>
