<svg width="36" height="36" viewBox="0 0 36 36" fill="none" xmlns="http://www.w3.org/2000/svg">
<rect width="36" height="36" rx="18" fill="#93C5FD"/>
<path d="M18.3991 6.42176L18.9264 7.90979C18.9838 8.07101 19.1342 8.17978 19.3063 8.18441L20.892 8.22375C21.4914 8.2384 21.738 8.99514 21.2619 9.35693L20.0026 10.3158C19.8662 10.4191 19.8088 10.5958 19.8576 10.7601L20.3105 12.272C20.4818 12.8436 19.8344 13.3111 19.3412 12.9725L18.0355 12.0769C17.8943 11.9797 17.7075 11.9797 17.5663 12.0769L16.2606 12.9725C15.7674 13.3111 15.1208 12.8436 15.2913 12.272L15.7442 10.7601C15.793 10.5966 15.7356 10.4199 15.5992 10.3158L14.3384 9.35693C13.8623 8.99437 14.1096 8.2384 14.7082 8.22375L16.2939 8.18441C16.4653 8.18055 16.6165 8.07101 16.6739 7.90979L17.2011 6.42176C17.4004 5.85941 18.1998 5.85941 18.3991 6.42176Z" fill="#F5F5F5"/>
<path d="M29.5876 14.8325L29.2973 16.3865C29.2661 16.555 29.3414 16.7243 29.4877 16.8141L30.8369 17.6386C31.3469 17.95 31.1807 18.7296 30.5885 18.8062L29.021 19.0106C28.8514 19.0323 28.7134 19.157 28.6733 19.3239L28.3067 20.8616C28.1683 21.443 27.3752 21.5259 27.1191 20.9863L26.4406 19.5583C26.3674 19.4037 26.2061 19.3105 26.0356 19.3245L24.4597 19.4509C23.8643 19.4989 23.5403 18.771 23.9739 18.36L25.1223 17.2738C25.2464 17.1562 25.2853 16.9743 25.2197 16.8159L24.6117 15.3555C24.3823 14.8036 24.9746 14.2709 25.4987 14.5566L26.8872 15.3127C27.0371 15.3948 27.2225 15.3751 27.3528 15.2638L28.5535 14.2354C29.0072 13.8467 29.6973 14.2452 29.5876 14.8325Z" fill="#F5F5F5"/>
<path d="M6.93283 14.2354L8.13348 15.2638C8.26378 15.3751 8.44813 15.3945 8.59904 15.3128L9.98761 14.5566C10.5124 14.2706 11.1043 14.8043 10.8746 15.3555L10.2679 16.8152C10.2019 16.9729 10.2409 17.1548 10.3653 17.273L11.5137 18.3593C11.948 18.7699 11.6233 19.4982 11.0279 19.4501L9.45202 19.3238C9.28151 19.3098 9.12019 19.4029 9.04706 19.5576L8.36852 20.9855C8.11246 21.5252 7.32002 21.4418 7.18091 20.8608L6.81436 19.3232C6.7746 19.1569 6.63657 19.0322 6.46659 19.0099L4.89783 18.8062C4.30521 18.7289 4.14 17.9497 4.64941 17.6386L5.99856 16.8142C6.14455 16.7254 6.2202 16.555 6.18897 16.3865L5.89866 14.8325C5.78896 14.2452 6.47907 13.8468 6.93283 14.2354Z" fill="#F5F5F5"/>
<path d="M20.1089 22.8035L19.6267 24.3091C19.5747 24.4723 19.6283 24.6498 19.7622 24.7572L20.9978 25.7437C21.465 26.1164 21.2027 26.8691 20.6055 26.8712L19.0248 26.8782C18.8538 26.8785 18.7013 26.985 18.6406 27.1456L18.0849 28.6254C17.8749 29.1849 17.0776 29.1682 16.891 28.6008L16.3961 27.0992C16.3429 26.9366 16.1945 26.8241 16.0235 26.8167L14.4442 26.7452C13.8475 26.7185 13.6169 25.9558 14.0985 25.6022L15.3736 24.6679C15.5114 24.5667 15.5727 24.3911 15.5274 24.2258L15.1066 22.7009C14.948 22.1247 15.6021 21.6701 16.0864 22.019L17.3697 22.9427C17.5081 23.0428 17.6945 23.0465 17.8377 22.9523L19.1574 22.0819C19.6562 21.753 20.2911 22.2345 20.1089 22.8035Z" fill="#F5F5F5"/>
</svg>
