<svg width="36" height="36" viewBox="0 0 36 36" fill="none" xmlns="http://www.w3.org/2000/svg">
<g clip-path="url(#clip0_93_2488)">
<path d="M36 0H0V36H36V0Z" fill="#1E3A8A"/>
<path d="M16.37 19.38L16.31 19.44H16.3L15.35 20.39L15.34 20.38L0 5.04V3L9.23 12.24L11.39 14.4L13.55 16.56L16.37 19.38Z" fill="#F5F5F5"/>
<path d="M18.15 17.59L18.14 17.61L16.37 19.38L13.55 16.56L11.39 14.4L9.23 12.24L0 3V0H0.56L12.8 12.24L14.4 13.84L14.96 14.4L15.85 15.29L16.87 16.31L18.15 17.59Z" fill="#EF4444"/>
<path d="M20.45 15.3L19.43 16.32L18.15 17.59L16.87 16.31L15.85 15.29L14.96 14.4L14.4 13.84L12.8 12.24L0.559998 0H5.14L12.24 7.09L18.14 12.99L19.16 14.01L19.44 14.29L20.45 15.3Z" fill="#F5F5F5"/>
<path d="M35.54 36.0001H30.96L23.76 28.8001L21.6 26.6401L19.44 24.4801L16.56 21.6001L15.35 20.3901L16.3 19.4401H16.31L17.65 18.1001L19.41 19.8701H19.42L20.43 20.8801L21.15 21.6001L21.6 22.0501L23.31 23.7601L23.76 24.2101L35.54 36.0001Z" fill="#F5F5F5"/>
<path d="M36 32.8898V35.9998H35.54L23.76 24.2098L23.31 23.7598L21.6 22.0498L21.15 21.5998L20.43 20.8798L19.42 19.8698H19.41L17.65 18.0998L19.43 16.3198L19.44 16.3298L19.67 16.5598L19.92 16.8098L22.21 19.0998L22.55 19.4398L24.71 21.5998L26.87 23.7598L36 32.8898Z" fill="#EF4444"/>
<path d="M36 30.8598V32.8898L26.87 23.7598L24.71 21.5998L22.55 19.4398L22.21 19.0998L19.92 16.8098L19.67 16.5598L19.44 16.3298L19.43 16.3198L20.45 15.2998L20.94 15.7898L21.6 16.4498L21.71 16.5598L26.75 21.5998L28.91 23.7598L36 30.8598Z" fill="#F5F5F5"/>
<path d="M36 0.740234V5.32023L29.07 12.2402L26.91 14.4002L24.75 16.5602L23.23 18.0802L22.21 19.1002L21.87 19.4402L21.6 19.7102L20.92 20.3902L19.97 19.4402H19.96L19.9 19.3802L18.63 18.1002L24.49 12.2402L36 0.740234Z" fill="#F5F5F5"/>
<path d="M36 0V0.74L24.49 12.24L18.63 18.1L18.12 17.59L16.85 16.32L16.87 16.31L19.16 14.01L33.17 0H36Z" fill="#EF4444"/>
<path d="M33.17 0L19.16 14.01L16.87 16.31L16.85 16.32L16.56 16.03L15.83 15.3L15.85 15.29L16.56 14.57L19.44 11.69L21.6 9.53L23.76 7.37L31.14 0H33.17Z" fill="#F5F5F5"/>
<path d="M20.92 20.3899L19.44 21.8699L18.14 23.1799L16.56 24.7499L12.24 29.0699L5.32 35.9999H3.28L12.24 27.0499V27.0399L14.4 24.8899V24.8799L16.56 22.7299V22.7199L19.41 19.8699H19.42L19.44 19.8499V19.8399L19.84 19.4399H19.85L19.9 19.3799L19.96 19.4399H19.97L20.92 20.3899Z" fill="#F5F5F5"/>
<path d="M19.9 19.3798L19.85 19.4398H19.84L19.44 19.8398V19.8498L19.42 19.8698H19.41L16.56 22.7198V22.7298L14.4 24.8798V24.8898L12.24 27.0398V27.0498L3.28 35.9998H0V35.7198L11.95 23.7598L12.24 23.4698L14.11 21.5998L14.4 21.3098L15.34 20.3798L16.27 19.4398L16.35 19.3598L18.12 17.5898L18.63 18.0998L19.9 19.3798Z" fill="#EF4444"/>
<path d="M18.12 17.5898L16.35 19.3598L16.27 19.4398L15.34 20.3798L14.4 21.3098L14.11 21.5998L12.24 23.4698L11.95 23.7598L0 35.7198V31.1398L7.37 23.7598L11.69 19.4398L13.05 18.0898L14.06 17.0698L15.83 15.2998L16.56 16.0298L16.85 16.3198L18.12 17.5898Z" fill="#F5F5F5"/>
<path fill-rule="evenodd" clip-rule="evenodd" d="M36 13.4V22.6H22.6V36H13.4V22.6H0V13.4H13.4V0H22.6V13.4H36Z" fill="#EF4444"/>
<path d="M12.4 0V12.4H0V14.4H14.4V0H12.4ZM21.6 21.6V36H23.6V23.6H36V21.6H21.6ZM0 21.6V23.6H12.4V36H14.4V21.6H0ZM23.6 12.4V0H21.6V14.4H36V12.4H23.6Z" fill="#F5F5F5"/>
</g>
<defs>
<clipPath id="clip0_93_2488">
<rect width="36" height="36" rx="18" fill="white"/>
</clipPath>
</defs>
</svg>
