<svg width="36" height="36" viewBox="0 0 36 36" fill="none" xmlns="http://www.w3.org/2000/svg">
<g clip-path="url(#clip0_93_2515)">
<path d="M0 0H36V18H0V0Z" fill="#F5F5F5"/>
<path d="M0 18H36V36H0V18Z" fill="#22C55E"/>
<path d="M32.3311 16.3353L31.5832 15.0395L30.8353 13.7418C30.5078 13.1778 29.6931 13.1778 29.3677 13.7418L28.6177 15.0395L27.8697 16.3353C27.5443 16.9013 27.9506 17.6068 28.6035 17.6068H29.2747C29.1554 18.4922 28.3973 19.1775 27.4796 19.1775H24.9629C24.6617 19.1775 24.5444 18.7874 24.7971 18.6216C27.0854 17.1257 27.9931 15.7511 27.9931 12.8119C27.9931 12.3692 27.8152 11.9709 27.5241 11.6819C27.235 11.3908 26.8368 11.2129 26.3941 11.2129H18.3931C17.451 11.2129 16.6869 11.977 16.6869 12.919V14.1845C16.6869 14.5706 16.4282 14.9284 16.0481 14.9951C15.5569 15.08 15.1304 14.704 15.1304 14.2289V12.5107C15.1304 12.1428 15.3103 11.8032 15.6054 11.5869C15.9814 11.3079 16.2563 10.8996 16.3615 10.4286C16.41 10.2082 16.2361 10 16.0118 10H12.179C11.0895 10 10.2061 10.8834 10.2061 11.973V12.0457C10.2061 12.068 10.1879 12.0862 10.1656 12.0862C9.07404 12.0862 8.18863 12.9736 8.19267 14.0632C8.19267 14.1137 8.23512 14.1541 8.28566 14.1541H9.74517C9.99987 14.1541 10.2061 14.3603 10.2061 14.615V19.4565C10.2061 19.7496 9.96955 19.9861 9.67644 19.9861C9.46014 19.9861 9.26203 19.8567 9.18724 19.6546C8.90221 18.9026 8.17448 18.3709 7.32344 18.375C7.1415 18.377 7 18.5327 7 18.7126V21.8863C7 22.2542 7.29716 22.5514 7.66507 22.5514H11.3583C11.7747 22.5514 12.1123 22.8889 12.1123 23.3054C12.1123 23.5136 11.9688 23.6955 11.7646 23.7359C10.8772 23.9118 10.2061 24.6961 10.2061 25.6341C10.2061 25.8342 10.3678 26 10.5699 26H13.7194C14.1015 26 14.4107 25.6907 14.4107 25.3087V23.3033C14.4107 22.8889 14.7483 22.5514 15.1627 22.5514H20.7764C21.1908 22.5514 21.5284 22.8869 21.5284 23.3033C21.5284 23.5156 21.3788 23.6955 21.1726 23.738C20.2872 23.9179 19.6221 24.7002 19.6221 25.6361C19.6221 25.8363 19.7858 26 19.986 26H23.1375C23.5175 26 23.8268 25.6907 23.8268 25.3087V22.7333C23.8268 21.6619 24.694 20.7947 25.7654 20.7947H27.4796C29.2888 20.7947 30.7726 19.3857 30.8979 17.6068H31.5994C32.2503 17.6068 32.6586 16.9013 32.3311 16.3353Z" fill="#EF4444"/>
</g>
<defs>
<clipPath id="clip0_93_2515">
<rect width="36" height="36" rx="18" fill="white"/>
</clipPath>
</defs>
</svg>
