<svg width="36" height="36" viewBox="0 0 36 36" fill="none" xmlns="http://www.w3.org/2000/svg">
<g clip-path="url(#clip0_95_10)">
<rect width="36" height="36" rx="18" fill="#F5F5F5"/>
<path fill-rule="evenodd" clip-rule="evenodd" d="M21 0H14V15H0V22H14V36H21V22H36V15H21V0Z" fill="#EF4444"/>
<path fill-rule="evenodd" clip-rule="evenodd" d="M7.00001 3.5C6.26363 3.5 5.66668 4.09695 5.66668 4.83333V6.16623H4.33333C3.59695 6.16623 3 6.76319 3 7.49957C3 8.23595 3.59695 8.8329 4.33333 8.8329H5.66668V10.1667C5.66668 10.903 6.26363 11.5 7.00001 11.5C7.73639 11.5 8.33335 10.903 8.33335 10.1667V8.8329H9.66667C10.403 8.8329 11 8.23595 11 7.49957C11 6.76319 10.403 6.16623 9.66667 6.16623H8.33335V4.83333C8.33335 4.09695 7.73639 3.5 7.00001 3.5Z" fill="#EF4444"/>
<path fill-rule="evenodd" clip-rule="evenodd" d="M28.5 3.5C27.7636 3.5 27.1667 4.09695 27.1667 4.83333V6.16623H25.8333C25.097 6.16623 24.5 6.76319 24.5 7.49957C24.5 8.23595 25.097 8.8329 25.8333 8.8329H27.1667V10.1667C27.1667 10.903 27.7636 11.5 28.5 11.5C29.2364 11.5 29.8333 10.903 29.8333 10.1667V8.8329H31.1667C31.903 8.8329 32.5 8.23595 32.5 7.49957C32.5 6.76319 31.903 6.16623 31.1667 6.16623H29.8333V4.83333C29.8333 4.09695 29.2364 3.5 28.5 3.5Z" fill="#EF4444"/>
<path fill-rule="evenodd" clip-rule="evenodd" d="M7.00001 25C6.26363 25 5.66668 25.597 5.66668 26.3333V27.6662H4.33333C3.59695 27.6662 3 28.2632 3 28.9996C3 29.7359 3.59695 30.3329 4.33333 30.3329H5.66668V31.6667C5.66668 32.403 6.26363 33 7.00001 33C7.73639 33 8.33335 32.403 8.33335 31.6667V30.3329H9.66667C10.403 30.3329 11 29.7359 11 28.9996C11 28.2632 10.403 27.6662 9.66667 27.6662H8.33335V26.3333C8.33335 25.597 7.73639 25 7.00001 25Z" fill="#EF4444"/>
<path fill-rule="evenodd" clip-rule="evenodd" d="M28.5 25C27.7636 25 27.1667 25.597 27.1667 26.3333V27.6662H25.8333C25.097 27.6662 24.5 28.2632 24.5 28.9996C24.5 29.7359 25.097 30.3329 25.8333 30.3329H27.1667V31.6667C27.1667 32.403 27.7636 33 28.5 33C29.2364 33 29.8333 32.403 29.8333 31.6667V30.3329H31.1667C31.903 30.3329 32.5 29.7359 32.5 28.9996C32.5 28.2632 31.903 27.6662 31.1667 27.6662H29.8333V26.3333C29.8333 25.597 29.2364 25 28.5 25Z" fill="#EF4444"/>
</g>
<defs>
<clipPath id="clip0_95_10">
<rect width="36" height="36" rx="18" fill="white"/>
</clipPath>
</defs>
</svg>
