<svg width="36" height="36" viewBox="0 0 36 36" fill="none" xmlns="http://www.w3.org/2000/svg">
<g clip-path="url(#clip0_95_84)">
<path d="M0 0H36V12H0V0Z" fill="#EF4444"/>
<path d="M0 12H36V24H0V12Z" fill="#FBBF24"/>
<path d="M0 24H36V36H0V24Z" fill="#22C55E"/>
<path d="M19.2622 12.7142L20.1504 15.2338C20.2471 15.5068 20.5005 15.691 20.7905 15.6988L23.4617 15.7655C24.4714 15.7903 24.8867 17.0717 24.0847 17.6843L21.9634 19.3079C21.7335 19.4829 21.6369 19.782 21.7192 20.0603L22.482 22.6204C22.7707 23.5883 21.68 24.3799 20.8492 23.8064L18.6496 22.2899C18.4119 22.1254 18.0971 22.1254 17.8593 22.2899L15.6597 23.8064C14.829 24.3799 13.7396 23.5883 14.0269 22.6204L14.7898 20.0603C14.8721 19.7833 14.7754 19.4842 14.5455 19.3079L12.4216 17.6843C11.6196 17.0704 12.0363 15.7903 13.0447 15.7655L15.7159 15.6988C16.0045 15.6923 16.2592 15.5068 16.3559 15.2338L17.2441 12.7142C17.5798 11.7619 18.9265 11.7619 19.2622 12.7142Z" fill="#262626"/>
</g>
<defs>
<clipPath id="clip0_95_84">
<rect width="36" height="36" rx="18" fill="white"/>
</clipPath>
</defs>
</svg>
