<svg width="36" height="36" viewBox="0 0 36 36" fill="none" xmlns="http://www.w3.org/2000/svg">
<g clip-path="url(#clip0_95_96)">
<path d="M0 0H36V24H0V0Z" fill="#F5F5F5"/>
<path d="M0 24H36V36H0V24Z" fill="#EF4444"/>
<path d="M26.2577 9.67039V6.69049C26.2577 5.87226 25.5931 5.21126 24.7785 5.21126H23.2278C22.4096 5.21126 21.7486 5.87584 21.7486 6.69049V10.1599C21.7486 10.6494 21.352 11.046 20.8624 11.046C20.3729 11.046 19.9763 10.6494 19.9763 10.1599V5.47923C19.9763 4.66101 19.3118 4 18.4971 4H16.9464C16.1282 4 15.4672 4.66458 15.4672 5.47923V10.1563C15.4672 10.6458 15.0706 11.0424 14.5811 11.0424C14.0916 11.0424 13.695 10.6458 13.695 10.1563V6.69049C13.695 5.87226 13.0304 5.21126 12.2157 5.21126H10.665C9.84681 5.21126 9.1858 5.87584 9.1858 6.69049V9.67039C9.1858 10.3743 8.83207 11.0424 8.22823 11.4033C7.49576 11.8428 7.00626 12.6431 7.00626 13.5578V19.757C7.00626 21.1469 8.13176 22.2724 9.52167 22.2724H25.9326C27.3225 22.2724 28.448 21.1469 28.448 19.757V13.5578C28.448 12.6431 27.9585 11.8392 27.226 11.4033C26.6222 11.0424 26.2684 10.3743 26.2684 9.67039H26.2577Z" fill="#EF4444"/>
<path d="M11.4341 15.2656C12.3381 15.2656 13.0741 16.0017 13.0741 16.9056V19.8784C13.0741 20.1714 12.8383 20.4072 12.5453 20.4072H10.3229C10.0299 20.4072 9.79411 20.1714 9.79411 19.8784V16.9056C9.79411 16.0017 10.5301 15.2656 11.4341 15.2656Z" fill="#262626"/>
<path d="M11.4341 7.76611C12.0094 7.76611 12.481 8.23418 12.481 8.81301V10.7103C12.481 10.8961 12.331 11.0461 12.1452 11.0461H10.7267C10.5409 11.0461 10.3908 10.8961 10.3908 10.7103V8.81301C10.3908 8.23775 10.8589 7.76611 11.4377 7.76611H11.4341Z" fill="#262626"/>
<path d="M17.7191 7.76611C18.2943 7.76611 18.766 8.23418 18.766 8.81301V10.7103C18.766 10.8961 18.6159 11.0461 18.4301 11.0461H17.0116C16.8258 11.0461 16.6758 10.8961 16.6758 10.7103V8.81301C16.6758 8.23775 17.1438 7.76611 17.7226 7.76611H17.7191Z" fill="#262626"/>
<path d="M24.004 7.76611C24.5793 7.76611 25.0509 8.23418 25.0509 8.81301V10.7103C25.0509 10.8961 24.9009 11.0461 24.7151 11.0461H23.2966C23.1108 11.0461 22.9607 10.8961 22.9607 10.7103V8.81301C22.9607 8.23775 23.4288 7.76611 24.0076 7.76611H24.004Z" fill="#262626"/>
<path d="M17.7191 14.3867C18.7767 14.3867 19.6378 15.2478 19.6378 16.3054V19.7498C19.6378 20.1107 19.3448 20.4037 18.9839 20.4037H16.4578C16.0969 20.4037 15.8039 20.1107 15.8039 19.7498V16.3054C15.8039 15.2478 16.665 14.3867 17.7227 14.3867H17.7191Z" fill="#262626"/>
<path d="M24.004 15.2656C24.908 15.2656 25.644 16.0017 25.644 16.9056V19.8784C25.644 20.1714 25.4082 20.4072 25.1152 20.4072H22.8928C22.5998 20.4072 22.364 20.1714 22.364 19.8784V16.9056C22.364 16.0017 23.1 15.2656 24.004 15.2656Z" fill="#262626"/>
<path d="M19.9844 25.556L18.791 24.3626C18.791 24.3626 18.791 24.3626 18.7874 24.359C18.5016 24.0767 18.3301 23.698 18.3301 23.2942V20.4072H17.1188V23.2942C17.1188 23.698 16.9473 24.0767 16.6615 24.359C16.6615 24.359 16.6615 24.359 16.6579 24.3626L15.4645 25.556C14.8749 26.1455 14.8749 27.1031 15.4645 27.6926L16.6579 28.8896L16.6865 28.9182C16.9652 29.1969 17.1224 29.572 17.1224 29.9651V31.0477C17.1224 31.2085 16.9938 31.3371 16.833 31.3371H15.8254C15.6253 31.3371 15.4645 31.4979 15.4645 31.698V32.3983C15.4645 32.5984 15.6253 32.7592 15.8254 32.7592H16.8187C16.9723 32.7592 17.1081 32.8735 17.1224 33.0271C17.1295 33.1165 17.0974 33.1987 17.0402 33.2558C16.9866 33.3094 16.9151 33.3416 16.8365 33.3416H15.8289C15.6289 33.3416 15.4681 33.5024 15.4681 33.7024V34.4028C15.4681 34.6029 15.6289 34.7636 15.8289 34.7636H16.8365C16.9973 34.7636 17.126 34.8923 17.126 35.0531V35.3782C17.126 35.7176 17.4011 36.0106 17.7405 36.0035C17.9049 36.0035 18.0514 35.932 18.1586 35.8248C18.2693 35.7141 18.3372 35.564 18.3372 35.3961V30.0008C18.3372 29.5863 18.5016 29.1897 18.7946 28.8967H18.7981L19.9915 27.6962C20.5811 27.1066 20.5811 26.1491 19.9915 25.5595L19.9844 25.556ZM19.1268 27.0852L18.3015 27.9106L18.18 28.0321C17.9263 28.2857 17.5118 28.2857 17.2582 28.0321L17.1367 27.9106L16.3113 27.0852C16.0576 26.8315 16.0576 26.4171 16.3113 26.1634L17.2546 25.2201C17.5083 24.9664 17.9227 24.9664 18.1764 25.2201L19.1197 26.1634C19.3734 26.4171 19.3734 26.8315 19.1197 27.0852H19.1268Z" fill="#FBBF24"/>
</g>
<defs>
<clipPath id="clip0_95_96">
<rect width="36" height="36" rx="18" fill="white"/>
</clipPath>
</defs>
</svg>
