<svg width="36" height="36" viewBox="0 0 36 36" fill="none" xmlns="http://www.w3.org/2000/svg">
<g clip-path="url(#clip0_95_297)">
<path d="M0 0H36V12H0V0Z" fill="#22C55E"/>
<path d="M0 12H36V24H0V12Z" fill="#F5F5F5"/>
<path d="M0 24H36V36H0V24Z" fill="#EF4444"/>
<path d="M13.2325 20.39C14.2558 19.18 14.2558 16.82 13.2325 15.62L0 0V36L13.2325 20.39Z" fill="#3B82F6"/>
<g clip-path="url(#clip1_95_297)">
<path d="M19.361 14.3608H24.8917V20.1515C24.8917 22.1009 22.3502 20.5991 22.1336 21.6388C21.7581 20.5702 19.3755 22.1154 19.3755 20.0359L19.361 14.3608Z" fill="#F5F5F5"/>
<path d="M22.1336 22C21.9812 22 21.844 21.904 21.7935 21.7588C21.7336 21.5884 21.517 21.5632 20.9372 21.5747C20.4137 21.5856 19.8209 21.5978 19.4116 21.1964C19.1444 20.9343 19.0144 20.5552 19.0144 20.0361L19 14.3617C19 14.2657 19.0375 14.174 19.1054 14.1061C19.1733 14.0383 19.265 14 19.361 14H24.8917C25.091 14 25.2527 14.1617 25.2527 14.361V20.1516C25.2527 20.6144 25.1249 20.9733 24.8736 21.2173C24.4534 21.6253 23.8282 21.6072 23.2765 21.5913C22.8318 21.5783 22.5148 21.5798 22.4866 21.7126C22.4534 21.8715 22.3191 21.9884 22.1574 21.9993C22.1495 21.9993 22.1415 22 22.1336 22ZM21.1632 20.8491C21.4982 20.8491 21.8513 20.8773 22.1184 21.0513C22.4404 20.844 22.9162 20.8585 23.2982 20.8693C23.7069 20.8816 24.1704 20.8946 24.3711 20.6996C24.4773 20.5964 24.5307 20.4123 24.5307 20.1516V14.722H19.7227L19.7365 20.0354C19.7365 20.3466 19.7971 20.5632 19.9162 20.6801C20.109 20.8693 20.522 20.8607 20.922 20.8527C21 20.8513 21.0809 20.8491 21.1625 20.8491H21.1632Z" fill="#D4D4D4"/>
<path d="M22.5069 15.712C22.5069 15.5019 22.3365 15.3315 22.1264 15.3315C21.9162 15.3315 21.7458 15.5019 21.7458 15.712V19.9178C21.7458 20.128 21.9162 20.2983 22.1264 20.2983C22.3365 20.2983 22.5069 20.128 22.5069 19.9178V15.712Z" fill="#A16207"/>
<path d="M22.7126 15.3315H21.5408C21.1636 15.3315 20.8578 15.6373 20.8578 16.0146V16.0153C20.8578 16.3925 21.1636 16.6983 21.5408 16.6983H22.7126C23.0899 16.6983 23.3957 16.3925 23.3957 16.0153V16.0146C23.3957 15.6373 23.0899 15.3315 22.7126 15.3315Z" fill="#22C55E"/>
</g>
</g>
<defs>
<clipPath id="clip0_95_297">
<rect width="36" height="36" rx="18" fill="white"/>
</clipPath>
<clipPath id="clip1_95_297">
<rect width="6.25271" height="8" fill="white" transform="translate(19 14)"/>
</clipPath>
</defs>
</svg>
