<svg width="36" height="36" viewBox="0 0 36 36" fill="none" xmlns="http://www.w3.org/2000/svg">
<g clip-path="url(#clip0_95_429)">
<path d="M0 0H36V4H0V0Z" fill="#3B82F6"/>
<path d="M0 4H36V8H0V4Z" fill="#F5F5F5"/>
<path d="M0 8H36V12H0V8Z" fill="#3B82F6"/>
<path d="M0 12H36V16H0V12Z" fill="#F5F5F5"/>
<path d="M0 16H36V20H0V16Z" fill="#3B82F6"/>
<path d="M0 20H36V24H0V20Z" fill="#F5F5F5"/>
<path d="M0 24H36V28H0V24Z" fill="#3B82F6"/>
<path d="M0 28H36V32H0V28Z" fill="#F5F5F5"/>
<path d="M0 32H36V36H0V32Z" fill="#3B82F6"/>
<rect width="19.55" height="19.55" transform="translate(0 0.450195)" fill="#3B82F6"/>
<path fill-rule="evenodd" clip-rule="evenodd" d="M11.73 12.18V20H7.81998L7.81998 12.18H0V8.26998H7.81998L7.81998 0.450001H11.73V8.26998H19.55V12.18H11.73Z" fill="#F5F5F5"/>
</g>
<defs>
<clipPath id="clip0_95_429">
<rect width="36" height="36" rx="18" fill="white"/>
</clipPath>
</defs>
</svg>
