<svg width="36" height="36" viewBox="0 0 36 36" fill="none" xmlns="http://www.w3.org/2000/svg">
<g clip-path="url(#clip0_95_468)">
<path d="M0 0H12V36H0V0Z" fill="#93C5FD"/>
<path d="M12 0H24V36H12V0Z" fill="#F5F5F5"/>
<path d="M24 0H36V36H24V0Z" fill="#93C5FD"/>
<path d="M14.748 20.3889C14.5942 20.3889 14.4405 20.3304 14.3235 20.2134C14.0896 19.9794 14.0896 19.5993 14.3235 19.3653L17.0756 16.6133C17.3095 16.3793 17.6897 16.3785 17.9237 16.6133C18.1576 16.8472 18.1584 17.2274 17.9237 17.4614L15.1716 20.2134C15.0547 20.3304 14.9009 20.3889 14.7472 20.3889H14.748Z" fill="#A16207"/>
<path d="M20.252 20.3891C20.0983 20.3891 19.9453 20.3306 19.8276 20.2136L17.0756 17.4616C16.8416 17.2276 16.8416 16.8474 17.0756 16.6135C17.3095 16.3795 17.6897 16.3795 17.9237 16.6135L20.6757 19.3655C20.9097 19.5995 20.9097 19.9796 20.6757 20.2136C20.5587 20.3306 20.405 20.3891 20.2513 20.3891H20.252Z" fill="#A16207"/>
<path d="M19.2584 16.542L17.9949 15.2784C17.7214 15.0049 17.2779 15.0049 17.0044 15.2784L15.7408 16.542C15.4673 16.8155 15.4673 17.259 15.7408 17.5325L17.0044 18.7961C17.2779 19.0696 17.7214 19.0696 17.9949 18.7961L19.2584 17.5325C19.532 17.259 19.532 16.8155 19.2584 16.542Z" fill="#FBBF24"/>
<path d="M17.5 21.5255C15.0187 21.5255 13 19.5069 13 17.0255C13 16.2464 13.2025 15.4778 13.5864 14.8037C13.7499 14.5157 14.1166 14.4145 14.4045 14.5787C14.6925 14.7422 14.793 15.1089 14.6295 15.3968C14.3483 15.891 14.1998 16.4541 14.1998 17.0255C14.1998 18.8455 15.6801 20.3257 17.5 20.3257C19.3199 20.3257 20.8002 18.8455 20.8002 17.0255C20.8002 16.4541 20.6517 15.8902 20.3705 15.3968C20.207 15.1089 20.3075 14.7429 20.5955 14.5787C20.8834 14.4152 21.2501 14.5157 21.4136 14.8037C21.7975 15.4778 22 16.2464 22 17.0255C22 19.5069 19.9813 21.5255 17.5 21.5255Z" fill="#22C55E"/>
<path d="M20.0698 20.1287C19.7421 20.1287 19.4752 19.8655 19.4699 19.537C19.4594 18.7834 19.248 18.041 18.858 17.3894C18.4741 16.7475 17.9297 16.2143 17.2825 15.8484C16.9938 15.6849 16.8926 15.319 17.0561 15.031C17.2195 14.7431 17.5847 14.6411 17.8734 14.8046C18.7013 15.2732 19.3979 15.9541 19.8884 16.7737C20.3855 17.6061 20.6562 18.5554 20.6697 19.5198C20.6742 19.8512 20.4095 20.1234 20.0788 20.1279C20.0758 20.1279 20.0728 20.1279 20.0698 20.1279V20.1287Z" fill="#22C55E"/>
</g>
<defs>
<clipPath id="clip0_95_468">
<rect width="36" height="36" rx="18" fill="white"/>
</clipPath>
</defs>
</svg>
