<svg width="36" height="36" viewBox="0 0 36 36" fill="none" xmlns="http://www.w3.org/2000/svg">
<g clip-path="url(#clip0_95_509)">
<path d="M0 0H15V36H0V0Z" fill="#EF4444"/>
<path d="M15 0H36V18H15V0Z" fill="#FBBF24"/>
<path d="M15 18H36V36H15V18Z" fill="#22C55E"/>
<path d="M7.84147 13.4761L8.43362 15.1559C8.49806 15.3379 8.667 15.4607 8.86031 15.4659L10.6411 15.5103C11.3142 15.5269 11.5912 16.3811 11.0565 16.7895L9.64229 17.8719C9.48903 17.9886 9.42459 18.188 9.47945 18.3735L9.988 20.0803C10.1805 20.7255 9.45333 21.2532 8.8995 20.871L7.43307 19.86C7.27458 19.7502 7.06472 19.7502 6.90623 19.86L5.4398 20.871C4.88597 21.2532 4.15972 20.7255 4.3513 20.0803L4.85985 18.3735C4.91471 18.1889 4.85027 17.9895 4.69701 17.8719L3.28108 16.7895C2.74641 16.3802 3.02419 15.5269 3.69645 15.5103L5.47725 15.4659C5.66969 15.4615 5.8395 15.3379 5.90394 15.1559L6.49608 13.4761C6.71988 12.8413 7.61768 12.8413 7.84147 13.4761Z" fill="#262626"/>
</g>
<defs>
<clipPath id="clip0_95_509">
<rect width="36" height="36" rx="18" fill="white"/>
</clipPath>
</defs>
</svg>
