<svg width="36" height="36" viewBox="0 0 36 36" fill="none" xmlns="http://www.w3.org/2000/svg">
<g clip-path="url(#clip0_95_707)">
<path d="M36 0H0V36H36V0Z" fill="#22C55E"/>
<path d="M33.61 20.4001L4.22 33.9501L1.67 35.1301L0 35.9001V0.100098L1.67 0.870098L4.23 2.0501L33.61 15.6001C35.23 16.3401 35.23 19.6601 33.61 20.4001Z" fill="#FBBF24"/>
<path d="M34.07 14.62L2.36 0H0V1.29L1.02 1.76L3.57 2.93L6.13 4.11L33.17 16.58C33.5 16.73 33.75 17.33 33.75 18C33.75 18.67 33.51 19.26 33.17 19.42L6.13 31.88L3.58 33.06L1.03 34.24L0 34.71V36H2.35L34.06 21.38C35.19 20.86 35.9 19.56 35.9 18C35.9 16.44 35.2 15.14 34.06 14.62H34.07Z" fill="#F5F5F5"/>
<path d="M15.48 20.13L3.58 33.06L1.68 35.13L0.880002 36H0.0100021V0H0.880002C1.13 0.27 1.4 0.56 1.68 0.87C2.25 1.49 2.89 2.19 3.58 2.93C7.42 7.1 12.68 12.81 15.49 15.86C16.46 16.91 16.46 19.07 15.49 20.12L15.48 20.13Z" fill="#EF4444"/>
<path d="M16.27 15.13L6.12 4.11L4.23 2.05L2.34 0H0V0.65L1.02 1.76L14.69 16.6C15.28 17.24 15.28 18.76 14.69 19.4L1.03 34.24L0 35.35V36H2.34L4.23 33.95L6.13 31.88L16.27 20.86C17.62 19.38 17.62 16.6 16.27 15.13Z" fill="#262626"/>
</g>
<defs>
<clipPath id="clip0_95_707">
<rect width="36" height="36" rx="18" fill="white"/>
</clipPath>
</defs>
</svg>
