<svg width="37" height="36" viewBox="0 0 37 36" fill="none" xmlns="http://www.w3.org/2000/svg">
<rect width="36.05" height="36" rx="18" fill="#EF4444"/>
<path d="M16.2092 18.4826C16.4332 18.2843 16.3461 17.9155 16.0555 17.8445C13.9486 17.3314 14.0035 15.6658 13.9215 15.2779C13.8322 14.8556 12.8933 13.1182 10.779 13.4827C9.45654 13.7103 8.88351 13.0429 8.64054 12.5101C8.55785 12.3293 8.29658 12.3403 8.2373 12.5298C7.15491 16.0061 9.9681 19.3938 12.7732 19.5021C14.616 19.5738 15.6728 18.9591 16.21 18.4826H16.2092ZM12.2236 16.7028L11.7574 16.6135C11.707 16.604 11.6557 16.626 11.6286 16.6699L11.3791 17.0738C11.2847 17.2268 11.0512 17.1756 11.0285 16.9977L10.9693 16.5264C10.9627 16.4752 10.9253 16.4335 10.8756 16.4218L10.4138 16.3098C10.2396 16.2674 10.2155 16.0295 10.3779 15.9534L10.8075 15.7514C10.8544 15.7294 10.8822 15.6811 10.8785 15.6299L10.8426 15.1564C10.8287 14.9778 11.0483 14.8812 11.1712 15.0122L11.4962 15.3584C11.5313 15.3957 11.5862 15.4074 11.6338 15.3884L12.0729 15.2084C12.239 15.1403 12.3978 15.3189 12.3115 15.4762L12.0824 15.8919C12.0575 15.9366 12.0634 15.9922 12.0963 16.0317L12.4037 16.3932C12.52 16.5301 12.3993 16.7365 12.2229 16.7028H12.2236Z" fill="#F5F5F5"/>
<path d="M16.1675 16.402C16.4244 16.5549 16.7501 16.3602 16.7288 16.0616C16.5788 13.8983 18.183 13.4453 18.527 13.2499C18.9017 13.037 20.2731 11.6157 19.2851 9.71074C18.6667 8.51931 19.13 7.77137 19.5632 7.37837C19.7111 7.24517 19.6211 6.99854 19.4227 7.00001C15.7818 7.02269 13.407 10.7309 14.1535 13.4365C14.6438 15.2142 15.5506 16.0353 16.1668 16.402H16.1675ZM16.0109 11.0163L16.4419 10.8173C16.4888 10.7961 16.5173 10.7478 16.5137 10.6965L16.4807 10.2223C16.4683 10.043 16.6878 9.94859 16.8101 10.0796L17.1328 10.4279C17.1679 10.466 17.2221 10.4777 17.2697 10.4587L17.7102 10.2808C17.8764 10.2135 18.0352 10.3935 17.9473 10.5502L17.7161 10.9644C17.6912 11.009 17.6963 11.0646 17.7293 11.1042L18.0344 11.4679C18.1501 11.6055 18.0278 11.8111 17.8522 11.7767L17.3868 11.6845C17.3363 11.6743 17.285 11.697 17.2579 11.7401L17.0062 12.1426C16.9111 12.2949 16.6776 12.2422 16.6564 12.0643L16.6 11.593C16.5942 11.5418 16.5568 11.5001 16.5071 11.4876L16.0468 11.3727C15.8726 11.3296 15.8499 11.091 16.0131 11.0156L16.0109 11.0163Z" fill="#F5F5F5"/>
<path d="M28.0819 15.9857C26.9563 12.5234 22.7028 11.3846 20.3507 12.9164C18.8058 13.9227 18.2979 15.0351 18.1354 15.734C18.0674 16.0252 18.3521 16.2763 18.6302 16.1657C20.6464 15.3666 21.5641 16.7578 21.8546 17.0271C22.1715 17.3199 23.9419 18.1959 25.4575 16.6766C26.4052 15.7266 27.2585 15.9403 27.765 16.2345C27.9362 16.3341 28.1441 16.1745 28.0826 15.9857H28.0819ZM24.2514 15.6557L23.786 15.5605C23.7355 15.5503 23.6842 15.5722 23.6564 15.6154L23.4025 16.0165C23.3066 16.1679 23.0732 16.1145 23.0534 15.9359L23 15.4639C22.9941 15.4127 22.9575 15.371 22.9078 15.3578L22.4482 15.24C22.274 15.1953 22.2535 14.9567 22.4167 14.8828L22.8485 14.686C22.8953 14.6647 22.9239 14.6164 22.9209 14.5652L22.8909 14.0917C22.8792 13.9124 23.0995 13.8187 23.221 13.9512L23.5415 14.3018C23.5759 14.3398 23.6308 14.3522 23.6784 14.3332L24.1197 14.1576C24.2865 14.0917 24.4439 14.2717 24.3553 14.4276L24.1212 14.8411C24.0955 14.8858 24.1007 14.9414 24.1336 14.9809L24.4366 15.3468C24.5507 15.4851 24.4278 15.6901 24.2522 15.6542L24.2514 15.6557Z" fill="#F5F5F5"/>
<path d="M22.727 18.6625C21.2992 17.4952 20.0858 17.3488 19.37 17.4059C19.0715 17.4293 18.9192 17.7762 19.108 18.0082C20.481 19.687 19.433 20.9831 19.2647 21.3417C19.0817 21.7325 18.7838 23.6851 20.691 24.6687C21.8839 25.2841 21.9381 26.1616 21.8115 26.7332C21.7683 26.9271 21.9842 27.0764 22.1452 26.9608C25.1033 24.8385 24.8991 20.4401 22.7263 18.6632L22.727 18.6625ZM22.4994 22.9364L22.0347 22.8391C21.9842 22.8281 21.933 22.85 21.9051 22.8932L21.6483 23.2928C21.5509 23.4436 21.3182 23.3887 21.2992 23.2101L21.2487 22.7381C21.2428 22.6868 21.207 22.6444 21.1572 22.6312L20.6976 22.5105C20.5242 22.4651 20.5044 22.2265 20.6683 22.1533L21.1016 21.9594C21.1484 21.9382 21.1777 21.8906 21.1748 21.8394L21.1477 21.3651C21.1374 21.1858 21.3585 21.0936 21.4785 21.2268L21.7968 21.5788C21.8312 21.6169 21.8854 21.6301 21.9337 21.611L22.3757 21.4383C22.5426 21.3732 22.6992 21.5547 22.6099 21.7098L22.3735 22.1211C22.3479 22.1658 22.3523 22.2214 22.3852 22.2609L22.686 22.6283C22.7994 22.7673 22.675 22.9715 22.5001 22.9349L22.4994 22.9364Z" fill="#F5F5F5"/>
<path d="M17.498 19.0216C16.3139 20.8388 14.7617 20.2335 14.3687 20.1823C13.9413 20.1259 11.9902 20.4348 11.6309 22.5505C11.4062 23.8737 10.5865 24.1921 10.0032 24.2447C9.80564 24.2623 9.7288 24.5133 9.88761 24.6319C12.8069 26.8076 16.9367 25.2788 17.9708 22.6691C18.6507 20.9544 18.4216 19.7534 18.1508 19.0889C18.0381 18.8116 17.6612 18.7713 17.4973 19.0223L17.498 19.0216ZM15.031 23.4814L14.567 23.3804C14.5165 23.3695 14.4653 23.3907 14.4367 23.4339L14.1777 23.832C14.0796 23.982 13.8476 23.9257 13.8293 23.7478L13.7817 23.2751C13.7766 23.2238 13.74 23.1814 13.691 23.1682L13.2328 23.0445C13.0594 22.9977 13.0411 22.7591 13.2058 22.6867L13.6405 22.4956C13.6873 22.4752 13.7166 22.4276 13.7144 22.3756L13.6902 21.9014C13.6807 21.7221 13.9025 21.6313 14.0218 21.7653L14.3379 22.1195C14.3723 22.1575 14.4265 22.1707 14.4748 22.1524L14.9183 21.9826C15.0859 21.9182 15.241 22.1012 15.1503 22.2556L14.911 22.6662C14.8853 22.7108 14.889 22.7664 14.9219 22.8059L15.2205 23.1755C15.3332 23.3153 15.2081 23.5188 15.0324 23.4807L15.031 23.4814Z" fill="#F5F5F5"/>
</svg>
