<svg width="36" height="36" viewBox="0 0 36 36" fill="none" xmlns="http://www.w3.org/2000/svg">
<g clip-path="url(#clip0_95_655)">
<path d="M0 0H36V12H0V0Z" fill="#22D3EE"/>
<path d="M0 12H36V24H0V12Z" fill="#F5F5F5"/>
<path d="M0 24H36V36H0V24Z" fill="#22D3EE"/>
<path d="M18.0949 15.7551L18.421 16.6549C18.4565 16.7524 18.5495 16.8182 18.656 16.821L19.6367 16.8448C20.0074 16.8537 20.1599 17.3113 19.8655 17.5301L19.0867 18.11C19.0023 18.1725 18.9668 18.2793 18.997 18.3787L19.277 19.293C19.383 19.6387 18.9826 19.9214 18.6776 19.7166L17.87 19.175C17.7827 19.1162 17.6671 19.1162 17.5798 19.175L16.7722 19.7166C16.4672 19.9214 16.0673 19.6387 16.1728 19.293L16.4528 18.3787C16.483 18.2798 16.4476 18.1729 16.3632 18.11L15.5834 17.5301C15.2889 17.3108 15.4419 16.8537 15.8121 16.8448L16.7929 16.821C16.8988 16.8187 16.9924 16.7524 17.0278 16.6549L17.354 15.7551C17.4772 15.415 17.9716 15.415 18.0949 15.7551Z" fill="#22D3EE"/>
<path d="M7.66633 13.2551L7.99244 14.1549C8.02793 14.2524 8.12097 14.3182 8.22743 14.321L9.20816 14.3448C9.57887 14.3537 9.73138 14.8113 9.43692 15.0301L8.65809 15.61C8.57368 15.6725 8.5382 15.7793 8.56841 15.8787L8.84848 16.793C8.95447 17.1387 8.55402 17.4214 8.24901 17.2166L7.44141 16.675C7.35413 16.6162 7.23855 16.6162 7.15127 16.675L6.34366 17.2166C6.03865 17.4214 5.63869 17.1387 5.7442 16.793L6.02427 15.8787C6.05448 15.7798 6.01899 15.6729 5.93459 15.61L5.1548 15.0301C4.86034 14.8108 5.01332 14.3537 5.38356 14.3448L6.36429 14.321C6.47027 14.3187 6.56379 14.2524 6.59928 14.1549L6.92539 13.2551C7.04864 12.915 7.54308 12.915 7.66633 13.2551Z" fill="#22D3EE"/>
<path d="M7.66633 18.9694L7.99244 19.8693C8.02793 19.9668 8.12097 20.0326 8.22743 20.0354L9.20816 20.0592C9.57887 20.068 9.73138 20.5257 9.43692 20.7445L8.65809 21.3243C8.57368 21.3868 8.5382 21.4937 8.56841 21.593L8.84848 22.5074C8.95447 22.853 8.55402 23.1357 8.24901 22.9309L7.44141 22.3893C7.35413 22.3306 7.23855 22.3306 7.15127 22.3893L6.34366 22.9309C6.03865 23.1357 5.63869 22.853 5.7442 22.5074L6.02427 21.593C6.05448 21.4941 6.01899 21.3873 5.93459 21.3243L5.1548 20.7445C4.86034 20.5252 5.01332 20.068 5.38356 20.0592L6.36429 20.0354C6.47027 20.033 6.56379 19.9668 6.59928 19.8693L6.92539 18.9694C7.04864 18.6293 7.54308 18.6293 7.66633 18.9694Z" fill="#22D3EE"/>
<path d="M27.7827 13.2551L27.4565 14.1549C27.4211 14.2524 27.328 14.3182 27.2216 14.321L26.2408 14.3448C25.8701 14.3537 25.7176 14.8113 26.0121 15.0301L26.7909 15.61C26.8753 15.6725 26.9108 15.7793 26.8806 15.8787L26.6005 16.793C26.4945 17.1387 26.895 17.4214 27.2 17.2166L28.0076 16.675C28.0949 16.6162 28.2104 16.6162 28.2977 16.675L29.1053 17.2166C29.4103 17.4214 29.8103 17.1387 29.7048 16.793L29.4247 15.8787C29.3945 15.7798 29.43 15.6729 29.5144 15.61L30.2942 15.0301C30.5886 14.8108 30.4357 14.3537 30.0654 14.3448L29.0847 14.321C28.9787 14.3187 28.8852 14.2524 28.8497 14.1549L28.5236 13.2551C28.4003 12.915 27.9059 12.915 27.7827 13.2551Z" fill="#22D3EE"/>
<path d="M27.7827 18.9694L27.4565 19.8693C27.4211 19.9668 27.328 20.0326 27.2216 20.0354L26.2408 20.0592C25.8701 20.068 25.7176 20.5257 26.0121 20.7445L26.7909 21.3243C26.8753 21.3868 26.9108 21.4937 26.8806 21.593L26.6005 22.5074C26.4945 22.853 26.895 23.1357 27.2 22.9309L28.0076 22.3893C28.0949 22.3306 28.2104 22.3306 28.2977 22.3893L29.1053 22.9309C29.4103 23.1357 29.8103 22.853 29.7048 22.5074L29.4247 21.593C29.3945 21.4941 29.43 21.3873 29.5144 21.3243L30.2942 20.7445C30.5886 20.5252 30.4357 20.068 30.0654 20.0592L29.0847 20.0354C28.9787 20.033 28.8852 19.9668 28.8497 19.8693L28.5236 18.9694C28.4003 18.6293 27.9059 18.6293 27.7827 18.9694Z" fill="#22D3EE"/>
</g>
<defs>
<clipPath id="clip0_95_655">
<rect width="36" height="36" rx="18" fill="white"/>
</clipPath>
</defs>
</svg>
