<svg width="36" height="36" viewBox="0 0 36 36" fill="none" xmlns="http://www.w3.org/2000/svg">
<g clip-path="url(#clip0_95_853)">
<path d="M0 0H36V12H0V0Z" fill="#EF4444"/>
<path d="M0 12H36V24H0V12Z" fill="#F5F5F5"/>
<path d="M0 24H36V36H0V24Z" fill="#1E3A8A"/>
<path d="M18.1708 29.2628C14.0726 29.2628 10.738 25.9291 10.738 21.8299V12.0581H25.6027V21.8299C25.6027 25.9281 22.2681 29.2628 18.1699 29.2628H18.1708Z" fill="#F5F5F5"/>
<path d="M24.8648 12.7958V21.8296C24.8648 25.5214 21.8617 28.5245 18.1699 28.5245C14.478 28.5245 11.476 25.5214 11.476 21.8296V12.7958H24.8648ZM26.3407 11.3198H10V21.8296C10 26.342 13.6584 30.0004 18.1709 30.0004C22.6833 30.0004 26.3417 26.342 26.3417 21.8296V11.3198H26.3407Z" fill="#F5F5F5"/>
<path d="M25.6028 12.0578V21.8296C25.6028 25.9278 22.2681 29.2625 18.1699 29.2625C14.0717 29.2625 10.738 25.9278 10.738 21.8296V12.0578H25.6028ZM26.3407 11.3198H10V21.8296C10 26.342 13.6584 30.0004 18.1709 30.0004C22.6833 30.0004 26.3417 26.342 26.3417 21.8296V11.3198H26.3407Z" fill="#EF4444"/>
<path d="M12.6301 8.20277C12.6301 7.47621 12.0414 6.88721 11.3151 6.88721C10.5888 6.88721 10 7.47621 10 8.20277V9.47799C10 10.2046 10.5888 10.7936 11.3151 10.7936C12.0414 10.7936 12.6301 10.2046 12.6301 9.47799V8.20277Z" fill="#93C5FD"/>
<path d="M16.0593 7.71058C16.0593 6.98402 15.4705 6.39502 14.7442 6.39502C14.0179 6.39502 13.4291 6.98402 13.4291 7.71058V8.9858C13.4291 9.71237 14.0179 10.3014 14.7442 10.3014C15.4705 10.3014 16.0593 9.71237 16.0593 8.9858V7.71058Z" fill="#3B82F6"/>
<path d="M19.4884 7.31556C19.4884 6.589 18.8996 6 18.1733 6C17.447 6 16.8582 6.589 16.8582 7.31556V8.59079C16.8582 9.31735 17.447 9.90635 18.1733 9.90635C18.8996 9.90635 19.4884 9.31735 19.4884 8.59079V7.31556Z" fill="#93C5FD"/>
<path d="M22.9185 7.71058C22.9185 6.98402 22.3297 6.39502 21.6034 6.39502C20.8771 6.39502 20.2884 6.98402 20.2884 7.71058V8.9858C20.2884 9.71237 20.8771 10.3014 21.6034 10.3014C22.3297 10.3014 22.9185 9.71237 22.9185 8.9858V7.71058Z" fill="#3B82F6"/>
<path d="M26.3477 8.20277C26.3477 7.47621 25.7589 6.88721 25.0326 6.88721C24.3063 6.88721 23.7175 7.47621 23.7175 8.20277V9.47799C23.7175 10.2046 24.3063 10.7936 25.0326 10.7936C25.7589 10.7936 26.3477 10.2046 26.3477 9.47799V8.20277Z" fill="#93C5FD"/>
<path d="M24.8677 12.7959V21.8297C24.8677 23.4906 24.2586 25.0138 23.252 26.1847C22.4983 27.0644 21.5192 27.7463 20.4054 28.1399C19.7078 28.3888 18.956 28.5236 18.1738 28.5236C17.3915 28.5236 16.6398 28.3888 15.9421 28.1409C14.8283 27.7463 13.8492 27.0644 13.0945 26.1847C12.0879 25.0138 11.4789 23.4906 11.4789 21.8297V12.7959H24.8677Z" fill="#F5F5F5"/>
<path d="M15.9428 12.7959H11.4795V17.2592H15.9428V12.7959Z" fill="#EF4444"/>
<path d="M24.8688 12.7959H20.4055V17.2592H24.8688V12.7959Z" fill="#EF4444"/>
<path d="M20.4065 17.2598H15.9432V21.723H20.4065V17.2598Z" fill="#EF4444"/>
<path d="M15.9421 21.7227V26.1859H13.0945C12.0879 25.015 11.4789 23.4918 11.4789 21.8309V21.7227H15.9421Z" fill="#EF4444"/>
<path d="M24.8678 21.7227V21.8309C24.8678 23.4918 24.2587 25.015 23.2521 26.1859H20.4055V21.7227H24.8678Z" fill="#EF4444"/>
<path d="M20.4054 26.1826V28.1378C19.7078 28.3867 18.9561 28.5215 18.1738 28.5215C17.3916 28.5215 16.6398 28.3867 15.9422 28.1387V26.1826H20.4054Z" fill="#EF4444"/>
</g>
<defs>
<clipPath id="clip0_95_853">
<rect width="36" height="36" rx="18" fill="white"/>
</clipPath>
</defs>
</svg>
