<svg width="36" height="36" viewBox="0 0 36 36" fill="none" xmlns="http://www.w3.org/2000/svg">
<g clip-path="url(#clip0_95_832)">
<path d="M0 0H36V18H0V0Z" fill="#1E3A8A"/>
<path d="M0 18H36V36H0V18Z" fill="#EF4444"/>
<path d="M23.6172 12.7329H13.3722C12.4666 12.7329 11.7326 13.467 11.7326 14.3725V21.6282C11.7326 22.5337 12.4666 23.2678 13.3722 23.2678H23.6172C24.5227 23.2678 25.2568 22.5337 25.2568 21.6282V14.3725C25.2568 13.467 24.5227 12.7329 23.6172 12.7329Z" fill="#F5F5F5"/>
<path d="M23.6172 13.4651C24.1181 13.4651 24.5242 13.8713 24.5242 14.3722V21.6278C24.5242 22.1287 24.1181 22.5349 23.6172 22.5349H13.3722C12.8713 22.5349 12.4651 22.1287 12.4651 21.6278V14.3722C12.4651 13.8713 12.8713 13.4651 13.3722 13.4651H23.6172ZM23.6172 12H13.3722C12.0641 12 11 13.0641 11 14.3722V21.6278C11 22.9359 12.0641 24 13.3722 24H23.6172C24.9253 24 25.9894 22.9359 25.9894 21.6278V14.3722C25.9894 13.0641 24.9253 12 23.6172 12Z" fill="#F5F5F5"/>
<path d="M12.4651 20.0308H24.5237V21.6346C24.5237 22.131 24.1208 22.5339 23.6245 22.5339H13.3644C12.8681 22.5339 12.4651 22.131 12.4651 21.6346V20.0308Z" fill="#22C55E"/>
<path d="M19.1815 15.0903H17.8079V19.826H19.1815V15.0903Z" fill="#FBBF24"/>
<path d="M19.2579 13.8096L19.4887 13.6393C20.1361 13.1608 21.0564 13.74 20.8687 14.5225C20.8238 14.7107 20.7189 14.8911 20.545 15.0367L19.3284 16.0554C18.8458 16.4597 18.143 16.4597 17.6604 16.0554L16.4439 15.0367C16.2699 14.8911 16.1651 14.7107 16.1202 14.5225C15.933 13.7396 16.8528 13.1608 17.5002 13.6393L17.731 13.8096C18.1847 14.1448 18.8037 14.1448 19.2575 13.8096H19.2579Z" fill="#22C55E"/>
<path d="M13.7146 16.7929L17.405 20.0611C17.785 20.3976 17.5469 21.0258 17.0391 21.0258H13.4633C12.912 21.0258 12.4651 20.5789 12.4651 20.0277V17.3552C12.4651 16.7078 13.2298 16.3634 13.7146 16.7929Z" fill="#1E3A8A"/>
<path d="M23.2747 16.7929L19.5844 20.0611C19.2044 20.3976 19.4425 21.0258 19.9502 21.0258H23.5265C24.0778 21.0258 24.5247 20.5789 24.5247 20.0277V17.3552C24.5247 16.7078 23.7601 16.3634 23.2752 16.7929H23.2747Z" fill="#1E3A8A"/>
<path d="M16.509 21.0258C16.509 19.9292 17.3981 19.04 18.4947 19.04C19.5913 19.04 20.4804 19.9292 20.4804 21.0258" fill="#EF4444"/>
</g>
<defs>
<clipPath id="clip0_95_832">
<rect width="36" height="36" rx="18" fill="white"/>
</clipPath>
</defs>
</svg>
