<svg width="36" height="36" viewBox="0 0 36 36" fill="none" xmlns="http://www.w3.org/2000/svg">
<g clip-path="url(#clip0_95_1045)">
<path d="M0 0H36V4.5H0V0Z" fill="#F5F5F5"/>
<path d="M0 4.5H36V9H0V4.5Z" fill="#3B82F6"/>
<path d="M0 9H36V27H0V9Z" fill="#F5F5F5"/>
<path d="M0 27H36V31.5H0V27Z" fill="#3B82F6"/>
<path d="M0 31.5H36V36H0V31.5Z" fill="#F5F5F5"/>
<path d="M22.8178 18.0007L24.2 15.6067C24.4489 15.1756 24.4489 14.6615 24.2 14.2304C23.9511 13.7993 23.5067 13.543 23.0089 13.543H20.2444L18.8844 11.1874C18.6356 10.7563 18.1911 10.5 17.6933 10.5C17.1956 10.5 16.7511 10.7578 16.5022 11.1874L15.1422 13.543H12.3778C11.88 13.543 11.4356 13.8007 11.1867 14.2304C10.9378 14.6615 10.9378 15.1756 11.1867 15.6052L12.5689 17.9993L11.1867 20.3948C10.9378 20.8259 10.9378 21.34 11.1867 21.7696C11.4356 22.2007 11.88 22.457 12.3778 22.457H15.1422L16.5022 24.8126C16.7511 25.2437 17.1956 25.5 17.6933 25.5C18.1911 25.5 18.6356 25.2422 18.8844 24.8126L20.2444 22.457H23.0089C23.5067 22.457 23.9511 22.1993 24.2 21.7696C24.4489 21.3385 24.4489 20.8244 24.2 20.3933L22.8178 17.9993V18.0007ZM22.8252 15.0244L21.963 16.5193L21.1007 15.0244H22.8267H22.8252ZM21.1067 18.0007L19.3881 20.977H15.9956L14.277 18.0007L15.9956 15.0244H19.3881L21.1067 18.0007ZM17.6933 12.0867L18.5333 13.543H16.8519L17.6919 12.0867H17.6933ZM12.5615 15.0244H14.2874L13.4252 16.5193L12.563 15.0244H12.5615ZM12.5615 20.9756L13.4237 19.4807L14.2859 20.9756H12.56H12.5615ZM17.6933 23.9133L16.8533 22.457H18.5348L17.6948 23.9133H17.6933ZM21.0993 20.9756L21.9615 19.4807L22.8237 20.9756H21.0978H21.0993Z" fill="#3B82F6"/>
</g>
<defs>
<clipPath id="clip0_95_1045">
<rect width="36" height="36" rx="18" fill="white"/>
</clipPath>
</defs>
</svg>
