<svg width="36" height="36" viewBox="0 0 36 36" fill="none" xmlns="http://www.w3.org/2000/svg">
<g clip-path="url(#clip0_95_1158)">
<path d="M0 0H36V12H0V0Z" fill="#FB923C"/>
<path d="M0 12H36V24H0V12Z" fill="#F5F5F5"/>
<path d="M0 24H36V36H0V24Z" fill="#22C55E"/>
<path fill-rule="evenodd" clip-rule="evenodd" d="M18 21.5714C19.9724 21.5714 21.5714 19.9724 21.5714 18C21.5714 16.0276 19.9724 14.4286 18 14.4286C16.0276 14.4286 14.4286 16.0276 14.4286 18C14.4286 19.9724 16.0276 21.5714 18 21.5714ZM18 23C20.7614 23 23 20.7614 23 18C23 15.2386 20.7614 13 18 13C15.2386 13 13 15.2386 13 18C13 20.7614 15.2386 23 18 23Z" fill="#3B82F6"/>
<path d="M19.7857 18.0001C19.7857 18.9863 18.9862 19.7858 18 19.7858C17.0138 19.7858 16.2143 18.9863 16.2143 18.0001C16.2143 17.0138 17.0138 16.2144 18 16.2144C18.9862 16.2144 19.7857 17.0138 19.7857 18.0001Z" fill="#3B82F6"/>
</g>
<defs>
<clipPath id="clip0_95_1158">
<rect width="36" height="36" rx="18" fill="white"/>
</clipPath>
</defs>
</svg>
