<svg width="36" height="36" viewBox="0 0 36 36" fill="none" xmlns="http://www.w3.org/2000/svg">
<g clip-path="url(#clip0_95_1188)">
<path d="M0 0H36V12H0V0Z" fill="#EF4444"/>
<path d="M0 12H36V24H0V12Z" fill="#F5F5F5"/>
<path d="M0 24H36V36H0V24Z" fill="#262626"/>
<g clip-path="url(#clip1_95_1188)">
<path d="M12.5877 17.5687H9.90502L11.9071 15.5666C12.2308 15.2429 12.2308 14.7173 11.9071 14.3927C11.5825 14.069 11.0578 14.069 10.7331 14.3927L7.95551 17.1703C7.60968 17.5161 7.50732 18.0316 7.69453 18.4844C7.88173 18.9372 8.31885 19.2286 8.80853 19.2286H12.5886C12.8948 19.2286 13.1447 19.4776 13.1447 19.7847C13.1447 20.0918 12.8957 20.3408 12.5886 20.3408H2.82997C2.37164 20.3408 2 20.7124 2 21.1708C2 21.6291 2.37164 22.0007 2.82997 22.0007H12.5877C13.8096 22.0007 14.8037 21.0066 14.8037 19.7847C14.8037 18.5628 13.8096 17.5687 12.5877 17.5687Z" fill="#22C55E"/>
<path d="M17.7455 20.3401H17.2733C17.1036 20.3401 16.9653 20.2018 16.9653 20.0321V14.9804C16.9653 14.522 16.5937 14.1504 16.1353 14.1504C15.677 14.1504 15.3054 14.522 15.3054 14.9804V20.0321C15.3054 21.1175 16.1879 22.0001 17.2733 22.0001H17.7455C18.2038 22.0001 18.5754 21.6284 18.5754 21.1701C18.5754 20.7118 18.2038 20.3401 17.7455 20.3401Z" fill="#22C55E"/>
<path d="M24.5079 15.0376C24.0496 15.0376 23.6779 15.4092 23.6779 15.8676V20.1438H23.3874V16.8792C23.3874 16.4209 23.0158 16.0492 22.5575 16.0492C22.0991 16.0492 21.7275 16.4209 21.7275 16.8792V20.1438H21.437V18.9403C21.437 18.482 21.0654 18.1103 20.607 18.1103C20.1487 18.1103 19.7771 18.482 19.7771 18.9403V20.5615C19.7771 21.2467 20.3341 21.8037 21.0193 21.8037H24.0938C24.779 21.8037 25.336 21.2467 25.336 20.5615V15.8676C25.336 15.4092 24.9644 15.0376 24.5061 15.0376H24.5079Z" fill="#22C55E"/>
<path d="M21.2646 15.6599H21.935C22.3933 15.6599 22.765 15.2883 22.765 14.83C22.765 14.3716 22.3933 14 21.935 14H21.2646C20.8062 14 20.4346 14.3716 20.4346 14.83C20.4346 15.2883 20.8062 15.6599 21.2646 15.6599Z" fill="#22C55E"/>
<path d="M28.4991 20.3401H28.027C27.8573 20.3401 27.719 20.2018 27.719 20.0321V14.9804C27.719 14.522 27.3473 14.1504 26.889 14.1504C26.4307 14.1504 26.059 14.522 26.059 14.9804V20.0321C26.059 21.1175 26.9425 22.0001 28.027 22.0001H28.4991C28.9575 22.0001 29.3291 21.6284 29.3291 21.1701C29.3291 20.7118 28.9575 20.3401 28.4991 20.3401Z" fill="#22C55E"/>
</g>
</g>
<defs>
<clipPath id="clip0_95_1188">
<rect width="36" height="36" rx="18" fill="white"/>
</clipPath>
<clipPath id="clip1_95_1188">
<rect width="27.3291" height="8" fill="white" transform="translate(2 14)"/>
</clipPath>
</defs>
</svg>
