<svg width="36" height="36" viewBox="0 0 36 36" fill="none" xmlns="http://www.w3.org/2000/svg">
<g clip-path="url(#clip0_95_1221)">
<path d="M0 0H36V12H0V0Z" fill="#22C55E"/>
<path d="M0 12H36V24H0V12Z" fill="#F5F5F5"/>
<path d="M0 24H36V36H0V24Z" fill="#EF4444"/>
<path d="M0 10H36V11H0V10Z" fill="#F5F5F5"/>
<path d="M0 25H36V26H0V25Z" fill="#F5F5F5"/>
<path d="M14.5542 20.5638C13.9075 19.9424 13.5673 18.8567 13.6662 17.7311C13.765 16.6055 14.2899 15.5964 15.0354 15.0976C15.299 14.9214 15.3695 14.5643 15.1933 14.3007C15.017 14.0372 14.66 13.9667 14.3964 14.1429C13.3536 14.8409 12.6525 16.145 12.5222 17.6307C12.3912 19.1164 12.8532 20.5224 13.7581 21.3929C13.8692 21.5001 14.0133 21.553 14.1566 21.553C14.3075 21.553 14.4585 21.494 14.5711 21.3768C14.791 21.1477 14.7841 20.7845 14.555 20.5646L14.5542 20.5638Z" fill="#EF4444"/>
<path d="M23.4638 17.6306C23.3328 16.1449 22.6325 14.8408 21.5896 14.1428C21.3261 13.9658 20.969 14.037 20.7928 14.3006C20.6165 14.5642 20.687 14.9212 20.9506 15.0975C21.6961 15.5963 22.2202 16.6054 22.3199 17.731C22.4187 18.8565 22.0785 19.9415 21.4318 20.5637C21.2027 20.7836 21.1958 21.1475 21.4157 21.3759C21.5283 21.4931 21.6793 21.5521 21.8302 21.5521C21.9812 21.5521 22.1168 21.4984 22.2287 21.3919C23.1336 20.5223 23.5956 19.1155 23.4646 17.6298L23.4638 17.6306Z" fill="#EF4444"/>
<path d="M20.8027 21.3508H20.2947C20.9606 20.5662 21.3782 19.4476 21.3782 18.2063C21.3782 16.893 20.9184 15.6716 20.1162 14.8556C19.894 14.6296 19.5301 14.6257 19.3033 14.848C19.0765 15.0702 19.0734 15.4341 19.2956 15.6609C19.8795 16.2555 20.2281 17.2071 20.2281 18.2071C20.2281 19.6613 19.5224 20.888 18.5677 21.2459V15.2579C18.5677 14.9407 18.3102 14.6832 17.993 14.6832C17.6758 14.6832 17.4184 14.9407 17.4184 15.2579V21.2451C16.4636 20.8873 15.758 19.6606 15.758 18.2063C15.758 17.2071 16.1066 16.2555 16.6904 15.6601C16.9127 15.4333 16.9096 15.0702 16.6828 14.8472C16.4568 14.625 16.0928 14.628 15.8698 14.8548C15.0676 15.6716 14.6079 16.893 14.6079 18.2055C14.6079 19.4468 15.0255 20.5655 15.6913 21.3501H15.1833C14.8661 21.3501 14.6086 21.6075 14.6086 21.9247C14.6086 22.242 14.8661 22.4994 15.1833 22.4994H20.8027C21.12 22.4994 21.3774 22.242 21.3774 21.9247C21.3774 21.6075 21.12 21.3501 20.8027 21.3501V21.3508Z" fill="#EF4444"/>
<path d="M17.4038 14.6493H18.5815C18.8987 14.6493 19.1561 14.3919 19.1561 14.0747C19.1561 13.7574 18.8987 13.5 18.5815 13.5H17.4038C17.0866 13.5 16.8291 13.7574 16.8291 14.0747C16.8291 14.3919 17.0866 14.6493 17.4038 14.6493Z" fill="#EF4444"/>
</g>
<defs>
<clipPath id="clip0_95_1221">
<rect width="36" height="36" rx="18" fill="white"/>
</clipPath>
</defs>
</svg>
