<svg width="36" height="36" viewBox="0 0 36 36" fill="none" xmlns="http://www.w3.org/2000/svg">
<g clip-path="url(#clip0_97_76)">
<path d="M0 0H36V18H0V0Z" fill="#262626"/>
<path d="M0 18H36V36H0V18Z" fill="#22C55E"/>
<path d="M0 12H36V24H0V12Z" fill="#EF4444"/>
<path fill-rule="evenodd" clip-rule="evenodd" d="M-2.5 9.5H38.5V26.5H-2.5V9.5ZM0 12V24H36V12H0Z" fill="#F5F5F5"/>
<path d="M18.6173 16.9347L23.8312 7.87599L24.3103 8.15171C25.0667 8.5866 26.0104 8.03998 26.0096 7.16779L26.0072 5.65011L26.0048 4.13242C26.004 3.26023 25.0587 2.71602 24.303 3.15332L22.9895 3.91377L21.676 4.67422C20.9212 5.11152 20.9228 6.20236 21.6784 6.63724L22.1575 6.91297L17.5032 14.9998L12.8505 6.91458L13.3296 6.63885C14.086 6.20396 14.0876 5.11313 13.332 4.67583L12.0185 3.91538L10.7058 3.15413C9.95094 2.71683 9.0056 3.26104 9.00399 4.13322L9.00158 5.65091L8.99997 7.16859C8.99917 8.04158 9.9429 8.58821 10.6993 8.15252L11.1784 7.87679L16.3923 16.9355L9.12859 29.5536C8.86252 30.0151 9.02168 30.6051 9.48309 30.8712C9.63502 30.9588 9.79981 30.9998 9.963 30.9998C10.2966 30.9998 10.6214 30.8262 10.7998 30.5159L17.5032 18.868L24.2066 30.5159C24.385 30.8262 24.7098 30.9998 25.0434 30.9998C25.2066 30.9998 25.3722 30.958 25.5233 30.8712C25.9847 30.6051 26.1439 30.0159 25.8778 29.5536L18.6149 16.9347H18.6173Z" fill="#F5F5F5"/>
<path d="M24.5603 18.5684C24.5603 25.3385 21.4011 30.8273 17.5048 30.8273C15.041 30.8273 12.873 28.6335 11.6117 25.3088C11.4855 24.9752 11.3682 24.6311 11.2604 24.2758C10.742 22.5716 10.4494 20.6295 10.4494 18.5684C10.4494 16.5073 10.742 14.5652 11.2604 12.861C11.3682 12.5057 11.4855 12.1617 11.6117 11.8281C12.873 8.5033 15.041 6.30957 17.5048 6.30957C21.4011 6.30957 24.5603 11.7983 24.5603 18.5684Z" fill="#EF4444"/>
<path d="M17.5048 20.015C18.3039 20.015 18.9518 19.3672 18.9518 18.568C18.9518 17.7689 18.3039 17.1211 17.5048 17.1211C16.7057 17.1211 16.0579 17.7689 16.0579 18.568C16.0579 19.3672 16.7057 20.015 17.5048 20.015Z" fill="#F5F5F5"/>
<path d="M13.2114 18.568C13.2114 20.9924 12.6359 23.2826 11.6117 25.3083C11.4855 24.9747 11.3682 24.6307 11.2604 24.2754C10.742 22.5712 10.4494 20.6291 10.4494 18.568C10.4494 16.5069 10.742 14.5648 11.2604 12.8606C11.3682 12.5053 11.4855 12.1612 11.6117 11.8276C12.6359 13.8534 13.2114 16.1436 13.2114 18.568Z" fill="#262626"/>
<path d="M18.7106 8.97874C18.7106 8.3128 18.1708 7.77295 17.5048 7.77295C16.8389 7.77295 16.299 8.3128 16.299 8.97874V14.732C16.299 15.3979 16.8389 15.9377 17.5048 15.9377C18.1708 15.9377 18.7106 15.3979 18.7106 14.732V8.97874Z" fill="#F5F5F5"/>
<path d="M16.2982 28.1575C16.2982 28.8234 16.8381 29.3633 17.504 29.3633C18.17 29.3633 18.7098 28.8234 18.7098 28.1575V22.4043C18.7098 21.7383 18.17 21.1985 17.504 21.1985C16.8381 21.1985 16.2982 21.7383 16.2982 22.4043V28.1575Z" fill="#F5F5F5"/>
<path d="M21.7982 18.568C21.7982 20.9924 22.3738 23.2826 23.3979 25.3083C23.5241 24.9747 23.6415 24.6307 23.7492 24.2754C24.2677 22.5712 24.5603 20.6291 24.5603 18.568C24.5603 16.5069 24.2677 14.5648 23.7492 12.8606C23.6415 12.5053 23.5241 12.1612 23.3979 11.8276C22.3738 13.8534 21.7982 16.1436 21.7982 18.568Z" fill="#262626"/>
</g>
<defs>
<clipPath id="clip0_97_76">
<rect width="36" height="36" rx="18" fill="white"/>
</clipPath>
</defs>
</svg>
