<svg width="36" height="36" viewBox="0 0 36 36" fill="none" xmlns="http://www.w3.org/2000/svg">
<rect width="36" height="36" rx="18" fill="#EF4444"/>
<path fill-rule="evenodd" clip-rule="evenodd" d="M27.5222 17.4407L24.1259 16.8926C23.6481 16.8185 23.4815 16.2037 23.863 15.8963L26.5333 13.7222C27.0333 13.3185 26.5778 12.5259 25.9778 12.7556L22.7556 13.9778C22.2963 14.1444 21.8481 13.7 22.0259 13.2444L23.2481 10.0222C23.4741 9.42222 22.6852 8.97037 22.2815 9.46667L20.1074 12.1407C19.8 12.5185 19.1926 12.3593 19.1111 11.8741L18.5593 8.47778C18.4593 7.84074 17.5444 7.84074 17.4407 8.47778L16.8926 11.8741C16.8185 12.3519 16.2037 12.5185 15.8963 12.1407L13.7222 9.46667C13.3185 8.97037 12.5259 9.42222 12.7556 10.0222L13.9778 13.2444C14.1444 13.7074 13.7 14.1519 13.2444 13.9778L10.0222 12.7556C9.42222 12.5259 8.97037 13.3185 9.46667 13.7222L12.1407 15.8963C12.5222 16.2037 12.3593 16.8111 11.8778 16.8926L8.47778 17.4407C7.84074 17.5444 7.84074 18.4593 8.47778 18.5593L11.8778 19.1111C12.3519 19.1815 12.5222 19.7963 12.1407 20.1037L9.46667 22.2815C8.97037 22.6815 9.42222 23.4741 10.0222 23.2481L13.2444 22.0222C13.7074 21.8556 14.1519 22.3037 13.9778 22.7556L12.7556 25.9778C12.5259 26.5778 13.3185 27.0333 13.7222 26.5333L15.8963 23.863C16.2037 23.4815 16.8111 23.6407 16.8926 24.1259L17.4407 27.5222C17.5444 28.1593 18.4593 28.1593 18.5593 27.5222L19.1111 24.1259C19.1852 23.6481 19.8 23.4815 20.1074 23.863L22.2815 26.5333C22.6852 27.0333 23.4741 26.5778 23.2481 25.9778L22.0259 22.7556C21.8556 22.2963 22.3037 21.8481 22.7556 22.0222L25.9778 23.2481C26.5778 23.4741 27.0333 22.6815 26.5333 22.2815L23.863 20.1037C23.4815 19.7963 23.6407 19.1889 24.1259 19.1111L27.5222 18.5593C28.1593 18.4593 28.1593 17.5444 27.5222 17.4407ZM18 22.4815C15.5259 22.4815 13.5185 20.4741 13.5185 18C13.5185 15.5259 15.5259 13.5185 18 13.5185C20.4741 13.5185 22.4815 15.5259 22.4815 18C22.4815 20.4741 20.4741 22.4815 18 22.4815Z" fill="#FBBF24"/>
<path fill-rule="evenodd" clip-rule="evenodd" d="M21.1444 21.1444C21.2852 21.0037 21.4148 20.8555 21.5333 20.6963C21.4037 20.863 21.2667 21.0185 21.1185 21.1667C21.1259 21.163 21.137 21.1518 21.1444 21.1444Z" fill="#FBBF24"/>
<path fill-rule="evenodd" clip-rule="evenodd" d="M17.0296 17.1331C16.6445 16.9739 16.2185 16.8887 15.7778 16.8887C15.4445 16.8887 15.1185 16.9368 14.8111 17.0331C14.7148 17.3405 14.6667 17.6627 14.6667 17.9998C14.6667 18.9924 15.1 19.8813 15.7889 20.4924C15.7815 20.4035 15.7778 20.3109 15.7778 20.222C15.7778 19.022 16.2519 17.9331 17.0296 17.1331Z" fill="#FBBF24"/>
<path fill-rule="evenodd" clip-rule="evenodd" d="M18 17.7393C17.3185 18.3467 16.8889 19.2356 16.8889 20.2207C16.8889 20.5578 16.937 20.88 17.0333 21.1874C17.3407 21.2837 17.6667 21.3319 18 21.3319C18.3333 21.3319 18.6593 21.2837 18.9667 21.1874C19.063 20.88 19.1111 20.5578 19.1111 20.2207C19.1111 19.2356 18.6815 18.3467 18 17.7393Z" fill="#FBBF24"/>
<path fill-rule="evenodd" clip-rule="evenodd" d="M18.0037 16.3717C18.6556 15.9939 19.4148 15.7791 20.2222 15.7791C20.3111 15.7791 20.4037 15.7828 20.4926 15.7902C19.8815 15.1013 18.9926 14.668 18 14.668C17.0074 14.668 16.1185 15.1013 15.5074 15.7902C15.5963 15.7828 15.6889 15.7791 15.7778 15.7791C16.5889 15.7791 17.3482 15.9939 18.0037 16.3717Z" fill="#FBBF24"/>
<path fill-rule="evenodd" clip-rule="evenodd" d="M18.9741 17.1331C19.7481 17.9331 20.2222 19.022 20.2222 20.222C20.2222 20.3109 20.2185 20.4035 20.2111 20.4924C20.9 19.8813 21.3333 18.9924 21.3333 17.9998C21.3333 17.6627 21.2852 17.3405 21.1889 17.0331C20.8815 16.9368 20.5556 16.8887 20.2222 16.8887C19.7815 16.8887 19.3593 16.9739 18.9741 17.1331Z" fill="#FBBF24"/>
</svg>
