<svg width="36" height="36" viewBox="0 0 36 36" fill="none" xmlns="http://www.w3.org/2000/svg">
<g clip-path="url(#clip0_97_140)">
<path d="M0 0H36V9H0V0Z" fill="#1E3A8A"/>
<path d="M0 9H36V27H0V9Z" fill="#EF4444"/>
<path d="M0 27H36V36H0V27Z" fill="#1E3A8A"/>
<path d="M26.1891 21.4443C25.8956 21.0412 25.7377 20.5559 25.7377 20.0576V18.1121C25.7377 17.1762 25.0505 16.401 24.1527 16.264C23.9905 16.2395 23.8679 16.1046 23.8679 15.9409V15.5638C23.8679 15.258 23.7871 14.9581 23.635 14.6934L23.0876 13.7452L22.8655 13.3601C22.6175 12.9304 21.9966 12.9304 21.7486 13.3601L21.5265 13.7452L20.9792 14.6934C20.8263 14.9581 20.7463 15.258 20.7463 15.5638V15.876C20.7463 16.0599 20.6121 16.2236 20.429 16.2416C20.2191 16.2618 20.0425 16.0974 20.0425 15.8912V15.059C20.0425 14.5276 19.9026 14.0062 19.6372 13.5462L18.9046 12.2778L18.3667 11.3461C18.0999 10.8846 17.4336 10.8846 17.1668 11.3461L16.6288 12.2778L15.8962 13.5462C15.6308 14.0062 15.4909 14.5283 15.4909 15.059V15.876C15.4909 16.0599 15.3568 16.2236 15.1737 16.2416C14.9638 16.2618 14.7872 16.0974 14.7872 15.8912V15.5638C14.7872 15.258 14.7064 14.9581 14.5542 14.6934L14.0069 13.7452L13.7848 13.3601C13.5368 12.9304 12.9159 12.9304 12.6679 13.3601L12.4458 13.7452L11.8985 14.6934C11.7456 14.9581 11.6655 15.258 11.6655 15.5638V15.9597C11.6655 16.1133 11.5509 16.2402 11.3987 16.2618C10.4923 16.3909 9.79576 17.1704 9.79576 18.1129V20.0584C9.79576 20.5566 9.63784 21.0419 9.34435 21.445L8.24974 22.9478C7.62815 23.8015 8.2382 25 9.29388 25H26.2403C27.2967 25 27.9067 23.8015 27.2844 22.9478L26.1898 21.445L26.1891 21.4443Z" fill="#F5F5F5"/>
</g>
<defs>
<clipPath id="clip0_97_140">
<rect width="36" height="36" rx="18" fill="white"/>
</clipPath>
</defs>
</svg>
