<svg width="36" height="36" viewBox="0 0 36 36" fill="none" xmlns="http://www.w3.org/2000/svg">
<g clip-path="url(#clip0_97_291)">
<rect width="36.01" height="36.01" rx="18.005" fill="#EF4444"/>
<path fill-rule="evenodd" clip-rule="evenodd" d="M18.49 9.91055L18.96 12.8505C19.03 13.2705 19.55 13.4105 19.82 13.0805L21.7 10.7705C22.05 10.3405 22.73 10.7305 22.54 11.2505L21.48 14.0305C21.33 14.4205 21.71 14.8105 22.11 14.6605L24.89 13.6005C25.41 13.4005 25.8 14.0905 25.37 14.4405L23.06 16.3205C22.73 16.5905 22.88 17.1205 23.29 17.1805L26.23 17.6505C26.78 17.7405 26.78 18.5305 26.23 18.6205L23.29 19.0905C22.87 19.1605 22.73 19.6805 23.06 19.9505L25.37 21.8305C25.8 22.1805 25.41 22.8605 24.89 22.6705L22.11 21.6105C21.72 21.4605 21.33 21.8405 21.48 22.2405L22.54 25.0205C22.74 25.5405 22.05 25.9305 21.7 25.5005L19.82 23.1905C19.55 22.8605 19.02 23.0105 18.96 23.4205L18.49 26.3605C18.4 26.9105 17.61 26.9105 17.52 26.3605L17.05 23.4205C16.98 23.0005 16.46 22.8605 16.19 23.1905L14.31 25.5005C13.96 25.9305 13.28 25.5405 13.47 25.0205L14.53 22.2405C14.68 21.8505 14.3 21.4605 13.9 21.6105L11.12 22.6705C10.6 22.8705 10.21 22.1805 10.64 21.8305L12.95 19.9505C13.28 19.6805 13.13 19.1505 12.72 19.0905L9.78 18.6205C9.23 18.5305 9.23 17.7405 9.78 17.6505L12.72 17.1805C13.14 17.1105 13.28 16.5905 12.95 16.3205L10.64 14.4405C10.21 14.0905 10.6 13.4105 11.12 13.6005L13.9 14.6605C14.29 14.8105 14.68 14.4305 14.53 14.0305L13.47 11.2505C13.27 10.7305 13.96 10.3405 14.31 10.7705L16.19 13.0805C16.46 13.4105 16.99 13.2605 17.05 12.8505L17.52 9.91055C17.61 9.36055 18.4 9.36055 18.49 9.91055Z" fill="#FBBF24"/>
<path d="M14.41 3.74023H21.61C22.41 3.74023 23.05 4.38023 23.05 5.18023C23.05 5.98023 22.41 6.62023 21.61 6.62023H14.41C13.61 6.62023 12.97 5.98023 12.97 5.18023C12.97 4.38023 13.61 3.74023 14.41 3.74023Z" fill="#FBBF24"/>
<path d="M36.01 17.0605V36.0105H0V17.0605C2.61 17.1305 4.01 18.5505 5.14 19.7005C6.22 20.8005 7.08 21.6705 8.87 21.6705C10.66 21.6705 11.52 20.8005 12.6 19.7005C13.76 18.5205 15.2 17.0605 17.94 17.0605C20.68 17.0605 22.12 18.5205 23.28 19.7005C24.36 20.8005 25.22 21.6705 27.01 21.6705C28.8 21.6705 29.66 20.8005 30.74 19.7005C31.89 18.5305 33.31 17.0905 36 17.0605H36.01Z" fill="#3B82F6"/>
<path d="M36.01 17.0605V19.3005C34.26 19.3205 33.42 20.1805 32.35 21.2705C31.19 22.4405 29.75 23.9105 27.01 23.9105C24.27 23.9105 22.83 22.4405 21.67 21.2705C20.59 20.1705 19.73 19.3005 17.94 19.3005C16.15 19.3005 15.29 20.1705 14.21 21.2705C13.05 22.4405 11.61 23.9105 8.87 23.9105C6.13 23.9105 4.7 22.4405 3.54 21.2705C2.5 20.2105 1.66 19.3605 0 19.3005V17.0605C2.61 17.1305 4.01 18.5505 5.14 19.7005C6.22 20.8005 7.08 21.6705 8.87 21.6705C10.66 21.6705 11.52 20.8005 12.6 19.7005C13.76 18.5205 15.2 17.0605 17.94 17.0605C20.68 17.0605 22.12 18.5205 23.28 19.7005C24.36 20.8005 25.22 21.6705 27.01 21.6705C28.8 21.6705 29.66 20.8005 30.74 19.7005C31.89 18.5305 33.31 17.0905 36 17.0605H36.01Z" fill="#F5F5F5"/>
<path d="M36.01 22.9102V25.1602C34.26 25.1802 33.42 26.0402 32.35 27.1302C31.19 28.3102 29.75 29.7702 27.01 29.7702C24.27 29.7702 22.83 28.3002 21.67 27.1302C20.59 26.0302 19.73 25.1602 17.94 25.1602C16.15 25.1602 15.29 26.0302 14.21 27.1302C13.05 28.3102 11.61 29.7702 8.87 29.7702C6.13 29.7702 4.7 28.3002 3.54 27.1302C2.5 26.0702 1.66 25.2302 0 25.1702V22.9202C2.61 22.9902 4.01 24.4102 5.14 25.5602C6.22 26.6602 7.08 27.5302 8.87 27.5302C10.66 27.5302 11.52 26.6602 12.6 25.5602C13.76 24.3802 15.2 22.9202 17.94 22.9202C20.68 22.9202 22.12 24.3902 23.28 25.5602C24.36 26.6602 25.22 27.5302 27.01 27.5302C28.8 27.5302 29.66 26.6602 30.74 25.5602C31.89 24.3902 33.31 22.9502 36 22.9202L36.01 22.9102Z" fill="#F5F5F5"/>
<path d="M36.01 28.7705V31.0205C34.26 31.0405 33.42 31.9105 32.35 32.9905C31.19 34.1705 29.75 35.6305 27.01 35.6305C24.27 35.6305 22.83 34.1605 21.67 32.9905C20.59 31.8905 19.73 31.0205 17.94 31.0205C16.15 31.0205 15.29 31.8905 14.21 32.9905C13.05 34.1705 11.61 35.6305 8.87 35.6305C6.13 35.6305 4.7 34.1605 3.54 32.9905C2.5 31.9305 1.66 31.0805 0 31.0205V28.7705C2.61 28.8405 4.01 30.2605 5.14 31.4105C6.22 32.5205 7.08 33.3805 8.87 33.3805C10.66 33.3805 11.52 32.5105 12.6 31.4105C13.76 30.2305 15.2 28.7705 17.94 28.7705C20.68 28.7705 22.12 30.2405 23.28 31.4105C24.36 32.5205 25.22 33.3805 27.01 33.3805C28.8 33.3805 29.66 32.5105 30.74 31.4105C31.89 30.2405 33.31 28.8005 36 28.7705H36.01Z" fill="#F5F5F5"/>
</g>
<defs>
<clipPath id="clip0_97_291">
<rect width="36.01" height="36.01" rx="18.005" fill="white"/>
</clipPath>
</defs>
</svg>
