<svg width="36" height="36" viewBox="0 0 36 36" fill="none" xmlns="http://www.w3.org/2000/svg">
<path d="M36 0H0V7.2H36V0Z" fill="#1E3A8A"/>
<path d="M36 7.2002H0V9.0002H36V7.2002Z" fill="#F5F5F5"/>
<path d="M36 9H0V27H36V9Z" fill="#EF4444"/>
<path d="M36 27H0V28.8H36V27Z" fill="#F5F5F5"/>
<path d="M36 28.7998H0V35.9998H36V28.7998Z" fill="#1E3A8A"/>
<path d="M12.6 10.4404C8.41999 10.4404 5.03999 13.8204 5.03999 18.0004C5.03999 22.1804 8.41999 25.5604 12.6 25.5604C16.78 25.5604 20.16 22.1804 20.16 18.0004C20.16 13.8204 16.78 10.4404 12.6 10.4404ZM16.62 17.7704L15.09 18.9404C14.92 19.0704 14.85 19.2804 14.91 19.4804L15.46 21.3204C15.67 22.0204 14.88 22.5904 14.28 22.1704L12.7 21.0804C12.53 20.9604 12.3 20.9604 12.13 21.0804L10.55 22.1704C9.95 22.5804 9.17 22.0104 9.37 21.3204L9.92 19.4804C9.98 19.2804 9.91001 19.0704 9.74001 18.9404L8.20999 17.7704C7.62999 17.3304 7.93 16.4104 8.66 16.3904L10.58 16.3404C10.79 16.3404 10.97 16.2004 11.04 16.0104L11.68 14.2004C11.92 13.5104 12.89 13.5104 13.13 14.2004L13.77 16.0104C13.84 16.2104 14.02 16.3404 14.23 16.3404L16.15 16.3904C16.88 16.4104 17.18 17.3304 16.6 17.7704H16.62Z" fill="#F5F5F5"/>
</svg>
