<svg width="36" height="36" viewBox="0 0 36 36" fill="none" xmlns="http://www.w3.org/2000/svg">
<rect width="36" height="36" rx="18" fill="#F5F5F5"/>
<path fill-rule="evenodd" clip-rule="evenodd" d="M7.54 3.33988C7.26 3.14988 6.89 3.22989 6.7 3.50989L3.34 8.54989C3.27 8.64989 3.24 8.76989 3.24 8.88989C3.24 9.08989 3.34 9.27989 3.51 9.38989C3.79 9.57989 4.16 9.49989 4.35 9.21989L7.71 4.17988C7.78 4.07988 7.81 3.95988 7.81 3.83988C7.81 3.63988 7.72 3.44988 7.54 3.33988ZM9.05 4.34988C8.77 4.15988 8.4 4.23989 8.21 4.51989L4.85 9.55989C4.78 9.65989 4.75 9.77988 4.75 9.89988C4.75 10.0999 4.85 10.2899 5.02 10.3999C5.3 10.5899 5.67 10.5099 5.86 10.2299L9.22 5.18989C9.29 5.08989 9.32 4.96989 9.32 4.85989C9.32 4.65989 9.23 4.46989 9.05 4.35989V4.34988Z" fill="#262626"/>
<path fill-rule="evenodd" clip-rule="evenodd" d="M27.19 4.35036C26.91 4.54036 26.84 4.91036 27.02 5.19036L30.38 10.2304C30.57 10.5104 30.94 10.5804 31.22 10.4004C31.5 10.2104 31.57 9.84036 31.39 9.56036L28.03 4.52036C27.84 4.24036 27.47 4.17036 27.19 4.35036ZM30.89 6.62036C30.61 6.81036 30.54 7.18036 30.72 7.46036L31.9 9.22036C32.09 9.50036 32.46 9.57036 32.74 9.39036C33.02 9.20036 33.09 8.83036 32.91 8.55036L31.73 6.79036C31.54 6.51036 31.17 6.44036 30.89 6.62036ZM28.7 3.34036C28.42 3.53036 28.35 3.90036 28.53 4.18036L29.71 5.94036C29.9 6.22036 30.27 6.29036 30.55 6.11036C30.83 5.92036 30.9 5.55036 30.72 5.27036L29.54 3.51036C29.35 3.23036 28.98 3.16036 28.7 3.34036Z" fill="#262626"/>
<path fill-rule="evenodd" clip-rule="evenodd" d="M24.2 21.9603C24.2 21.9603 24.17 22.0003 24.16 22.0303C21.93 25.3703 17.42 26.2703 14.09 24.0403C10.77 21.8303 9.86 17.3603 12.03 14.0303C10.97 15.6903 11.43 17.9003 13.08 19.0003C14.75 20.1103 17 19.6603 18.12 17.9903C19.23 16.3203 21.49 15.8703 23.16 16.9803C24.81 18.0803 25.27 20.2903 24.21 21.9503L24.2 21.9603Z" fill="#3B82F6"/>
<path fill-rule="evenodd" clip-rule="evenodd" d="M24.2 21.9601C25.26 20.3001 24.8 18.0901 23.15 16.9901C21.48 15.8801 19.23 16.3301 18.11 18.0001C17 19.6701 14.74 20.1201 13.07 19.0101C11.42 17.9101 10.96 15.7001 12.02 14.0401C12.03 14.0201 12.05 14.0001 12.06 13.9701C14.29 10.6301 18.8 9.73013 22.13 11.9601C25.45 14.1701 26.36 18.6401 24.19 21.9701L24.2 21.9601Z" fill="#EF4444"/>
<path fill-rule="evenodd" clip-rule="evenodd" d="M30.37 25.7697L29.19 27.5297C29 27.8097 29.08 28.1797 29.36 28.3697C29.64 28.5597 30.01 28.4797 30.2 28.1997L31.38 26.4397C31.57 26.1597 31.49 25.7897 31.21 25.5997C30.93 25.4097 30.56 25.4897 30.37 25.7697ZM27.18 31.6496C27.46 31.8396 27.83 31.7596 28.02 31.4796L29.2 29.7196C29.39 29.4396 29.31 29.0696 29.03 28.8796C28.75 28.6896 28.38 28.7696 28.19 29.0496L27.01 30.8096C26.82 31.0896 26.9 31.4596 27.18 31.6496ZM31.88 26.7797L30.7 28.5397C30.51 28.8197 30.59 29.1896 30.87 29.3796C31.15 29.5696 31.52 29.4896 31.71 29.2096L32.89 27.4497C33.08 27.1697 33 26.7997 32.72 26.6097C32.44 26.4197 32.07 26.4997 31.88 26.7797ZM28.69 32.6596C28.97 32.8496 29.34 32.7697 29.53 32.4897L30.71 30.7296C30.9 30.4496 30.82 30.0796 30.54 29.8896C30.26 29.6996 29.89 29.7796 29.7 30.0596L28.52 31.8196C28.33 32.0996 28.41 32.4696 28.69 32.6596Z" fill="#262626"/>
<path fill-rule="evenodd" clip-rule="evenodd" d="M7.22 28.8799C6.94 29.0699 6.87 29.4399 7.05 29.7199L8.23 31.4799C8.42 31.7599 8.79 31.8299 9.07 31.6499C9.35 31.4599 9.42 31.0899 9.24 30.8099L8.06 29.0499C7.87 28.7699 7.5 28.6999 7.22 28.8799ZM5.04 25.6099C4.76 25.7999 4.69 26.1699 4.87 26.4499L6.05 28.2099C6.24 28.4899 6.61 28.5599 6.89 28.3799C7.17 28.1899 7.24 27.8199 7.06 27.5399L5.88 25.7799C5.69 25.4999 5.32 25.4299 5.04 25.6099ZM3.53 26.6099C3.25 26.7999 3.18 27.1699 3.36 27.4499L6.72 32.4899C6.91 32.7699 7.28 32.8399 7.56 32.6599C7.84 32.4699 7.91 32.0999 7.73 31.8199L4.37 26.7799C4.18 26.4999 3.81 26.4299 3.53 26.6099Z" fill="#262626"/>
</svg>
