<svg width="36" height="36" viewBox="0 0 36 36" fill="none" xmlns="http://www.w3.org/2000/svg">
<rect width="36" height="36" rx="18" fill="#22D3EE"/>
<path fill-rule="evenodd" clip-rule="evenodd" d="M5.74113 3.21123C6.02277 2.92959 6.47941 2.92959 6.76105 3.21123L8.29095 4.74112C8.57259 5.02277 8.57259 5.47941 8.29095 5.76105L6.76105 7.29094C6.47941 7.57259 6.02277 7.57259 5.74113 7.29094L4.21123 5.76105C3.92959 5.47941 3.92959 5.02277 4.21123 4.74112L5.74113 3.21123ZM4.21123 9.84069L5.74113 8.3108C6.02277 8.02915 6.47941 8.02915 6.76105 8.3108L8.29095 9.84069C8.57259 10.1223 8.57259 10.579 8.29095 10.8606L6.76105 12.3905C6.47941 12.6722 6.02277 12.6722 5.74113 12.3905L4.21123 10.8606C3.92959 10.579 3.92959 10.1223 4.21123 9.84069ZM5.74113 13.4104L4.21123 14.9403C3.92959 15.2219 3.92959 15.6785 4.21123 15.9602L5.74113 17.4901C6.02277 17.7717 6.47941 17.7717 6.76105 17.4901L8.29095 15.9602C8.57259 15.6785 8.57259 15.2219 8.29095 14.9403L6.76105 13.4104C6.47941 13.1287 6.02277 13.1287 5.74113 13.4104ZM4.21123 20.0398L5.74113 18.5099C6.02277 18.2283 6.47941 18.2283 6.76105 18.5099L8.29095 20.0398C8.57259 20.3215 8.57259 20.7781 8.29095 21.0597L6.76105 22.5896C6.47941 22.8713 6.02277 22.8713 5.74113 22.5896L4.21123 21.0597C3.92959 20.7781 3.92959 20.3215 4.21123 20.0398ZM5.74113 23.6104L4.21123 25.1403C3.92959 25.4219 3.92959 25.8786 4.21123 26.1602L5.74113 27.6901C6.02277 27.9718 6.47941 27.9718 6.76105 27.6901L8.29095 26.1602C8.57259 25.8786 8.57259 25.4219 8.29095 25.1403L6.76105 23.6104C6.47941 23.3288 6.02277 23.3288 5.74113 23.6104ZM4.21123 30.2389L5.74113 28.7091C6.02277 28.4274 6.47941 28.4274 6.76105 28.7091L8.29095 30.2389C8.57259 30.5206 8.57259 30.9772 8.29095 31.2589L6.76105 32.7888C6.47941 33.0704 6.02277 33.0704 5.74113 32.7888L4.21123 31.2589C3.92959 30.9772 3.92959 30.5206 4.21123 30.2389ZM5.23116 10.3507L6.25109 9.33073L7.27102 10.3507L6.25109 11.3706L5.23116 10.3507ZM5.23116 15.4502L6.25109 16.4701L7.27102 15.4502L6.25109 14.4303L5.23116 15.4502ZM5.23116 5.25109L6.25109 4.23116L7.27102 5.25109L6.25109 6.27102L5.23116 5.25109ZM5.23116 20.5498L6.25109 19.5299L7.27102 20.5498L6.25109 21.5697L5.23116 20.5498ZM6.25109 24.6303L5.23116 25.6503L6.25109 26.6702L7.27102 25.6503L6.25109 24.6303ZM5.23116 30.7489L6.25109 29.729L7.27102 30.7489L6.25109 31.7688L5.23116 30.7489Z" fill="#FBBF24"/>
<path fill-rule="evenodd" clip-rule="evenodd" d="M23.3921 11.3344L23.7765 13.7126C23.8329 14.0509 24.2583 14.1636 24.4735 13.8971L25.9958 12.0264C26.2777 11.6778 26.8312 11.9956 26.6723 12.4159L25.8164 14.6711C25.6934 14.9888 26.006 15.3015 26.3289 15.1836L28.5841 14.3277C29.0044 14.1688 29.3222 14.7223 28.9736 15.0042L27.1029 16.5265C26.8364 16.7417 26.9542 17.1722 27.2874 17.2235L29.6656 17.6079C30.1115 17.6797 30.1115 18.3203 29.6656 18.3921L27.2874 18.7765C26.9491 18.8329 26.8364 19.2583 27.1029 19.4735L28.9736 20.9958C29.3222 21.2777 29.0044 21.8312 28.5841 21.6723L26.3289 20.8164C26.0112 20.6934 25.6985 21.006 25.8164 21.3289L26.6723 23.5841C26.8312 24.0044 26.2777 24.3222 25.9958 23.9736L24.4735 22.1029C24.2583 21.8364 23.8277 21.9542 23.7765 22.2874L23.3921 24.6656C23.3203 25.1115 22.6797 25.1115 22.6079 24.6656L22.2235 22.2874C22.1671 21.9491 21.7417 21.8364 21.5265 22.1029L20.0042 23.9736C19.7223 24.3222 19.1688 24.0044 19.3277 23.5841L20.1836 21.3289C20.3066 21.0112 19.994 20.6985 19.6711 20.8164L17.4159 21.6723C16.9956 21.8312 16.6778 21.2777 17.0264 20.9958L18.8971 19.4735C19.1636 19.2583 19.0458 18.8277 18.7126 18.7765L16.3344 18.3921C15.8885 18.3203 15.8885 17.6797 16.3344 17.6079L18.7126 17.2235C19.0509 17.1671 19.1636 16.7417 18.8971 16.5265L17.0264 15.0042C16.6778 14.7223 16.9956 14.1688 17.4159 14.3277L19.6711 15.1836C19.9888 15.3066 20.3015 14.994 20.1836 14.6711L19.3277 12.4159C19.1688 11.9956 19.7223 11.6778 20.0042 12.0264L21.5265 13.8971C21.7417 14.1636 22.1722 14.0458 22.2235 13.7126L22.6079 11.3344C22.6797 10.8885 23.3203 10.8885 23.3921 11.3344Z" fill="#FBBF24"/>
</svg>
