<svg width="36" height="36" viewBox="0 0 36 36" fill="none" xmlns="http://www.w3.org/2000/svg">
<g clip-path="url(#clip0_97_652)">
<path d="M0 0H36V9H0V0Z" fill="#EF4444"/>
<path d="M0 9H36V27H0V9Z" fill="#F5F5F5"/>
<path d="M0 27H36V36H0V27Z" fill="#EF4444"/>
<path d="M21.5081 19.3038C22.2514 18.8783 22.5913 17.8932 22.1133 17.0651L20.5984 14.4411L19.0835 11.8171C18.454 10.7276 16.881 10.7276 16.2522 11.8171L14.7373 14.4411L13.2216 17.0644C12.7436 17.8925 13.0835 18.8783 13.8268 19.303L13.2216 20.3509C12.5921 21.4403 13.3786 22.803 14.6376 22.803H16.1784C16.1753 22.8328 16.1737 22.8634 16.1737 22.894V24.1185C16.1737 24.6052 16.5686 25 17.0552 25H18.2797C18.7664 25 19.1612 24.6052 19.1612 24.1185V22.894C19.1612 22.8634 19.1596 22.8328 19.1565 22.803H20.6973C21.9555 22.803 22.742 21.4403 22.1133 20.3509L21.5081 19.303V19.3038Z" fill="#22C55E"/>
</g>
<defs>
<clipPath id="clip0_97_652">
<rect width="36" height="36" rx="18" fill="white"/>
</clipPath>
</defs>
</svg>
