<svg width="36" height="36" viewBox="0 0 36 36" fill="none" xmlns="http://www.w3.org/2000/svg">
<g clip-path="url(#clip0_97_754)">
<path d="M0 0H36V18H0V0Z" fill="#1E3A8A"/>
<path d="M0 18H36V36H0V18Z" fill="#EF4444"/>
<path d="M16.8753 7.48233C16.8181 7.41884 16.7546 7.349 16.6911 7.28552C15.9801 6.57447 15.0341 6.18085 14.0311 6.18085C13.6692 6.18085 13.3137 6.23164 12.9708 6.33322C12.8185 6.28878 12.6661 6.25069 12.5137 6.23164V5.60947C12.5137 5.44441 12.4439 5.29204 12.336 5.17776C12.228 5.06349 12.0757 5 11.9043 5C11.5678 5 11.2948 5.27299 11.2948 5.60947V6.23164C11.1424 6.25704 10.99 6.28878 10.844 6.33322C10.5012 6.23164 10.1393 6.18085 9.77745 6.18085C8.68548 6.18085 7.65065 6.657 6.93325 7.47598C6.33648 8.16163 6.0127 9.03775 6.0127 9.94561C6.0127 10.2821 6.28569 10.5551 6.62217 10.5551H7.88555C7.94269 10.5551 7.99983 10.5487 8.05696 10.5487H15.7579C15.815 10.5487 15.8722 10.5487 15.9293 10.5551H17.1927C17.5292 10.5551 17.8022 10.2821 17.8022 9.94561C17.8022 9.03775 17.472 8.16163 16.8816 7.48233H16.8753ZM8.18394 9.33614H7.29513C7.39036 8.94887 7.58081 8.58699 7.84111 8.27591C8.15854 7.90769 8.57121 7.64739 9.02196 7.50772C8.57756 8.02831 8.29187 8.66318 8.17759 9.32979L8.18394 9.33614ZM11.2884 9.33614H9.42828C9.52351 8.94887 9.71397 8.58699 9.97426 8.27591C10.3234 7.87594 10.7805 7.5966 11.2821 7.47598V9.33614H11.2884ZM12.5074 9.33614V7.47598C12.9518 7.58391 13.3644 7.81246 13.6946 8.14894C13.739 8.19338 13.7771 8.23782 13.8152 8.28226C14.0818 8.58699 14.266 8.94887 14.3612 9.33614H12.501H12.5074ZM15.6119 9.33614C15.5039 8.66318 15.2119 8.02831 14.7675 7.50772C15.1611 7.62835 15.5293 7.8442 15.8277 8.14259C15.8722 8.18703 15.9103 8.23147 15.9484 8.27591C16.215 8.58065 16.3991 8.94252 16.4943 9.32979H15.6055L15.6119 9.33614Z" fill="#FBBF24"/>
<path d="M17.18 11.7812H6.60947C6.27287 11.7812 6 12.0541 6 12.3907C6 12.7273 6.27287 13.0002 6.60947 13.0002H17.18C17.5166 13.0002 17.7895 12.7273 17.7895 12.3907C17.7895 12.0541 17.5166 11.7812 17.18 11.7812Z" fill="#FBBF24"/>
</g>
<defs>
<clipPath id="clip0_97_754">
<rect width="36" height="36" rx="18" fill="white"/>
</clipPath>
</defs>
</svg>
