<svg width="36" height="36" viewBox="0 0 36 36" fill="none" xmlns="http://www.w3.org/2000/svg">
<rect width="36" height="36" rx="18" fill="#FBBF24"/>
<path d="M2.88 5.75988C2.88 4.16988 4.17 2.87988 5.76 2.87988H7.2V33.1199H5.76C4.17 33.1199 2.88 31.8299 2.88 30.2399V5.75988Z" fill="#14532D"/>
<path d="M7.2 2.87988H8.64C10.23 2.87988 11.52 4.16988 11.52 5.75988V30.2399C11.52 31.8299 10.23 33.1199 8.64 33.1199H7.2V2.87988Z" fill="#FB923C"/>
<path d="M30.24 2.87988H17.28C15.69 2.87988 14.4 4.16988 14.4 5.75988V30.2399C14.4 31.8299 15.69 33.1199 17.28 33.1199H30.24C31.83 33.1199 33.12 31.8299 33.12 30.2399V5.75988C33.12 4.16988 31.83 2.87988 30.24 2.87988ZM17.28 4.31988C17.88 4.31988 18.36 4.79988 18.36 5.39988C18.36 5.99988 17.88 6.47988 17.28 6.47988C16.68 6.47988 16.2 5.99988 16.2 5.39988C16.2 4.79988 16.68 4.31988 17.28 4.31988ZM17.28 31.6799C16.68 31.6799 16.2 31.1999 16.2 30.5999C16.2 29.9999 16.68 29.5199 17.28 29.5199C17.88 29.5199 18.36 29.9999 18.36 30.5999C18.36 31.1999 17.88 31.6799 17.28 31.6799ZM27.04 23.4799C27.04 22.7599 27.54 22.1499 28.22 21.9999C28.38 21.9599 28.51 21.8299 28.51 21.6599C28.51 21.3399 28.25 21.0799 27.93 21.0799H23.59C23.27 21.0799 23.01 21.3399 23.01 21.6599V23.2099C23.01 23.4999 22.77 23.7399 22.48 23.7399H20.04C19.88 23.7399 19.76 23.6099 19.76 23.4499C19.76 22.7399 20.27 22.1399 20.94 21.9999C21.1 21.9599 21.23 21.8299 21.23 21.6599C21.23 21.3399 20.97 21.0799 20.65 21.0799H18.37V23.4499C18.37 23.6199 18.23 23.7599 18.06 23.7599C17.89 23.7599 17.75 23.6199 17.75 23.4499V21.0699C17.48 21.0499 17.28 20.8299 17.28 20.5599V18.0999C17.28 17.9599 17.39 17.8399 17.52 17.8399C17.6 17.8399 17.68 17.8399 17.75 17.8599V13.2399C17.75 13.0699 17.89 12.9299 18.06 12.9299C18.23 12.9299 18.37 13.0699 18.37 13.2399V18.0999C18.64 18.2799 18.85 18.5299 18.97 18.8399C19.04 19.0299 19.25 19.1299 19.45 19.0799C19.64 19.0299 19.75 18.8499 19.75 18.6599V17.1899C19.75 16.4699 20.19 15.8599 20.82 15.5999C20.92 15.5599 20.98 15.4599 20.98 15.3599C20.98 15.2099 20.86 15.0899 20.71 15.0899H20.5C20.27 15.0899 20.09 14.8899 20.13 14.6499C20.16 14.4699 20.33 14.3399 20.52 14.3399H20.8C20.9 14.3399 20.98 14.2599 20.98 14.1599C20.98 14.0599 20.9 13.9799 20.8 13.9799H20.5C20.27 13.9799 20.09 13.7799 20.13 13.5399C20.16 13.3599 20.33 13.2299 20.52 13.2299H20.75C20.88 13.2299 20.98 13.1299 20.98 12.9999C20.98 12.5699 21.33 12.2199 21.76 12.2199H23.5C24.24 12.2199 24.84 12.8199 24.84 13.5599V14.1699C24.84 14.8799 25.41 15.4499 26.12 15.4499H29.2C29.37 15.4499 29.54 15.4999 29.68 15.5699V15.0899C29.68 14.9199 29.54 14.7799 29.37 14.7799H26.55C26.01 14.7799 25.57 14.3099 25.63 13.7599C25.68 13.2799 26.11 12.9199 26.6 12.9199H30C30.17 12.9199 30.31 13.0599 30.31 13.2299C30.31 13.3999 30.17 13.5399 30 13.5399H26.56C26.39 13.5399 26.25 13.6799 26.25 13.8499C26.25 14.0199 26.39 14.1599 26.56 14.1599H29.38C29.89 14.1599 30.31 14.5699 30.31 15.0799V17.4199C30.31 17.4199 30.31 17.4799 30.3 17.4999V23.1899C30.3 23.4799 30.06 23.7199 29.77 23.7199H27.33C27.18 23.7199 27.05 23.5999 27.05 23.4599L27.04 23.4799ZM30.6 31.6799C30 31.6799 29.52 31.1999 29.52 30.5999C29.52 29.9999 30 29.5199 30.6 29.5199C31.2 29.5199 31.68 29.9999 31.68 30.5999C31.68 31.1999 31.2 31.6799 30.6 31.6799ZM30.6 6.47988C30 6.47988 29.52 5.99988 29.52 5.39988C29.52 4.79988 30 4.31988 30.6 4.31988C31.2 4.31988 31.68 4.79988 31.68 5.39988C31.68 5.99988 31.2 6.47988 30.6 6.47988Z" fill="#713F12"/>
</svg>
