<svg width="36" height="36" viewBox="0 0 36 36" fill="none" xmlns="http://www.w3.org/2000/svg">
<g clip-path="url(#clip0_97_931)">
<path d="M0 0H36V12H0V0Z" fill="#3B82F6"/>
<path d="M0 12H36V24H0V12Z" fill="#F5F5F5"/>
<path d="M0 24H36V36H0V24Z" fill="#22C55E"/>
<path d="M22.0648 20.6795L20.5109 17.9875L20.4254 17.8392C20.8397 17.3282 21.0896 16.6786 21.0896 15.9693C21.0879 14.3299 19.7597 13 18.1187 13C16.4776 13 15.151 14.3299 15.151 15.9693C15.151 16.6786 15.4008 17.3282 15.8151 17.8392L15.7297 17.9875L14.1741 20.6795C13.7502 21.413 14.1354 22.3479 14.9511 22.572C17.0257 23.1427 19.2148 23.1427 21.2878 22.572C22.1035 22.3479 22.4888 21.413 22.0648 20.6795ZM19.9724 15.9693C19.9724 16.2482 19.908 16.5125 19.7967 16.7511L19.239 15.7839C19.1004 15.5421 18.9005 15.3712 18.678 15.2649V14.2009C19.4276 14.4379 19.9724 15.1407 19.9724 15.9677V15.9693ZM16.2665 15.9693C16.2665 15.1423 16.8113 14.4395 17.5609 14.2025V15.2665C17.3368 15.3729 17.1386 15.5437 16.9999 15.7855L16.4422 16.7527C16.331 16.5141 16.2665 16.2498 16.2665 15.9709V15.9693Z" fill="#262626"/>
</g>
<defs>
<clipPath id="clip0_97_931">
<rect width="36" height="36" rx="18" fill="white"/>
</clipPath>
</defs>
</svg>
