<svg width="36" height="36" viewBox="0 0 36 36" fill="none" xmlns="http://www.w3.org/2000/svg">
<g clip-path="url(#clip0_97_1073)">
<path d="M0 0H36V9H0V0Z" fill="#EF4444"/>
<path d="M0 9H36V27H0V9Z" fill="#262626"/>
<path d="M0 27H36V36H0V27Z" fill="#22C55E"/>
<path d="M22.1423 15.3984L22.9306 16.3182C23.0162 16.4178 23.1588 16.4541 23.2908 16.4098L24.5053 15.9997C24.9644 15.8445 25.3489 16.3182 25.0816 16.7089L24.3751 17.7436C24.2984 17.8554 24.3009 17.9977 24.3808 18.1019L25.1188 19.0594C25.3979 19.4214 25.028 19.9351 24.5652 19.8289L23.3401 19.5486C23.2076 19.518 23.0656 19.5696 22.9838 19.6782L22.2255 20.6805C21.9392 21.0594 21.3262 20.9034 21.3068 20.4469L21.2566 19.239C21.2511 19.1084 21.1615 18.9978 21.0307 18.9609L19.8232 18.6228C19.3671 18.4948 19.358 17.8851 19.8088 17.7091L21.0028 17.2426C21.132 17.1924 21.2183 17.0722 21.2198 16.9409L21.2325 15.7296C21.2372 15.2718 21.8444 15.0508 22.1423 15.3984Z" fill="#F5F5F5"/>
<path d="M18.9452 22.1715C18.9452 22.1715 18.9512 22.1715 18.9535 22.1715C19.1524 22.1715 19.2155 22.4404 19.0357 22.526C18.3986 22.83 17.6876 23 16.9374 23C14.2127 23 11.987 20.7352 12.0001 17.9747C12.0132 15.2142 14.2186 13 16.9374 13C17.6888 13 18.401 13.17 19.0381 13.474C19.2167 13.5596 19.1524 13.8285 18.9547 13.8285C18.9512 13.8285 18.9488 13.8285 18.9452 13.8285C16.6706 13.8285 14.826 15.6954 14.826 18C14.826 20.3046 16.6706 22.1715 18.9452 22.1715Z" fill="#F5F5F5"/>
</g>
<defs>
<clipPath id="clip0_97_1073">
<rect width="36" height="36" rx="18" fill="white"/>
</clipPath>
</defs>
</svg>
