<svg width="36" height="36" viewBox="0 0 36 36" fill="none" xmlns="http://www.w3.org/2000/svg">
<rect width="36" height="36" rx="18" fill="#EF4444"/>
<path d="M19.0518 13.5951L19.792 15.6949C19.8726 15.9224 20.0837 16.0758 20.3254 16.0824L22.5514 16.1379C23.3928 16.1586 23.7389 17.2264 23.0706 17.7369L21.3029 19.0899C21.1113 19.2358 21.0307 19.485 21.0993 19.7169L21.735 21.8503C21.9756 22.6569 21.0667 23.3166 20.3744 22.8387L18.5413 21.575C18.3432 21.4378 18.0809 21.4378 17.8828 21.575L16.0498 22.8387C15.3575 23.3166 14.4497 22.6569 14.6891 21.8503L15.3248 19.7169C15.3934 19.4861 15.3128 19.2369 15.1213 19.0899L13.3514 17.7369C12.683 17.2253 13.0302 16.1586 13.8706 16.1379L16.0966 16.0824C16.3371 16.0769 16.5494 15.9224 16.6299 15.6949L17.3701 13.5951C17.6499 12.8016 18.7721 12.8016 19.0518 13.5951Z" fill="#22C55E"/>
<path fill-rule="evenodd" clip-rule="evenodd" d="M19.792 15.6949L19.0518 13.5951C18.7721 12.8016 17.6499 12.8016 17.3701 13.5951L16.6299 15.6949C16.5494 15.9224 16.3371 16.0769 16.0966 16.0824L13.8706 16.1379C13.0302 16.1586 12.683 17.2253 13.3514 17.7369L15.1213 19.0899C15.3128 19.2369 15.3934 19.4861 15.3248 19.7169L14.6891 21.8503C14.4497 22.6569 15.3575 23.3166 16.0498 22.8387L17.8828 21.575C18.0809 21.4378 18.3432 21.4378 18.5413 21.575L20.3744 22.8387C21.0667 23.3166 21.9756 22.6569 21.735 21.8503L21.0993 19.7169C21.0307 19.485 21.1113 19.2358 21.3029 19.0899L23.0706 17.7369C23.7389 17.2264 23.3928 16.1586 22.5514 16.1379L20.3254 16.0824C20.0837 16.0758 19.8726 15.9224 19.792 15.6949ZM19.1096 20.7521C18.5694 20.3788 17.8547 20.3788 17.3146 20.7521C17.3142 20.7523 17.3139 20.7525 17.3136 20.7528L15.7354 21.8408L16.2832 20.0024C16.4697 19.3749 16.2506 18.6959 15.7299 18.2964L14.2039 17.1299L16.1192 17.0821C16.1197 17.0821 16.1202 17.0821 16.1207 17.0821M18.211 14.2177L18.8489 16.0273L18.8494 16.0286C19.0682 16.6467 19.6438 17.0643 20.2984 17.082L22.2184 17.1299L20.6971 18.2943C20.6967 18.2946 20.6963 18.2949 20.6959 18.2952C20.1713 18.6953 19.9554 19.3752 20.1404 20.0005L20.6887 21.8408L19.1105 20.7528C19.1102 20.7525 19.1099 20.7523 19.1096 20.7521" fill="#22C55E"/>
</svg>
