<svg width="36" height="36" viewBox="0 0 36 36" fill="none" xmlns="http://www.w3.org/2000/svg">
<g clip-path="url(#clip0_97_1199)">
<path d="M0 0H12V36H0V0Z" fill="#1E3A8A"/>
<path d="M12 0H24V36H12V0Z" fill="#FBBF24"/>
<path d="M24 0H36V36H24V0Z" fill="#EF4444"/>
<path d="M22.0036 12C21.4534 12 21.0072 12.4462 21.0072 12.9964V14.3075C21.0072 14.7739 20.6913 15.181 20.2393 15.2965C19.5116 15.4826 18.8037 14.9329 18.8037 14.1818V13.24V12.8037C18.8037 12.3599 18.4438 12 18 12H17.5752C17.2358 12 16.9539 12.2437 16.8931 12.5654C16.5874 12.6381 16.3594 12.9126 16.3594 13.2404H16.8405C17.0369 13.2404 17.1963 13.3999 17.1963 13.5963V14.1822C17.1963 14.9333 16.4884 15.4826 15.7607 15.2969C15.3087 15.1814 14.9928 14.7743 14.9928 14.3079V12.9968C14.9928 12.4466 14.5466 12.0004 13.9964 12.0004C13.4462 12 13 12.4462 13 12.9964V23.4677C13 24.0178 13.4462 24.464 13.9964 24.464C14.5466 24.464 14.9928 24.0178 14.9928 23.4677V18.3485C14.9928 18.21 15.1674 18.1533 15.2516 18.2635C15.2533 18.2655 15.2545 18.2672 15.2561 18.2692C15.4743 18.5515 15.5927 18.8979 15.5927 19.2549V20.6535C15.5927 20.9231 15.8034 21.154 16.073 21.1589C16.3425 21.1639 16.5714 20.9428 16.5714 20.6696V20.1687C16.5714 20.1042 16.6531 20.0763 16.6926 20.1272C17.0952 20.6478 17.1178 21.3685 16.7485 21.9133L16.4169 22.4023C16.1272 22.8296 16.2299 23.4097 16.6486 23.7113L17.442 24.2833C17.7752 24.5236 18.2248 24.5236 18.558 24.2833L19.3514 23.7113C19.7701 23.4093 19.8728 22.8292 19.5831 22.4023L19.2515 21.9133C18.8822 21.3685 18.9048 20.6478 19.3074 20.1272C19.3469 20.0763 19.4286 20.1042 19.4286 20.1687V20.6535C19.4286 20.9231 19.6394 21.154 19.9089 21.1589C20.1834 21.1639 20.4073 20.9428 20.4073 20.6696V19.2545C20.4073 18.8979 20.5257 18.5511 20.7439 18.2688C20.7439 18.2688 20.7467 18.2651 20.7484 18.263C20.8326 18.1529 21.0072 18.2096 21.0072 18.3481V23.4673C21.0072 24.0174 21.4534 24.4636 22.0036 24.4636C22.5538 24.4636 23 24.0174 23 23.4673V12.9964C23 12.4462 22.5538 12 22.0036 12Z" fill="#A16207"/>
<path d="M21.2 15.3243V17.9807H14.8V15.3243C14.8 14.8875 15.2223 14.5332 15.7432 14.5332H20.2569C20.7778 14.5332 21.2 14.8875 21.2 15.3243Z" fill="#EF4444"/>
<path d="M21.2 17.7334V18.7079C21.2 19.4055 20.8344 20.061 20.218 20.4747L18 21.4667L15.782 20.4747C15.1657 20.061 14.8 19.4055 14.8 18.7079V17.7334H21.2Z" fill="#1E3A8A"/>
<path fill-rule="evenodd" clip-rule="evenodd" d="M20.6445 15.3243C20.6445 15.2944 20.6314 15.2448 20.5668 15.1906C20.5009 15.1353 20.3931 15.0888 20.2569 15.0888H15.7432C15.607 15.0888 15.4992 15.1353 15.4333 15.1906C15.3687 15.2448 15.3556 15.2944 15.3556 15.3243V18.7076C15.3556 19.1924 15.603 19.6687 16.055 19.9879L18 20.8578L19.9451 19.9879C20.3971 19.6687 20.6445 19.1924 20.6445 18.7076V15.3243ZM20.218 20.4744L18 21.4664L15.7821 20.4744C15.1657 20.0607 14.8 19.4052 14.8 18.7076V15.3243C14.8 14.8875 15.2223 14.5332 15.7432 14.5332H20.2569C20.7778 14.5332 21.2 14.8875 21.2 15.3243V18.7076C21.2 19.4052 20.8344 20.0607 20.218 20.4744Z" fill="#FBBF24"/>
<path d="M18.2805 16.5601L18.4779 17.12C18.4994 17.1807 18.5557 17.2216 18.6201 17.2233L19.2137 17.2381C19.4381 17.2437 19.5304 17.5284 19.3522 17.6645L18.8808 18.0253C18.8297 18.0642 18.8082 18.1307 18.8265 18.1925L18.996 18.7615C19.0602 18.9765 18.8178 19.1525 18.6332 19.025L18.1444 18.688C18.0916 18.6514 18.0216 18.6514 17.9688 18.688L17.48 19.025C17.2954 19.1525 17.0533 18.9765 17.1171 18.7615L17.2866 18.1925C17.3049 18.131 17.2835 18.0645 17.2324 18.0253L16.7604 17.6645C16.5822 17.5281 16.6748 17.2437 16.8988 17.2381L17.4924 17.2233C17.5566 17.2219 17.6132 17.1807 17.6347 17.12L17.8321 16.5601C17.9067 16.3485 18.2059 16.3485 18.2805 16.5601Z" fill="#FBBF24"/>
</g>
<defs>
<clipPath id="clip0_97_1199">
<rect width="36" height="36" rx="18" fill="white"/>
</clipPath>
</defs>
</svg>
