<svg width="36" height="36" viewBox="0 0 36 36" fill="none" xmlns="http://www.w3.org/2000/svg">
<rect x="1.25" y="1.25" width="33.5" height="33.5" rx="16.75" fill="#EF4444"/>
<rect x="1.25" y="1.25" width="33.5" height="33.5" rx="16.75" stroke="#FBBF24" stroke-width="2.5"/>
<path d="M21.9386 19.8983C25.7473 19.0533 28.6037 15.6485 28.6037 11.5895C28.6037 10.4208 27.6513 9.47496 26.4808 9.48445C25.3215 9.49393 24.4018 10.4623 24.3935 11.6215C24.3834 12.9623 23.7572 14.1589 22.7842 14.9416C22.1864 15.4219 21.2976 14.9879 21.2976 14.2212V12.3183C21.2976 12.0348 21.5276 11.8048 21.8111 11.8048H22.5055C22.5055 11.331 22.1769 10.9355 21.7352 10.8305C21.6474 10.3662 21.2406 10.0146 20.7508 10.0146H20.1377C19.4973 10.0146 18.9778 10.534 18.9778 11.1744V12.8419C18.9778 13.2149 18.6754 13.5179 18.3018 13.5179C17.9282 13.5179 17.6258 13.2155 17.6258 12.8419V11.1744C17.6258 10.534 17.1064 10.0146 16.466 10.0146H15.8528C15.363 10.0146 14.9562 10.3662 14.8685 10.8305C14.4273 10.9355 14.0982 11.3316 14.0982 11.8048H14.7926C15.076 11.8048 15.3061 12.0348 15.3061 12.3183V14.2212C15.3061 14.9879 14.4172 15.4219 13.8195 14.9416C12.8464 14.1589 12.2202 12.9623 12.2102 11.6215C12.2018 10.4623 11.2815 9.49453 10.1229 9.48445C8.95232 9.47496 8 10.4208 8 11.5895C8 15.6485 10.8564 19.0533 14.6651 19.8983C15.1015 19.995 15.2545 20.5394 14.939 20.8554L13.864 21.9305C13.4471 22.3473 13.4471 23.0228 13.864 23.4396C14.0721 23.6483 14.3455 23.7527 14.6182 23.7527C14.891 23.7527 15.165 23.6483 15.3731 23.4396L16.0574 22.7553C16.3877 22.425 16.9629 22.6569 16.9558 23.1242C16.9492 23.5422 16.8241 23.9597 16.578 24.3226L16.0995 25.0282C15.6815 25.6449 15.8297 26.4822 16.4339 26.9174L17.579 27.7429C17.7954 27.8994 18.0474 27.9854 18.3018 28.0002C18.5562 27.9854 18.8082 27.8994 19.0247 27.7429L20.1697 26.9174C20.774 26.4822 20.9222 25.6449 20.5042 25.0282L20.0256 24.3226C19.7795 23.9597 19.6538 23.5422 19.6479 23.1242C19.6408 22.6569 20.216 22.425 20.5463 22.7553L21.2306 23.4396C21.4387 23.6483 21.7121 23.7527 21.9854 23.7527C22.2588 23.7527 22.5315 23.6483 22.7397 23.4396C23.1565 23.0228 23.1565 22.3473 22.7397 21.9305L21.6646 20.8554C21.3486 20.5394 21.5021 19.995 21.9386 19.8983Z" fill="#FBBF24"/>
<path d="M17.1337 9.48461H19.4706C19.8803 9.48461 20.2124 9.15254 20.2124 8.74279C20.2124 8.33304 19.8803 8.00098 19.4706 8.00098H17.1337C16.7239 8.00098 16.3918 8.33304 16.3918 8.74279C16.3918 9.15254 16.7239 9.48461 17.1337 9.48461Z" fill="#FBBF24"/>
<path d="M22.3333 15.4048V19.0007H14.3333V15.4048C14.3333 14.8136 14.8611 14.334 15.5123 14.334H21.1544C21.8055 14.334 22.3333 14.8136 22.3333 15.4048Z" fill="#3B82F6"/>
<path fill-rule="evenodd" clip-rule="evenodd" d="M21.7083 18.3757V15.4048C21.7083 15.2139 21.5182 14.959 21.1544 14.959H15.5123C15.1485 14.959 14.9583 15.2139 14.9583 15.4048V18.3757H21.7083ZM22.3333 15.4048C22.3333 14.8136 21.8055 14.334 21.1544 14.334H15.5123C14.8611 14.334 14.3333 14.8136 14.3333 15.4048V19.0007H22.3333V15.4048Z" fill="#FBBF24"/>
<path d="M22.3333 18.667V20.0592C22.3333 21.0557 21.8763 21.9922 21.1058 22.5831L18.3333 24.0003L15.5608 22.5831C14.7904 21.9922 14.3333 21.0557 14.3333 20.0592V18.667H22.3333Z" fill="#22C55E"/>
<path fill-rule="evenodd" clip-rule="evenodd" d="M21.7083 20.0592V19.292H14.9583V20.0592C14.9583 20.8475 15.3118 21.5826 15.8989 22.054L18.3333 23.2984L20.7677 22.054C21.3549 21.5826 21.7083 20.8475 21.7083 20.0592ZM21.1058 22.5831L18.3333 24.0003L15.5608 22.5831C14.7904 21.9922 14.3333 21.0557 14.3333 20.0592V18.667H22.3333V20.0592C22.3333 21.0557 21.8763 21.9922 21.1058 22.5831Z" fill="#FBBF24"/>
</svg>
