<svg width="36" height="36" viewBox="0 0 36 36" fill="none" xmlns="http://www.w3.org/2000/svg">
<g clip-path="url(#clip0_97_1403)">
<rect width="36" height="36" rx="18" fill="#EF4444"/>
<path d="M18 9.36C18.3 9.36 18.59 9.38 18.88 9.4L20.25 0H15.75L17.12 9.4C17.41 9.38 17.7 9.36 18 9.36Z" fill="#FBBF24"/>
<path d="M26.64 18.0004C26.64 18.5804 26.58 19.1404 26.47 19.6904L36 21.6004V14.4004L26.47 16.3104C26.58 16.8604 26.64 17.4204 26.64 18.0004Z" fill="#FBBF24"/>
<path d="M13.24 10.8L5.4 0H0L11.9 11.9C12.31 11.49 12.75 11.12 13.24 10.8Z" fill="#FBBF24"/>
<path d="M36 0H30.6L22.76 10.8C23.25 11.12 23.69 11.49 24.1 11.9L36 0Z" fill="#FBBF24"/>
<path d="M9.36 18.0004C9.36 17.4204 9.42 16.8604 9.53 16.3104L0 14.4004V21.6004L9.53 19.6904C9.42 19.1404 9.36 18.5804 9.36 18.0004Z" fill="#FBBF24"/>
<path d="M0 35.9996H5.4L13.24 25.1996C12.75 24.8796 12.31 24.5096 11.9 24.0996L0 35.9996Z" fill="#FBBF24"/>
<path d="M22.76 25.1996L30.6 35.9996H36L24.1 24.0996C23.69 24.5096 23.25 24.8796 22.76 25.1996Z" fill="#FBBF24"/>
<path d="M18 26.6396C17.7 26.6396 17.41 26.6196 17.12 26.5996L15.75 35.9996H20.25L18.88 26.5996C18.59 26.6196 18.3 26.6396 18 26.6396Z" fill="#FBBF24"/>
<path d="M18 24.4795C21.5788 24.4795 24.48 21.5783 24.48 17.9995C24.48 14.4207 21.5788 11.5195 18 11.5195C14.4212 11.5195 11.52 14.4207 11.52 17.9995C11.52 21.5783 14.4212 24.4795 18 24.4795Z" fill="#FBBF24"/>
</g>
<defs>
<clipPath id="clip0_97_1403">
<rect width="36" height="36" rx="18" fill="white"/>
</clipPath>
</defs>
</svg>
