<svg width="36" height="36" viewBox="0 0 36 36" fill="none" xmlns="http://www.w3.org/2000/svg">
<g clip-path="url(#clip0_97_1366)">
<path d="M0 0H36V12H0V0Z" fill="#FBBF24"/>
<path d="M0 12H36V24H0V12Z" fill="#22C55E"/>
<path d="M0 24H36V36H0V24Z" fill="#EF4444"/>
<path d="M19.8933 10.0713L21.2256 13.8508C21.3706 14.2602 21.7507 14.5365 22.1857 14.5483L26.1925 14.6482C27.707 14.6854 28.3301 16.6075 27.1271 17.5264L23.9452 19.9618C23.6003 20.2244 23.4553 20.6731 23.5788 21.0904L24.723 24.9306C25.156 26.3825 23.52 27.5698 22.2739 26.7097L18.9744 24.4349C18.6178 24.188 18.1456 24.188 17.789 24.4349L14.4896 26.7097C13.2434 27.5698 11.6094 26.3825 12.0404 24.9306L13.1847 21.0904C13.3081 20.675 13.1631 20.2263 12.8183 19.9618L9.63243 17.5264C8.42942 16.6055 9.05444 14.6854 10.567 14.6482L14.5738 14.5483C15.0068 14.5385 15.3889 14.2602 15.5339 13.8508L16.8662 10.0713C17.3697 8.64292 19.3898 8.64292 19.8933 10.0713Z" fill="#F5F5F5"/>
</g>
<defs>
<clipPath id="clip0_97_1366">
<rect width="36" height="36" rx="18" fill="white"/>
</clipPath>
</defs>
</svg>
