<svg width="36" height="36" viewBox="0 0 36 36" fill="none" xmlns="http://www.w3.org/2000/svg">
<g clip-path="url(#clip0_97_1486)">
<path d="M0 0H12V36H0V0Z" fill="#EF4444"/>
<path d="M12 0H24V36H12V0Z" fill="#1E3A8A"/>
<path d="M24 0H36V36H24V0Z" fill="#EF4444"/>
<path d="M4.01165 24.1904C4.01165 23.6349 3.56133 23.1846 3.00583 23.1846C2.45032 23.1846 2 23.6349 2 24.1904V30.7303C2 31.2858 2.45032 31.7361 3.00583 31.7361C3.56133 31.7361 4.01165 31.2858 4.01165 30.7303V24.1904Z" fill="#FBBF24"/>
<path d="M10 24.1904C10 23.6349 9.54968 23.1846 8.99418 23.1846C8.43867 23.1846 7.98835 23.6349 7.98835 24.1904V30.7303C7.98835 31.2858 8.43867 31.7361 8.99418 31.7361C9.54968 31.7361 10 31.2858 10 30.7303V24.1904Z" fill="#FBBF24"/>
<path d="M6.93266 29.7012H5.0669C4.66409 29.7012 4.33746 30.0278 4.33746 30.4306C4.33746 30.8334 4.66409 31.1601 5.0669 31.1601H6.93266C7.33548 31.1601 7.66211 30.8334 7.66211 30.4306C7.66211 30.0278 7.33548 29.7012 6.93266 29.7012Z" fill="#FBBF24"/>
<path d="M7.66256 27.7053C7.66256 26.7872 6.91831 26.043 6.00023 26.043C5.08216 26.043 4.33791 26.7872 4.33791 27.7053C4.33791 28.6234 5.08216 29.3676 6.00023 29.3676C6.91831 29.3676 7.66256 28.6234 7.66256 27.7053Z" fill="#FBBF24"/>
<path d="M7.49922 20.4994C7.49922 19.6713 6.8279 19 5.9998 19C5.17169 19 4.50038 19.6713 4.50038 20.4994C4.50038 21.3275 5.17169 21.9988 5.9998 21.9988C6.8279 21.9988 7.49922 21.3275 7.49922 20.4994Z" fill="#FBBF24"/>
<path d="M4.47201 22.9476L4.84484 23.2665L5.60468 23.9161C5.815 24.096 6.18459 24.096 6.39491 23.9161L7.15475 23.2665L7.52758 22.9476C7.83071 22.6886 7.58837 22.2793 7.13246 22.2793H4.86713C4.41122 22.2793 4.16888 22.6886 4.47201 22.9476Z" fill="#FBBF24"/>
<path d="M6.93266 24.249H5.06689C4.66408 24.249 4.33745 24.5757 4.33745 24.9785C4.33745 25.3813 4.66408 25.7079 5.06689 25.7079H6.93266C7.33547 25.7079 7.6621 25.3813 7.6621 24.9785C7.6621 24.5757 7.33547 24.249 6.93266 24.249Z" fill="#FBBF24"/>
</g>
<defs>
<clipPath id="clip0_97_1486">
<rect width="36" height="36" rx="18" fill="white"/>
</clipPath>
</defs>
</svg>
