<svg width="36" height="36" viewBox="0 0 36 36" fill="none" xmlns="http://www.w3.org/2000/svg">
<g clip-path="url(#clip0_97_1545)">
<path d="M0 0H36V5.14286H0V0Z" fill="#EF4444"/>
<path d="M0 5.14258H36V10.2854H0V5.14258Z" fill="#14532D"/>
<path d="M0 10.2861H36V15.429H0V10.2861Z" fill="#14532D"/>
<path d="M0 15.4287H36V20.5716H0V15.4287Z" fill="#14532D"/>
<path d="M0 20.5713H36V25.7141H0V20.5713Z" fill="#14532D"/>
<path d="M0 25.7139H36V30.8567H0V25.7139Z" fill="#14532D"/>
<path d="M0 30.8574H36V36.0003H0V30.8574Z" fill="#EF4444"/>
<path d="M28.5308 14.0435C28.5062 13.8269 28.1913 13.8209 28.1601 14.0368C27.4625 18.8588 23.3129 22.5639 18.2976 22.5639C13.2823 22.5639 9.13274 18.8588 8.43516 14.0368C8.40393 13.8209 8.08902 13.8269 8.06444 14.0435C8.02126 14.4281 8 14.8148 8 15.2028C8 20.8897 12.6107 25.5004 18.2976 25.5004C23.9846 25.5004 28.5952 20.8897 28.5952 15.2028C28.5959 14.8148 28.574 14.4281 28.5308 14.0435Z" fill="#FBBF24"/>
<path d="M18.7508 9.83608L19.1741 11.0218C19.2202 11.1503 19.341 11.237 19.4792 11.2406L20.7523 11.272C21.2335 11.2837 21.4315 11.8867 21.0492 12.175L20.0382 12.939C19.9286 13.0214 19.8826 13.1622 19.9218 13.2931L20.2854 14.4979C20.423 14.9533 19.9031 15.3258 19.5072 15.056L18.4588 14.3423C18.3455 14.2649 18.1955 14.2649 18.0822 14.3423L17.0338 15.056C16.6378 15.3258 16.1186 14.9533 16.2556 14.4979L16.6192 13.2931C16.6584 13.1628 16.6123 13.022 16.5028 12.939L15.4905 12.175C15.1082 11.8861 15.3068 11.2837 15.7874 11.272L17.0606 11.2406C17.1981 11.2376 17.3195 11.1503 17.3656 11.0218L17.7889 9.83608C17.9489 9.38797 18.5908 9.38797 18.7508 9.83608Z" fill="#FBBF24"/>
</g>
<defs>
<clipPath id="clip0_97_1545">
<rect width="36" height="36" rx="18" fill="white"/>
</clipPath>
</defs>
</svg>
