<svg width="36" height="36" viewBox="0 0 36 36" fill="none" xmlns="http://www.w3.org/2000/svg">
<g clip-path="url(#clip0_97_1633)">
<path d="M0 0H18V36H0V0Z" fill="#F5F5F5"/>
<path d="M18 0H36V36H18V0Z" fill="#EF4444"/>
<path d="M8.63947 13H7.36316C6.50526 13 5.80789 12.3026 5.80789 11.4447V10.1921H4.55526C3.69737 10.1921 3 9.49474 3 8.63684V7.36053C3 6.94474 3.16316 6.55263 3.45526 6.26053C3.65263 6.06316 3.89474 5.92632 4.16053 5.85789V5.80789H5.80526V4.55526C5.80526 3.69737 6.50263 3 7.36053 3H8.63684C9.05263 3 9.44474 3.16316 9.73684 3.45526C9.93421 3.65263 10.0711 3.89474 10.1395 4.16053H10.1895V5.80526H11.4421C12.3026 5.80526 13.0026 6.50263 13.0026 7.36053V8.63684C13.0026 9.49474 12.3053 10.1921 11.4474 10.1921H10.1947V11.4447C10.1947 12.3026 9.49737 13 8.63947 13ZM4.52368 6.59737C4.33158 6.60526 4.15263 6.68158 4.01579 6.81842C3.87105 6.96316 3.79211 7.15526 3.79211 7.36053V8.63684C3.79211 9.05789 4.13684 9.40263 4.55789 9.40263H5.83421C6.25526 9.40263 6.6 9.74737 6.6 10.1684V11.4447C6.6 11.8658 6.94474 12.2105 7.36579 12.2105H8.64211C9.06316 12.2105 9.40789 11.8658 9.40789 11.4447V10.1684C9.40789 9.74737 9.75263 9.40263 10.1737 9.40263H11.45C11.8711 9.40263 12.2158 9.05789 12.2158 8.63684V7.36053C12.2158 6.93947 11.8711 6.59474 11.45 6.59474H10.1711C9.75 6.59474 9.40526 6.25 9.40526 5.82895V4.52105C9.39737 4.32895 9.31842 4.15 9.18158 4.01316C9.03684 3.86842 8.84474 3.78947 8.63947 3.78947H7.36316C6.94211 3.78947 6.59737 4.13421 6.59737 4.55526V5.83158C6.59737 6.25263 6.25263 6.59737 5.83158 6.59737H4.52632H4.52368Z" fill="#EF4444"/>
<path d="M8.00262 10.6323C6.55262 10.6323 5.37104 9.45072 5.37104 8.00072C5.37104 6.55072 6.55262 5.36914 8.00262 5.36914C9.45262 5.36914 10.6342 6.55072 10.6342 8.00072C10.6342 9.45072 9.45262 10.6323 8.00262 10.6323ZM8.00262 6.15861C6.98683 6.15861 6.16051 6.98493 6.16051 8.00072C6.16051 9.01651 6.98683 9.84282 8.00262 9.84282C9.01841 9.84282 9.84472 9.01651 9.84472 8.00072C9.84472 6.98493 9.01841 6.15861 8.00262 6.15861Z" fill="#D4D4D4"/>
</g>
<defs>
<clipPath id="clip0_97_1633">
<rect width="36" height="36" rx="18" fill="white"/>
</clipPath>
</defs>
</svg>
