<svg width="36" height="36" viewBox="0 0 36 36" fill="none" xmlns="http://www.w3.org/2000/svg">
<rect x="3.5" y="3.5" width="29" height="29" rx="14.5" fill="#22C55E"/>
<rect x="3.5" y="3.5" width="29" height="29" rx="14.5" stroke="#DC2626" stroke-width="7"/>
<path d="M21.7786 22.2721C21.7786 22.2721 21.7853 22.2721 21.788 22.2721C22.0107 22.2721 22.0814 22.5733 21.88 22.6692C21.1664 23.0096 20.3702 23.2 19.5299 23.2C16.4782 23.2 13.9854 20.6634 14.0001 17.5716C14.0147 14.4799 16.4849 12 19.5299 12C20.3715 12 21.1691 12.1904 21.8827 12.5308C22.0827 12.6267 22.0107 12.9279 21.7893 12.9279C21.7853 12.9279 21.7826 12.9279 21.7786 12.9279C19.2311 12.9279 17.1651 15.0188 17.1651 17.6C17.1651 20.1812 19.2311 22.2721 21.7786 22.2721Z" fill="#F5F5F5"/>
</svg>
