<svg width="36" height="36" viewBox="0 0 36 36" fill="none" xmlns="http://www.w3.org/2000/svg">
<g clip-path="url(#clip0_97_1780)">
<path d="M0 0H12V36H0V0Z" fill="#22C55E"/>
<path d="M12 0H24V36H12V0Z" fill="#F5F5F5"/>
<path d="M24 0H36V36H24V0Z" fill="#EF4444"/>
<path d="M18.0001 22.1185C16.8612 22.1185 15.7804 21.7566 14.8737 21.0714C13.9981 20.4091 13.3426 19.468 13.0287 18.4209C12.9214 18.0638 13.1246 17.6878 13.4817 17.5805C13.8388 17.4731 14.2148 17.6763 14.3222 18.0334C14.8049 19.6436 16.3171 20.7683 18.0001 20.7683C19.6831 20.7683 21.1954 19.6436 21.6781 18.0334C21.7854 17.6763 22.1614 17.4738 22.5186 17.5805C22.8757 17.6878 23.0782 18.0638 22.9716 18.4209C22.6576 19.468 22.0021 20.4098 21.1265 21.0714C20.2205 21.7559 19.139 22.1185 18.0001 22.1185Z" fill="#22C55E"/>
<path d="M18.0005 19.6668C19.8415 19.6668 21.3339 18.1744 21.3339 16.3334C21.3339 14.4924 19.8415 13 18.0005 13C16.1595 13 14.667 14.4924 14.667 16.3334C14.667 18.1744 16.1595 19.6668 18.0005 19.6668Z" fill="#713F12"/>
</g>
<defs>
<clipPath id="clip0_97_1780">
<rect width="36" height="36" rx="18" fill="white"/>
</clipPath>
</defs>
</svg>
