<svg width="36" height="36" viewBox="0 0 36 36" fill="none" xmlns="http://www.w3.org/2000/svg">
<g clip-path="url(#clip0_97_1815)">
<path d="M0 0H36V2.57143H0V0Z" fill="#EF4444"/>
<path d="M0 2.57129H36V5.14272H0V2.57129Z" fill="#F5F5F5"/>
<path d="M0 5.14258H36V7.71401H0V5.14258Z" fill="#EF4444"/>
<path d="M0 7.71387H36V10.2853H0V7.71387Z" fill="#F5F5F5"/>
<path d="M0 10.2861H36V12.8576H0V10.2861Z" fill="#EF4444"/>
<path d="M0 12.8574H36V15.4289H0V12.8574Z" fill="#F5F5F5"/>
<path d="M0 15.4287H36V18.0001H0V15.4287Z" fill="#EF4444"/>
<path d="M0 18H36V20.5714H0V18Z" fill="#F5F5F5"/>
<path d="M0 20.5713H36V23.1427H0V20.5713Z" fill="#EF4444"/>
<path d="M0 23.1426H36V25.714H0V23.1426Z" fill="#F5F5F5"/>
<path d="M0 25.7139H36V28.2853H0V25.7139Z" fill="#EF4444"/>
<path d="M0 28.2861H36V30.8576H0V28.2861Z" fill="#F5F5F5"/>
<path d="M0 30.8574H36V33.4289H0V30.8574Z" fill="#EF4444"/>
<path d="M0 33.4287H36V36.0001H0V33.4287Z" fill="#F5F5F5"/>
<path d="M0 0H23V18.56C23 19.6646 22.1046 20.56 21 20.56H0V0Z" fill="#1E3A8A"/>
<path d="M12.5312 15.2861C12.5312 15.2861 12.5385 15.2861 12.5414 15.2861C12.7844 15.2861 12.8615 15.6088 12.6418 15.7115C11.8634 16.0762 10.9947 16.2803 10.0781 16.2803C6.74896 16.2803 4.02952 13.5625 4.04553 10.2499C4.06153 6.93729 6.75624 4.28027 10.0781 4.28027C10.9962 4.28027 11.8663 4.48433 12.6447 4.84901C12.863 4.95176 12.7844 5.27448 12.5429 5.27448C12.5385 5.27448 12.5356 5.27448 12.5312 5.27448C9.75213 5.27448 7.4983 7.51472 7.4983 10.2803C7.4983 13.0458 9.75213 15.2861 12.5312 15.2861Z" fill="#FBBF24"/>
<path fill-rule="evenodd" clip-rule="evenodd" d="M15.5219 6.81729L15.7216 8.0527C15.7508 8.22843 15.9718 8.28701 16.0837 8.14856L16.8744 7.17673C17.0209 6.99568 17.3084 7.16075 17.2259 7.37908L16.7812 8.5506C16.7173 8.71568 16.8798 8.87809 17.0475 8.81685L18.219 8.37221C18.4373 8.28967 18.6024 8.57722 18.4214 8.72366L17.4495 9.51444C17.3111 9.62626 17.3723 9.84992 17.5454 9.87654L18.7808 10.0762C19.0125 10.1135 19.0125 10.4463 18.7808 10.4836L17.5454 10.6833C17.3697 10.7126 17.3111 10.9336 17.4495 11.0454L18.4214 11.8362C18.6024 11.9826 18.4373 12.2702 18.219 12.1876L17.0475 11.743C16.8824 11.6791 16.72 11.8415 16.7812 12.0092L17.2259 13.1808C17.3084 13.3991 17.0209 13.5642 16.8744 13.3831L16.0837 12.4113C15.9718 12.2728 15.7482 12.3341 15.7216 12.5071L15.5219 13.7426C15.4846 13.9742 15.1518 13.9742 15.1145 13.7426L14.9148 12.5071C14.8855 12.3314 14.6645 12.2728 14.5527 12.4113L13.7619 13.3831C13.6155 13.5642 13.3279 13.3991 13.4105 13.1808L13.8551 12.0092C13.919 11.8442 13.7566 11.6817 13.5889 11.743L12.4173 12.1876C12.199 12.2702 12.0339 11.9826 12.215 11.8362L13.1868 11.0454C13.3253 10.9336 13.264 10.7099 13.091 10.6833L11.8555 10.4836C11.6239 10.4463 11.6239 10.1135 11.8555 10.0762L13.091 9.87654C13.2667 9.84726 13.3253 9.62626 13.1868 9.51444L12.215 8.72366C12.0339 8.57722 12.199 8.28967 12.4173 8.37221L13.5889 8.81685C13.7539 8.88075 13.9164 8.71834 13.8551 8.5506L13.4105 7.37908C13.3279 7.16075 13.6155 6.99568 13.7619 7.17673L14.5527 8.14856C14.6645 8.28701 14.8882 8.22577 14.9148 8.0527L15.1145 6.81729C15.1518 6.58564 15.4846 6.58564 15.5219 6.81729Z" fill="#FBBF24"/>
</g>
<defs>
<clipPath id="clip0_97_1815">
<rect width="36" height="36" rx="18" fill="white"/>
</clipPath>
</defs>
</svg>
