<svg width="36" height="36" viewBox="0 0 36 36" fill="none" xmlns="http://www.w3.org/2000/svg">
<g clip-path="url(#clip0_97_1888)">
<rect width="36" height="36" rx="18" fill="#93C5FD"/>
<path d="M0 0H36V18H0V0Z" fill="#22C55E"/>
<path d="M0 18H36V36H0V18Z" fill="#FBBF24"/>
<path d="M0 12H36V24H0V12Z" fill="#262626"/>
<path fill-rule="evenodd" clip-rule="evenodd" d="M-2.5 9.5H38.5V26.5H-2.5V9.5ZM0 12V24H36V12H0Z" fill="#F5F5F5"/>
<path d="M20.3 20.39C21.87 19.18 21.87 16.82 20.3 15.62L0 0V36L20.3 20.39Z" fill="#EF4444"/>
<path d="M9.05184 12.5951L9.79203 14.6949C9.87257 14.9224 10.0837 15.0758 10.3254 15.0824L12.5514 15.1379C13.3928 15.1586 13.7389 16.2264 13.0706 16.7369L11.3029 18.0899C11.1113 18.2358 11.0307 18.485 11.0993 18.7169L11.735 20.8503C11.9756 21.6569 11.0667 22.3166 10.3744 21.8387L8.54133 20.575C8.34323 20.4378 8.0809 20.4378 7.88279 20.575L6.04975 21.8387C5.35746 22.3166 4.44965 21.6569 4.68912 20.8503L5.32481 18.7169C5.39338 18.4861 5.31283 18.2369 5.12126 18.0899L3.35135 16.7369C2.68301 16.2253 3.03024 15.1586 3.87057 15.1379L6.09656 15.0824C6.33712 15.0769 6.54937 14.9224 6.62992 14.6949L7.37011 12.5951C7.64985 11.8016 8.7721 11.8016 9.05184 12.5951Z" fill="#FBBF24"/>
<path d="M10.811 19.7348H5.81403C5.29814 19.7348 4.91678 19.2545 5.03334 18.752L5.64066 16.136C5.7249 15.7729 6.04847 15.5156 6.42135 15.5156H10.2037C10.5766 15.5156 10.9001 15.7726 10.9844 16.136L11.5917 18.752C11.7082 19.2545 11.3269 19.7348 10.811 19.7348Z" fill="#F5F5F5"/>
<path d="M9.05107 17.0002L11.9094 14.142C12.1134 13.9379 12.1134 13.6071 11.9094 13.4031C11.7053 13.199 11.3745 13.199 11.1705 13.4031L8.31249 16.261L5.4542 13.4034C5.25046 13.1993 4.9197 13.1993 4.71563 13.4034C4.51156 13.6074 4.51156 13.9382 4.71563 14.1423L7.5736 17.0002L4.71563 19.8582C4.51156 20.0623 4.51156 20.393 4.71563 20.5971C4.8175 20.699 4.95137 20.7502 5.08492 20.7502C5.21846 20.7502 5.35233 20.6993 5.4542 20.5971L8.31217 17.7391L11.1701 20.5971C11.272 20.699 11.4059 20.7502 11.5394 20.7502C11.673 20.7502 11.8068 20.6993 11.9087 20.5971C12.1128 20.393 12.1128 20.0623 11.9087 19.8582L9.05074 17.0002H9.05107Z" fill="#262626"/>
</g>
<defs>
<clipPath id="clip0_97_1888">
<rect width="36" height="36" rx="18" fill="white"/>
</clipPath>
</defs>
</svg>
