<svg width="36" height="36" viewBox="0 0 36 36" fill="none" xmlns="http://www.w3.org/2000/svg">
<g clip-path="url(#clip0_97_1984)">
<rect width="36" height="36" rx="18" fill="#22C55E"/>
<path d="M36 0L0 36V0H36Z" fill="#3B82F6"/>
<path fill-rule="evenodd" clip-rule="evenodd" d="M36 0.05V5.09L5.09 36H0V30.91L30.91 0H35.95L36 0.05Z" fill="#EF4444"/>
<path fill-rule="evenodd" clip-rule="evenodd" d="M27.85 0L0 27.85V30.91L30.91 0H27.85ZM5.09 36H8.15L36 8.15V5.09L5.09 36ZM35.95 0L36 0.05V0H35.95Z" fill="#F5F5F5"/>
<path fill-rule="evenodd" clip-rule="evenodd" d="M10.2241 4.1911L10.4437 5.55006C10.4759 5.74336 10.719 5.8078 10.842 5.6555L11.7119 4.58649C11.873 4.38733 12.1893 4.56892 12.0985 4.80908L11.6094 6.09775C11.5391 6.27933 11.7177 6.45799 11.9023 6.39063L13.1909 5.90152C13.4311 5.81073 13.6127 6.12704 13.4135 6.28812L12.3445 7.15797C12.1922 7.28098 12.2596 7.527 12.4499 7.55629L13.8089 7.77595C14.0637 7.81695 14.0637 8.18305 13.8089 8.22405L12.4499 8.44371C12.2566 8.47593 12.1922 8.71902 12.3445 8.84203L13.4135 9.71188C13.6127 9.87296 13.4311 10.1893 13.1909 10.0985L11.9023 9.60937C11.7207 9.53908 11.542 9.71774 11.6094 9.90225L12.0985 11.1909C12.1893 11.4311 11.873 11.6127 11.7119 11.4135L10.842 10.3445C10.719 10.1922 10.473 10.2596 10.4437 10.4499L10.2241 11.8089C10.183 12.0637 9.81695 12.0637 9.77595 11.8089L9.55629 10.4499C9.52407 10.2566 9.28098 10.1922 9.15797 10.3445L8.28812 11.4135C8.12704 11.6127 7.81073 11.4311 7.90152 11.1909L8.39063 9.90225C8.46092 9.72067 8.28226 9.54201 8.09775 9.60937L6.80908 10.0985C6.56892 10.1893 6.38733 9.87296 6.58649 9.71188L7.6555 8.84203C7.8078 8.71902 7.74044 8.473 7.55006 8.44371L6.1911 8.22405C5.9363 8.18305 5.9363 7.81695 6.1911 7.77595L7.55006 7.55629C7.74336 7.52407 7.8078 7.28098 7.6555 7.15797L6.58649 6.28812C6.38733 6.12704 6.56892 5.81073 6.80908 5.90152L8.09775 6.39063C8.27933 6.46092 8.45799 6.28226 8.39063 6.09775L7.90152 4.80908C7.81073 4.56892 8.12704 4.38733 8.28812 4.58649L9.15797 5.6555C9.28098 5.8078 9.527 5.74044 9.55629 5.55006L9.77595 4.1911C9.81695 3.9363 10.183 3.9363 10.2241 4.1911Z" fill="#FBBF24"/>
</g>
<defs>
<clipPath id="clip0_97_1984">
<rect width="36" height="36" rx="18" fill="white"/>
</clipPath>
</defs>
</svg>
