<svg width="36" height="36" viewBox="0 0 36 36" fill="none" xmlns="http://www.w3.org/2000/svg">
<g clip-path="url(#clip0_97_2040)">
<path d="M0 0H12V36H0V0Z" fill="#22C55E"/>
<path d="M12 0H24V36H12V0Z" fill="#F5F5F5"/>
<path d="M24 0H36V36H24V0Z" fill="#22C55E"/>
<path d="M21.2917 19.1166C21.9288 18.752 22.2201 17.9077 21.8104 17.198L20.5121 14.9492L19.2137 12.7003C18.6742 11.7666 17.3261 11.7666 16.7873 12.7003L15.4889 14.9492L14.1899 17.1974C13.7803 17.9071 14.0715 18.752 14.7086 19.1159L14.1899 20.014C13.6504 20.9477 14.3245 22.1155 15.4035 22.1155H16.724C16.7213 22.1411 16.72 22.1673 16.72 22.1936V23.243C16.72 23.6601 17.0584 23.9985 17.4755 23.9985H18.5249C18.942 23.9985 19.2803 23.6601 19.2803 23.243V22.1936C19.2803 22.1673 19.279 22.1411 19.2763 22.1155H20.5968C21.6752 22.1155 22.3492 20.9477 21.8104 20.014L21.2917 19.1159V19.1166Z" fill="#22C55E"/>
</g>
<defs>
<clipPath id="clip0_97_2040">
<rect width="36" height="36" rx="18" fill="white"/>
</clipPath>
</defs>
</svg>
