<svg width="36" height="36" viewBox="0 0 36 36" fill="none" xmlns="http://www.w3.org/2000/svg">
<g clip-path="url(#clip0_97_2116)">
<path d="M0 0H36V12H0V0Z" fill="#3B82F6"/>
<path d="M0 12H36V24H0V12Z" fill="#F5F5F5"/>
<path d="M0 24H36V36H0V24Z" fill="#3B82F6"/>
<path d="M21.3944 21.9987H15.4112C14.3262 21.9987 13.6488 20.8246 14.1907 19.8851L14.3676 19.579L15.6871 17.2949L15.7273 17.2259L17.1823 14.7046C17.7242 13.7651 19.0802 13.7651 19.622 14.7046L21.0796 17.2271L21.1185 17.2949L22.4368 19.579L22.6137 19.8851C23.1555 20.8246 22.4782 21.9987 21.3944 21.9987Z" fill="#93C5FD"/>
<path d="M21.3944 22.0003H15.4112C14.3262 22.0003 13.6488 20.8262 14.1907 19.8867H22.6137C23.1555 20.8262 22.4782 22.0003 21.3944 22.0003Z" fill="#22C55E"/>
<path d="M21.1185 17.2955L21.0796 17.2277C20.253 16.889 19.3486 16.7021 18.4028 16.7021C17.457 16.7021 16.5539 16.8878 15.7273 17.2265L15.6872 17.2955L14.3676 19.5796C15.4162 18.5749 16.8386 17.9565 18.4028 17.9565C19.967 17.9565 21.3882 18.5749 22.4368 19.5796L21.1185 17.2955Z" fill="#3B82F6"/>
</g>
<defs>
<clipPath id="clip0_97_2116">
<rect width="36" height="36" rx="18" fill="white"/>
</clipPath>
</defs>
</svg>
