<svg width="36" height="36" viewBox="0 0 36 36" fill="none" xmlns="http://www.w3.org/2000/svg">
<rect width="36" height="36" rx="18" fill="#1E3A8A"/>
<path d="M22 0H0V20H22V0Z" fill="#1E3A8A"/>
<path fill-rule="evenodd" clip-rule="evenodd" d="M22 0.25V4.67L19.26 6.55L17.67 7.64L14.71 9.67L14.23 10L13.74 10.33L11.49 11.88L11 12.21L10.52 12.54L8.43 13.97L7.33 14.73L0 19.75V15.33L2.2 13.82L3.79 12.73L7.29 10.33L7.77 10L8.26 9.67L10.51 8.12L11 7.79L11.48 7.46L13.57 6.03L14.67 5.27L22 0.25Z" fill="#EF4444"/>
<path fill-rule="evenodd" clip-rule="evenodd" d="M18.29 6.55L16.7 7.64L14.22 9.34L13.74 9.67L13.25 10L11 11.55L10.51 11.88L10.03 12.21L8.43 13.31L7.33 14.06L0 19.09V20H0.61L7.33 15.39L8.43 14.64L11 12.87L11.48 12.54L11.97 12.21L14.22 10.66L14.71 10.33L15.19 10L18.63 7.64L20.22 6.55L22 5.33V4L18.29 6.55ZM21.39 0L14.67 4.61L13.57 5.36L11 7.13L10.52 7.46L10.03 7.79L7.78 9.34L7.29 9.67L6.81 10L2.83 12.73L1.24 13.82L0 14.67V16L3.17 13.82L4.76 12.73L7.78 10.66L8.26 10.33L8.75 10L11 8.45L11.49 8.12L11.97 7.79L13.57 6.69L14.67 5.94L22 0.91V0H21.39ZM8.43 13.31V13.97L10.52 12.54L10.03 12.21L8.43 13.31Z" fill="#F5F5F5"/>
<path fill-rule="evenodd" clip-rule="evenodd" d="M22 15.33V19.75L14.67 14.73L13.57 13.97L11.48 12.54L11 12.21L10.51 11.88L8.26 10.33L7.77 10L7.29 9.67L4.33 7.64L2.74 6.55L0 4.67V0.25L7.33 5.27L8.43 6.03L10.52 7.46L11 7.79L11.49 8.12L13.74 9.67L14.23 10L14.71 10.33L18.21 12.73L19.8 13.82L22 15.33Z" fill="#EF4444"/>
<path fill-rule="evenodd" clip-rule="evenodd" d="M14.67 14.06L13.57 13.31L11.97 12.21L11.49 11.88L11 11.55L8.75 10L8.26 9.67L7.78 9.34L5.3 7.64L3.71 6.55L0 4V5.33L1.78 6.55L3.37 7.64L6.81 10L7.29 10.33L7.78 10.66L10.03 12.21L10.52 12.54L11 12.87L13.57 14.64L14.67 15.39L21.39 20H22V19.09L14.67 14.06ZM20.76 13.82L19.17 12.73L15.19 10L14.71 9.67L14.22 9.34L11.97 7.79L11.48 7.46L11 7.13L8.43 5.36L7.33 4.61L0.61 0H0V0.91L7.33 5.94L8.43 6.69L10.03 7.79L10.51 8.12L11 8.45L13.25 10L13.74 10.33L14.22 10.66L17.24 12.73L18.83 13.82L22 16V14.67L20.76 13.82Z" fill="#F5F5F5"/>
<path fill-rule="evenodd" clip-rule="evenodd" d="M22 7.64V12.73H13.57V20H8.43V12.73H0V7.64H8.43V0H13.57V7.64H22Z" fill="#EF4444"/>
<path fill-rule="evenodd" clip-rule="evenodd" d="M13.57 12.73V20H14.67V13.82H22V12.73H13.57ZM0 12.73V13.82H7.33V20H8.43V12.73H0ZM14.67 6.55V0H13.57V7.64H22V6.55H14.67ZM7.33 0V6.55H0V7.64H8.43V0H7.33Z" fill="#F5F5F5"/>
<path d="M31.3614 26.3419L31.7236 27.3413C31.763 27.4496 31.8664 27.5227 31.9846 27.5258L33.0739 27.5522C33.4856 27.5621 33.655 28.0704 33.3279 28.3134L32.4629 28.9574C32.3692 29.0268 32.3298 29.1455 32.3633 29.2558L32.6744 30.2714C32.7921 30.6553 32.3473 30.9693 32.0086 30.7418L31.1116 30.1403C31.0146 30.075 30.8863 30.075 30.7893 30.1403L29.8924 30.7418C29.5536 30.9693 29.1094 30.6553 29.2266 30.2714L29.5376 29.2558C29.5712 29.146 29.5318 29.0273 29.438 28.9574L28.5719 28.3134C28.2449 28.0698 28.4148 27.5621 28.826 27.5522L29.9153 27.5258C30.033 27.5232 30.1368 27.4496 30.1763 27.3413L30.5385 26.3419C30.6754 25.9642 31.2245 25.9642 31.3614 26.3419Z" fill="#EF4444"/>
<path d="M27.9614 15.8028L28.3236 16.8023C28.363 16.9106 28.4664 16.9836 28.5846 16.9867L29.6739 17.0132C30.0856 17.023 30.255 17.5313 29.9279 17.7743L29.0629 18.4183C28.9692 18.4878 28.9298 18.6064 28.9633 18.7168L29.2744 19.7323C29.3921 20.1162 28.9473 20.4302 28.6086 20.2028L27.7116 19.6012C27.6146 19.5359 27.4863 19.5359 27.3893 19.6012L26.4924 20.2028C26.1536 20.4302 25.7094 20.1162 25.8266 19.7323L26.1376 18.7168C26.1712 18.6069 26.1318 18.4883 26.038 18.4183L25.1719 17.7743C24.8449 17.5308 25.0148 17.023 25.426 17.0132L26.5153 16.9867C26.633 16.9841 26.7368 16.9106 26.7763 16.8023L27.1385 15.8028C27.2754 15.4251 27.8245 15.4251 27.9614 15.8028Z" fill="#EF4444"/>
<path d="M31.3614 6.28329L31.7236 7.28275C31.763 7.39104 31.8664 7.4641 31.9846 7.46721L33.0739 7.49363C33.4856 7.50348 33.655 8.01176 33.3279 8.25476L32.4629 8.89879C32.3692 8.96822 32.3298 9.08687 32.3633 9.19724L32.6744 10.2128C32.7921 10.5967 32.3473 10.9107 32.0086 10.6832L31.1116 10.0817C31.0146 10.0164 30.8863 10.0164 30.7893 10.0817L29.8924 10.6832C29.5536 10.9107 29.1094 10.5967 29.2266 10.2128L29.5376 9.19724C29.5712 9.08739 29.5318 8.96874 29.438 8.89879L28.5719 8.25476C28.2449 8.01124 28.4148 7.50348 28.826 7.49363L29.9153 7.46721C30.033 7.46462 30.1368 7.39104 30.1763 7.28275L30.5385 6.28329C30.6754 5.90557 31.2245 5.90557 31.3614 6.28329Z" fill="#EF4444"/>
</svg>
