<svg width="36" height="36" viewBox="0 0 36 36" fill="none" xmlns="http://www.w3.org/2000/svg">
<g clip-path="url(#clip0_97_2226)">
<path d="M0 0H10V36H0V0Z" fill="#EF4444"/>
<path d="M7.54137 5.55809H6.61196C6.41083 5.55809 6.31026 5.31496 6.45227 5.17295L7.10706 4.51816C7.27891 4.34632 7.29714 4.06341 7.12971 3.88714C6.96229 3.71087 6.67164 3.70313 6.49648 3.87885L5.82732 4.548C5.68531 4.69001 5.44219 4.58945 5.44219 4.38831V3.4589C5.44219 3.22241 5.26371 3.01519 5.02777 3.00083C4.77138 2.98536 4.55809 3.1887 4.55809 3.44177V4.38831C4.55809 4.58945 4.31496 4.69001 4.17295 4.548L3.51816 3.89322C3.34632 3.72137 3.06341 3.70313 2.88714 3.87056C2.71087 4.03799 2.70314 4.32864 2.87885 4.5038L3.548 5.17295C3.69001 5.31496 3.58945 5.55809 3.38831 5.55809H2.4589C2.22241 5.55809 2.01519 5.73656 2.00083 5.97251C1.98536 6.2289 2.1887 6.44219 2.44177 6.44219H3.38831C3.58945 6.44219 3.69001 6.68531 3.548 6.82732L2.89156 7.48377C2.72469 7.65064 2.70258 7.9225 2.85785 8.09987C2.94626 8.20099 3.06893 8.25128 3.19105 8.25128C3.30432 8.25128 3.41705 8.20818 3.5038 8.12198L4.17295 7.45282C4.31496 7.31082 4.55809 7.41138 4.55809 7.61251V8.54192C4.55809 8.77842 4.73657 8.98563 4.97251 9C5.2289 9.01547 5.44219 8.81213 5.44219 8.55905V7.61251C5.44219 7.41138 5.68531 7.31082 5.82732 7.45282L6.49648 8.12198C6.58268 8.20818 6.69595 8.25128 6.80923 8.25128C6.9319 8.25128 7.05401 8.20099 7.14242 8.09987C7.29769 7.9225 7.27559 7.65064 7.10872 7.48377L6.45227 6.82732C6.31026 6.68531 6.41083 6.44219 6.61196 6.44219H7.5585C7.81158 6.44219 8.01547 6.22945 7.99945 5.97251C7.98508 5.73656 7.77787 5.55809 7.54137 5.55809Z" fill="#F5F5F5"/>
<path d="M10 0H36V12H10V0Z" fill="#F5F5F5"/>
<path d="M10 12H36V24H10V12Z" fill="#EF4444"/>
<path d="M10 24H36V36H10V24Z" fill="#22C55E"/>
</g>
<defs>
<clipPath id="clip0_97_2226">
<rect width="36" height="36" rx="18" fill="white"/>
</clipPath>
</defs>
</svg>
