<svg width="36" height="36" viewBox="0 0 36 36" fill="none" xmlns="http://www.w3.org/2000/svg">
<rect width="36" height="36" rx="18" fill="#262626"/>
<path d="M27.0962 9.56625C26.7536 9.47143 26.593 9.30432 26.4822 8.96822C26.1668 8.01345 25.4524 7.867 24.6591 8.09325C23.9906 8.28383 23.5663 9.21889 23.9202 9.86573C24.2272 10.4271 24.0179 10.7135 23.632 11.0317C23.524 11.12 23.4311 11.227 23.3335 11.3275C22.2923 12.3921 22.221 12.0907 23.417 13.2943C23.6367 13.5149 23.8414 13.5149 24.0601 13.2933C24.4206 12.9272 24.7999 12.5798 25.1454 12.2006C25.4111 11.9086 25.6373 11.8382 26.0297 12.0278C26.992 12.4944 27.9947 11.8354 27.9872 10.7895C27.9825 10.1924 27.6745 9.72491 27.0962 9.56625ZM12.6094 22.6636C12.386 22.4449 12.1776 22.4608 11.9626 22.6805C11.5917 23.0598 11.2059 23.425 10.8398 23.808C10.6004 24.0578 10.3675 24.2023 10.0324 23.9611C9.85025 23.8306 9.6193 23.8306 9.39962 23.8296C8.70771 23.8277 8.17259 24.2352 8.02989 24.8726C7.89095 25.497 8.24676 26.1541 8.88233 26.416C9.16867 26.5343 9.42966 26.601 9.52917 26.9915C9.73102 27.7801 10.5365 28.151 11.3092 27.8853C12.0114 27.6431 12.4395 26.8338 12.0959 26.14C11.8189 25.5833 11.9936 25.2801 12.3869 24.9553C12.5061 24.8567 12.6085 24.7365 12.7193 24.6257C13.7294 23.6174 13.7426 23.7752 12.6094 22.6636ZM27.9205 24.6905C27.7027 24.0146 26.9244 23.579 26.2119 23.9047C25.6026 24.1817 25.29 23.9639 24.9492 23.5545C24.86 23.4466 24.7501 23.3574 24.6506 23.2588C23.6067 22.2271 23.8667 22.2346 22.743 23.3405C22.4904 23.5893 22.4932 23.8212 22.7354 24.0662C23.0866 24.4211 23.4227 24.7919 23.7907 25.128C24.0789 25.3909 24.2282 25.6321 23.9578 26.002C23.8292 26.1767 23.8113 26.4104 23.8235 26.6019C23.832 27.3192 24.2526 27.8215 24.9257 27.9463C25.6185 28.0759 26.2475 27.7257 26.47 27.0366C26.5705 26.724 26.7179 26.5494 27.039 26.4433C27.8229 26.1842 28.1693 25.4585 27.9205 24.6905ZM13.2487 11.8654C12.9136 11.5387 12.5972 11.1913 12.2442 10.8853C11.9278 10.6102 11.8734 10.3661 12.0602 9.96149C12.5137 8.97573 11.8696 8.01063 10.8135 8.01721C10.1629 8.02096 9.65779 8.35236 9.52823 8.95884C9.44937 9.32967 9.26255 9.45922 8.92739 9.55686C8.22328 9.76152 7.84307 10.5267 8.06838 11.1923C8.32937 11.9602 9.1161 12.4221 9.80237 12.087C10.3628 11.8147 10.698 11.949 11.0313 12.3808C11.1261 12.5038 11.2481 12.6042 11.3599 12.7131C12.3963 13.7289 12.1541 13.7599 13.2685 12.6362C13.5323 12.3714 13.506 12.1179 13.2487 11.8654ZM23.7306 19.6726C23.1833 18.7159 23.1908 17.8184 23.4076 16.8364C23.4264 16.7472 23.4095 16.6505 23.4095 16.5566C23.4142 15.5089 23.1166 14.5598 22.4651 13.7299C21.1592 12.0672 18.7896 11.1425 16.2595 11.9245C13.7811 12.6916 12.2236 15.323 12.8901 17.7658C13.0225 18.2465 12.9737 18.607 12.7024 19.0267C11.8612 20.3316 12.3897 21.7868 13.8721 22.2243C14.3932 22.3782 14.6063 22.6261 14.5359 23.1471C14.5237 23.2382 14.5359 23.3339 14.5424 23.4269C14.5931 24.0953 14.9752 24.5065 15.5432 24.5084C16.0736 24.5103 16.4548 24.0991 16.5524 23.4663C16.5909 23.2156 16.4229 22.7725 16.7975 22.7669C17.2274 22.7613 17.0472 23.2175 17.0725 23.4794C17.1336 24.1009 17.4978 24.4868 18.078 24.4943C18.6094 24.5018 19.0159 24.1047 19.075 23.5161C19.0919 23.3461 19.0891 23.1734 19.1069 23.0035C19.1201 22.872 19.1755 22.7528 19.3285 22.7444C19.5078 22.734 19.5726 22.8608 19.5876 23.0129C19.6045 23.1987 19.597 23.3874 19.6205 23.5724C19.6909 24.1225 20.1124 24.5037 20.6241 24.4934C21.1902 24.4821 21.5666 24.1113 21.6051 23.5151C21.6192 23.2973 21.6201 23.0786 21.6154 22.8608C21.6098 22.5697 21.7347 22.3914 22.021 22.3163C22.2172 22.2646 22.4116 22.2027 22.5984 22.1257C23.54 21.7379 24.2169 20.5212 23.7306 19.6726ZM15.4897 19.5224C14.6504 19.7054 13.9294 19.19 13.8768 18.3338C13.8008 17.0796 14.3321 16.2403 15.7422 16.3079C17.0547 16.2018 17.449 17.3218 17.0481 18.2343C16.7449 18.9253 16.2201 19.3628 15.4897 19.5224ZM18.7981 21.3821C18.553 21.4131 18.3014 21.3878 18.0536 21.3878C18.0526 21.3972 18.0526 21.4065 18.0526 21.4169C17.8048 21.4037 17.5523 21.4141 17.3091 21.3728C16.9148 21.3061 16.7627 21.0451 16.9364 20.6987C17.1655 20.2405 17.4208 19.7937 17.6987 19.3646C17.924 19.0173 18.2498 19.0257 18.4845 19.3834C18.7474 19.7852 18.9877 20.2049 19.2083 20.632C19.4243 21.0479 19.2722 21.3211 18.7981 21.3821ZM21.6483 19.3834C21.101 19.6688 20.5612 19.5918 20.0495 19.282C19.3097 18.8361 18.8957 18.2071 18.9858 17.3124C19.029 16.8899 19.2327 16.5435 19.6345 16.4205C20.2898 16.2196 20.9686 16.2036 21.5807 16.5642C22.1402 16.8946 22.2632 17.457 22.2341 18.0719C22.266 18.6042 22.1853 19.1036 21.6483 19.3834Z" fill="#F5F5F5"/>
</svg>
