<svg width="36" height="36" viewBox="0 0 36 36" fill="none" xmlns="http://www.w3.org/2000/svg">
<rect width="36" height="36" rx="18" fill="#F5F5F5"/>
<path d="M8.54546 20.0909C6.03879 20.0909 4 18.0521 4 15.5455C4 13.0388 6.03879 11 8.54546 11C11.0521 11 13.0909 13.0388 13.0909 15.5455C13.0909 18.0521 11.0521 20.0909 8.54546 20.0909ZM8.54546 12.1313C6.66263 12.1313 5.13131 13.6626 5.13131 15.5455C5.13131 17.4283 6.66263 18.9596 8.54546 18.9596C10.4283 18.9596 11.9596 17.4283 11.9596 15.5455C11.9596 13.6626 10.4283 12.1313 8.54546 12.1313Z" fill="#3B82F6"/>
<path d="M18 20.0909C15.4933 20.0909 13.4545 18.0521 13.4545 15.5455C13.4545 13.0388 15.4933 11 18 11C20.5067 11 22.5455 13.0388 22.5455 15.5455C22.5455 18.0521 20.5067 20.0909 18 20.0909ZM18 12.1313C16.1172 12.1313 14.5859 13.6626 14.5859 15.5455C14.5859 17.4283 16.1172 18.9596 18 18.9596C19.8828 18.9596 21.4141 17.4283 21.4141 15.5455C21.4141 13.6626 19.8828 12.1313 18 12.1313Z" fill="#262626"/>
<path d="M27.4546 20.0909C24.9479 20.0909 22.9091 18.0521 22.9091 15.5455C22.9091 13.0388 24.9479 11 27.4546 11C29.9612 11 32 13.0388 32 15.5455C32 18.0521 29.9612 20.0909 27.4546 20.0909ZM27.4546 12.1313C25.5717 12.1313 24.0404 13.6626 24.0404 15.5455C24.0404 17.4283 25.5717 18.9596 27.4546 18.9596C29.3374 18.9596 30.8687 17.4283 30.8687 15.5455C30.8687 13.6626 29.3374 12.1313 27.4546 12.1313Z" fill="#EF4444"/>
<path d="M13.2727 24.1309C10.7661 24.1309 8.72727 22.0922 8.72727 19.5855C8.72727 17.0788 10.7661 15.04 13.2727 15.04C15.7794 15.04 17.8182 17.0788 17.8182 19.5855C17.8182 22.0922 15.7794 24.1309 13.2727 24.1309ZM13.2727 16.1714C11.3899 16.1714 9.85859 17.7027 9.85859 19.5855C9.85859 21.4683 11.3899 22.9996 13.2727 22.9996C15.1556 22.9996 16.6869 21.4683 16.6869 19.5855C16.6869 17.7027 15.1556 16.1714 13.2727 16.1714Z" fill="#FBBF24"/>
<path d="M22.7273 24.1309C20.2206 24.1309 18.1818 22.0922 18.1818 19.5855C18.1818 17.0788 20.2206 15.04 22.7273 15.04C25.2339 15.04 27.2727 17.0788 27.2727 19.5855C27.2727 22.0922 25.2339 24.1309 22.7273 24.1309ZM22.7273 16.1714C20.8444 16.1714 19.3131 17.7027 19.3131 19.5855C19.3131 21.4683 20.8444 22.9996 22.7273 22.9996C24.6101 22.9996 26.1414 21.4683 26.1414 19.5855C26.1414 17.7027 24.6101 16.1714 22.7273 16.1714Z" fill="#22C55E"/>
<path d="M12.1818 18.2729L11.2768 17.5941C12.181 16.3877 12.181 14.7036 11.2768 13.4971L12.1818 12.8184C13.3859 14.424 13.3859 16.6672 12.1818 18.2729Z" fill="#3B82F6"/>
<path d="M18 20.0911C17.023 20.0911 16.0541 19.7679 15.2727 19.182L15.9515 18.2769C16.539 18.7173 17.2663 18.9598 18 18.9598V20.0911ZM21.6364 18.2729L20.7313 17.5941C21.6356 16.3877 21.6356 14.7036 20.7313 13.4971L21.6364 12.8184C22.8404 14.424 22.8404 16.6672 21.6364 18.2729Z" fill="#262626"/>
<path d="M27.4545 20.0905C26.4776 20.0905 25.5087 19.7673 24.7273 19.1814L25.4061 18.2764C25.9927 18.7168 26.7208 18.9592 27.4545 18.9592V20.0905Z" fill="#EF4444"/>
</svg>
