<svg width="36" height="36" viewBox="0 0 36 36" fill="none" xmlns="http://www.w3.org/2000/svg">
<g clip-path="url(#clip0_98_2753)">
<path d="M0 0H18V18H0V0Z" fill="#F5F5F5"/>
<path d="M0 18H18V36H0V18Z" fill="#1E3A8A"/>
<path d="M18 0H36V18H18V0Z" fill="#EF4444"/>
<path d="M18 18H36V36H18V18Z" fill="#F5F5F5"/>
<path d="M27.8415 23.4761L28.4336 25.1559C28.4981 25.3379 28.667 25.4607 28.8603 25.4659L30.6411 25.5103C31.3142 25.5269 31.5912 26.3811 31.0565 26.7895L29.6423 27.8719C29.489 27.9886 29.4246 28.188 29.4795 28.3735L29.988 30.0803C30.1805 30.7255 29.4533 31.2532 28.8995 30.871L27.4331 29.86C27.2746 29.7502 27.0647 29.7502 26.9062 29.86L25.4398 30.871C24.886 31.2532 24.1597 30.7255 24.3513 30.0803L24.8598 28.3735C24.9147 28.1889 24.8503 27.9895 24.697 27.8719L23.2811 26.7895C22.7464 26.3802 23.0242 25.5269 23.6965 25.5103L25.4772 25.4659C25.6697 25.4615 25.8395 25.3379 25.9039 25.1559L26.4961 23.4761C26.7199 22.8413 27.6177 22.8413 27.8415 23.4761Z" fill="#EF4444"/>
<path d="M9.84147 5.47611L10.4336 7.15589C10.4981 7.33789 10.667 7.46067 10.8603 7.46589L12.6411 7.51031C13.3142 7.52685 13.5912 8.38111 13.0565 8.78952L11.6423 9.87192C11.489 9.98861 11.4246 10.188 11.4795 10.3735L11.988 12.0803C12.1805 12.7255 11.4533 13.2532 10.8995 12.871L9.43307 11.86C9.27458 11.7502 9.06472 11.7502 8.90623 11.86L7.4398 12.871C6.88597 13.2532 6.15972 12.7255 6.3513 12.0803L6.85985 10.3735C6.91471 10.1889 6.85027 9.98948 6.69701 9.87192L5.28108 8.78952C4.74641 8.38024 5.02419 7.52685 5.69645 7.51031L7.47725 7.46589C7.66969 7.46154 7.8395 7.33789 7.90394 7.15589L8.49608 5.47611C8.71988 4.8413 9.61768 4.8413 9.84147 5.47611Z" fill="#1E3A8A"/>
</g>
<defs>
<clipPath id="clip0_98_2753">
<rect width="36" height="36" rx="18" fill="white"/>
</clipPath>
</defs>
</svg>
