<svg width="36" height="36" viewBox="0 0 36 36" fill="none" xmlns="http://www.w3.org/2000/svg">
<g clip-path="url(#clip0_98_2796)">
<rect width="36" height="36" rx="18" fill="#262626"/>
<path d="M0 0L36 36V0H0Z" fill="#EF4444"/>
<path d="M9.97626 18.2267L10.2637 19.0266C10.295 19.1133 10.377 19.1718 10.4709 19.1742L11.3354 19.1954C11.6621 19.2033 11.7966 19.6101 11.537 19.8046L10.8505 20.32C10.7761 20.3756 10.7448 20.4705 10.7714 20.5588L11.0183 21.3716C11.1117 21.6789 10.7587 21.9302 10.4899 21.7481L9.77799 21.2667C9.70105 21.2144 9.59917 21.2144 9.52223 21.2667L8.81034 21.7481C8.54147 21.9302 8.18891 21.6789 8.28191 21.3716L8.52879 20.5588C8.55542 20.4709 8.52414 20.376 8.44974 20.32L7.76236 19.8046C7.5028 19.6097 7.63765 19.2033 7.96401 19.1954L8.82851 19.1742C8.92194 19.1722 9.00437 19.1133 9.03566 19.0266L9.32312 18.2267C9.43177 17.9244 9.86761 17.9244 9.97626 18.2267Z" fill="#F5F5F5"/>
<path d="M5.35035 22.0363L5.63781 22.8362C5.6691 22.9229 5.75111 22.9813 5.84496 22.9838L6.70946 23.005C7.03624 23.0128 7.17067 23.4196 6.91111 23.6141L6.22458 24.1296C6.15017 24.1851 6.11889 24.2801 6.14552 24.3684L6.3924 25.1812C6.48583 25.4884 6.13284 25.7397 5.86398 25.5577L5.15208 25.0763C5.07514 25.024 4.97326 25.024 4.89632 25.0763L4.18443 25.5577C3.91557 25.7397 3.563 25.4884 3.656 25.1812L3.90288 24.3684C3.92952 24.2805 3.89823 24.1855 3.82383 24.1296L3.13645 23.6141C2.87689 23.4192 3.01175 23.0128 3.3381 23.005L4.20261 22.9838C4.29603 22.9817 4.37847 22.9229 4.40975 22.8362L4.69721 22.0363C4.80586 21.734 5.2417 21.734 5.35035 22.0363Z" fill="#F5F5F5"/>
<path d="M14.6022 22.0363L14.8896 22.8362C14.9209 22.9229 15.0029 22.9813 15.0968 22.9838L15.9613 23.005C16.2881 23.0128 16.4225 23.4196 16.1629 23.6141L15.4764 24.1296C15.402 24.1851 15.3707 24.2801 15.3974 24.3684L15.6442 25.1812C15.7377 25.4884 15.3847 25.7397 15.1158 25.5577L14.4039 25.0763C14.327 25.024 14.2251 25.024 14.1482 25.0763L13.4363 25.5577C13.1674 25.7397 12.8148 25.4884 12.9078 25.1812L13.1547 24.3684C13.1813 24.2805 13.1501 24.1855 13.0757 24.1296L12.3883 23.6141C12.1287 23.4192 12.2636 23.0128 12.5899 23.005L13.4544 22.9838C13.5479 22.9817 13.6303 22.9229 13.6616 22.8362L13.949 22.0363C14.0577 21.734 14.4935 21.734 14.6022 22.0363Z" fill="#F5F5F5"/>
<path d="M9.97626 28.4172L10.2637 29.2171C10.295 29.3037 10.377 29.3622 10.4709 29.3647L11.3354 29.3858C11.6622 29.3937 11.7966 29.8005 11.537 29.995L10.8505 30.5104C10.7761 30.566 10.7448 30.6609 10.7714 30.7493L11.0183 31.562C11.1117 31.8693 10.7588 32.1206 10.4899 31.9386L9.778 31.4571C9.70106 31.4049 9.59918 31.4049 9.52224 31.4571L8.81034 31.9386C8.54148 32.1206 8.18892 31.8693 8.28192 31.562L8.5288 30.7493C8.55543 30.6614 8.52415 30.5664 8.44975 30.5104L7.76237 29.995C7.50281 29.8001 7.63766 29.3937 7.96402 29.3858L8.82852 29.3647C8.92195 29.3626 9.00438 29.3037 9.03567 29.2171L9.32313 28.4172C9.43177 28.1149 9.86762 28.1149 9.97626 28.4172Z" fill="#F5F5F5"/>
<path d="M24.1321 3.1639L22.2786 5.35049C22.2068 5.43488 22.1676 5.54221 22.1676 5.65324V7.5282C22.1676 7.83095 21.8848 8.0545 21.5895 7.98418L19.673 7.52524C19.1482 7.39941 18.8618 8.1152 19.3288 8.38611L20.6516 9.15372C20.8959 9.29584 20.9603 9.61931 20.7885 9.8436C20.7145 9.94057 20.605 10.005 20.4843 10.0227L18.123 10.3662C17.9698 10.3884 17.838 10.4846 17.7699 10.6238L17.0482 12.0953C16.9046 12.3885 17.0971 12.7341 17.4213 12.7674L20.5006 13.0835C20.6109 13.0946 20.7219 13.0665 20.8137 13.0036L21.7604 12.3537C21.9514 12.2226 22.2105 12.2508 22.3689 12.421L24.6414 14.8615C24.7302 14.957 24.8545 15.011 24.9841 15.011H27.9879C28.2729 15.011 28.4912 14.7594 28.452 14.4773L28.2188 12.8185C28.1589 12.3907 28.66 12.1161 28.9879 12.3973C29.7762 13.0732 30.6793 14.182 29.9613 15.3301C29.7207 15.7142 30.0975 16.1895 30.5201 16.0244C30.7193 15.9467 30.9132 15.8467 31.0872 15.7194C31.4654 15.4411 31.9732 15.8112 31.8111 16.2516C31.6978 16.5573 31.5061 16.8645 31.1952 17.1436C30.7814 17.5144 31.2234 18.1673 31.7178 17.9142C32.4077 17.5603 32.9555 16.8801 32.9976 15.6225C33.0657 13.6239 31.6431 12.4714 30.3847 11.8466C29.9679 11.6394 30.0827 11.0139 30.5446 10.9613L30.9917 10.9102C31.3521 10.8688 31.5305 10.4513 31.3122 10.1626L28.3572 6.24985C28.2514 6.10921 28.0752 6.04037 27.902 6.07072L25.956 6.41492C25.7006 6.46007 25.4571 6.28909 25.4127 6.03371L24.953 3.38892C24.8849 2.99735 24.3912 2.86263 24.1336 3.16612L24.1321 3.1639Z" fill="#FBBF24"/>
</g>
<defs>
<clipPath id="clip0_98_2796">
<rect width="36" height="36" rx="18" fill="white"/>
</clipPath>
</defs>
</svg>
