<svg width="36" height="36" viewBox="0 0 36 36" fill="none" xmlns="http://www.w3.org/2000/svg">
<g clip-path="url(#clip0_98_2886)">
<path d="M0 0H36V18H0V0Z" fill="#1E3A8A"/>
<path d="M0 18H36V36H0V18Z" fill="#EF4444"/>
<path d="M20.3 20.39C21.87 19.18 21.87 16.82 20.3 15.62L0 0V36L20.3 20.39Z" fill="#F5F5F5"/>
<path fill-rule="evenodd" clip-rule="evenodd" d="M8.28007 13.2389L8.55464 14.9376C8.59491 15.1792 8.89877 15.2597 9.05254 15.0694L10.1399 13.7331C10.3412 13.4842 10.7366 13.7111 10.6231 14.0113L10.0117 15.6222C9.92385 15.8492 10.1472 16.0725 10.3778 15.9883L11.9887 15.3769C12.2889 15.2634 12.5158 15.6588 12.2669 15.8602L10.9306 16.9475C10.7403 17.1012 10.8245 17.4087 11.0624 17.4454L12.7611 17.7199C13.0796 17.7712 13.0796 18.2288 12.7611 18.2801L11.0624 18.5546C10.8208 18.5949 10.7403 18.8988 10.9306 19.0525L12.2669 20.1399C12.5158 20.3412 12.2889 20.7366 11.9887 20.6231L10.3778 20.0117C10.1508 19.9239 9.92751 20.1472 10.0117 20.3778L10.6231 21.9887C10.7366 22.2889 10.3412 22.5158 10.1399 22.2669L9.05254 20.9306C8.89877 20.7403 8.59125 20.8245 8.55464 21.0624L8.28007 22.7611C8.22881 23.0796 7.77119 23.0796 7.71993 22.7611L7.44536 21.0624C7.40509 20.8208 7.10123 20.7403 6.94746 20.9306L5.86015 22.2669C5.6588 22.5158 5.26341 22.2889 5.3769 21.9887L5.98828 20.3778C6.07615 20.1508 5.85283 19.9275 5.62219 20.0117L4.01135 20.6231C3.71115 20.7366 3.48417 20.3412 3.73311 20.1399L5.06938 19.0525C5.25975 18.8988 5.17554 18.5913 4.93758 18.5546L3.23888 18.2801C2.92037 18.2288 2.92037 17.7712 3.23888 17.7199L4.93758 17.4454C5.17921 17.4051 5.25975 17.1012 5.06938 16.9475L3.73311 15.8602C3.48417 15.6588 3.71115 15.2634 4.01135 15.3769L5.62219 15.9883C5.84917 16.0761 6.07249 15.8528 5.98828 15.6222L5.3769 14.0113C5.26341 13.7111 5.6588 13.4842 5.86015 13.7331L6.94746 15.0694C7.10123 15.2597 7.40875 15.1755 7.44536 14.9376L7.71993 13.2389C7.77119 12.9204 8.22881 12.9204 8.28007 13.2389Z" fill="#FBBF24"/>
<path d="M2.16159 4.33083L2.66885 4.76533C2.7239 4.81235 2.80179 4.82055 2.86555 4.786L3.4522 4.46652C3.67391 4.34568 3.92402 4.57119 3.82695 4.80408L3.57063 5.42076C3.54274 5.48739 3.5592 5.56423 3.6118 5.61418L4.09697 6.07312C4.28046 6.24659 4.14326 6.55431 3.89172 6.534L3.22592 6.48062C3.15388 6.47471 3.08573 6.51406 3.05483 6.5794L2.76815 7.18269C2.65997 7.41069 2.32517 7.37548 2.2664 7.13L2.11154 6.48036C2.09474 6.41012 2.03642 6.35744 1.9646 6.348L1.30182 6.26196C1.05144 6.2293 0.981642 5.90007 1.19686 5.76865L1.76686 5.42032C1.82855 5.38283 1.86051 5.31083 1.84731 5.23964L1.72466 4.58309C1.67831 4.33497 1.96988 4.16663 2.16159 4.33083Z" fill="#FBBF24"/>
<path d="M17.6616 16.3308L18.1688 16.7653C18.2239 16.8123 18.3018 16.8205 18.3655 16.786L18.9522 16.4665C19.1739 16.3457 19.424 16.5712 19.327 16.8041L19.0706 17.4208C19.0427 17.4874 19.0592 17.5642 19.1118 17.6142L19.597 18.0731C19.7805 18.2466 19.6433 18.5543 19.3917 18.534L18.7259 18.4806C18.6539 18.4747 18.5857 18.5141 18.5548 18.5794L18.2682 19.1827C18.16 19.4107 17.8252 19.3755 17.7664 19.13L17.6115 18.4804C17.5947 18.4101 17.5364 18.3574 17.4646 18.348L16.8018 18.262C16.5514 18.2293 16.4816 17.9001 16.6969 17.7686L17.2669 17.4203C17.3285 17.3828 17.3605 17.3108 17.3473 17.2396L17.2247 16.5831C17.1783 16.335 17.4699 16.1666 17.6616 16.3308Z" fill="#FBBF24"/>
<path d="M2.16159 28.2468L2.66885 28.6813C2.7239 28.7284 2.80179 28.7366 2.86555 28.702L3.4522 28.3825C3.67391 28.2617 3.92402 28.4872 3.82695 28.7201L3.57063 29.3368C3.54274 29.4034 3.5592 29.4802 3.6118 29.5302L4.09697 29.9891C4.28046 30.1626 4.14326 30.4703 3.89172 30.45L3.22592 30.3966C3.15388 30.3907 3.08573 30.4301 3.05483 30.4954L2.76815 31.0987C2.65997 31.3267 2.32517 31.2915 2.2664 31.046L2.11154 30.3964C2.09474 30.3261 2.03642 30.2735 1.9646 30.264L1.30182 30.178C1.05144 30.1453 0.981642 29.8161 1.19686 29.6847L1.76686 29.3363C1.82855 29.2988 1.86051 29.2268 1.84731 29.1557L1.72466 28.4991C1.67831 28.251 1.96988 28.0826 2.16159 28.2468Z" fill="#FBBF24"/>
</g>
<defs>
<clipPath id="clip0_98_2886">
<rect width="36" height="36" rx="18" fill="white"/>
</clipPath>
</defs>
</svg>
