<svg width="36" height="36" viewBox="0 0 36 36" fill="none" xmlns="http://www.w3.org/2000/svg">
<g clip-path="url(#clip0_98_2935)">
<path d="M0 0H9V36H0V0Z" fill="#F5F5F5"/>
<path d="M9 0H18V36H9V0Z" fill="#14532D"/>
<path d="M18 0H27V36H18V0Z" fill="#14532D"/>
<path d="M27 0H36V36H27V0Z" fill="#14532D"/>
<path d="M23.1279 13.4152L23.963 14.0051C24.0536 14.0689 24.1748 14.0699 24.269 14.0076L25.1354 13.432C25.4629 13.2143 25.876 13.5224 25.7544 13.8931L25.4336 14.8747C25.3986 14.9808 25.4333 15.0959 25.5205 15.1646L26.3245 15.7951C26.6286 16.0334 26.4542 16.5246 26.0636 16.5307L25.03 16.5475C24.9181 16.5491 24.8177 16.6194 24.7779 16.724L24.4086 17.6896C24.2693 18.0545 23.7485 18.0501 23.6282 17.6831L23.3106 16.7119C23.2762 16.6069 23.1799 16.5349 23.0679 16.5311L22.035 16.4975C21.6448 16.4845 21.4972 15.9911 21.8134 15.7581L22.6507 15.1408C22.7413 15.0743 22.7819 14.9594 22.7529 14.8524L22.4843 13.8659C22.3828 13.493 22.8122 13.1923 23.1279 13.4152Z" fill="#F5F5F5"/>
<path d="M23.9497 20.5292C23.9497 20.5292 23.9546 20.5258 23.9566 20.5245C24.1195 20.4104 24.3254 20.5945 24.2272 20.7678C23.8797 21.3821 23.3948 21.9292 22.7802 22.3595C20.5483 23.9224 17.426 23.3438 15.8534 21.075C14.2808 18.8062 14.8174 15.7274 17.0445 14.168C17.66 13.737 18.3409 13.4678 19.0371 13.3514C19.2325 13.319 19.3341 13.5762 19.1722 13.6896C19.1693 13.6917 19.1673 13.693 19.1644 13.6951C17.3012 14.9997 16.8609 17.587 18.1828 19.4748C19.5047 21.3627 22.0865 21.8339 23.9497 20.5292Z" fill="#F5F5F5"/>
</g>
<defs>
<clipPath id="clip0_98_2935">
<rect width="36" height="36" rx="18" fill="white"/>
</clipPath>
</defs>
</svg>
