<svg width="36" height="36" viewBox="0 0 36 36" fill="none" xmlns="http://www.w3.org/2000/svg">
<g clip-path="url(#clip0_98_3118)">
<path d="M14.4 0H0V36H14.4V0Z" fill="#14532D"/>
<path d="M36 0H14.4V36H36V0Z" fill="#EF4444"/>
<path d="M14.4 10C9.99 10 6.4 13.59 6.4 18C6.4 22.41 9.99 26 14.4 26C18.81 26 22.4 22.41 22.4 18C22.4 13.59 18.81 10 14.4 10ZM20.2 14.53L16.11 16.44L18.37 12.53C19.11 13.07 19.73 13.75 20.2 14.53ZM15.1 11.27C15.82 11.35 16.51 11.54 17.15 11.82L15.1 15.37V11.26V11.27ZM13.7 16.3L10.14 12.74C11.13 11.93 12.36 11.4 13.7 11.26V16.29V16.3ZM11.08 15.68L8.6 14.52C8.76 14.25 8.94 13.98 9.14 13.74L11.08 15.68ZM11.23 17.3H7.67C7.72 16.78 7.84 16.28 8.01 15.8L11.23 17.3ZM11.25 18.7L8.01 20.21C7.84 19.73 7.72 19.22 7.67 18.7H11.26H11.25ZM13.7 24.73C12.98 24.65 12.29 24.46 11.65 24.18L13.7 20.63V24.74V24.73ZM15.1 19.7L18.66 23.26C17.67 24.07 16.44 24.6 15.1 24.74V19.71V19.7ZM17.72 20.32L20.2 21.48C20.04 21.75 19.86 22.02 19.66 22.26L17.72 20.32ZM17.57 18.7H21.13C21.08 19.22 20.96 19.72 20.79 20.2L17.57 18.7ZM17.6 17.3L20.8 15.81C20.96 16.29 21.08 16.78 21.14 17.3H17.61H17.6ZM8.61 21.49L12.67 19.6L10.43 23.47C9.7 22.94 9.08 22.26 8.61 21.49Z" fill="#FBBF24"/>
<path d="M9.2 13.3804C9.2 12.7004 9.75001 12.1504 10.43 12.1504H18.43C19.11 12.1504 19.66 12.7004 19.66 13.3804V18.9204C19.66 21.8104 17.32 24.1504 14.43 24.1504C11.54 24.1504 9.2 21.8104 9.2 18.9204V13.3804Z" fill="#EF4444"/>
<path d="M10.73 14.4502V18.7602C10.73 20.6902 12.14 22.4102 14.05 22.6002C16.25 22.8102 18.11 21.0802 18.11 18.9302V14.4602C18.11 14.0402 17.77 13.7002 17.35 13.7002H11.49C11.07 13.7002 10.73 14.0402 10.73 14.4602V14.4502Z" fill="#F5F5F5"/>
<path d="M14.43 18.6201C14.8553 18.6201 15.2 18.2753 15.2 17.8501C15.2 17.4248 14.8553 17.0801 14.43 17.0801C14.0047 17.0801 13.66 17.4248 13.66 17.8501C13.66 18.2753 14.0047 18.6201 14.43 18.6201Z" fill="#3B82F6"/>
<path d="M14.43 21.08C14.8553 21.08 15.2 20.7353 15.2 20.31C15.2 19.8848 14.8553 19.54 14.43 19.54C14.0047 19.54 13.66 19.8848 13.66 20.31C13.66 20.7353 14.0047 21.08 14.43 21.08Z" fill="#3B82F6"/>
<path d="M14.43 15.8496C14.8553 15.8496 15.2 15.5048 15.2 15.0796C15.2 14.6543 14.8553 14.3096 14.43 14.3096C14.0047 14.3096 13.66 14.6543 13.66 15.0796C13.66 15.5048 14.0047 15.8496 14.43 15.8496Z" fill="#3B82F6"/>
<path d="M16.58 18.6201C17.0053 18.6201 17.35 18.2753 17.35 17.8501C17.35 17.4248 17.0053 17.0801 16.58 17.0801C16.1547 17.0801 15.81 17.4248 15.81 17.8501C15.81 18.2753 16.1547 18.6201 16.58 18.6201Z" fill="#3B82F6"/>
<path d="M12.27 18.6201C12.6953 18.6201 13.04 18.2753 13.04 17.8501C13.04 17.4248 12.6953 17.0801 12.27 17.0801C11.8447 17.0801 11.5 17.4248 11.5 17.8501C11.5 18.2753 11.8447 18.6201 12.27 18.6201Z" fill="#3B82F6"/>
</g>
<defs>
<clipPath id="clip0_98_3118">
<rect width="36" height="36" rx="18" fill="white"/>
</clipPath>
</defs>
</svg>
