<svg width="36" height="36" viewBox="0 0 36 36" fill="none" xmlns="http://www.w3.org/2000/svg">
<g clip-path="url(#clip0_98_3197)">
<path d="M0 0H36V12H0V0Z" fill="#EF4444"/>
<path d="M0 12H36V24H0V12Z" fill="#F5F5F5"/>
<path d="M0 24H36V36H0V24Z" fill="#3B82F6"/>
<path fill-rule="evenodd" clip-rule="evenodd" d="M18 21.9286C20.1697 21.9286 21.9286 20.1697 21.9286 18C21.9286 15.8303 20.1697 14.0714 18 14.0714C15.8303 14.0714 14.0714 15.8303 14.0714 18C14.0714 20.1697 15.8303 21.9286 18 21.9286ZM18 23C20.7614 23 23 20.7614 23 18C23 15.2386 20.7614 13 18 13C15.2386 13 13 15.2386 13 18C13 20.7614 15.2386 23 18 23Z" fill="#22C55E"/>
<path d="M18.4033 15.7976L18.7584 16.8474C18.7971 16.9612 18.8984 17.0379 19.0143 17.0412L20.0822 17.0689C20.4859 17.0793 20.6519 17.6132 20.3313 17.8684L19.4833 18.545C19.3913 18.6179 19.3527 18.7425 19.3856 18.8584L19.6906 19.9252C19.806 20.3285 19.3699 20.6583 19.0378 20.4194L18.1584 19.7875C18.0634 19.7189 17.9375 19.7189 17.8425 19.7875L16.9631 20.4194C16.631 20.6583 16.1955 20.3285 16.3103 19.9252L16.6153 18.8584C16.6482 18.7431 16.6096 18.6184 16.5177 18.545L15.6686 17.8684C15.3479 17.6126 15.5145 17.0793 15.9176 17.0689L16.9856 17.0412C17.101 17.0385 17.2028 16.9612 17.2414 16.8474L17.5965 15.7976C17.7307 15.4008 18.2691 15.4008 18.4033 15.7976Z" fill="#FBBF24"/>
</g>
<defs>
<clipPath id="clip0_98_3197">
<rect width="36" height="36" rx="18" fill="white"/>
</clipPath>
</defs>
</svg>
