<svg width="36" height="36" viewBox="0 0 36 36" fill="none" xmlns="http://www.w3.org/2000/svg">
<g clip-path="url(#clip0_98_3314)">
<path d="M0 0H36V12H0V0Z" fill="#EF4444"/>
<path d="M0 12H36V24H0V12Z" fill="#1E3A8A"/>
<path d="M0 24H36V36H0V24Z" fill="#F5F5F5"/>
<path d="M13.6843 5.84825C13.8893 5.78794 14.0992 5.7397 14.3115 5.70472V7.42585C13.6131 7.59832 12.9787 7.98187 12.4987 8.53548C12.1308 8.96003 11.8715 9.46177 11.74 9.9985H10.0177C10.1697 9.0722 10.5701 8.19897 11.184 7.47651C10.5568 7.66707 9.98876 8.03011 9.55094 8.53548C9.18307 8.96003 8.92376 9.46177 8.79229 9.9985H7.84428C7.37751 9.9985 7 10.376 7 10.8428C7 9.58842 7.4535 8.37506 8.27607 7.42947C9.26388 6.28969 10.6967 5.63477 12.208 5.63477C12.711 5.63477 13.2067 5.70713 13.6843 5.84825Z" fill="#F5F5F5"/>
<path d="M23.3115 10.8428C23.3115 10.376 22.934 9.9985 22.4672 9.9985H21.5192C21.3878 9.46177 21.1297 8.96003 20.7618 8.53668C20.7087 8.47517 20.652 8.41486 20.5917 8.35456C20.1756 7.93724 19.6727 7.63813 19.1251 7.47289C19.739 8.19415 20.1419 9.06858 20.2938 9.9985H18.5715C18.44 9.46177 18.1819 8.96003 17.814 8.53668C17.761 8.47517 17.7043 8.41486 17.644 8.35456C17.1832 7.89262 16.6176 7.57541 16 7.42464V5.70351C16.2147 5.73729 16.427 5.78553 16.6333 5.84704C17.1097 5.70713 17.603 5.63477 18.1035 5.63477C19.4954 5.63477 20.804 6.17631 21.7858 7.1605C21.8762 7.25096 21.9619 7.34263 22.0391 7.43309C22.858 8.37506 23.3115 9.58721 23.3115 10.8428Z" fill="#F5F5F5"/>
<path d="M23.3115 10.8435C23.3115 11.3103 22.934 11.6878 22.4672 11.6878H20.7208C20.6424 11.6818 20.564 11.6781 20.4832 11.6781H9.82834C9.74753 11.6781 9.66914 11.6818 9.59074 11.6878H7.84428C7.37751 11.6878 7 11.3103 7 10.8435C7 10.3767 7.37751 9.99922 7.84428 9.99922H14.3115V4.84428C14.3115 4.37872 14.689 4 15.1558 4C15.3897 4 15.5996 4.09408 15.7528 4.24725C15.906 4.40043 16 4.6115 16 4.84428V9.99922H22.4672C22.934 9.99922 23.3115 10.3767 23.3115 10.8435Z" fill="#FBBF24"/>
<path d="M20.7208 11.6874H9.59073C9.66913 11.6814 9.74752 11.6777 9.82833 11.6777H20.4832C20.564 11.6777 20.6424 11.6814 20.7208 11.6874Z" fill="#FBBF24"/>
<path d="M23.2958 14.2033C23.2898 14.1503 23.2826 14.0972 23.2741 14.0465C23.1017 12.9948 22.3466 12.1361 21.3528 11.8152H21.3516C21.2225 11.773 21.0886 11.7405 20.9524 11.7175C20.8764 11.7043 20.7992 11.6946 20.7208 11.6874C20.6424 11.6814 20.564 11.6777 20.4832 11.6777H9.82834C9.74753 11.6777 9.66914 11.6814 9.59074 11.6874C9.51234 11.6946 9.43515 11.7043 9.35916 11.7175C9.22287 11.7405 9.08899 11.773 8.95994 11.8152C7.96489 12.1361 7.20986 12.9948 7.03739 14.0465C7.02895 14.0984 7.02171 14.1503 7.01568 14.2033C7.00603 14.3035 7 14.4036 7 14.5061V23.8438C7 25.3708 7.42214 26.8012 8.15425 28.0242C8.17958 28.0677 8.20612 28.1099 8.23386 28.1521C8.7549 28.9879 9.42429 29.7224 10.2047 30.3195C10.2963 30.3906 10.3904 30.4594 10.4857 30.5257C11.8088 31.4544 13.4202 31.9996 15.1558 31.9996C16.8914 31.9996 18.5027 31.4544 19.8258 30.5257C19.9211 30.4594 20.0152 30.3906 20.1069 30.3195C20.8872 29.7224 21.5566 28.9879 22.0777 28.1521C22.1054 28.1099 22.1319 28.0677 22.1573 28.0242C22.8894 26.8012 23.3115 25.3708 23.3115 23.8438V14.5061C23.3115 14.4036 23.3055 14.3035 23.2958 14.2033ZM21.623 23.8438C21.623 24.5458 21.5084 25.2381 21.2877 25.8966C21.1574 26.285 20.6532 26.3779 20.3963 26.0595L19.1432 24.4963C18.9309 24.2322 18.8417 23.8885 18.9104 23.5568C18.9611 23.3071 18.9888 23.0478 18.9888 22.7812V22.5629H16.4342C16.2823 22.5629 16.1448 22.6245 16.0447 22.7246C15.9446 22.8247 15.883 22.9622 15.883 23.1141V26.5455C16.0471 26.5142 16.2063 26.472 16.3619 26.4201C16.655 26.3212 16.9794 26.4249 17.1724 26.6661L18.9032 28.8227C18.9828 28.9216 18.9635 29.0675 18.8597 29.1411C18.8585 29.1423 18.8573 29.1423 18.8561 29.1435C17.7682 29.907 16.4885 30.311 15.1558 30.311C13.823 30.311 12.5433 29.907 11.4542 29.1423C11.453 29.1423 11.453 29.1411 11.4518 29.1411C11.3481 29.0675 11.3288 28.9216 11.4084 28.8215L13.1391 26.6661C13.3321 26.4261 13.6554 26.3212 13.9484 26.4189C14.1064 26.472 14.2693 26.5142 14.4357 26.5467V23.1214C14.4357 22.8126 14.186 22.5629 13.8773 22.5629H11.3227V22.7812C11.3227 22.9935 11.3396 23.201 11.3734 23.4036C11.447 23.8535 11.3167 24.3118 11.032 24.6676L9.94534 26.0197C9.67637 26.355 9.14086 26.2573 9.00698 25.8484C8.79711 25.2043 8.68856 24.5277 8.68856 23.8438V17.642C8.68856 17.1306 9.33263 16.9038 9.65346 17.3031L10.9633 18.9337C11.1961 19.2244 11.3227 19.585 11.3227 19.9565V21.1156H13.8845C14.0365 21.1156 14.174 21.0541 14.2741 20.954C14.3742 20.8539 14.4357 20.7164 14.4357 20.5644V17.063H13.7482C13.384 17.063 13.0402 16.8978 12.8135 16.6144L10.7353 14.0273C10.5219 13.7619 10.7112 13.3663 11.0526 13.3663H19.259C19.6003 13.3663 19.7897 13.7619 19.5762 14.0273L17.498 16.6144C17.2713 16.8978 16.9275 17.063 16.5633 17.063H15.883V20.5716C15.883 20.872 16.1267 21.1156 16.427 21.1156H18.9888V19.7877C18.9888 19.5259 19.0781 19.2702 19.2433 19.0664L20.7075 17.2428C21.0115 16.864 21.623 17.0787 21.623 17.5648V23.8438Z" fill="#EF4444"/>
<path d="M21.623 17.5647V23.8437C21.623 24.5457 21.5084 25.238 21.2877 25.8966C21.1574 26.2849 20.6532 26.3778 20.3963 26.0594L19.1432 24.4963C18.9309 24.2321 18.8417 23.8884 18.9104 23.5567C18.9611 23.307 18.9888 23.0477 18.9888 22.7812V22.5629H16.4343C16.2823 22.5629 16.1448 22.6244 16.0447 22.7245C15.9446 22.8246 15.8831 22.9621 15.8831 23.114V26.5454C16.0471 26.5141 16.2063 26.4719 16.3619 26.42C16.655 26.3211 16.9794 26.4248 17.1724 26.6661L18.9032 28.8226C18.9828 28.9215 18.9635 29.0674 18.8598 29.141C18.8585 29.1422 18.8573 29.1422 18.8561 29.1434C17.7682 29.9069 16.4885 30.3109 15.1558 30.3109C13.823 30.3109 12.5433 29.9069 11.4542 29.1422C11.453 29.1422 11.453 29.141 11.4518 29.141C11.3481 29.0674 11.3288 28.9215 11.4084 28.8214L13.1391 26.6661C13.3321 26.426 13.6554 26.3211 13.9484 26.4188C14.1064 26.4719 14.2693 26.5141 14.4357 26.5467V23.1213C14.4357 22.8125 14.186 22.5629 13.8773 22.5629H11.3227V22.7812C11.3227 22.9934 11.3396 23.2009 11.3734 23.4035C11.447 23.8534 11.3167 24.3117 11.0321 24.6675L9.94534 26.0196C9.67638 26.3549 9.14086 26.2572 9.00698 25.8483C8.79712 25.2042 8.68857 24.5276 8.68857 23.8437V17.6419C8.68857 17.1305 9.33263 16.9038 9.65346 17.303L10.9633 18.9336C11.1961 19.2243 11.3227 19.5849 11.3227 19.9564V21.1155H13.8845C14.0365 21.1155 14.174 21.054 14.2741 20.9539C14.3742 20.8538 14.4357 20.7163 14.4357 20.5643V17.063H13.7482C13.384 17.063 13.0402 16.8977 12.8135 16.6143L10.7353 14.0272C10.5219 13.7618 10.7112 13.3662 11.0526 13.3662H19.259C19.6003 13.3662 19.7897 13.7618 19.5762 14.0272L17.498 16.6143C17.2713 16.8977 16.9276 17.063 16.5633 17.063H15.8831V20.5716C15.8831 20.8719 16.1267 21.1155 16.427 21.1155H18.9888V19.7876C18.9888 19.5258 19.0781 19.2702 19.2433 19.0663L20.7075 17.2427C21.0115 16.8639 21.623 17.0786 21.623 17.5647Z" fill="#F5F5F5"/>
</g>
<defs>
<clipPath id="clip0_98_3314">
<rect width="36" height="36" rx="18" fill="white"/>
</clipPath>
</defs>
</svg>
