<svg width="36" height="36" viewBox="0 0 36 36" fill="none" xmlns="http://www.w3.org/2000/svg">
<g clip-path="url(#clip0_98_3338)">
<path d="M0 0H36V18H0V0Z" fill="#3B82F6"/>
<path d="M0 18H36V27H0V18Z" fill="#FBBF24"/>
<path d="M0 27H36V36H0V27Z" fill="#22C55E"/>
<path fill-rule="evenodd" clip-rule="evenodd" d="M27.2241 5.1911L27.4437 6.55006C27.4759 6.74336 27.719 6.8078 27.842 6.6555L28.7119 5.58649C28.873 5.38733 29.1893 5.56892 29.0985 5.80908L28.6094 7.09775C28.5391 7.27933 28.7177 7.45799 28.9023 7.39063L30.1909 6.90152C30.4311 6.81073 30.6127 7.12704 30.4135 7.28812L29.3445 8.15797C29.1922 8.28098 29.2596 8.527 29.4499 8.55629L30.8089 8.77595C31.0637 8.81695 31.0637 9.18305 30.8089 9.22405L29.4499 9.44371C29.2566 9.47593 29.1922 9.71902 29.3445 9.84203L30.4135 10.7119C30.6127 10.873 30.4311 11.1893 30.1909 11.0985L28.9023 10.6094C28.7207 10.5391 28.542 10.7177 28.6094 10.9023L29.0985 12.1909C29.1893 12.4311 28.873 12.6127 28.7119 12.4135L27.842 11.3445C27.719 11.1922 27.473 11.2596 27.4437 11.4499L27.2241 12.8089C27.183 13.0637 26.817 13.0637 26.7759 12.8089L26.5563 11.4499C26.5241 11.2566 26.281 11.1922 26.158 11.3445L25.2881 12.4135C25.127 12.6127 24.8107 12.4311 24.9015 12.1909L25.3906 10.9023C25.4609 10.7207 25.2823 10.542 25.0977 10.6094L23.8091 11.0985C23.5689 11.1893 23.3873 10.873 23.5865 10.7119L24.6555 9.84203C24.8078 9.71902 24.7404 9.473 24.5501 9.44371L23.1911 9.22405C22.9363 9.18305 22.9363 8.81695 23.1911 8.77595L24.5501 8.55629C24.7434 8.52407 24.8078 8.28098 24.6555 8.15797L23.5865 7.28812C23.3873 7.12704 23.5689 6.81073 23.8091 6.90152L25.0977 7.39063C25.2793 7.46092 25.458 7.28226 25.3906 7.09775L24.9015 5.80908C24.8107 5.56892 25.127 5.38733 25.2881 5.58649L26.158 6.6555C26.281 6.8078 26.527 6.74044 26.5563 6.55006L26.7759 5.1911C26.817 4.9363 27.183 4.9363 27.2241 5.1911Z" fill="#FBBF24"/>
</g>
<defs>
<clipPath id="clip0_98_3338">
<rect width="36" height="36" rx="18" fill="white"/>
</clipPath>
</defs>
</svg>
