<svg width="36" height="36" viewBox="0 0 36 36" fill="none" xmlns="http://www.w3.org/2000/svg">
<rect width="36" height="36" rx="18" fill="#14532D"/>
<path d="M10.46 10.25C10.13 10.25 9.86 10.52 9.86 10.85V17.05C9.86 17.85 9.21 18.49 8.42 18.49H5.1C4.77 18.49 4.5 18.76 4.5 19.09C4.5 19.42 4.77 19.69 5.1 19.69H8.42C9.88 19.69 11.06 18.5 11.06 17.05V10.85C11.06 10.52 10.79 10.25 10.46 10.25Z" fill="#F5F5F5"/>
<path d="M6.06 17.81H7.02C7.35 17.81 7.62 17.54 7.62 17.21V11.67C7.62 11.55 7.72 11.45 7.84 11.45H8.06V17.21C8.06 17.54 8.33 17.81 8.66 17.81C8.99 17.81 9.26 17.54 9.26 17.21V10.85C9.26 10.52 8.99 10.25 8.66 10.25H7.84C7.06 10.25 6.42 10.89 6.42 11.67V16.61H6.06C5.86 16.61 5.7 16.45 5.7 16.25V10.85C5.7 10.52 5.43 10.25 5.1 10.25C4.77 10.25 4.5 10.52 4.5 10.85V16.25C4.5 17.11 5.2 17.81 6.06 17.81Z" fill="#F5F5F5"/>
<path d="M19.79 18.4902H12.92V10.8402C12.92 10.5102 12.65 10.2402 12.32 10.2402C11.99 10.2402 11.72 10.5102 11.72 10.8402V19.0902C11.72 19.4202 11.99 19.6902 12.32 19.6902H19.79C20.12 19.6902 20.39 19.4202 20.39 19.0902C20.39 18.7602 20.12 18.4902 19.79 18.4902Z" fill="#F5F5F5"/>
<path d="M14.13 17.81C14.46 17.81 14.73 17.54 14.73 17.21V11.45H15.52V17.21C15.52 17.54 15.79 17.81 16.12 17.81C16.45 17.81 16.72 17.54 16.72 17.21V10.85C16.72 10.52 16.45 10.25 16.12 10.25H14.13C13.8 10.25 13.53 10.52 13.53 10.85V17.21C13.53 17.54 13.8 17.81 14.13 17.81Z" fill="#F5F5F5"/>
<path d="M17.57 10.25C17.24 10.25 16.97 10.52 16.97 10.85C16.97 11.18 17.24 11.45 17.57 11.45C18.66 11.45 19.55 12.34 19.55 13.43V16.44C19.55 16.53 19.47 16.61 19.38 16.61H17.57C17.24 16.61 16.97 16.88 16.97 17.21C16.97 17.54 17.24 17.81 17.57 17.81H19.38C20.14 17.81 20.75 17.2 20.75 16.44V13.43C20.75 11.68 19.32 10.25 17.57 10.25Z" fill="#F5F5F5"/>
<path d="M24.58 10.85C24.58 10.52 24.31 10.25 23.98 10.25C23.65 10.25 23.38 10.52 23.38 10.85V16.71C23.38 17.69 22.58 18.49 21.6 18.49C21.27 18.49 21 18.76 21 19.09C21 19.42 21.27 19.69 21.6 19.69C23.25 19.69 24.58 18.35 24.58 16.71V10.85Z" fill="#F5F5F5"/>
<path d="M30.9 10.25C30.57 10.25 30.3 10.52 30.3 10.85V16.71C30.3 17.69 29.5 18.49 28.52 18.49C28.19 18.49 27.92 18.76 27.92 19.09C27.92 19.42 28.19 19.69 28.52 19.69C30.17 19.69 31.5 18.35 31.5 16.71V10.85C31.5 10.52 31.23 10.25 30.9 10.25Z" fill="#F5F5F5"/>
<path d="M22.01 17.8096C22.34 17.8096 22.61 17.5396 22.61 17.2096V10.9896C22.61 10.6596 22.34 10.3896 22.01 10.3896C21.68 10.3896 21.41 10.6596 21.41 10.9896V17.2096C21.41 17.5396 21.68 17.8096 22.01 17.8096Z" fill="#F5F5F5"/>
<path d="M28.52 16.5703C28.52 16.5703 28.52 16.5803 28.52 16.5903C28.52 16.6003 28.51 16.6003 28.5 16.6003H26.97C26.6 16.6003 26.3 16.3003 26.3 15.9303V14.0903C26.3 13.7603 26.03 13.4903 25.7 13.4903C25.37 13.4903 25.1 13.7603 25.1 14.0903V15.9303C25.1 16.9603 25.94 17.8003 26.97 17.8003H28.5C28.96 17.8003 29.37 17.5503 29.58 17.1403C29.79 16.7403 29.76 16.2503 29.5 15.8803L25.87 10.6303C25.68 10.3603 25.31 10.2903 25.04 10.4803C24.77 10.6703 24.7 11.0403 24.89 11.3103L28.52 16.5603V16.5703Z" fill="#F5F5F5"/>
<path d="M26.92 18.4502H24.96C24.63 18.4502 24.36 18.7202 24.36 19.0502C24.36 19.3802 24.63 19.6502 24.96 19.6502H26.92C27.25 19.6502 27.52 19.3802 27.52 19.0502C27.52 18.7202 27.25 18.4502 26.92 18.4502Z" fill="#F5F5F5"/>
<path d="M28.89 14.43C29 14.6 29.19 14.7 29.39 14.7C29.45 14.7 29.51 14.7 29.56 14.67C29.81 14.59 29.99 14.36 29.99 14.1V10.85C29.99 10.52 29.72 10.25 29.39 10.25C29.06 10.25 28.79 10.52 28.79 10.85V12.11L27.74 10.52C27.56 10.24 27.19 10.17 26.91 10.35C26.63 10.53 26.56 10.9 26.74 11.18L28.89 14.43Z" fill="#F5F5F5"/>
<path d="M18 15.9099C18.33 15.9099 18.6 15.6399 18.6 15.3099V12.7299C18.6 12.3999 18.33 12.1299 18 12.1299C17.67 12.1299 17.4 12.3999 17.4 12.7299V15.3099C17.4 15.6399 17.67 15.9099 18 15.9099Z" fill="#F5F5F5"/>
<path d="M9.6 24.7305H26.4C26.73 24.7305 27 25.0005 27 25.3305C27 25.6605 26.73 25.9305 26.4 25.9305H9.6C9.27 25.9305 9 25.6605 9 25.3305C9 25.0005 9.27 24.7305 9.6 24.7305Z" fill="#F5F5F5"/>
</svg>
