<svg width="36" height="36" viewBox="0 0 36 36" fill="none" xmlns="http://www.w3.org/2000/svg">
<g clip-path="url(#clip0_98_3742)">
<path d="M0 0H36V18H0V0Z" fill="#EF4444"/>
<path d="M0 18H36V36H0V18Z" fill="#F5F5F5"/>
<path d="M11.2064 7.04226L11.3875 7.54625C11.4072 7.60085 11.4589 7.63769 11.518 7.63926L12.0627 7.65258C12.2686 7.65755 12.3533 7.91385 12.1897 8.03638L11.7572 8.36114C11.7103 8.39615 11.6906 8.45598 11.7074 8.51163L11.8629 9.02371C11.9218 9.21731 11.6994 9.37564 11.53 9.26094L11.0814 8.95761C11.033 8.92469 10.9688 8.92469 10.9203 8.95761L10.4718 9.26094C10.3024 9.37564 10.0802 9.21731 10.1388 9.02371L10.2944 8.51163C10.3112 8.45624 10.2915 8.39641 10.2446 8.36114L9.81149 8.03638C9.64795 7.91359 9.73292 7.65755 9.93854 7.65258L10.4832 7.63926C10.5421 7.63795 10.594 7.60085 10.6137 7.54625L10.7949 7.04226C10.8633 6.8518 11.1379 6.8518 11.2064 7.04226Z" fill="#F5F5F5"/>
<path d="M12.7065 10.344L12.8877 10.848C12.9074 10.9026 12.959 10.9394 13.0182 10.941L13.5629 10.9543C13.7687 10.9593 13.8534 11.2156 13.6899 11.3381L13.2573 11.6629C13.2105 11.6979 13.1908 11.7577 13.2075 11.8134L13.3631 12.3255C13.422 12.5191 13.1995 12.6774 13.0301 12.5627L12.5816 12.2594C12.5331 12.2264 12.469 12.2264 12.4205 12.2594L11.9719 12.5627C11.8025 12.6774 11.5804 12.5191 11.639 12.3255L11.7946 11.8134C11.8113 11.758 11.7916 11.6982 11.7447 11.6629L11.3117 11.3381C11.1481 11.2153 11.2331 10.9593 11.4387 10.9543L11.9834 10.941C12.0423 10.9397 12.0942 10.9026 12.1139 10.848L12.295 10.344C12.3635 10.1536 12.6381 10.1536 12.7065 10.344Z" fill="#F5F5F5"/>
<path d="M17.207 7.04226L17.3881 7.54625C17.4078 7.60085 17.4595 7.63769 17.5186 7.63926L18.0633 7.65258C18.2692 7.65755 18.3539 7.91385 18.1903 8.03638L17.7578 8.36114C17.7109 8.39615 17.6912 8.45598 17.708 8.51163L17.8635 9.02371C17.9224 9.21731 17.7 9.37564 17.5306 9.26094L17.082 8.95761C17.0336 8.92469 16.9694 8.92469 16.9209 8.95761L16.4724 9.26094C16.303 9.37564 16.0808 9.21731 16.1394 9.02371L16.295 8.51163C16.3117 8.45624 16.292 8.39641 16.2452 8.36114L15.8121 8.03638C15.6485 7.91359 15.7335 7.65755 15.9391 7.65258L16.4838 7.63926C16.5427 7.63795 16.5946 7.60085 16.6143 7.54625L16.7954 7.04226C16.8639 6.8518 17.1385 6.8518 17.207 7.04226Z" fill="#F5F5F5"/>
<path d="M16.0069 10.344L16.188 10.848C16.2077 10.9026 16.2594 10.9394 16.3185 10.941L16.8632 10.9543C17.0691 10.9593 17.1538 11.2156 16.9902 11.3381L16.5577 11.6629C16.5108 11.6979 16.4911 11.7577 16.5079 11.8134L16.6634 12.3255C16.7223 12.5191 16.4999 12.6774 16.3305 12.5627L15.882 12.2594C15.8335 12.2264 15.7693 12.2264 15.7208 12.2594L15.2723 12.5627C15.1029 12.6774 14.8807 12.5191 14.9393 12.3255L15.0949 11.8134C15.1117 11.758 15.092 11.6982 15.0451 11.6629L14.612 11.3381C14.4485 11.2153 14.5334 10.9593 14.7391 10.9543L15.2837 10.941C15.3426 10.9397 15.3945 10.9026 15.4142 10.848L15.5954 10.344C15.6638 10.1536 15.9384 10.1536 16.0069 10.344Z" fill="#F5F5F5"/>
<path d="M14.2067 4.94265L14.3878 5.44664C14.4075 5.50124 14.4592 5.53808 14.5183 5.53965L15.063 5.55297C15.2689 5.55794 15.3536 5.81424 15.19 5.93677L14.7575 6.26153C14.7106 6.29654 14.6909 6.35637 14.7077 6.41202L14.8632 6.9241C14.9221 7.1177 14.6997 7.27603 14.5303 7.16133L14.0817 6.858C14.0333 6.82508 13.9691 6.82508 13.9206 6.858L13.4721 7.16133C13.3027 7.27603 13.0805 7.1177 13.1391 6.9241L13.2947 6.41202C13.3115 6.35663 13.2918 6.2968 13.2449 6.26153L12.8118 5.93677C12.6482 5.81398 12.7332 5.55794 12.9388 5.55297L13.4835 5.53965C13.5424 5.53834 13.5943 5.50124 13.614 5.44664L13.7952 4.94265C13.8636 4.75219 14.1382 4.75219 14.2067 4.94265Z" fill="#F5F5F5"/>
<path d="M10.9452 13.1715C10.9452 13.1715 10.9512 13.1715 10.9535 13.1715C11.1524 13.1715 11.2155 13.4404 11.0357 13.526C10.3986 13.83 9.68764 14 8.9374 14C6.21269 14 3.98696 11.7352 4.00006 8.97467C4.01316 6.21418 6.21864 4 8.9374 4C9.68883 4 10.401 4.17004 11.0381 4.47395C11.2167 4.55958 11.1524 4.82851 10.9547 4.82851C10.9512 4.82851 10.9488 4.82851 10.9452 4.82851C8.67064 4.82851 6.82599 6.69537 6.82599 9C6.82599 11.3046 8.67064 13.1715 10.9452 13.1715Z" fill="#F5F5F5"/>
</g>
<defs>
<clipPath id="clip0_98_3742">
<rect width="36" height="36" rx="18" fill="white"/>
</clipPath>
</defs>
</svg>
