<svg width="36" height="36" viewBox="0 0 36 36" fill="none" xmlns="http://www.w3.org/2000/svg">
<g clip-path="url(#clip0_98_3755)">
<path d="M0 0H36V12H0V0Z" fill="#F5F5F5"/>
<path d="M0 12H36V24H0V12Z" fill="#1E3A8A"/>
<path d="M0 24H36V36H0V24Z" fill="#EF4444"/>
<g clip-path="url(#clip1_98_3755)">
<path fill-rule="evenodd" clip-rule="evenodd" d="M16.9509 6.941C16.9381 7.13641 16.9253 7.32621 16.9124 7.51121C16.9084 7.56967 16.9044 7.62734 16.9004 7.685C16.8884 7.85798 16.8764 8.02696 16.8644 8.19114C16.8532 8.35371 16.8412 8.51148 16.8299 8.66524C16.8027 9.01201 16.7763 9.33876 16.7499 9.64629C16.7459 9.69594 16.7411 9.7456 16.7371 9.79445C16.7282 9.89856 16.7186 9.99947 16.7098 10.0988C16.6978 10.2285 16.6858 10.355 16.6738 10.4776C16.6409 10.8035 16.6089 11.1038 16.5753 11.3809C16.5689 11.433 16.5633 11.4834 16.5569 11.5339C16.5545 11.5507 16.5529 11.5675 16.5505 11.5836C16.544 11.6324 16.5384 11.6797 16.532 11.7269C16.5216 11.8086 16.5104 11.8871 16.5 11.9648C16.464 12.217 16.4271 12.4461 16.3895 12.6535C16.3823 12.6919 16.3751 12.7296 16.3679 12.7672C16.3118 13.0555 16.2541 13.3006 16.1917 13.508C16.1644 13.5969 16.1372 13.6794 16.1092 13.7555C15.3884 15.4973 14.2472 16.4511 11.7846 17.3593C9.32194 16.4511 8.18072 15.4973 7.45195 13.7555C7.42472 13.6826 7.39909 13.6033 7.37346 13.5184C7.34223 13.4151 7.3126 13.303 7.28377 13.1813C7.27896 13.1612 7.27416 13.1404 7.26935 13.1196C7.20689 12.8473 7.14842 12.5286 7.09316 12.1522C7.08035 12.0657 7.06834 11.976 7.05552 11.8831C7.04591 11.8134 7.0371 11.7429 7.0283 11.6708C7.02349 11.6356 7.01949 11.6004 7.01468 11.5643C7.00747 11.5107 7.00107 11.4554 6.99466 11.4002C6.98505 11.3161 6.97464 11.2304 6.96503 11.1415C6.96182 11.1127 6.95862 11.0822 6.95542 11.0526C6.94901 10.9933 6.9426 10.9325 6.9362 10.8708C6.93219 10.8292 6.92739 10.7875 6.92338 10.7459C6.92018 10.713 6.91698 10.6802 6.91377 10.6474C6.90817 10.5913 6.90256 10.5336 6.89695 10.476C6.88494 10.3566 6.87373 10.2333 6.86252 10.1068C6.8409 9.86412 6.81847 9.60785 6.79685 9.33716C6.79124 9.26989 6.78644 9.20182 6.78083 9.13374C6.77763 9.0953 6.77442 9.05766 6.77202 9.01922C6.76882 8.97918 6.76561 8.93914 6.76241 8.89829C6.76001 8.86466 6.75761 8.83022 6.7552 8.79498C6.7488 8.71249 6.74239 8.6292 6.73598 8.54511C6.72717 8.42178 6.71756 8.29525 6.70875 8.16551C6.70155 8.0646 6.69434 7.96209 6.68713 7.85798C6.66711 7.56567 6.64629 7.25974 6.62547 6.941C6.83369 6.86252 7.04271 6.78884 7.25334 6.71997C8.72611 6.24026 10.2573 6 11.7886 6C13.3198 6 14.8502 6.24026 16.323 6.71997C16.5336 6.78884 16.7427 6.86252 16.9509 6.941Z" fill="#1E3A8A"/>
<path d="M16.9509 6.94043C16.9381 7.13584 16.9253 7.32564 16.9124 7.51064C16.9084 7.5691 16.9044 7.62676 16.9004 7.68442C16.8884 7.85741 16.8764 8.02639 16.8644 8.19056C16.8532 8.35314 16.8412 8.5109 16.83 8.66467C16.8027 9.01144 16.7763 9.33819 16.7499 9.64571C16.7459 9.69537 16.7411 9.74502 16.7371 9.79387C16.7282 9.89798 16.7186 9.99889 16.7098 10.0982C16.6978 10.2279 16.6858 10.3545 16.6738 10.477C16.641 10.8029 16.6089 11.1033 16.5753 11.3804C16.5689 11.4324 16.5633 11.4829 16.5569 11.5333C16.5545 11.5501 16.5529 11.567 16.5505 11.583C16.544 11.6318 16.5384 11.6791 16.532 11.7263C16.5216 11.808 16.5104 11.8865 16.5 11.9642C16.464 12.2165 16.4271 12.4455 16.3895 12.6529C16.3823 12.6914 16.3751 12.729 16.3679 12.7666C16.3118 13.055 16.2541 13.3 16.1917 13.5074C16.1644 13.5963 16.1372 13.6788 16.1092 13.7549C15.3884 15.4968 14.2472 16.4506 11.7846 17.3587C9.32194 16.4506 8.18073 15.4968 7.45195 13.7549C7.42472 13.682 7.39909 13.6027 7.37347 13.5178C7.34223 13.4145 7.3126 13.3024 7.28377 13.1807C7.27896 13.1607 7.27416 13.1398 7.26935 13.119C7.20689 12.8467 7.14842 12.528 7.09317 12.1516C7.08035 12.0651 7.06754 11.9754 7.05553 11.8825C7.04592 11.8128 7.03711 11.7424 7.0283 11.6703C7.02349 11.635 7.01949 11.5998 7.01468 11.5638C7.00747 11.5101 7.00107 11.4548 6.99466 11.3996C6.98425 11.3155 6.97464 11.2298 6.96503 11.1409C6.96183 11.1121 6.95862 11.0816 6.95542 11.052C6.94901 10.9928 6.94261 10.9319 6.9362 10.8702C6.93219 10.8286 6.92739 10.7869 6.92338 10.7453C6.92018 10.7125 6.91698 10.6796 6.91377 10.6468C6.90817 10.5907 6.90256 10.5331 6.89696 10.4754C6.88494 10.3561 6.87373 10.2327 6.86252 10.1062C6.8409 9.86355 6.81847 9.60727 6.79685 9.33659C6.79124 9.26931 6.78644 9.20124 6.78083 9.13317C6.77763 9.09473 6.77443 9.05709 6.77202 9.01865C6.76882 8.9786 6.76562 8.93856 6.76241 8.89772C6.76001 8.86408 6.75761 8.82964 6.75521 8.79441C6.7488 8.71192 6.74239 8.62863 6.73599 8.54454C6.72718 8.42121 6.71757 8.29467 6.70876 8.16494C6.70155 8.06403 6.69434 7.96152 6.68713 7.85741C6.66711 7.5651 6.64629 7.25917 6.62547 6.94043C6.41564 7.01891 6.20662 7.103 6 7.1927C6.26749 11.237 6.49333 13.0021 6.85051 13.9759C6.85291 13.9831 6.85691 13.9911 6.85932 13.9984C6.86012 14 6.86012 14.0008 6.86092 14.0024C7.66257 15.9188 8.93673 16.9912 11.5627 17.9602C11.634 17.9866 11.7093 17.9994 11.7846 17.9994C11.8599 17.9994 11.9343 17.9866 12.0056 17.9602C14.6356 16.9903 15.9074 15.9172 16.701 14C16.7026 13.996 16.7042 13.992 16.7058 13.9879C16.7074 13.9847 16.7082 13.9815 16.7098 13.9775C17.075 12.9925 17.3113 11.1673 17.5763 7.1927C17.3697 7.103 17.1607 7.01891 16.9509 6.94043Z" fill="#EF4444"/>
<path d="M16.323 6.71973C16.106 10.0665 15.9074 11.9677 15.6599 13.0104C15.6127 13.2115 15.5638 13.3812 15.5117 13.5222C14.8799 15.0414 13.9253 15.8559 11.7846 16.6751C9.64549 15.8567 8.68766 15.0422 8.04858 13.5214C7.99733 13.3812 7.94928 13.2171 7.90363 13.0224C7.66177 12.007 7.47597 10.1722 7.25334 6.71973C7.04271 6.7886 6.83369 6.86228 6.62547 6.94076C6.64629 7.2595 6.66711 7.56543 6.68713 7.85774C6.69434 7.96185 6.70155 8.06436 6.70875 8.16527C6.71756 8.29501 6.72717 8.42154 6.73598 8.54487C6.74239 8.62896 6.7488 8.71225 6.7552 8.79474C6.75761 8.82998 6.76001 8.86441 6.76241 8.89805C6.76561 8.93889 6.76882 8.97894 6.77202 9.01898C6.77442 9.05742 6.77763 9.09506 6.78083 9.1335C6.78644 9.20157 6.79124 9.26965 6.79685 9.33692C6.81847 9.60761 6.8409 9.86388 6.86252 10.1065C6.87373 10.2331 6.88494 10.3564 6.89695 10.4757C6.90256 10.5334 6.90817 10.5911 6.91377 10.6471C6.91698 10.68 6.92018 10.7128 6.92338 10.7456C6.92739 10.7873 6.93219 10.8289 6.9362 10.8706C6.9426 10.9322 6.94901 10.9931 6.95542 11.0523C6.95862 11.082 6.96182 11.1124 6.96503 11.1412C6.97464 11.2301 6.98425 11.3158 6.99466 11.3999C7.00107 11.4552 7.00747 11.5104 7.01468 11.5641C7.01949 11.6001 7.02349 11.6354 7.0283 11.6706C7.0371 11.7427 7.04591 11.8132 7.05552 11.8828C7.06754 11.9757 7.08035 12.0654 7.09316 12.1519C7.14842 12.5283 7.20689 12.8471 7.26935 13.1194C7.27416 13.1402 7.27896 13.161 7.28377 13.181C7.3126 13.3027 7.34223 13.4149 7.37346 13.5182C7.39909 13.6031 7.42472 13.6824 7.45195 13.7552C8.18072 15.4971 9.32194 16.4509 11.7846 17.3591C14.2472 16.4509 15.3884 15.4971 16.1092 13.7552C16.1372 13.6792 16.1644 13.5967 16.1917 13.5078C16.2541 13.3003 16.3118 13.0553 16.3679 12.767C16.3751 12.7293 16.3823 12.6917 16.3895 12.6533C16.4271 12.4458 16.464 12.2168 16.5 11.9645C16.5104 11.8868 16.5216 11.8084 16.532 11.7267C16.5384 11.6794 16.544 11.6322 16.5505 11.5833C16.5529 11.5673 16.5545 11.5505 16.5569 11.5337C16.5633 11.4832 16.5689 11.4328 16.5753 11.3807C16.6089 11.1036 16.6409 10.8033 16.6738 10.4773C16.6858 10.3548 16.6978 10.2283 16.7098 10.0985C16.7186 9.99923 16.7282 9.89832 16.7371 9.79421C16.7411 9.74535 16.7459 9.6957 16.7499 9.64605C16.7763 9.33852 16.8027 9.01177 16.8299 8.665C16.8412 8.51124 16.8532 8.35347 16.8644 8.1909C16.8764 8.02672 16.8884 7.85774 16.9004 7.68476C16.9044 7.62709 16.9084 7.56943 16.9124 7.51097C16.9253 7.32597 16.9381 7.13617 16.9509 6.94076C16.7427 6.86228 16.5336 6.7886 16.323 6.71973Z" fill="#1E3A8A"/>
<path fill-rule="evenodd" clip-rule="evenodd" d="M15.6599 13.0109C15.6127 13.2119 15.5638 13.3817 15.5117 13.5226C14.8799 15.0418 13.9253 15.8563 11.7846 16.6756C9.64549 15.8571 8.68767 15.0427 8.04859 13.5218C7.99733 13.3817 7.94928 13.2175 7.90363 13.0229L10.2613 10.8189C11.1038 10.0317 12.4725 10.0317 13.315 10.8189L15.6599 13.0109Z" fill="#F5F5F5"/>
</g>
<path d="M11.8617 7.25891L12.0282 7.73134C12.0463 7.78253 12.0938 7.81706 12.1482 7.81853L12.6491 7.83102C12.8384 7.83568 12.9163 8.07594 12.7659 8.1908L12.3681 8.49523C12.325 8.52805 12.3069 8.58413 12.3223 8.6363L12.4654 9.11633C12.5195 9.29781 12.315 9.44623 12.1592 9.33871L11.7468 9.05437C11.7022 9.02351 11.6432 9.02351 11.5986 9.05437L11.1862 9.33871C11.0304 9.44623 10.8262 9.29781 10.8801 9.11633L11.0231 8.6363C11.0385 8.58438 11.0204 8.52829 10.9773 8.49523L10.5791 8.1908C10.4287 8.07569 10.5068 7.83568 10.6959 7.83102L11.1967 7.81853C11.2509 7.81731 11.2986 7.78253 11.3167 7.73134L11.4833 7.25891C11.5462 7.08036 11.7987 7.08036 11.8617 7.25891Z" fill="#FBBF24"/>
</g>
<defs>
<clipPath id="clip0_98_3755">
<rect width="36" height="36" rx="18" fill="white"/>
</clipPath>
<clipPath id="clip1_98_3755">
<rect width="11.5763" height="12" fill="white" transform="translate(6 6)"/>
</clipPath>
</defs>
</svg>
