<svg width="36" height="36" viewBox="0 0 36 36" fill="none" xmlns="http://www.w3.org/2000/svg">
<g clip-path="url(#clip0_98_3767)">
<path d="M0 0H36V12H0V0Z" fill="#F5F5F5"/>
<path d="M0 12H36V24H0V12Z" fill="#1E3A8A"/>
<path d="M0 24H36V36H0V24Z" fill="#EF4444"/>
<g clip-path="url(#clip1_98_3767)">
<path d="M21.6736 7.81824H10.4995C9.14779 7.81824 8.03211 8.87879 7.96577 10.2288C7.89082 11.7649 7.81759 14.0592 7.81759 17.1744C7.81759 22.858 11.6238 26.062 14.858 27.8591C15.623 28.2847 16.5535 28.2847 17.3185 27.8591C20.5527 26.0637 24.3581 22.8648 24.3503 17.1736C24.3503 14.06 24.2797 11.7684 24.2064 10.2314C24.1418 8.87965 23.0262 7.81738 21.6727 7.81738L21.6736 7.81824Z" fill="#EF4444"/>
<path d="M16.0891 29C15.53 29 14.9709 28.8587 14.4608 28.5753C12.3725 27.4148 10.6968 26.0363 9.48034 24.4787C7.83482 22.3705 7 19.9126 7 17.1747C7 14.4367 7.04997 12.2114 7.14904 10.1894C7.23606 8.40085 8.70841 7 10.4995 7H21.6736C23.4673 7 24.9396 8.40257 25.0249 10.1937C25.1205 12.2148 25.1696 14.5634 25.1696 17.1747C25.1731 19.9152 24.3409 22.374 22.6962 24.4813C21.4814 26.0372 19.8058 27.4148 17.7166 28.5753C17.2074 28.8578 16.6483 29 16.0891 29ZM10.4995 8.6369C9.582 8.6369 8.82816 9.3537 8.78336 10.2686C8.68601 12.2648 8.63604 14.5883 8.63604 17.1747C8.63604 21.3488 10.8631 24.7027 15.2552 27.1443C15.7764 27.4337 16.3993 27.4337 16.9205 27.1443C21.3126 24.7053 23.537 21.3513 23.531 17.1755C23.531 14.5892 23.4828 12.2665 23.388 10.2712C23.3441 9.35456 22.5911 8.6369 21.6718 8.6369H10.4995Z" fill="#F5F5F5"/>
<path d="M20.6742 15.8253C19.9419 15.8253 18.728 15.8253 17.975 15.8253C17.6054 15.8253 17.3056 15.5254 17.3056 15.155C17.3056 14.7854 17.6054 14.4847 17.9759 14.4847H18.9296C19.5869 14.4847 20.1521 13.9799 20.1831 13.3234C20.2159 12.623 19.6576 12.044 18.9641 12.044H17.9871C17.6115 12.044 17.3065 11.739 17.3065 11.3634V10.9473C17.3065 10.2899 16.8016 9.72477 16.1451 9.69375C15.4447 9.66101 14.8658 10.2193 14.8658 10.9128V11.3634C14.8658 11.739 14.5608 12.044 14.1852 12.044H13.2426C12.5853 12.044 12.0201 12.5489 11.9891 13.2053C11.9564 13.9058 12.5146 14.4847 13.2082 14.4847H14.1964C14.5659 14.4847 14.8666 14.7845 14.8666 15.155C14.8666 15.5246 14.5668 15.8253 14.1964 15.8253H11.4972C10.8398 15.8253 10.2747 16.3301 10.2437 16.9866C10.2109 17.687 10.7692 18.266 11.4627 18.266H14.1852C14.5608 18.266 14.8658 18.5709 14.8658 18.9466V21.6345C14.8658 22.2919 15.3706 22.8571 16.0271 22.8881C16.7275 22.9208 17.3065 22.3625 17.3065 21.669V18.9466C17.3065 18.5709 17.6115 18.266 17.9871 18.266H20.7095C21.403 18.266 21.9613 17.687 21.9286 16.9866C21.8976 16.3301 21.3324 15.8253 20.675 15.8253H20.6742Z" fill="#F5F5F5"/>
<path d="M22.2585 22.1887C21.1696 24.1176 19.3879 25.7752 16.9222 27.1442C16.4001 27.4336 15.7781 27.4336 15.256 27.1442C12.7895 25.7735 11.0061 24.115 9.91628 22.1843C11.6436 20.9136 13.7768 20.1641 16.0848 20.1641C18.3929 20.1641 20.5303 20.9153 22.2585 22.1887Z" fill="#1E3A8A"/>
</g>
</g>
<defs>
<clipPath id="clip0_98_3767">
<rect width="36" height="36" rx="18" fill="white"/>
</clipPath>
<clipPath id="clip1_98_3767">
<rect width="18.1696" height="22" fill="white" transform="translate(7 7)"/>
</clipPath>
</defs>
</svg>
