<svg width="36" height="36" viewBox="0 0 36 36" fill="none" xmlns="http://www.w3.org/2000/svg">
<g clip-path="url(#clip0_98_3923)">
<path d="M0 0H36V18H0V0Z" fill="#F5F5F5"/>
<path d="M0 18H36V36H0V18Z" fill="#93C5FD"/>
<path d="M21.2016 10.5623C21.1662 10.5204 21.1276 10.4793 21.0857 10.4383C20.6397 9.9906 20.0442 9.74418 19.4109 9.74418C19.1834 9.74418 18.9592 9.77704 18.7423 9.84111C18.6487 9.81236 18.5526 9.791 18.4548 9.77539V9.38441C18.4548 9.27845 18.4113 9.18235 18.3415 9.11253C18.2717 9.04271 18.1772 9 18.0704 9C17.8585 9 17.686 9.17249 17.686 9.38441V9.77622C17.5899 9.79182 17.4946 9.814 17.401 9.84111C17.1841 9.77704 16.9582 9.74418 16.7299 9.74418C16.0424 9.74418 15.391 10.0415 14.9409 10.5606C14.5672 10.9902 14.361 11.5422 14.361 12.1131C14.361 12.325 14.5327 12.4967 14.7454 12.4967H15.5389C15.575 12.4942 15.6103 12.4926 15.6473 12.4926H20.4935C20.5305 12.4926 20.5658 12.4942 20.6019 12.4967H21.3954C21.6081 12.4967 21.7798 12.325 21.7798 12.1131C21.7798 11.5414 21.5736 10.9902 21.2016 10.5623ZM15.7335 11.7287H15.1758C15.2358 11.4847 15.3541 11.2564 15.5208 11.0633C15.7204 10.8333 15.9783 10.6682 16.2642 10.582C15.9849 10.9106 15.8025 11.3081 15.7335 11.7287ZM17.686 11.7287H16.5163C16.5763 11.4847 16.6946 11.2564 16.8621 11.0633C17.0798 10.8112 17.3689 10.637 17.686 10.559V11.7287ZM18.4548 11.7287V10.5582C18.7357 10.6272 18.9928 10.7709 19.2023 10.9812C19.2294 11.0083 19.2557 11.0362 19.2795 11.0642C19.4471 11.2564 19.5645 11.4847 19.6245 11.7287H18.4548ZM20.4073 11.7287C20.3383 11.3065 20.1551 10.9081 19.8758 10.5804C20.1247 10.6551 20.3539 10.7915 20.5428 10.9812C20.5707 11.0083 20.5962 11.0362 20.62 11.0642C20.7876 11.2564 20.905 11.4847 20.965 11.7287H20.4073Z" fill="#FBBF24"/>
<path d="M20.965 11.7284H20.4073C20.3383 11.3062 20.1551 10.9078 19.8758 10.5801C20.1247 10.6548 20.3539 10.7912 20.5428 10.9809C20.5707 11.008 20.5962 11.036 20.62 11.0639C20.7876 11.2561 20.905 11.4844 20.965 11.7284Z" fill="#EF4444"/>
<path d="M19.6245 11.7291H18.4548V10.5586C18.7357 10.6276 18.9928 10.7713 19.2023 10.9816C19.2294 11.0087 19.2557 11.0366 19.2795 11.0646C19.4471 11.2568 19.5645 11.4851 19.6245 11.7291Z" fill="#EF4444"/>
<path d="M17.686 10.5586V11.7283H16.5163C16.5763 11.4843 16.6946 11.256 16.8621 11.0629C17.0798 10.8108 17.3689 10.6366 17.686 10.5586Z" fill="#EF4444"/>
<path d="M16.2642 10.582C15.9849 10.9106 15.8025 11.3081 15.7335 11.7287H15.1758C15.2358 11.4847 15.3541 11.2564 15.5208 11.0634C15.7204 10.8334 15.9783 10.6683 16.2642 10.582Z" fill="#EF4444"/>
<path d="M18.0704 25.947C13.3449 25.947 9.5 22.1021 9.5 17.3766C9.5 15.3338 10.231 13.3559 11.5576 11.8059C11.9395 11.3599 12.6106 11.3081 13.0566 11.6893C13.5026 12.0712 13.5544 12.7423 13.1733 13.1883C12.1761 14.353 11.6266 15.8406 11.6266 17.3766C11.6266 20.9299 14.5171 23.8212 18.0712 23.8212C21.6254 23.8212 24.5159 20.9299 24.5159 17.3766C24.5159 15.8406 23.9664 14.3539 22.9692 13.1883C22.5872 12.7423 22.6398 12.0712 23.0858 11.6893C23.5318 11.3073 24.2029 11.3591 24.5849 11.8059C25.9114 13.3559 26.6425 15.3338 26.6425 17.3766C26.6425 22.1021 22.7975 25.947 18.0721 25.947H18.0704Z" fill="#22C55E"/>
<path d="M25.5779 24.8742H24.6317C24.6268 24.2918 24.1528 23.8203 23.5688 23.8203H12.572C11.988 23.8203 11.5149 24.291 11.5091 24.8742H10.5629C9.97559 24.8742 9.5 25.3497 9.5 25.937C9.5 26.5243 9.97559 26.9999 10.5629 26.9999H12.572C13.156 26.9999 13.6291 26.5293 13.6349 25.9461H22.5068C22.5117 26.5284 22.9856 26.9999 23.5696 26.9999H25.5788C26.1661 26.9999 26.6416 26.5243 26.6416 25.937C26.6416 25.3497 26.1661 24.8742 25.5788 24.8742H25.5779Z" fill="#F5F5F5"/>
<path d="M22.0476 18.6911C21.6196 20.1302 20.5042 21.6119 18.0704 22.7373C15.6366 21.6119 14.5212 20.1302 14.0932 18.6911C13.3228 16.1045 14.7717 13.6543 14.7717 13.6543H21.3691C21.3691 13.6543 22.8181 16.1045 22.0476 18.6911Z" fill="#93C5FD"/>
<path d="M22.0476 18.6904C21.6196 20.1295 20.5042 21.6113 18.0704 22.7366C15.6366 21.6113 14.5212 20.1295 14.0932 18.6904H22.0476Z" fill="#22C55E"/>
<path d="M18.0704 23.2298C17.9998 23.2298 17.9291 23.215 17.8634 23.1846C15.5956 22.1357 14.168 20.6711 13.6209 18.8312C12.7987 16.0705 14.2838 13.511 14.3479 13.4034C14.4366 13.2531 14.5976 13.1611 14.7717 13.1611H21.3691C21.5433 13.1611 21.7043 13.2531 21.7938 13.4034C21.857 13.511 23.3429 16.0705 22.5199 18.832C21.9728 20.6719 20.5453 22.1365 18.2774 23.1846C18.2117 23.215 18.141 23.2298 18.0704 23.2298ZM15.0707 14.1468C14.7569 14.7957 14.0012 16.6537 14.5655 18.5503C15.0124 20.0526 16.1911 21.2765 18.0704 22.1915C19.9498 21.2765 21.1285 20.0526 21.5753 18.5503C22.1429 16.6447 21.3864 14.7941 21.071 14.1468H15.0699H15.0707Z" fill="#FBBF24"/>
<path d="M18.0704 18.2047C17.7985 18.2047 17.5776 17.9837 17.5776 17.7119V15.1286C17.5776 14.8567 17.7985 14.6357 18.0704 14.6357C18.3423 14.6357 18.5632 14.8567 18.5632 15.1286V17.7119C18.5632 17.9837 18.3423 18.2047 18.0704 18.2047Z" fill="#F5F5F5"/>
</g>
<defs>
<clipPath id="clip0_98_3923">
<rect width="36" height="36" rx="18" fill="white"/>
</clipPath>
</defs>
</svg>
