<svg width="36" height="36" viewBox="0 0 36 36" fill="none" xmlns="http://www.w3.org/2000/svg">
<g clip-path="url(#clip0_98_4093)">
<path d="M0 0H36V4H0V0Z" fill="#22C55E"/>
<path d="M0 4H36V8H0V4Z" fill="#22C55E"/>
<path d="M0 8H36V12H0V8Z" fill="#F5F5F5"/>
<path d="M0 12H36V24H0V12Z" fill="#EF4444"/>
<path d="M0 24H36V28H0V24Z" fill="#F5F5F5"/>
<path d="M0 28H36V32H0V28Z" fill="#22C55E"/>
<path d="M0 32H36V36H0V32Z" fill="#22C55E"/>
<path d="M19.0518 13.5951L19.792 15.6949C19.8726 15.9224 20.0837 16.0758 20.3254 16.0824L22.5514 16.1379C23.3928 16.1586 23.7389 17.2264 23.0706 17.7369L21.3029 19.0899C21.1113 19.2358 21.0307 19.485 21.0993 19.7169L21.735 21.8503C21.9756 22.6569 21.0667 23.3166 20.3744 22.8387L18.5413 21.575C18.3432 21.4378 18.0809 21.4378 17.8828 21.575L16.0498 22.8387C15.3575 23.3166 14.4497 22.6569 14.6891 21.8503L15.3248 19.7169C15.3934 19.4861 15.3128 19.2369 15.1213 19.0899L13.3514 17.7369C12.683 17.2253 13.0302 16.1586 13.8706 16.1379L16.0966 16.0824C16.3371 16.0769 16.5494 15.9224 16.6299 15.6949L17.3701 13.5951C17.6499 12.8016 18.7721 12.8016 19.0518 13.5951Z" fill="#FBBF24"/>
</g>
<defs>
<clipPath id="clip0_98_4093">
<rect width="36" height="36" rx="18" fill="white"/>
</clipPath>
</defs>
</svg>
