<svg width="36" height="36" viewBox="0 0 36 36" fill="none" xmlns="http://www.w3.org/2000/svg">
<g clip-path="url(#clip0_98_4153)">
<rect width="36" height="36" rx="18" fill="#93C5FD"/>
<path d="M0 0H36V18H0V0Z" fill="#262626"/>
<path d="M0 18H36V36H0V18Z" fill="#22C55E"/>
<path d="M0 12H36V24H0V12Z" fill="#EF4444"/>
<path fill-rule="evenodd" clip-rule="evenodd" d="M-2.5 9.5H38.5V26.5H-2.5V9.5ZM0 12V24H36V12H0Z" fill="#F5F5F5"/>
<path d="M20.3 20.39C21.87 19.18 21.87 16.82 20.3 15.62L0 0V36L20.3 20.39Z" fill="#22D3EE"/>
<path d="M8.84147 13.9761L9.43362 15.6559C9.49806 15.8379 9.667 15.9607 9.86031 15.9659L11.6411 16.0103C12.3142 16.0269 12.5912 16.8811 12.0565 17.2895L10.6423 18.3719C10.489 18.4886 10.4246 18.688 10.4795 18.8735L10.988 20.5803C11.1805 21.2255 10.4533 21.7532 9.8995 21.371L8.43307 20.36C8.27458 20.2502 8.06472 20.2502 7.90623 20.36L6.4398 21.371C5.88597 21.7532 5.15972 21.2255 5.3513 20.5803L5.85985 18.8735C5.91471 18.6889 5.85027 18.4895 5.69701 18.3719L4.28108 17.2895C3.74641 16.8802 4.02419 16.0269 4.69645 16.0103L6.47725 15.9659C6.66969 15.9615 6.8395 15.8379 6.90394 15.6559L7.49608 13.9761C7.71988 13.3413 8.61768 13.3413 8.84147 13.9761Z" fill="#FBBF24"/>
</g>
<defs>
<clipPath id="clip0_98_4153">
<rect width="36" height="36" rx="18" fill="white"/>
</clipPath>
</defs>
</svg>
