<svg width="36" height="36" viewBox="0 0 36 36" fill="none" xmlns="http://www.w3.org/2000/svg">
<g clip-path="url(#clip0_98_4178)">
<path d="M0 0H36V12H0V0Z" fill="#3B82F6"/>
<path d="M0 12H36V24H0V12Z" fill="#F5F5F5"/>
<path d="M0 24H36V36H0V24Z" fill="#3B82F6"/>
<path d="M22.0608 16.8423C21.8252 16.8423 21.6002 16.7028 21.5056 16.4702C21.0435 15.345 20.0668 14.4897 18.8965 14.1792C18.5754 14.0951 18.3848 13.7666 18.4689 13.4455C18.5529 13.1244 18.883 12.9339 19.2026 13.0179C20.7344 13.423 22.0098 14.5423 22.6159 16.0111C22.7419 16.3172 22.5964 16.6683 22.2888 16.7943C22.2138 16.8258 22.1373 16.8393 22.0608 16.8393V16.8423Z" fill="#FBBF24"/>
<path d="M13.7187 16.8428C13.6422 16.8428 13.5656 16.8278 13.4906 16.7978C13.1845 16.6717 13.0375 16.3207 13.1635 16.0146C13.7682 14.5442 15.045 13.4249 16.5769 13.0198C16.898 12.9358 17.2266 13.1264 17.3106 13.4474C17.3946 13.7685 17.2041 14.0956 16.883 14.1811C15.7112 14.4902 14.7359 15.3469 14.2738 16.4722C14.1778 16.7033 13.9542 16.8443 13.7187 16.8443V16.8428Z" fill="#FBBF24"/>
<path d="M17.8897 20.659C16.3338 20.659 15.069 19.3927 15.069 17.8383V16.731C15.069 16.3994 15.3376 16.1309 15.6692 16.1309C16.0007 16.1309 16.2693 16.3994 16.2693 16.731V17.8383C16.2693 18.7325 16.997 19.4587 17.8897 19.4587C18.7824 19.4587 19.5101 18.731 19.5101 17.8383V16.731C19.5101 16.3994 19.7787 16.1309 20.1103 16.1309C20.4419 16.1309 20.7104 16.3994 20.7104 16.731V17.8383C20.7104 19.3942 19.4441 20.659 17.8897 20.659Z" fill="#3B82F6"/>
<path d="M17.8897 20.0545H16.1583C15.6992 20.0545 15.4126 19.5579 15.6422 19.1603L16.5079 17.6599L17.3736 16.1595C17.6032 15.7619 18.1763 15.7619 18.4059 16.1595L19.2716 17.6599L20.1373 19.1603C20.3668 19.5579 20.0803 20.0545 19.6212 20.0545H17.8897Z" fill="#FBBF24"/>
<path d="M17.8897 23.0003C15.1935 23.0003 13 20.8067 13 18.112C13 17.6964 13.3376 17.3604 13.7517 17.3604C14.1658 17.3604 14.5034 17.6979 14.5034 18.112C14.5034 19.9785 16.0218 21.4969 17.8882 21.4969C19.7547 21.4969 21.2731 19.9785 21.2731 18.112C21.2731 17.6964 21.6107 17.3604 22.0248 17.3604C22.4389 17.3604 22.7764 17.6979 22.7764 18.112C22.7764 20.8082 20.5829 23.0018 17.8867 23.0018L17.8897 23.0003Z" fill="#22C55E"/>
</g>
<defs>
<clipPath id="clip0_98_4178">
<rect width="36" height="36" rx="18" fill="white"/>
</clipPath>
</defs>
</svg>
