<svg width="36" height="36" viewBox="0 0 36 36" fill="none" xmlns="http://www.w3.org/2000/svg">
<g clip-path="url(#clip0_98_4228)">
<path d="M0 0H36V12H0V0Z" fill="#EF4444"/>
<path d="M0 12H36V24H0V12Z" fill="#F5F5F5"/>
<path d="M0 24H36V36H0V24Z" fill="#262626"/>
<path d="M11.8415 14.4761L12.4336 16.1559C12.4981 16.3379 12.667 16.4607 12.8603 16.4659L14.6411 16.5103C15.3142 16.5269 15.5911 17.3811 15.0565 17.7895L13.6423 18.8719C13.489 18.9886 13.4246 19.188 13.4795 19.3735L13.988 21.0803C14.1804 21.7255 13.4533 22.2532 12.8995 21.871L11.4331 20.86C11.2746 20.7502 11.0647 20.7502 10.9062 20.86L9.4398 21.871C8.88597 22.2532 8.15972 21.7255 8.3513 21.0803L8.85985 19.3735C8.91471 19.1889 8.85027 18.9895 8.69701 18.8719L7.28108 17.7895C6.74641 17.3802 7.02419 16.5269 7.69645 16.5103L9.47725 16.4659C9.66969 16.4615 9.8395 16.3379 9.90394 16.1559L10.4961 14.4761C10.7199 13.8413 11.6177 13.8413 11.8415 14.4761Z" fill="#22C55E"/>
<path d="M25.3081 14.4761L25.9003 16.1559C25.9647 16.3379 26.1337 16.4607 26.327 16.4659L28.1078 16.5103C28.7809 16.5269 29.0578 17.3811 28.5231 17.7895L27.109 18.8719C26.9557 18.9886 26.8913 19.188 26.9461 19.3735L27.4547 21.0803C27.6471 21.7255 26.92 22.2532 26.3662 21.871L24.8997 20.86C24.7412 20.7502 24.5314 20.7502 24.3729 20.86L22.9065 21.871C22.3526 22.2532 21.6264 21.7255 21.818 21.0803L22.3265 19.3735C22.3814 19.1889 22.3169 18.9895 22.1637 18.8719L20.7477 17.7895C20.2131 17.3802 20.4909 16.5269 21.1631 16.5103L22.9439 16.4659C23.1364 16.4615 23.3062 16.3379 23.3706 16.1559L23.9628 14.4761C24.1865 13.8413 25.0843 13.8413 25.3081 14.4761Z" fill="#22C55E"/>
</g>
<defs>
<clipPath id="clip0_98_4228">
<rect width="36" height="36" rx="18" fill="white"/>
</clipPath>
</defs>
</svg>
