<svg width="36" height="36" viewBox="0 0 36 36" fill="none" xmlns="http://www.w3.org/2000/svg">
<g clip-path="url(#clip0_98_4460)">
<path d="M0 0H36V12H0V0Z" fill="#EF4444"/>
<path d="M0 12H36V24H0V12Z" fill="#F5F5F5"/>
<path d="M0 24H36V36H0V24Z" fill="#22C55E"/>
<path d="M18.8994 13.2241L19.1891 14.0147C19.2206 14.1004 19.3032 14.1582 19.3978 14.1606L20.2691 14.1815C20.5984 14.1893 20.7338 14.5914 20.4723 14.7836L19.7804 15.2931C19.7054 15.348 19.6739 15.4419 19.7007 15.5292L19.9495 16.3325C20.0437 16.6362 19.6879 16.8846 19.417 16.7046L18.6996 16.2288C18.622 16.1771 18.5194 16.1771 18.4418 16.2288L17.7244 16.7046C17.4534 16.8846 17.0981 16.6362 17.1918 16.3325L17.4406 15.5292C17.4675 15.4423 17.436 15.3484 17.361 15.2931L16.6683 14.7836C16.4067 14.591 16.5426 14.1893 16.8715 14.1815L17.7427 14.1606C17.8369 14.1586 17.9199 14.1004 17.9515 14.0147L18.2412 13.2241C18.3506 12.9253 18.7899 12.9253 18.8994 13.2241Z" fill="#FBBF24"/>
<path d="M11.3686 16.6128L11.6583 17.4034C11.6899 17.489 11.7725 17.5468 11.8671 17.5493L12.7383 17.5702C13.0676 17.578 13.2031 17.9801 12.9415 18.1723L12.2497 18.6817C12.1747 18.7367 12.1431 18.8305 12.17 18.9178L12.4188 19.7212C12.5129 20.0249 12.1572 20.2732 11.8863 20.0933L11.1688 19.6175C11.0913 19.5658 10.9886 19.5658 10.9111 19.6175L10.1936 20.0933C9.92269 20.2732 9.56738 20.0249 9.6611 19.7212L9.90991 18.9178C9.93675 18.8309 9.90522 18.7371 9.83024 18.6817L9.13752 18.1723C8.87593 17.9797 9.01184 17.578 9.34073 17.5702L10.212 17.5493C10.3061 17.5472 10.3892 17.489 10.4207 17.4034L10.7104 16.6128C10.8199 16.314 11.2591 16.314 11.3686 16.6128Z" fill="#FBBF24"/>
<path d="M26.0536 16.6128L26.3433 17.4034C26.3748 17.489 26.4574 17.5468 26.552 17.5493L27.4233 17.5702C27.7526 17.578 27.8881 17.9801 27.6265 18.1723L26.9346 18.6817C26.8596 18.7367 26.8281 18.8305 26.8549 18.9178L27.1037 19.7212C27.1979 20.0249 26.8422 20.2732 26.5712 20.0933L25.8538 19.6175C25.7762 19.5658 25.6736 19.5658 25.596 19.6175L24.8786 20.0933C24.6076 20.2732 24.2523 20.0249 24.346 19.7212L24.5949 18.9178C24.6217 18.8309 24.5902 18.7371 24.5152 18.6817L23.8225 18.1723C23.5609 17.9797 23.6968 17.578 24.0257 17.5702L24.8969 17.5493C24.9911 17.5472 25.0741 17.489 25.1057 17.4034L25.3954 16.6128C25.5048 16.314 25.9441 16.314 26.0536 16.6128Z" fill="#FBBF24"/>
<path d="M21.5873 19.4794C21.5509 19.4389 21.5103 19.3944 21.4698 19.3539C21.0161 18.9001 20.4125 18.649 19.7725 18.649C19.5416 18.649 19.3147 18.6814 19.096 18.7462C18.9988 18.7179 18.9015 18.6935 18.8043 18.6814V18.2844C18.8043 18.1791 18.7597 18.0819 18.6909 18.0089C18.622 17.936 18.5248 17.8955 18.4154 17.8955C18.2007 17.8955 18.0265 18.0697 18.0265 18.2844V18.6814C17.9293 18.6976 17.8321 18.7179 17.7389 18.7462C17.5202 18.6814 17.2892 18.649 17.0583 18.649C16.3616 18.649 15.7013 18.9528 15.2435 19.4754C14.8627 19.9129 14.6561 20.4719 14.6561 21.0512C14.6561 21.2659 14.8303 21.4401 15.045 21.4401H15.8512C15.8876 21.4401 15.9241 21.436 15.9605 21.436H20.8743C20.9108 21.436 20.9473 21.436 20.9837 21.4401H21.7899C22.0046 21.4401 22.1788 21.2659 22.1788 21.0512C22.1788 20.4719 21.9681 19.9129 21.5914 19.4794H21.5873ZM16.0415 20.6623H15.4744C15.5352 20.4152 15.6567 20.1843 15.8228 19.9858C16.0253 19.7508 16.2887 19.5848 16.5763 19.4956C16.2927 19.8278 16.1104 20.2329 16.0375 20.6583L16.0415 20.6623ZM18.0225 20.6623H16.8355C16.8963 20.4152 17.0178 20.1843 17.1839 19.9858C17.4067 19.7306 17.6984 19.5524 18.0184 19.4754V20.6623H18.0225ZM18.8003 20.6623V19.4754C19.0838 19.5442 19.3471 19.6901 19.5578 19.9048C19.5861 19.9331 19.6104 19.9615 19.6348 19.9899C19.8049 20.1843 19.9224 20.4152 19.9831 20.6623H18.7962H18.8003ZM20.7812 20.6623C20.7123 20.2329 20.526 19.8278 20.2424 19.4956C20.4936 19.5726 20.7285 19.7103 20.9189 19.9007C20.9473 19.9291 20.9716 19.9574 20.9959 19.9858C21.166 20.1803 21.2835 20.4112 21.3443 20.6583H20.7771L20.7812 20.6623Z" fill="#FBBF24"/>
<path d="M21.7818 22.2227H15.0369C14.8221 22.2227 14.648 22.3968 14.648 22.6115C14.648 22.8263 14.8221 23.0004 15.0369 23.0004H21.7818C21.9965 23.0004 22.1707 22.8263 22.1707 22.6115C22.1707 22.3968 21.9965 22.2227 21.7818 22.2227Z" fill="#FBBF24"/>
</g>
<defs>
<clipPath id="clip0_98_4460">
<rect width="36" height="36" rx="18" fill="white"/>
</clipPath>
</defs>
</svg>
