<svg width="36" height="36" viewBox="0 0 36 36" fill="none" xmlns="http://www.w3.org/2000/svg">
<rect width="36" height="36" rx="18" fill="#EF4444"/>
<path d="M26.85 19.22C27.75 18.66 27.75 17.34 26.85 16.78L0 0V36L26.85 19.22Z" fill="#FBBF24"/>
<path d="M17.97 19.05C18.57 18.48 18.57 17.52 17.97 16.96L0 0V36L17.97 19.05Z" fill="#262626"/>
<path d="M6.07 14.8901L7.17 15.8301C7.29 15.9301 7.46 15.9501 7.6 15.8701L8.88 15.1701C9.36 14.9101 9.91 15.3901 9.69 15.9001L9.12 17.2401C9.06 17.3801 9.09 17.5501 9.21 17.6601L10.26 18.6501C10.66 19.0201 10.36 19.6901 9.81 19.6501L8.36 19.5401C8.2 19.5301 8.05 19.6101 7.99 19.7601L7.36 21.0701C7.12 21.5701 6.39 21.4901 6.27 20.9601L5.94 19.5501C5.9 19.4001 5.78 19.2801 5.62 19.2601L4.18 19.0801C3.63 19.0101 3.49 18.3001 3.96 18.0101L5.21 17.2501C5.35 17.1701 5.42 17.0101 5.39 16.8601L5.13 15.4401C5.03 14.9001 5.67 14.5301 6.09 14.8901H6.07Z" fill="#F5F5F5"/>
</svg>
