<svg width="36" height="36" viewBox="0 0 36 36" fill="none" xmlns="http://www.w3.org/2000/svg">
<rect width="36" height="36" rx="18" fill="#EF4444"/>
<path d="M27 18C27 22.9706 22.9706 27 18 27C13.0294 27 9 22.9706 9 18C9 13.0294 13.0294 9 18 9C22.9706 9 27 13.0294 27 18Z" fill="#F5F5F5"/>
<path d="M20.5287 14.8289L21.5157 16.0149C21.6228 16.1433 21.799 16.1921 21.9607 16.1381L23.4485 15.6374C24.0108 15.448 24.4927 16.0584 24.1707 16.5513L23.3196 17.8568C23.2272 17.9978 23.2328 18.1792 23.333 18.3133L24.2588 19.5465C24.6089 20.0126 24.1628 20.6604 23.5912 20.5168L22.0779 20.1376C21.9142 20.0962 21.7404 20.1595 21.6416 20.2964L20.7262 21.5596C20.3806 22.037 19.6231 21.8273 19.591 21.2454L19.5075 19.7057C19.4984 19.5392 19.386 19.3966 19.2244 19.3473L17.7318 18.8949C17.1681 18.7236 17.1458 17.9466 17.6976 17.7306L19.1591 17.1578C19.3172 17.0962 19.4213 16.9446 19.4208 16.7773L19.4146 15.2344C19.4122 14.6513 20.1557 14.3807 20.5287 14.8289Z" fill="#EF4444"/>
<path d="M20.5936 23.5626C20.5936 23.5626 20.6016 23.5626 20.6047 23.5626C20.8699 23.5626 20.9541 23.9212 20.7143 24.0354C19.8648 24.4406 18.9169 24.6673 17.9165 24.6673C14.2836 24.6673 11.316 21.6475 11.3334 17.9669C11.3509 14.2862 14.2915 11.334 17.9165 11.334C18.9185 11.334 19.868 11.5607 20.7175 11.9659C20.9556 12.0801 20.8699 12.4387 20.6063 12.4387C20.6016 12.4387 20.5984 12.4387 20.5936 12.4387C17.5609 12.4387 15.1013 14.9278 15.1013 18.0007C15.1013 21.0735 17.5609 23.5626 20.5936 23.5626Z" fill="#EF4444"/>
</svg>
