<svg width="36" height="36" viewBox="0 0 36 36" fill="none" xmlns="http://www.w3.org/2000/svg">
<rect width="36" height="36" rx="18" fill="#EF4444"/>
<path d="M24.6643 14.1455L25.8416 15.5602C25.9694 15.7134 26.1796 15.7716 26.3724 15.7072L28.1471 15.11C28.8178 14.884 29.3926 15.6121 29.0085 16.2001L27.9933 17.7572C27.8831 17.9254 27.8897 18.1418 28.0093 18.3018L29.1136 19.7726C29.5312 20.3287 28.9991 21.1014 28.3172 20.9301L26.5122 20.4777C26.317 20.4284 26.1097 20.5038 25.9918 20.6671L24.8999 22.1739C24.4877 22.7434 23.5842 22.4932 23.5459 21.7991L23.4463 19.9626C23.4354 19.764 23.3014 19.5939 23.1086 19.5351L21.3283 18.9954C20.6558 18.7911 20.6292 17.8644 21.2874 17.6067L23.0308 16.9234C23.2193 16.85 23.3434 16.6692 23.3429 16.4697L23.3354 14.6292C23.3326 13.9337 24.2194 13.6109 24.6643 14.1455Z" fill="#F5F5F5"/>
<path d="M20.5014 25.5087C20.5014 25.5087 20.5121 25.5087 20.5164 25.5087C20.8743 25.5087 20.9879 25.9928 20.6643 26.1469C19.5175 26.6939 18.2378 27 16.8873 27C11.9828 27 7.97652 22.9233 8.0001 17.9544C8.02368 12.9855 11.9936 9 16.8873 9C18.2399 9 19.5218 9.30608 20.6686 9.85311C20.9901 10.0072 20.8743 10.4913 20.5185 10.4913C20.5121 10.4913 20.5078 10.4913 20.5014 10.4913C16.4072 10.4913 13.0868 13.8517 13.0868 18C13.0868 22.1483 16.4072 25.5087 20.5014 25.5087Z" fill="#F5F5F5"/>
</svg>
