<svg width="36" height="36" viewBox="0 0 36 36" fill="none" xmlns="http://www.w3.org/2000/svg">
<rect width="36" height="36" rx="18" fill="#EF4444"/>
<path d="M0 0H22V18C22 19.1046 21.1046 20 20 20H0V0Z" fill="#1E3A8A"/>
<path fill-rule="evenodd" clip-rule="evenodd" d="M11.3361 4.28666L11.6656 6.3251C11.7139 6.61505 12.0785 6.7117 12.263 6.48325L13.5678 4.87974C13.8094 4.581 14.2839 4.85338 14.1477 5.21362L13.4141 7.14662C13.3086 7.419 13.5766 7.68698 13.8534 7.58594L15.7864 6.85228C16.1466 6.71609 16.419 7.19055 16.1203 7.43218L14.5167 8.73696C14.2883 8.92147 14.3893 9.2905 14.6749 9.33443L16.7133 9.66392C17.0956 9.72543 17.0956 10.2746 16.7133 10.3361L14.6749 10.6656C14.385 10.7139 14.2883 11.0785 14.5167 11.263L16.1203 12.5678C16.419 12.8094 16.1466 13.2839 15.7864 13.1477L13.8534 12.4141C13.581 12.3086 13.313 12.5766 13.4141 12.8534L14.1477 14.7864C14.2839 15.1466 13.8094 15.419 13.5678 15.1203L12.263 13.5167C12.0785 13.2883 11.7095 13.3893 11.6656 13.6749L11.3361 15.7133C11.2746 16.0956 10.7254 16.0956 10.6639 15.7133L10.3344 13.6749C10.2861 13.385 9.92147 13.2883 9.73696 13.5167L8.43218 15.1203C8.19055 15.419 7.71609 15.1466 7.85228 14.7864L8.58594 12.8534C8.69138 12.581 8.42339 12.313 8.14662 12.4141L6.21362 13.1477C5.85338 13.2839 5.581 12.8094 5.87974 12.5678L7.48325 11.263C7.7117 11.0785 7.61065 10.7095 7.3251 10.6656L5.28666 10.3361C4.90445 10.2746 4.90445 9.72543 5.28666 9.66392L7.3251 9.33443C7.61505 9.28611 7.7117 8.92147 7.48325 8.73696L5.87974 7.43218C5.581 7.19055 5.85338 6.71609 6.21362 6.85228L8.14662 7.58594C8.419 7.69138 8.68698 7.42339 8.58594 7.14662L7.85228 5.21362C7.71609 4.85338 8.19055 4.581 8.43218 4.87974L9.73696 6.48325C9.92147 6.7117 10.2905 6.61065 10.3344 6.3251L10.6639 4.28666C10.7254 3.90445 11.2746 3.90445 11.3361 4.28666Z" fill="#F5F5F5"/>
</svg>
