<svg width="36" height="36" viewBox="0 0 36 36" fill="none" xmlns="http://www.w3.org/2000/svg">
<g clip-path="url(#clip0_98_4937)">
<rect width="36" height="36" rx="18" fill="#EF4444"/>
<path d="M0 0H36V2.76923H0V0Z" fill="#EF4444"/>
<path d="M0 2.76953H36V5.53876H0V2.76953Z" fill="#F5F5F5"/>
<path d="M0 5.53809H36V8.30732H0V5.53809Z" fill="#EF4444"/>
<path d="M0 8.30762H36V11.0768H0V8.30762Z" fill="#F5F5F5"/>
<path d="M0 11.0771H36V13.8464H0V11.0771Z" fill="#EF4444"/>
<path d="M0 13.8457H36V16.6149H0V13.8457Z" fill="#F5F5F5"/>
<path d="M0 16.6152H36V19.3845H0V16.6152Z" fill="#EF4444"/>
<path d="M0 19.3848H36V22.154H0V19.3848Z" fill="#F5F5F5"/>
<path d="M0 22.1543H36V24.9235H0V22.1543Z" fill="#EF4444"/>
<path d="M0 24.9229H36V27.6921H0V24.9229Z" fill="#F5F5F5"/>
<path d="M0 27.6924H36V30.4616H0V27.6924Z" fill="#EF4444"/>
<path d="M0 30.4619H36V33.2311H0V30.4619Z" fill="#F5F5F5"/>
<path d="M0 33.2305H36V35.9997H0V33.2305Z" fill="#EF4444"/>
<path d="M0 0H24V17.39C24 18.4946 23.1046 19.39 22 19.39H0V0Z" fill="#1E3A8A"/>
<path d="M5.70926 3.24288L6.07935 4.29274C6.11962 4.40649 6.22521 4.48323 6.34603 4.4865L7.45902 4.51425C7.87973 4.52459 8.0528 5.05851 7.71863 5.31376L6.83477 5.99026C6.73898 6.06319 6.69871 6.18783 6.73299 6.30375L7.05084 7.37049C7.17112 7.77378 6.71667 8.10359 6.37052 7.86467L5.454 7.23279C5.35495 7.16421 5.22378 7.16421 5.12473 7.23279L4.20821 7.86467C3.86207 8.10359 3.40816 7.77378 3.5279 7.37049L3.84574 6.30375C3.88003 6.18837 3.83975 6.06374 3.74396 5.99026L2.85901 5.31376C2.52484 5.05796 2.69846 4.52459 3.11862 4.51425L4.23161 4.4865C4.35189 4.48378 4.45802 4.40649 4.4983 4.29274L4.86839 3.24288C5.00826 2.84612 5.56938 2.84612 5.70926 3.24288Z" fill="#F5F5F5"/>
<path d="M12.4204 3.24288L12.7905 4.29274C12.8307 4.40649 12.9363 4.48323 13.0571 4.4865L14.1701 4.51425C14.5908 4.52459 14.7639 5.05851 14.4297 5.31376L13.5459 5.99026C13.4501 6.06319 13.4098 6.18783 13.4441 6.30375L13.7619 7.37049C13.8822 7.77378 13.4278 8.10359 13.0816 7.86467L12.1651 7.23279C12.0661 7.16421 11.9349 7.16421 11.8358 7.23279L10.9193 7.86467C10.5732 8.10359 10.1193 7.77378 10.239 7.37049L10.5569 6.30375C10.5911 6.18837 10.5509 6.06374 10.4551 5.99026L9.57012 5.31376C9.23595 5.05796 9.40957 4.52459 9.82973 4.51425L10.9427 4.4865C11.063 4.48378 11.1691 4.40649 11.2094 4.29274L11.5795 3.24288C11.7194 2.84612 12.2805 2.84612 12.4204 3.24288Z" fill="#F5F5F5"/>
<path d="M19.1315 3.24288L19.5016 4.29274C19.5418 4.40649 19.6474 4.48323 19.7683 4.4865L20.8812 4.51425C21.302 4.52459 21.475 5.05851 21.1409 5.31376L20.257 5.99026C20.1612 6.06319 20.1209 6.18783 20.1552 6.30375L20.4731 7.37049C20.5933 7.77378 20.1389 8.10359 19.7927 7.86467L18.8762 7.23279C18.7772 7.16421 18.646 7.16421 18.547 7.23279L17.6304 7.86467C17.2843 8.10359 16.8304 7.77378 16.9501 7.37049L17.268 6.30375C17.3022 6.18837 17.262 6.06374 17.1662 5.99026L16.2812 5.31376C15.9471 5.05796 16.1207 4.52459 16.5408 4.51425L17.6538 4.4865C17.7741 4.48378 17.8802 4.40649 17.9205 4.29274L18.2906 3.24288C18.4305 2.84612 18.9916 2.84612 19.1315 3.24288Z" fill="#F5F5F5"/>
<path d="M5.70926 10.7429L6.07935 11.7927C6.11962 11.9065 6.22521 11.9832 6.34603 11.9865L7.45902 12.0143C7.87973 12.0246 8.0528 12.5585 7.71863 12.8138L6.83477 13.4903C6.73898 13.5632 6.69871 13.6878 6.73299 13.8038L7.05084 14.8705C7.17112 15.2738 6.71667 15.6036 6.37052 15.3647L5.454 14.7328C5.35495 14.6642 5.22378 14.6642 5.12473 14.7328L4.20821 15.3647C3.86207 15.6036 3.40816 15.2738 3.5279 14.8705L3.84574 13.8038C3.88003 13.6884 3.83975 13.5637 3.74396 13.4903L2.85901 12.8138C2.52484 12.558 2.69846 12.0246 3.11862 12.0143L4.23161 11.9865C4.35189 11.9838 4.45802 11.9065 4.4983 11.7927L4.86839 10.7429C5.00826 10.3461 5.56938 10.3461 5.70926 10.7429Z" fill="#F5F5F5"/>
<path d="M12.4204 10.7429L12.7905 11.7927C12.8307 11.9065 12.9363 11.9832 13.0571 11.9865L14.1701 12.0143C14.5908 12.0246 14.7639 12.5585 14.4297 12.8138L13.5459 13.4903C13.4501 13.5632 13.4098 13.6878 13.4441 13.8038L13.7619 14.8705C13.8822 15.2738 13.4278 15.6036 13.0816 15.3647L12.1651 14.7328C12.0661 14.6642 11.9349 14.6642 11.8358 14.7328L10.9193 15.3647C10.5732 15.6036 10.1193 15.2738 10.239 14.8705L10.5569 13.8038C10.5911 13.6884 10.5509 13.5637 10.4551 13.4903L9.57012 12.8138C9.23595 12.558 9.40957 12.0246 9.82973 12.0143L10.9427 11.9865C11.063 11.9838 11.1691 11.9065 11.2094 11.7927L11.5795 10.7429C11.7194 10.3461 12.2805 10.3461 12.4204 10.7429Z" fill="#F5F5F5"/>
<path d="M19.1315 10.7429L19.5016 11.7927C19.5418 11.9065 19.6474 11.9832 19.7683 11.9865L20.8812 12.0143C21.302 12.0246 21.475 12.5585 21.1409 12.8138L20.257 13.4903C20.1612 13.5632 20.1209 13.6878 20.1552 13.8038L20.4731 14.8705C20.5933 15.2738 20.1389 15.6036 19.7927 15.3647L18.8762 14.7328C18.7772 14.6642 18.646 14.6642 18.547 14.7328L17.6304 15.3647C17.2843 15.6036 16.8304 15.2738 16.9501 14.8705L17.268 13.8038C17.3022 13.6884 17.262 13.5637 17.1662 13.4903L16.2812 12.8138C15.9471 12.558 16.1207 12.0246 16.5408 12.0143L17.6538 11.9865C17.7741 11.9838 17.8802 11.9065 17.9205 11.7927L18.2906 10.7429C18.4305 10.3461 18.9916 10.3461 19.1315 10.7429Z" fill="#F5F5F5"/>
</g>
<defs>
<clipPath id="clip0_98_4937">
<rect width="36" height="36" rx="18" fill="white"/>
</clipPath>
</defs>
</svg>
