<svg width="36" height="36" viewBox="0 0 36 36" fill="none" xmlns="http://www.w3.org/2000/svg">
<g clip-path="url(#clip0_98_5214)">
<path d="M36 0H0V18H36V0Z" fill="#93C5FD"/>
<path d="M36 18H0V36H36V18Z" fill="#22C55E"/>
<path d="M36 11.2812H0V24.7212H36V11.2812Z" fill="#F5F5F5"/>
<path d="M0 25.4405H36V24.0005H0V25.4405ZM0 10.5605V12.0005H36V10.5605H0Z" fill="#EF4444"/>
<path d="M9.32 8.40078C9.46 8.40078 9.51 8.59078 9.38 8.66078C8.92 8.88078 8.41 9.00078 7.87 9.00078C5.91 9.00078 4.31 7.37078 4.31 5.38078C4.31 3.39078 5.91 1.80078 7.87 1.80078C8.41 1.80078 8.92 1.92078 9.38 2.14078C9.51 2.20078 9.46 2.40078 9.32 2.40078C7.68 2.40078 6.35 3.74078 6.35 5.40078C6.35 7.06078 7.68 8.40078 9.32 8.40078Z" fill="#F5F5F5"/>
<path d="M13.3 6.28969L13.52 6.88969C13.54 6.95969 13.61 6.99969 13.68 6.99969L14.33 7.01969C14.58 7.01969 14.68 7.32969 14.48 7.47969L13.96 7.86969C13.9 7.90969 13.88 7.97969 13.9 8.04969L14.09 8.65969C14.16 8.88969 13.89 9.07969 13.69 8.93969L13.15 8.57969C13.09 8.53969 13.01 8.53969 12.96 8.57969L12.42 8.93969C12.22 9.07969 11.95 8.88969 12.02 8.65969L12.21 8.04969C12.23 7.97969 12.21 7.90969 12.15 7.86969L11.63 7.47969C11.43 7.32969 11.54 7.02969 11.78 7.01969L12.43 6.99969C12.5 6.99969 12.56 6.94969 12.59 6.88969L12.81 6.28969C12.89 6.05969 13.22 6.05969 13.3 6.28969Z" fill="#F5F5F5"/>
<path d="M17.98 6.28969L18.2 6.88969C18.22 6.95969 18.29 6.99969 18.36 6.99969L19.01 7.01969C19.26 7.01969 19.36 7.32969 19.16 7.47969L18.64 7.86969C18.58 7.90969 18.56 7.97969 18.58 8.04969L18.77 8.65969C18.84 8.88969 18.57 9.07969 18.37 8.93969L17.83 8.57969C17.77 8.53969 17.69 8.53969 17.64 8.57969L17.1 8.93969C16.9 9.07969 16.63 8.88969 16.7 8.65969L16.89 8.04969C16.91 7.97969 16.89 7.90969 16.83 7.86969L16.31 7.47969C16.11 7.32969 16.22 7.02969 16.46 7.01969L17.11 6.99969C17.18 6.99969 17.24 6.94969 17.27 6.88969L17.49 6.28969C17.57 6.05969 17.9 6.05969 17.98 6.28969Z" fill="#F5F5F5"/>
<path d="M17.98 1.96937L18.2 2.56937C18.22 2.63937 18.29 2.67938 18.36 2.67938L19.01 2.69938C19.26 2.69938 19.36 3.00938 19.16 3.15938L18.64 3.54937C18.58 3.58937 18.56 3.65938 18.58 3.72938L18.77 4.33938C18.84 4.56938 18.57 4.75937 18.37 4.61937L17.83 4.25938C17.77 4.21938 17.69 4.21938 17.64 4.25938L17.1 4.61937C16.9 4.75937 16.63 4.56938 16.7 4.33938L16.89 3.72938C16.91 3.65938 16.89 3.58937 16.83 3.54937L16.31 3.15938C16.11 3.00938 16.22 2.70938 16.46 2.69938L17.11 2.67938C17.18 2.67938 17.24 2.62937 17.27 2.56937L17.49 1.96937C17.57 1.73937 17.9 1.73937 17.98 1.96937Z" fill="#F5F5F5"/>
<path d="M22.66 6.28969L22.88 6.88969C22.9 6.95969 22.97 6.99969 23.04 6.99969L23.69 7.01969C23.94 7.01969 24.04 7.32969 23.84 7.47969L23.32 7.86969C23.26 7.90969 23.24 7.97969 23.26 8.04969L23.45 8.65969C23.52 8.88969 23.25 9.07969 23.05 8.93969L22.51 8.57969C22.45 8.53969 22.38 8.53969 22.32 8.57969L21.78 8.93969C21.58 9.07969 21.31 8.88969 21.38 8.65969L21.57 8.04969C21.59 7.97969 21.57 7.90969 21.51 7.86969L20.99 7.47969C20.79 7.32969 20.9 7.02969 21.14 7.01969L21.79 6.99969C21.86 6.99969 21.92 6.94969 21.95 6.88969L22.17 6.28969C22.25 6.05969 22.58 6.05969 22.66 6.28969Z" fill="#F5F5F5"/>
<path d="M22.66 1.96937L22.88 2.56937C22.9 2.63937 22.97 2.67938 23.04 2.67938L23.69 2.69938C23.94 2.69938 24.04 3.00938 23.84 3.15938L23.32 3.54937C23.26 3.58937 23.24 3.65938 23.26 3.72938L23.45 4.33938C23.52 4.56938 23.25 4.75937 23.05 4.61937L22.51 4.25938C22.45 4.21938 22.38 4.21938 22.32 4.25938L21.78 4.61937C21.58 4.75937 21.31 4.56938 21.38 4.33938L21.57 3.72938C21.59 3.65938 21.57 3.58937 21.51 3.54937L20.99 3.15938C20.79 3.00938 20.9 2.70938 21.14 2.69938L21.79 2.67938C21.86 2.67938 21.92 2.62937 21.95 2.56937L22.17 1.96937C22.25 1.73937 22.58 1.73937 22.66 1.96937Z" fill="#F5F5F5"/>
</g>
<defs>
<clipPath id="clip0_98_5214">
<rect width="36" height="36" rx="18" fill="white"/>
</clipPath>
</defs>
</svg>
