<svg width="36" height="36" viewBox="0 0 36 36" fill="none" xmlns="http://www.w3.org/2000/svg">
<g clip-path="url(#clip0_98_5234)">
<path d="M0 0H18V36H0V0Z" fill="#FBBF24"/>
<path d="M18 0H36V36H18V0Z" fill="#F5F5F5"/>
<path d="M22.5721 13.0313C22.3041 12.7633 21.8645 12.771 21.6062 13.0547C21.3647 13.3201 21.3882 13.7343 21.6419 13.988L21.8991 14.2452C22.0239 14.37 22.0239 14.5718 21.8991 14.6966L21.1161 15.4796C20.9613 15.6344 20.9613 15.8856 21.1161 16.0404L21.6617 16.586C21.8166 16.7409 22.0672 16.7409 22.2221 16.586L23.0056 15.8025C23.1325 15.6757 23.3398 15.6782 23.4636 15.8097C23.5833 15.937 23.5706 16.1398 23.4473 16.2636L22.6735 17.0374C22.5186 17.1917 22.5186 17.4429 22.6735 17.5978L23.2191 18.1433C23.3739 18.2982 23.6246 18.2982 23.7794 18.1433L24.5629 17.3599C24.6872 17.2356 24.8895 17.2356 25.0138 17.3599L25.945 18.2911L26.6225 17.6135C26.7193 17.5173 26.8431 17.4551 26.9761 17.4352L22.5721 13.0313ZM31.4809 19.3578H29.6133C29.1676 19.3599 28.7371 19.1963 28.4218 18.881L28.4172 18.8764C28.3974 19.0058 28.3377 19.1301 28.2379 19.2294L27.7626 19.7047C27.6913 19.7766 27.6322 19.8576 27.5874 19.9452C27.8309 20.2452 27.9567 20.6248 27.9552 21.016V22.8835C27.9552 23.8031 28.7005 24.5483 29.62 24.5483H31.4809C32.4004 24.5483 33.1457 23.8031 33.1457 22.8835V21.0226C33.1457 20.1031 32.4004 19.3578 31.4809 19.3578ZM31.6852 22.261C31.8293 22.284 31.9679 22.3517 32.079 22.4628C32.2196 22.6034 32.2899 22.7878 32.2899 22.9722C32.2899 23.1566 32.2196 23.341 32.079 23.4816C31.9384 23.6222 31.7539 23.693 31.5695 23.693C31.3851 23.693 31.2007 23.6222 31.0601 23.4816C30.9485 23.3706 30.8813 23.232 30.8584 23.0878C30.6623 23.1704 30.4391 23.1704 30.2425 23.0878C30.2196 23.232 30.1518 23.3706 30.0408 23.4816C29.9002 23.6222 29.7157 23.693 29.5313 23.693C29.3469 23.693 29.1625 23.6222 29.0219 23.4816C28.8813 23.341 28.811 23.1566 28.811 22.9722C28.811 22.7878 28.8813 22.6034 29.0219 22.4628C29.133 22.3517 29.2715 22.284 29.4157 22.261C29.3332 22.0644 29.3332 21.8413 29.4157 21.6451C29.2715 21.6222 29.133 21.555 29.0219 21.4434C28.8813 21.3028 28.811 21.1184 28.811 20.934C28.811 20.7496 28.8813 20.5652 29.0219 20.4246C29.3031 20.1433 29.7596 20.1433 30.0408 20.4246C30.1518 20.5356 30.2196 20.6742 30.2425 20.8183C30.4391 20.7358 30.6623 20.7358 30.8584 20.8183C30.8813 20.6742 30.9485 20.5356 31.0601 20.4246C31.3413 20.1433 31.7978 20.1433 32.079 20.4246C32.2196 20.5652 32.2899 20.7496 32.2899 20.934C32.2899 21.1184 32.2196 21.3028 32.079 21.4434C31.9679 21.555 31.8293 21.6222 31.6852 21.6451C31.7677 21.8413 31.7677 22.0644 31.6852 22.261Z" fill="#737373"/>
<path d="M26.3831 19.7052L25.9078 19.2294C25.8079 19.1301 25.7483 19.0058 25.7285 18.8764L25.7239 18.881C25.4086 19.1963 24.9781 19.3599 24.5323 19.3578H22.6648C21.7453 19.3578 21 20.1031 21 21.0226V22.8835C21 23.8031 21.7453 24.5483 22.6648 24.5483H24.5257C25.4452 24.5483 26.1905 23.8031 26.1905 22.8835V21.016C26.189 20.6248 26.3148 20.2452 26.5583 19.9452C26.5135 19.8576 26.4544 19.7766 26.3831 19.7052ZM24.73 22.261C24.8742 22.284 25.0127 22.3517 25.1238 22.4628C25.2644 22.6034 25.3347 22.7878 25.3347 22.9722C25.3347 23.1566 25.2644 23.341 25.1238 23.4816C24.9832 23.6222 24.7988 23.693 24.6144 23.693C24.43 23.693 24.2455 23.6222 24.1049 23.4816C23.9939 23.3706 23.9261 23.232 23.9032 23.0878C23.7066 23.1704 23.4834 23.1704 23.2873 23.0878C23.2644 23.232 23.1971 23.3706 23.0856 23.4816C22.945 23.6222 22.7606 23.693 22.5762 23.693C22.3917 23.693 22.2073 23.6222 22.0667 23.4816C21.9261 23.341 21.8558 23.1566 21.8558 22.9722C21.8558 22.7878 21.9261 22.6034 22.0667 22.4628C22.1778 22.3517 22.3164 22.284 22.4605 22.261C22.378 22.0644 22.378 21.8413 22.4605 21.6451C22.3164 21.6222 22.1778 21.555 22.0667 21.4434C21.9261 21.3028 21.8558 21.1184 21.8558 20.934C21.8558 20.7496 21.9261 20.5652 22.0667 20.4246C22.3479 20.1433 22.8044 20.1433 23.0856 20.4246C23.1971 20.5356 23.2644 20.6742 23.2873 20.8183C23.4834 20.7358 23.7066 20.7358 23.9032 20.8183C23.9261 20.6742 23.9939 20.5356 24.1049 20.4246C24.3861 20.1433 24.8426 20.1433 25.1238 20.4246C25.2644 20.5652 25.3347 20.7496 25.3347 20.934C25.3347 21.1184 25.2644 21.3028 25.1238 21.4434C25.0127 21.555 24.8742 21.6222 24.73 21.6451C24.8125 21.8413 24.8125 22.0644 24.73 22.261ZM33.0295 15.4796L32.2466 14.6966C32.1218 14.5718 32.1218 14.37 32.2466 14.2452L32.5038 13.988C32.7575 13.7343 32.7809 13.3201 32.5395 13.0547C32.2812 12.771 31.8416 12.7633 31.5736 13.0313L27.1696 17.4352C27.3026 17.4551 27.4264 17.5173 27.5232 17.6135L28.2007 18.2911L29.1319 17.3599C29.2562 17.2356 29.4585 17.2356 29.5828 17.3599L30.3663 18.1433C30.5211 18.2982 30.7718 18.2982 30.9266 18.1433L31.4722 17.5978C31.6271 17.4429 31.6271 17.1917 31.4722 17.0374L30.6984 16.2636C30.5751 16.1398 30.5624 15.937 30.6821 15.8097C30.8059 15.6782 31.0132 15.6757 31.1401 15.8025L31.9236 16.586C32.0785 16.7409 32.3291 16.7409 32.484 16.586L33.0295 16.0404C33.1844 15.8856 33.1844 15.6344 33.0295 15.4796Z" fill="#FBBF24"/>
<path d="M28.4172 18.8765C28.3974 19.0059 28.3377 19.1302 28.2379 19.2296L27.7626 19.7049C27.6913 19.7767 27.6322 19.8577 27.5874 19.9453C27.5176 20.0798 27.4804 20.2301 27.4804 20.3844V25.5795C27.4804 25.7966 27.3164 25.9861 27.0998 26.0003C27.0907 26.0003 27.082 26.0013 27.0728 26.0013C27.0637 26.0013 27.055 26.0008 27.0458 26.0003C26.8293 25.9861 26.6653 25.7966 26.6653 25.5795V20.3844C26.6653 20.2301 26.6281 20.0798 26.5583 19.9453C26.5135 19.8577 26.4544 19.7767 26.3831 19.7054L25.9078 19.2296C25.8079 19.1302 25.7483 19.0059 25.7285 18.8765C25.6984 18.683 25.7585 18.4782 25.9078 18.3289L25.945 18.2912L26.6225 17.6137C26.7193 17.5174 26.8431 17.4552 26.9761 17.4354C27.0082 17.4303 27.0402 17.4277 27.0728 17.4277C27.1055 17.4277 27.1375 17.4303 27.1696 17.4354C27.3026 17.4552 27.4264 17.5174 27.5232 17.6137L28.2007 18.2912L28.2379 18.3289C28.3872 18.4782 28.4473 18.683 28.4172 18.8765Z" fill="#DC2626"/>
<path d="M29.7692 12.2134H27.3846V11.2643C27.6123 11.3198 27.8207 11.437 27.9908 11.6071C28.0132 11.6296 28.0341 11.6515 28.0535 11.6744C28.189 11.8303 28.2843 12.0157 28.3327 12.2134H28.9679C28.9119 11.8705 28.7631 11.5481 28.5369 11.2821C28.7387 11.3433 28.9241 11.4533 29.0779 11.6071C29.1004 11.6296 29.1212 11.6515 29.1406 11.6744C29.2761 11.8303 29.3714 12.0157 29.4198 12.2134H29.7692C29.9414 12.2134 30.0805 12.3524 30.0805 12.5246C30.0805 12.0616 29.9134 11.6148 29.6113 11.2674C29.5828 11.2343 29.5512 11.2001 29.5181 11.167C29.1559 10.8043 28.6735 10.6046 28.16 10.6046C27.9755 10.6046 27.7937 10.6311 27.6179 10.6831C27.542 10.6601 27.4636 10.6428 27.3846 10.6301V10.3132C27.3846 10.2276 27.35 10.1497 27.2934 10.0931C27.2369 10.0366 27.1595 10.002 27.0734 10.002C26.9012 10.002 26.7621 10.1415 26.7621 10.3132V10.6306C26.6836 10.6433 26.6062 10.6611 26.5308 10.6836C26.3546 10.6316 26.1717 10.6046 25.9862 10.6046C25.4289 10.6046 24.9007 10.8461 24.5364 11.2663C24.2333 11.6148 24.0657 12.0626 24.0657 12.5251C24.0657 12.3529 24.2048 12.2139 24.377 12.2139H24.7264C24.7748 12.0157 24.8706 11.8308 25.0061 11.6744C25.1676 11.4879 25.377 11.354 25.6083 11.2837C25.3821 11.5501 25.2343 11.8721 25.1783 12.2139H25.8136C25.8619 12.0157 25.9577 11.8308 26.0932 11.6744C26.27 11.4701 26.5043 11.329 26.7616 11.2653V12.2144H24.377C24.2048 12.2144 24.0657 12.3535 24.0657 12.5256C24.0657 12.6978 24.2048 12.8369 24.377 12.8369H25.0209C25.0499 12.8349 25.0785 12.8333 25.1085 12.8333H29.0377C29.0672 12.8333 29.0963 12.8349 29.1253 12.8369H29.7692C29.9414 12.8369 30.0805 12.6978 30.0805 12.5256C30.0805 12.3535 29.9414 12.2144 29.7692 12.2144V12.2134Z" fill="#FBBF24"/>
<path d="M28.6561 13.459H25.4896C25.3174 13.459 25.1783 13.5986 25.1783 13.7702C25.1783 13.9419 25.3179 14.0815 25.4896 14.0815H28.6561C28.8283 14.0815 28.9674 13.9419 28.9674 13.7702C28.9674 13.5986 28.8278 13.459 28.6561 13.459Z" fill="#FBBF24"/>
<path d="M27.7086 14.7051H26.4366C26.2644 14.7051 26.1253 14.8447 26.1253 15.0163C26.1253 15.188 26.2649 15.3276 26.4366 15.3276H27.7086C27.8808 15.3276 28.0199 15.188 28.0199 15.0163C28.0199 14.8447 27.8803 14.7051 27.7086 14.7051Z" fill="#FBBF24"/>
</g>
<defs>
<clipPath id="clip0_98_5234">
<rect width="36" height="36" rx="18" fill="white"/>
</clipPath>
</defs>
</svg>
