<svg width="36" height="36" viewBox="0 0 36 36" fill="none" xmlns="http://www.w3.org/2000/svg">
<g clip-path="url(#clip0_98_5277)">
<path d="M0 0H36V12H0V0Z" fill="#FBBF24"/>
<path d="M0 12H36V24H0V12Z" fill="#1E3A8A"/>
<path d="M0 24H36V36H0V24Z" fill="#EF4444"/>
<path d="M9.42074 18.2381L9.71681 19.0779C9.74903 19.1689 9.8335 19.2303 9.93016 19.2329L10.8206 19.2552C11.1571 19.2634 11.2956 19.6906 11.0282 19.8948L10.3211 20.436C10.2445 20.4943 10.2123 20.594 10.2397 20.6868L10.494 21.5401C10.5902 21.8628 10.2267 22.1266 9.94975 21.9355L9.21653 21.43C9.13729 21.3751 9.03236 21.3751 8.95312 21.43L8.2199 21.9355C7.94299 22.1266 7.57986 21.8628 7.67565 21.5401L7.92992 20.6868C7.95735 20.5944 7.92513 20.4947 7.8485 20.436L7.14054 19.8948C6.8732 19.6901 7.0121 19.2634 7.34823 19.2552L8.23862 19.2329C8.33485 19.2308 8.41975 19.1689 8.45197 19.0779L8.74804 18.2381C8.85994 17.9206 9.30884 17.9206 9.42074 18.2381Z" fill="#F5F5F5"/>
<path d="M14.8493 14.2381L15.1454 15.0779C15.1776 15.1689 15.2621 15.2303 15.3587 15.2329L16.2491 15.2552C16.5857 15.2634 16.7241 15.6906 16.4568 15.8948L15.7497 16.436C15.6731 16.4943 15.6409 16.594 15.6683 16.6868L15.9226 17.5401C16.0188 17.8628 15.6552 18.1266 15.3783 17.9355L14.6451 17.43C14.5659 17.3751 14.4609 17.3751 14.3817 17.43L13.6485 17.9355C13.3716 18.1266 13.0084 17.8628 13.1042 17.5401L13.3585 16.6868C13.3859 16.5944 13.3537 16.4947 13.2771 16.436L12.5691 15.8948C12.3018 15.6901 12.4407 15.2634 12.7768 15.2552L13.6672 15.2329C13.7634 15.2308 13.8483 15.1689 13.8805 15.0779L14.1766 14.2381C14.2885 13.9206 14.7374 13.9206 14.8493 14.2381Z" fill="#F5F5F5"/>
<path d="M21.9922 14.2381L22.2882 15.0779C22.3205 15.1689 22.4049 15.2303 22.5016 15.2329L23.392 15.2552C23.7286 15.2634 23.867 15.6906 23.5997 15.8948L22.8926 16.436C22.8159 16.4943 22.7837 16.594 22.8112 16.6868L23.0654 17.5401C23.1617 17.8628 22.7981 18.1266 22.5212 17.9355L21.788 17.43C21.7087 17.3751 21.6038 17.3751 21.5245 17.43L20.7913 17.9355C20.5144 18.1266 20.1513 17.8628 20.2471 17.5401L20.5014 16.6868C20.5288 16.5944 20.4966 16.4947 20.4199 16.436L19.712 15.8948C19.4446 15.6901 19.5835 15.2634 19.9197 15.2552L20.8101 15.2329C20.9063 15.2308 20.9912 15.1689 21.0234 15.0779L21.3195 14.2381C21.4314 13.9206 21.8803 13.9206 21.9922 14.2381Z" fill="#F5F5F5"/>
<path d="M27.4207 18.2381L27.7168 19.0779C27.749 19.1689 27.8335 19.2303 27.9302 19.2329L28.8206 19.2552C29.1571 19.2634 29.2956 19.6906 29.0282 19.8948L28.3211 20.436C28.2445 20.4943 28.2123 20.594 28.2397 20.6868L28.494 21.5401C28.5902 21.8628 28.2267 22.1266 27.9497 21.9355L27.2165 21.43C27.1373 21.3751 27.0324 21.3751 26.9531 21.43L26.2199 21.9355C25.943 22.1266 25.5799 21.8628 25.6756 21.5401L25.9299 20.6868C25.9574 20.5944 25.9251 20.4947 25.8485 20.436L25.1405 19.8948C24.8732 19.6901 25.0121 19.2634 25.3482 19.2552L26.2386 19.2329C26.3348 19.2308 26.4197 19.1689 26.452 19.0779L26.748 18.2381C26.8599 17.9206 27.3088 17.9206 27.4207 18.2381Z" fill="#F5F5F5"/>
</g>
<defs>
<clipPath id="clip0_98_5277">
<rect width="36" height="36" rx="18" fill="white"/>
</clipPath>
</defs>
</svg>
