<svg width="36" height="36" viewBox="0 0 36 36" fill="none" xmlns="http://www.w3.org/2000/svg">
<rect width="36" height="36" rx="18" fill="#EF4444"/>
<path d="M19.4726 11.8332L20.5088 14.7728C20.6216 15.0913 20.9172 15.3062 21.2555 15.3153L24.3719 15.393C25.5499 15.422 26.0345 16.9169 25.0988 17.6317L22.624 19.5259C22.3558 19.7301 22.243 20.079 22.339 20.4036L23.229 23.3905C23.5658 24.5197 22.2933 25.4432 21.3241 24.7742L18.7579 23.0049C18.4805 22.8129 18.1133 22.8129 17.8359 23.0049L15.2697 24.7742C14.3004 25.4432 13.0295 24.5197 13.3648 23.3905L14.2547 20.4036C14.3507 20.0806 14.238 19.7316 13.9698 19.5259L11.4919 17.6317C10.5562 16.9154 11.0423 15.422 12.2188 15.393L15.3352 15.3153C15.672 15.3077 15.9691 15.0913 16.0819 14.7728L17.1181 11.8332C17.5098 10.7223 19.0809 10.7223 19.4726 11.8332Z" fill="#FBBF24"/>
</svg>
