<svg width="36" height="36" viewBox="0 0 36 36" fill="none" xmlns="http://www.w3.org/2000/svg">
<rect width="36" height="36" rx="18" fill="#EF4444"/>
<path d="M0 0H22V18C22 19.1046 21.1046 20 20 20H0V0Z" fill="#1E3A8A"/>
<path d="M11.3265 3.72672L11.614 4.52661C11.6453 4.61328 11.7273 4.67175 11.8211 4.67424L12.6856 4.69538C13.0124 4.70326 13.1468 5.11005 12.8873 5.30453L12.2007 5.81996C12.1263 5.87553 12.0951 5.97049 12.1217 6.05881L12.3686 6.87156C12.462 7.17883 12.109 7.43012 11.8401 7.24808L11.1283 6.76665C11.0513 6.7144 10.9494 6.7144 10.8725 6.76665L10.1606 7.24808C9.89176 7.43012 9.5392 7.17883 9.6322 6.87156L9.87908 6.05881C9.90571 5.9709 9.87443 5.87594 9.80002 5.81996L9.11266 5.30453C8.8531 5.10964 8.98795 4.70326 9.3143 4.69538L10.1788 4.67424C10.2722 4.67216 10.3547 4.61328 10.3859 4.52661L10.6734 3.72672C10.782 3.42443 11.2179 3.42443 11.3265 3.72672Z" fill="#F5F5F5"/>
<path d="M6.70067 7.53531L6.98813 8.33521C7.01941 8.42187 7.10142 8.48034 7.19527 8.48283L8.05976 8.50398C8.38654 8.51186 8.52097 8.91864 8.26141 9.11312L7.57489 9.62856C7.50048 9.68412 7.4692 9.77908 7.49583 9.8674L7.74271 10.6802C7.83614 10.9874 7.48315 11.2387 7.21429 11.0567L6.50241 10.5752C6.42547 10.523 6.32359 10.523 6.24665 10.5752L5.53476 11.0567C5.2659 11.2387 4.91334 10.9874 5.00634 10.6802L5.25322 9.8674C5.27985 9.77949 5.24857 9.68454 5.17417 9.62856L4.4868 9.11312C4.22724 8.91823 4.36209 8.51186 4.68845 8.50398L5.55294 8.48283C5.64637 8.48076 5.7288 8.42187 5.76008 8.33521L6.04754 7.53531C6.15618 7.23302 6.59203 7.23302 6.70067 7.53531Z" fill="#F5F5F5"/>
<path d="M15.9524 7.53531L16.2398 8.33521C16.2711 8.42187 16.3531 8.48034 16.447 8.48283L17.3114 8.50398C17.6382 8.51186 17.7727 8.91864 17.5131 9.11312L16.8266 9.62856C16.7522 9.68412 16.7209 9.77908 16.7475 9.8674L16.9944 10.6802C17.0878 10.9874 16.7348 11.2387 16.466 11.0567L15.7541 10.5752C15.6772 10.523 15.5753 10.523 15.4983 10.5752L14.7864 11.0567C14.5176 11.2387 14.165 10.9874 14.258 10.6802L14.5049 9.8674C14.5315 9.77949 14.5003 9.68454 14.4259 9.62856L13.7385 9.11312C13.4789 8.91823 13.6138 8.51186 13.9401 8.50398L14.8046 8.48283C14.8981 8.48076 14.9805 8.42187 15.0118 8.33521L15.2992 7.53531C15.4079 7.23302 15.8437 7.23302 15.9524 7.53531Z" fill="#F5F5F5"/>
<path d="M11.3265 12.9181L11.614 13.718C11.6453 13.8047 11.7273 13.8632 11.8211 13.8656L12.6856 13.8868C13.0124 13.8947 13.1468 14.3015 12.8873 14.4959L12.2007 15.0114C12.1263 15.0669 12.0951 15.1619 12.1217 15.2502L12.3686 16.063C12.462 16.3702 12.109 16.6215 11.8401 16.4395L11.1283 15.9581C11.0513 15.9058 10.9494 15.9058 10.8725 15.9581L10.1606 16.4395C9.89176 16.6215 9.5392 16.3702 9.6322 16.063L9.87908 15.2502C9.90571 15.1623 9.87443 15.0673 9.80002 15.0114L9.11266 14.4959C8.8531 14.301 8.98795 13.8947 9.3143 13.8868L10.1788 13.8656C10.2722 13.8636 10.3547 13.8047 10.3859 13.718L10.6734 12.9181C10.782 12.6158 11.2179 12.6158 11.3265 12.9181Z" fill="#F5F5F5"/>
</svg>
