<svg width="36" height="36" viewBox="0 0 36 36" fill="none" xmlns="http://www.w3.org/2000/svg">
<g clip-path="url(#clip0_98_5504)">
<rect width="36" height="36" rx="18" fill="#F5F5F5"/>
<path d="M11.45 16.2398L5.75 12.1798L0 8.08984V10.7398L2.02 12.1798L9.25 17.3198C9.72 17.6498 9.72 18.3398 9.25 18.6698L2 23.8298L0 25.2498V27.8998L5.72 23.8298L11.45 19.7598C12.02 19.3598 12.36 18.6998 12.36 17.9998C12.36 17.2998 12.02 16.6398 11.45 16.2398Z" fill="#FBBF24"/>
<path d="M36 0V12.18H24.29C23.13 12.18 22.01 11.84 21.06 11.19L4.53 0H36Z" fill="#EF4444"/>
<path d="M36 23.8301V36.0001H4.52L21.06 24.8201C22.01 24.1701 23.13 23.8301 24.28 23.8301H36Z" fill="#3B82F6"/>
<path d="M36 14.34V21.67H23.62C22.47 21.67 21.35 22.01 20.39 22.66L18.66 23.83L0.67 36H0V27.9L5.72 23.83L11.45 19.76C12.02 19.36 12.36 18.7 12.36 18C12.36 17.3 12.02 16.64 11.45 16.24L5.75 12.18L0 8.09V0H0.68L18.67 12.18L20.39 13.35C21.34 14 22.47 14.34 23.62 14.34H36Z" fill="#22C55E"/>
<path d="M9.25 18.6702L2 23.8302L0 25.2502V10.7402L2.02 12.1802L9.25 17.3202C9.72 17.6502 9.72 18.3402 9.25 18.6702Z" fill="#262626"/>
</g>
<defs>
<clipPath id="clip0_98_5504">
<rect width="36" height="36" rx="18" fill="white"/>
</clipPath>
</defs>
</svg>
