<svg width="36" height="36" viewBox="0 0 36 36" fill="none" xmlns="http://www.w3.org/2000/svg">
<rect width="36" height="36" rx="18" fill="#22C55E"/>
<path d="M34.36 5.6393C33.02 6.2293 31.14 6.8693 29.19 6.9293C29.05 6.9293 28.93 6.8193 28.93 6.6793C28.93 6.4793 29.09 6.3093 29.3 6.3093H29.8C29.8 5.9693 29.56 5.6893 29.25 5.6093C29.19 5.2793 28.9 5.0293 28.55 5.0293H28.11C27.65 5.0293 27.28 5.3993 27.28 5.8593V6.3893C27.28 6.6893 27.03 6.9293 26.73 6.9193C24.86 6.8093 23.07 6.1993 21.79 5.6293C21.17 5.3593 20.61 6.0893 21.02 6.6193C22.02 7.9093 23.74 9.4293 26.52 9.8393C26.79 9.8793 26.99 10.1093 26.99 10.3793V10.9293C26.99 11.1793 27.18 11.3993 27.43 11.4093C27.68 11.4093 27.9 11.2093 27.9 10.9493V10.1093C27.9 10.0093 27.98 9.9293 28.08 9.9293C28.18 9.9293 28.26 10.0093 28.26 10.1093V10.9493C28.26 11.1993 28.47 11.4093 28.72 11.4093C28.97 11.4093 29.18 11.1993 29.18 10.9493V10.3793C29.18 10.1093 29.38 9.8793 29.65 9.8393C32.43 9.4193 34.16 7.8993 35.15 6.6193C35.56 6.0893 34.99 5.3593 34.37 5.6293L34.36 5.6393Z" fill="#FB923C"/>
<path d="M21 17C21 15.8954 21.8954 15 23 15H26V36H21V17Z" fill="#EF4444"/>
<path d="M26 15H31V36H26V15Z" fill="#262626"/>
<path d="M31 15H34C35.1046 15 36 15.8954 36 17V36H31V15Z" fill="#FB923C"/>
</svg>
