<svg width="36" height="36" viewBox="0 0 36 36" fill="none" xmlns="http://www.w3.org/2000/svg">
<g clip-path="url(#clip0_98_5597)">
<path d="M36 0H0V5.14H36V0Z" fill="#22C55E"/>
<path d="M36 5.14062H0V10.2806H36V5.14062Z" fill="#FBBF24"/>
<path d="M36 10.2891H0V15.4291H36V10.2891Z" fill="#EF4444"/>
<path d="M36 15.4297H0V20.5697H36V15.4297Z" fill="#262626"/>
<path d="M36 20.5703H0V25.7103H36V20.5703Z" fill="#EF4444"/>
<path d="M36 25.7109H0V30.8509H36V25.7109Z" fill="#FBBF24"/>
<path d="M36 30.8594H0V35.9994H36V30.8594Z" fill="#22C55E"/>
<path d="M19.35 19.86L18.57 20.57L12.92 25.71L7.26 30.85L3.06 34.68L1.61 35.99H0V0H1.6L3.05 1.32L7.26 5.15L12.92 10.29L18.58 15.43L19.36 16.14C20.46 17.14 20.46 18.87 19.36 19.87L19.35 19.86Z" fill="#F5F5F5"/>
<path d="M20.18 15.43C20.18 15.43 20.12 15.37 20.08 15.34L14.53 10.29L8.87 5.15L4.02 0.74L3.21 0H0L2.21 2.01L5.65 5.14L11.31 10.28L16.97 15.42L18.63 16.92C18.94 17.2 19.11 17.58 19.1 17.99C19.1 18.4 18.93 18.77 18.63 19.05L16.97 20.56L11.31 25.7L5.65 30.84L2.21 33.97L0 36H3.21L4.02 35.26L8.86 30.86L14.52 25.72L20.07 20.67C20.07 20.67 20.13 20.61 20.16 20.58C20.85 19.91 21.25 18.98 21.25 18.01C21.25 17.04 20.86 16.11 20.17 15.44L20.18 15.43Z" fill="#262626"/>
<path d="M8.7 12.8402L9.46 14.9602C9.54 15.1902 9.76 15.3402 10 15.3502L12.27 15.4102C13.13 15.4302 13.48 16.5102 12.8 17.0202L11 18.3802C10.8 18.5302 10.72 18.7802 10.79 19.0102L11.44 21.1602C11.69 21.9702 10.76 22.6402 10.05 22.1602L8.18 20.8902C7.98 20.7502 7.71 20.7502 7.51 20.8902L5.64 22.1602C4.93 22.6402 4.01 21.9802 4.25 21.1602L4.9 19.0102C4.97 18.7802 4.89 18.5302 4.69 18.3802L2.88 17.0202C2.2 16.5002 2.55 15.4302 3.41 15.4102L5.68 15.3502C5.93 15.3502 6.14 15.1902 6.22 14.9602L6.98 12.8402C7.27 12.0402 8.41 12.0402 8.7 12.8402Z" fill="#EF4444"/>
<path d="M8.64 16.1992H7.2C6.60354 16.1992 6.12 16.6828 6.12 17.2792V18.7192C6.12 19.3157 6.60354 19.7992 7.2 19.7992H8.64C9.23647 19.7992 9.72 19.3157 9.72 18.7192V17.2792C9.72 16.6828 9.23647 16.1992 8.64 16.1992Z" fill="#FBBF24"/>
</g>
<defs>
<clipPath id="clip0_98_5597">
<rect width="36" height="36" rx="18" fill="white"/>
</clipPath>
</defs>
</svg>
